<svg xmlns="http://www.w3.org/2000/svg" viewBox="0 0 1000 650" width="100%" height="100%">
  <defs>
    <!-- Sky & Background Gradients -->
    <linearGradient id="skyGrad" x1="0%" y1="0%" x2="0%" y2="100%">
      <stop offset="0%" stop-color="#4a90e2" />
      <stop offset="45%" stop-color="#99c5f1" />
      <stop offset="70%" stop-color="#fed6a3" />
      <stop offset="100%" stop-color="#fcaf72" />
    </linearGradient>

    <radialGradient id="sunGlow" cx="50%" cy="50%" r="50%">
      <stop offset="0%" stop-color="#fff8e7" stop-opacity="1" />
      <stop offset="35%" stop-color="#ffdf94" stop-opacity="0.8" />
      <stop offset="70%" stop-color="#ffa857" stop-opacity="0.3" />
      <stop offset="100%" stop-color="#ff7b39" stop-opacity="0" />
    </radialGradient>

    <linearGradient id="oceanGrad" x1="0%" y1="0%" x2="0%" y2="100%">
      <stop offset="0%" stop-color="#2a7b9b" />
      <stop offset="50%" stop-color="#1f5d77" />
      <stop offset="100%" stop-color="#18485d" />
    </linearGradient>

    <linearGradient id="roadGrad" x1="0%" y1="0%" x2="0%" y2="100%">
      <stop offset="0%" stop-color="#3c434d" />
      <stop offset="8%" stop-color="#484f5a" />
      <stop offset="100%" stop-color="#282d34" />
    </linearGradient>

    <!-- Bicycle Chrome & Metal Gradients -->
    <linearGradient id="chromeGrad" x1="0%" y1="0%" x2="0%" y2="100%">
      <stop offset="0%" stop-color="#f8fafc" />
      <stop offset="25%" stop-color="#cbd5e1" />
      <stop offset="50%" stop-color="#ffffff" />
      <stop offset="75%" stop-color="#94a3b8" />
      <stop offset="100%" stop-color="#e2e8f0" />
    </linearGradient>

    <linearGradient id="frameTeal" x1="0%" y1="0%" x2="100%" y2="100%">
      <stop offset="0%" stop-color="#14b8a6" />
      <stop offset="40%" stop-color="#0d9488" />
      <stop offset="80%" stop-color="#0f766e" />
      <stop offset="100%" stop-color="#115e59" />
    </linearGradient>

    <linearGradient id="leatherGrad" x1="0%" y1="0%" x2="100%" y2="50%">
      <stop offset="0%" stop-color="#854d0e" />
      <stop offset="40%" stop-color="#713f12" />
      <stop offset="80%" stop-color="#542e0c" />
      <stop offset="100%" stop-color="#3a1d05" />
    </linearGradient>

    <linearGradient id="brassGrad" x1="0%" y1="0%" x2="100%" y2="100%">
      <stop offset="0%" stop-color="#fef08a" />
      <stop offset="50%" stop-color="#eab308" />
      <stop offset="100%" stop-color="#a16207" />
    </linearGradient>

    <!-- Pelican Plumage & Beak Gradients -->
    <linearGradient id="pouchGrad" x1="0%" y1="0%" x2="100%" y2="50%">
      <stop offset="0%" stop-color="#a84334" />
      <stop offset="35%" stop-color="#8a3024" />
      <stop offset="70%" stop-color="#692219" />
      <stop offset="100%" stop-color="#4a150e" />
    </linearGradient>

    <linearGradient id="billHornGrad" x1="0%" y1="0%" x2="100%" y2="0%">
      <stop offset="0%" stop-color="#64748b" />
      <stop offset="50%" stop-color="#94a3b8" />
      <stop offset="80%" stop-color="#e2e8f0" />
      <stop offset="92%" stop-color="#facc15" />
      <stop offset="100%" stop-color="#dc2626" />
    </linearGradient>

    <linearGradient id="pelicanCrown" x1="0%" y1="0%" x2="0%" y2="100%">
      <stop offset="0%" stop-color="#fef08a" />
      <stop offset="60%" stop-color="#fde047" />
      <stop offset="100%" stop-color="#ca8a04" />
    </linearGradient>

    <linearGradient id="pelicanChestnut" x1="0%" y1="0%" x2="100%" y2="100%">
      <stop offset="0%" stop-color="#451a03" />
      <stop offset="60%" stop-color="#361402" />
      <stop offset="100%" stop-color="#240c01" />
    </linearGradient>

    <linearGradient id="pelicanBody" x1="0%" y1="0%" x2="100%" y2="100%">
      <stop offset="0%" stop-color="#64748b" />
      <stop offset="35%" stop-color="#475569" />
      <stop offset="70%" stop-color="#334155" />
      <stop offset="100%" stop-color="#1e293b" />
    </linearGradient>

    <filter id="softGlow" x="-20%" y="-20%" width="140%" height="140%">
      <feGaussianBlur stdDeviation="6" result="blur" />
      <feComposite in="SourceGraphic" in2="blur" operator="over" />
    </filter>
  </defs>

  <style>
    <![CDATA[
      /* Wheel rotations */
      @keyframes spinWheel {
        from { transform: rotate(0deg); }
        to { transform: rotate(360deg); }
      }
      .rotating-wheel-rear {
        transform-origin: 280px 470px;
        animation: spinWheel 0.8s linear infinite;
      }
      .rotating-wheel-front {
        transform-origin: 720px 470px;
        animation: spinWheel 0.8s linear infinite;
      }

      /* Crank assembly rotation */
      @keyframes spinCrank {
        from { transform: rotate(0deg); }
        to { transform: rotate(360deg); }
      }
      .rotating-crank {
        transform-origin: 470px 480px;
        animation: spinCrank 2s linear infinite;
      }
      .rotating-crank-far {
        transform-origin: 470px 480px;
        animation: spinCrank 2s linear infinite;
      }

      /* Subtle body cadence bobbing */
      @keyframes pelicanBob {
        0%, 100% { transform: translateY(0px) rotate(0deg); }
        25% { transform: translateY(-2.5px) rotate(-0.3deg); }
        50% { transform: translateY(0.5px) rotate(0deg); }
        75% { transform: translateY(-2.5px) rotate(0.3deg); }
      }
      .pelican-rider {
        transform-origin: 435px 335px;
        animation: pelicanBob 2s ease-in-out infinite;
      }

      /* Pouch slight harmonic stretch/breathing */
      @keyframes pouchFlex {
        0%, 100% { transform: scale(1, 1); }
        50% { transform: scale(1.02, 1.035); }
      }
      .pouch-elastic {
        transform-origin: 640px 170px;
        animation: pouchFlex 2s ease-in-out infinite;
      }

      /* Scenery motion */
      @keyframes roadScroll {
        0% { transform: translateX(0); }
        100% { transform: translateX(-80px); }
      }
      .road-lines {
        animation: roadScroll 0.35s linear infinite;
      }

      @keyframes waveScroll {
        0% { transform: translateX(0); }
        100% { transform: translateX(-160px); }
      }
      .moving-waves {
        animation: waveScroll 2.4s linear infinite;
      }
    ]]>
  </style>

  <!-- ==================== SCENIC COASTAL BACKGROUND ==================== -->
  <!-- Sky -->
  <rect x="0" y="0" width="1000" height="540" fill="url(#skyGrad)" />

  <!-- California Coastal Sun -->
  <circle cx="820" cy="180" r="140" fill="url(#sunGlow)" />
  <circle cx="820" cy="180" r="38" fill="#fffdfa" />

  <!-- Distant Headlands / Big Sur Cliffs -->
  <path d="M 0 380 Q 80 340 180 360 T 360 375 T 520 365 T 700 385 T 880 370 Q 940 375 1000 380 L 1000 440 L 0 440 Z" fill="#6d8299" opacity="0.45" />
  <path d="M 0 395 Q 120 370 240 388 T 480 382 T 760 396 T 1000 390 L 1000 445 L 0 445 Z" fill="#47627d" opacity="0.6" />

  <!-- Distant Pacific Ocean with Animated Moving Surf -->
  <rect x="0" y="420" width="1000" height="60" fill="url(#oceanGrad)" />
  <g class="moving-waves" opacity="0.5">
    <path d="M 0 435 Q 20 432 40 435 T 80 435 T 120 435 T 160 435 T 200 435 T 240 435 T 280 435 T 320 435 T 360 435 T 400 435 T 440 435 T 480 435 T 520 435 T 560 435 T 600 435 T 640 435 T 680 435 T 720 435 T 760 435 T 800 435 T 840 435 T 880 435 T 920 435 T 960 435 T 1000 435 T 1040 435 T 1080 435 T 1120 435 T 1160 435" fill="none" stroke="#e0f2fe" stroke-width="1.8" />
    <path d="M -40 450 Q -20 447 0 450 T 40 450 T 80 450 T 120 450 T 160 450 T 200 450 T 240 450 T 280 450 T 320 450 T 360 450 T 400 450 T 440 450 T 480 450 T 520 450 T 560 450 T 600 450 T 640 450 T 680 450 T 720 450 T 760 450 T 800 450 T 840 450 T 880 450 T 920 450 T 960 450 T 1000 450 T 1040 450 T 1080 450 T 1120 450 T 1160 450" fill="none" stroke="#bae6fd" stroke-width="2" />
  </g>

  <!-- Distant Pelicans Gliding in Formation in Sky -->
  <g fill="#334155" opacity="0.7">
    <path d="M 210 120 Q 220 112 230 118 Q 240 112 250 120 Q 230 122 210 120 Z" />
    <path d="M 245 138 Q 253 131 261 136 Q 269 131 277 138 Q 261 140 245 138 Z" />
    <path d="M 275 152 Q 282 146 289 150 Q 296 146 303 152 Q 289 154 275 152 Z" />
  </g>

  <!-- Coastal Dunes & Embankment -->
  <path d="M 0 475 Q 160 460 320 472 T 640 468 T 1000 470 L 1000 520 L 0 520 Z" fill="#d4a373" />
  <path d="M 0 495 Q 180 482 360 492 T 720 488 T 1000 492 L 1000 530 L 0 530 Z" fill="#b08968" />

  <!-- Roadway & Shoulder -->
  <rect x="0" y="520" width="1000" height="130" fill="url(#roadGrad)" />
  <line x1="0" y1="521" x2="1000" y2="521" stroke="#94a3b8" stroke-width="2" opacity="0.6" />
  <line x1="0" y1="528" x2="1000" y2="528" stroke="#ffffff" stroke-width="3" opacity="0.85" />
  
  <!-- Moving Animated Road Center Stripes -->
  <g class="road-lines">
    <line x1="0" y1="610" x2="1120" y2="610" stroke="#facc15" stroke-width="5" stroke-dasharray="45 35" stroke-linecap="round" opacity="0.9" />
  </g>

  <!-- Bike & Rider Ground Contact Shadows -->
  <ellipse cx="280" cy="561" rx="42" ry="7" fill="#181c22" opacity="0.75" />
  <ellipse cx="720" cy="561" rx="42" ry="7" fill="#181c22" opacity="0.75" />
  <ellipse cx="490" cy="563" rx="140" ry="11" fill="#13171d" opacity="0.65">
    <animate attributeName="rx" values="140; 146; 140; 146; 140" dur="2s" repeatCount="indefinite" />
  </ellipse>

  <!-- ==================== FAR SIDE BICYCLE COMPONENTS ==================== -->
  <!-- Far Pedal & Far Crank Arm (offset 180 deg, behind frame & body) -->
  <g class="rotating-crank-far">
    <!-- Continuous SMIL rotation around BB center (470, 480) starting at 180 deg -->
    <animateTransform attributeName="transform" type="rotate" from="180 470 480" to="540 470 480" dur="2s" repeatCount="indefinite" />
    <!-- Far Crank Arm -->
    <line x1="470" y1="480" x2="470" y2="432" stroke="#64748b" stroke-width="8" stroke-linecap="round" />
    <circle cx="470" cy="480" r="10" fill="#475569" />
    <!-- Far Pedal Spindle & Platform (revolving around BB, counter-rotating to stay horizontal) -->
    <g transform="translate(470, 432)">
      <animateTransform attributeName="transform" type="rotate" from="0 0 0" to="-360 0 0" dur="2s" repeatCount="indefinite" />
      <rect x="-16" y="-4" width="32" height="8" rx="2" fill="#334155" stroke="#1e293b" stroke-width="1.5" />
      <rect x="-10" y="-2" width="20" height="4" fill="#d97706" />
    </g>
  </g>

  <!-- ==================== PELICAN FAR LEG (BEHIND FRAME) ==================== -->
  <!-- Fully animated leg: Hip(426,323) -> Knee -> Far Pedal Spindle(revolving 180 deg out of phase) -->
  <path id="far-pelican-leg" fill="#2d3748" stroke="#1a202c" stroke-width="2" stroke-linejoin="round">
    <animate attributeName="d" dur="2s" repeatCount="indefinite" keyTimes="0; 0.125; 0.25; 0.375; 0.5; 0.625; 0.75; 0.875; 1"
      values="
        M 426 323 Q 465 410 478 416 Q 482 426 474 514 L 492 526 L 456 526 L 460 514 Q 458 428 441 346 Z;
        M 426 323 Q 475 405 488 411 Q 492 421 440 500 L 458 512 L 422 512 L 426 500 Q 468 423 441 346 Z;
        M 426 323 Q 492 392 505 398 Q 509 408 426 466 L 444 478 L 408 478 L 412 466 Q 485 410 441 346 Z;
        M 426 323 Q 512 364 525 370 Q 529 380 440 432 L 458 444 L 422 444 L 426 432 Q 505 382 441 346 Z;
        M 426 323 Q 520 329 533 335 Q 537 345 474 418 L 492 430 L 456 430 L 460 418 Q 513 347 441 346 Z;
        M 426 323 Q 520 330 533 336 Q 537 346 508 432 L 526 444 L 490 444 L 494 432 Q 513 348 441 346 Z;
        M 426 323 Q 513 362 526 368 Q 530 378 522 466 L 540 478 L 504 478 L 508 466 Q 506 380 441 346 Z;
        M 426 323 Q 487 397 500 403 Q 504 413 508 500 L 526 512 L 490 512 L 494 500 Q 480 415 441 346 Z;
        M 426 323 Q 465 410 478 416 Q 482 426 474 514 L 492 526 L 456 526 L 460 514 Q 458 428 441 346 Z
      " />
  </path>

  <!-- ==================== BICYCLE WHEELS (SPOKED & ROTATING) ==================== -->
  <!-- REAR WHEEL ASSEMBLY (Axle at 280, 470) -->
  <g id="rear-wheel-system">
    <!-- Non-rotating Tire Base & Rim Base -->
    <circle cx="280" cy="470" r="90" fill="#202428" stroke="#111315" stroke-width="4" />
    <circle cx="280" cy="470" r="84" fill="none" stroke="#d97706" stroke-width="5" opacity="0.85" />
    <circle cx="280" cy="470" r="79" fill="none" stroke="url(#chromeGrad)" stroke-width="6" />

    <!-- Rotating Spokes, Valve, and Reflector -->
    <g class="rotating-wheel-rear">
      <animateTransform attributeName="transform" type="rotate" from="0 280 470" to="360 280 470" dur="0.8s" repeatCount="indefinite" />
      <!-- 16 Radial Steel Spokes (8 Diameter Lines) -->
      <line x1="280" y1="392" x2="280" y2="548" stroke="#cbd5e1" stroke-width="1.8" opacity="0.9" />
      <line x1="202" y1="470" x2="358" y2="470" stroke="#cbd5e1" stroke-width="1.8" opacity="0.9" />
      <line x1="225" y1="415" x2="335" y2="525" stroke="#cbd5e1" stroke-width="1.8" opacity="0.9" />
      <line x1="225" y1="525" x2="335" y2="415" stroke="#cbd5e1" stroke-width="1.8" opacity="0.9" />
      <line x1="208" y1="440" x2="352" y2="500" stroke="#cbd5e1" stroke-width="1.8" opacity="0.9" />
      <line x1="250" y1="398" x2="310" y2="542" stroke="#cbd5e1" stroke-width="1.8" opacity="0.9" />
      <line x1="310" y1="398" x2="250" y2="542" stroke="#cbd5e1" stroke-width="1.8" opacity="0.9" />
      <line x1="352" y1="440" x2="208" y2="500" stroke="#cbd5e1" stroke-width="1.8" opacity="0.9" />

      <!-- Amber Spoke Reflector -->
      <rect x="274" y="420" width="12" height="22" rx="3" fill="#f59e0b" stroke="#b45309" stroke-width="1" />
      <!-- Valve Stem -->
      <line x1="280" y1="392" x2="280" y2="399" stroke="#94a3b8" stroke-width="3" stroke-linecap="round" />
    </g>

    <!-- Chrome Hub & Axle Nut -->
    <circle cx="280" cy="470" r="14" fill="url(#chromeGrad)" stroke="#64748b" stroke-width="1.5" />
    <circle cx="280" cy="470" r="5" fill="#334155" />
  </g>

  <!-- FRONT WHEEL ASSEMBLY (Axle at 720, 470) -->
  <g id="front-wheel-system">
    <!-- Non-rotating Tire Base & Rim Base -->
    <circle cx="720" cy="470" r="90" fill="#202428" stroke="#111315" stroke-width="4" />
    <circle cx="720" cy="470" r="84" fill="none" stroke="#d97706" stroke-width="5" opacity="0.85" />
    <circle cx="720" cy="470" r="79" fill="none" stroke="url(#chromeGrad)" stroke-width="6" />

    <!-- Rotating Spokes, Valve, and Reflector -->
    <g class="rotating-wheel-front">
      <animateTransform attributeName="transform" type="rotate" from="0 720 470" to="360 720 470" dur="0.8s" repeatCount="indefinite" />
      <!-- 16 Radial Steel Spokes (8 Diameter Lines) -->
      <line x1="720" y1="392" x2="720" y2="548" stroke="#cbd5e1" stroke-width="1.8" opacity="0.9" />
      <line x1="642" y1="470" x2="798" y2="470" stroke="#cbd5e1" stroke-width="1.8" opacity="0.9" />
      <line x1="665" y1="415" x2="775" y2="525" stroke="#cbd5e1" stroke-width="1.8" opacity="0.9" />
      <line x1="665" y1="525" x2="775" y2="415" stroke="#cbd5e1" stroke-width="1.8" opacity="0.9" />
      <line x1="648" y1="440" x2="792" y2="500" stroke="#cbd5e1" stroke-width="1.8" opacity="0.9" />
      <line x1="690" y1="398" x2="750" y2="542" stroke="#cbd5e1" stroke-width="1.8" opacity="0.9" />
      <line x1="750" y1="398" x2="690" y2="542" stroke="#cbd5e1" stroke-width="1.8" opacity="0.9" />
      <line x1="792" y1="440" x2="648" y2="500" stroke="#cbd5e1" stroke-width="1.8" opacity="0.9" />

      <!-- Amber Spoke Reflector -->
      <rect x="714" y="420" width="12" height="22" rx="3" fill="#f59e0b" stroke="#b45309" stroke-width="1" />
      <!-- Valve Stem -->
      <line x1="720" y1="392" x2="720" y2="399" stroke="#94a3b8" stroke-width="3" stroke-linecap="round" />
    </g>

    <!-- Chrome Hub & Axle Nut -->
    <circle cx="720" cy="470" r="14" fill="url(#chromeGrad)" stroke="#64748b" stroke-width="1.5" />
    <circle cx="720" cy="470" r="5" fill="#334155" />
  </g>

  <!-- ==================== BICYCLE FRAME & RIGID COMPONENTS ==================== -->
  <!-- Rear Fender / Mudguard & Chrome Stays -->
  <path d="M 200 485 A 96 96 0 0 1 355 405" fill="none" stroke="url(#frameTeal)" stroke-width="10" stroke-linecap="round" />
  <path d="M 204 483 A 94 94 0 0 1 351 407" fill="none" stroke="#f0fdfa" stroke-width="1.5" />
  <line x1="280" y1="470" x2="204" y2="483" stroke="#94a3b8" stroke-width="2" />
  <line x1="280" y1="470" x2="351" y2="407" stroke="#94a3b8" stroke-width="2" />
  <!-- Rear Red Safety Reflector on Fender -->
  <circle cx="198" cy="485" r="5" fill="#ef4444" stroke="#991b1b" stroke-width="1" />

  <!-- Front Fender / Mudguard & Chrome Stays -->
  <path d="M 645 425 A 96 96 0 0 1 785 420" fill="none" stroke="url(#frameTeal)" stroke-width="10" stroke-linecap="round" />
  <path d="M 648 427 A 94 94 0 0 1 782 422" fill="none" stroke="#f0fdfa" stroke-width="1.5" />
  <line x1="720" y1="470" x2="648" y2="427" stroke="#94a3b8" stroke-width="2" />
  <line x1="720" y1="470" x2="782" y2="422" stroke="#94a3b8" stroke-width="2" />

  <!-- Rear Cog, Chain & Chainguard -->
  <circle cx="280" cy="470" r="18" fill="#475569" stroke="#334155" stroke-width="2" />
  <!-- Chain loops between BB(470,480) and Rear Axle(280,470) -->
  <line x1="280" y1="456" x2="470" y2="452" stroke="#94a3b8" stroke-width="3" stroke-dasharray="5 3" />
  <line x1="280" y1="484" x2="470" y2="508" stroke="#94a3b8" stroke-width="3" stroke-dasharray="5 3" />

  <!-- Diamond Bicycle Frame Tubes -->
  <!-- Chainstays: Rear Axle (280,470) -> BB (470,480) -->
  <line x1="280" y1="470" x2="470" y2="480" stroke="url(#frameTeal)" stroke-width="9" stroke-linecap="round" />
  <!-- Seatstays: Rear Axle (280,470) -> Seat Cluster (420,330) -->
  <line x1="280" y1="470" x2="420" y2="330" stroke="url(#frameTeal)" stroke-width="8" stroke-linecap="round" />
  <!-- Seat Tube: BB (470,480) -> Seat Cluster (420,330) -> Seat Clamp (414,316) -->
  <line x1="470" y1="480" x2="414" y2="316" stroke="url(#frameTeal)" stroke-width="10" stroke-linecap="round" />
  <!-- Down Tube: BB (470,480) -> Head Tube Bottom (672,320) -->
  <line x1="470" y1="480" x2="672" y2="320" stroke="url(#frameTeal)" stroke-width="12" stroke-linecap="round" />
  <!-- Top Tube: Seat Cluster (420,330) -> Head Tube Top (656,275) -->
  <line x1="420" y1="330" x2="656" y2="275" stroke="url(#frameTeal)" stroke-width="10" stroke-linecap="round" />
  <!-- Head Tube: (656,275) -> (672,320) -->
  <line x1="656" y1="275" x2="672" y2="320" stroke="url(#frameTeal)" stroke-width="13" stroke-linecap="round" />
  <!-- Front Fork: Crown (672,320) curving down to Front Axle (720,470) -->
  <path d="M 672 320 Q 682 390 720 470" fill="none" stroke="url(#frameTeal)" stroke-width="10" stroke-linecap="round" />

  <!-- Frame Accents & Head Badge -->
  <circle cx="664" cy="298" r="5" fill="#facc15" stroke="#ca8a04" stroke-width="1" />
  <!-- Retro Chainguard teardrop -->
  <path d="M 430 460 Q 480 445 500 480 Q 490 505 450 495 L 340 480 Q 330 470 340 465 Z" fill="url(#frameTeal)" stroke="#0f766e" stroke-width="1.5" opacity="0.9" />

  <!-- Seatpost & Saddle Assembly -->
  <!-- Fluted Chrome Seatpost -->
  <line x1="416" y1="320" x2="410" y2="300" stroke="url(#chromeGrad)" stroke-width="7" stroke-linecap="round" />
  <!-- Saddle Support Chrome Springs & Rails -->
  <circle cx="395" cy="303" r="5" fill="none" stroke="url(#chromeGrad)" stroke-width="2.5" />
  <circle cx="403" cy="303" r="5" fill="none" stroke="url(#chromeGrad)" stroke-width="2.5" />
  <line x1="390" y1="300" x2="422" y2="300" stroke="url(#chromeGrad)" stroke-width="3" />
  <!-- Classic Leather Riveted Touring Saddle -->
  <path d="M 374 294 C 382 288 412 289 425 295 C 438 301 432 305 422 305 C 400 305 390 303 376 301 C 370 300 368 296 374 294 Z" fill="url(#leatherGrad)" stroke="#271505" stroke-width="1.5" />
  <!-- Copper Rivets on Saddle -->
  <circle cx="377" cy="298" r="1.5" fill="#f59e0b" />
  <circle cx="384" cy="299" r="1.5" fill="#f59e0b" />
  <circle cx="392" cy="300" r="1.5" fill="#f59e0b" />

  <!-- Handlebar, Stem & Cockpit Controls -->
  <!-- Chrome Quill Stem -->
  <path d="M 656 275 L 650 236 L 666 232" fill="none" stroke="url(#chromeGrad)" stroke-width="7" stroke-linecap="round" stroke-linejoin="round" />
  <!-- Swept Cruiser Handlebars -->
  <path d="M 666 232 C 674 230 678 222 668 220 C 655 218 638 226 638 234" fill="none" stroke="url(#chromeGrad)" stroke-width="6" stroke-linecap="round" />
  <!-- Handgrip (Leather / Rubber) -->
  <path d="M 645 230 L 636 235" stroke="#78350f" stroke-width="7" stroke-linecap="round" />
  <!-- Vintage Brass Bicycle Bell on Handlebar -->
  <ellipse cx="664" cy="218" rx="6" ry="5" fill="url(#brassGrad)" stroke="#854d0e" stroke-width="1" />
  <circle cx="662" cy="214" r="2" fill="#fef08a" />
  <!-- Chrome Bullet Headlight with Beam -->
  <path d="M 678 282 L 696 276 L 696 294 L 678 288 Z" fill="url(#chromeGrad)" stroke="#475569" stroke-width="1.5" />
  <ellipse cx="696" cy="285" rx="2.5" ry="9" fill="#fef08a" />
  <!-- Soft Headlight Glow -->
  <polygon points="698,280 820,240 820,340 698,290" fill="#fef08a" opacity="0.12" filter="url(#softGlow)" />

  <!-- Front Wicker Basket with a Rolled Map and Fish Tail -->
  <rect x="678" y="240" width="34" height="26" rx="4" fill="#d97706" stroke="#92400e" stroke-width="1.5" opacity="0.95" />
  <path d="M 678 248 L 712 248 M 678 256 L 712 256 M 686 240 L 686 266 M 696 240 L 696 266 M 704 240 L 704 266" stroke="#78350f" stroke-width="1" />
  <!-- Fresh Catch Sardine Tail peeking out of basket! -->
  <path d="M 700 242 Q 706 230 714 226 Q 716 236 708 244 Z" fill="#94a3b8" stroke="#475569" stroke-width="1" />
  <path d="M 714 226 L 722 222 L 720 230 L 726 234 L 716 236 Z" fill="#64748b" stroke="#334155" stroke-width="1" />

  <!-- ==================== THE CALIFORNIA BROWN PELICAN (RIDER) ==================== -->
  <g class="pelican-rider">
    <!-- Tail Feathers extending back over saddle -->
    <path d="M 378 300 Q 340 310 326 318 Q 345 324 372 316 Q 384 310 395 304 Z" fill="#334155" stroke="#1e293b" stroke-width="1.5" />
    <path d="M 368 305 Q 335 316 322 328 Q 345 330 376 320 Z" fill="#475569" stroke="#1e293b" stroke-width="1.2" />

    <!-- Main Torso / Body (Seated firmly on the saddle) -->
    <path d="M 380 298 C 370 270 395 240 435 228 C 475 216 525 220 545 250 C 560 272 555 300 535 322 C 505 345 450 350 415 330 C 390 316 382 306 380 298 Z" fill="url(#pelicanBody)" stroke="#1e293b" stroke-width="2" />

    <!-- Flank Feathers Scalloping -->
    <path d="M 425 248 Q 445 242 465 248 Q 485 242 505 250" fill="none" stroke="#94a3b8" stroke-width="2" stroke-linecap="round" opacity="0.6" />
    <path d="M 415 270 Q 440 264 465 270 Q 490 264 515 272" fill="none" stroke="#94a3b8" stroke-width="2" stroke-linecap="round" opacity="0.6" />
    <path d="M 410 292 Q 435 286 460 292 Q 485 286 510 294" fill="none" stroke="#94a3b8" stroke-width="2" stroke-linecap="round" opacity="0.6" />

    <!-- Majestic S-Curved Muscular Neck -->
    <!-- Hindneck (Rich dark chestnut breeding plumage) -->
    <path d="M 522 232 C 540 200 550 165 528 142 C 516 130 522 110 546 104 C 558 101 568 112 562 126 C 554 144 564 168 578 190 C 588 206 584 232 554 246 Z" fill="url(#pelicanChestnut)" stroke="#1c0a02" stroke-width="1.8" />
    
    <!-- Foreneck (Creamy white racing stripe down throat) -->
    <path d="M 552 116 C 542 128 544 148 554 168 C 565 190 568 214 550 236 C 542 242 532 246 524 236 C 540 216 540 192 532 170 C 524 148 528 128 542 114 Z" fill="#f8fafc" stroke="#e2e8f0" stroke-width="1" />

    <!-- Distinctive Pelican Head & Crest -->
    <g id="pelican-head">
      <!-- Straw-Yellow Crown & Crest Feathers -->
      <path d="M 544 105 C 532 98 522 96 512 99 C 524 106 534 108 538 112 C 530 114 520 116 515 120 C 526 122 536 120 545 116 Z" fill="url(#pelicanCrown)" stroke="#ca8a04" stroke-width="1" />
      <path d="M 540 106 C 555 94 582 98 592 112 C 596 118 594 126 586 132 C 570 140 550 136 542 122 Z" fill="url(#pelicanCrown)" stroke="#ca8a04" stroke-width="1.5" />

      <!-- White Face Patch & Bare Pinkish Orbital Ring -->
      <path d="M 570 110 C 585 112 590 120 584 130 C 576 135 565 132 564 122 Z" fill="#ffffff" />
      <circle cx="578" cy="119" r="6" fill="#f87171" opacity="0.85" />
      <!-- Pelican Eye: Sharp, focused cyclist gaze with catchlight & SMIL blink -->
      <circle cx="578" cy="119" r="3.5" fill="#0f172a" />
      <circle cx="579.2" cy="117.8" r="1.2" fill="#ffffff" />
      <!-- Animated blinking eyelid -->
      <ellipse cx="578" cy="119" rx="4" ry="4" fill="#e2e8f0" opacity="0">
        <animate attributeName="opacity" values="0; 0; 1; 0; 0" keyTimes="0; 0.95; 0.97; 0.99; 1" dur="4s" repeatCount="indefinite" />
        <animate attributeName="ry" values="0; 0; 4; 0; 0" keyTimes="0; 0.95; 0.97; 0.99; 1" dur="4s" repeatCount="indefinite" />
      </ellipse>

      <!-- Giant Distensible Gular Pouch (California Brown Pelican characteristic) -->
      <g class="pouch-elastic">
        <path d="M 584 134 C 610 156 640 216 685 186 C 715 166 732 154 748 150 C 700 162 650 164 605 142 Z" fill="url(#pouchGrad)" stroke="#451109" stroke-width="1.8" />
        <!-- Pouch texture / elasticity folds -->
        <path d="M 605 145 Q 632 185 668 184" fill="none" stroke="#f87171" stroke-width="1" opacity="0.35" />
        <path d="M 622 148 Q 646 182 680 178" fill="none" stroke="#f87171" stroke-width="1" opacity="0.35" />
      </g>

      <!-- Upper Mandible: Long, sturdy bill with sharp terminal nail hook -->
      <path d="M 586 122 L 748 144 C 758 146 762 154 756 158 C 752 160 748 156 746 152 L 584 134 Z" fill="url(#billHornGrad)" stroke="#334155" stroke-width="1.8" stroke-linejoin="round" />
      <!-- Nostril Ridge & Grooves -->
      <line x1="592" y1="125" x2="736" y2="145" stroke="#475569" stroke-width="1" stroke-linecap="round" />

      <!-- Stylish Vintage Cycling Cap perched jauntily on head -->
      <path d="M 548 100 C 565 92 588 95 596 108 L 616 109 C 618 111 614 115 600 114 C 594 114 584 112 576 112 Z" fill="#0f766e" stroke="#134e4a" stroke-width="1.5" />
      <path d="M 548 100 Q 568 94 590 102" fill="none" stroke="#facc15" stroke-width="2" />
    </g>

    <!-- Near Wing: Folded naturally along body, curving forward to grip handlebar grip -->
    <g id="pelican-wing-arm">
      <!-- Wing Coverts & Shoulder (Carpal Joint pushing forward) -->
      <path d="M 430 240 C 460 220 510 216 540 236 C 555 246 565 265 570 290 C 550 310 500 318 450 305 C 425 295 418 265 430 240 Z" fill="#475569" stroke="#1e293b" stroke-width="2" />
      <!-- Silvery-slate feather covert scales -->
      <path d="M 450 252 Q 475 244 500 252 Q 525 244 545 258" fill="none" stroke="#cbd5e1" stroke-width="1.8" opacity="0.75" />
      <path d="M 440 274 Q 470 264 500 274 Q 530 264 555 280" fill="none" stroke="#cbd5e1" stroke-width="1.8" opacity="0.75" />
      
      <!-- Primary Flight Feathers wrapping down around the handlebar grip at (640, 230) -->
      <path d="M 540 246 C 565 240 600 232 638 230 C 646 230 648 238 642 242 C 625 252 580 268 546 276 Z" fill="#1e293b" stroke="#0f172a" stroke-width="1.5" />
      <!-- Wing "Fingers" / primary feather tips securely holding the grip -->
      <path d="M 636 228 C 642 226 648 232 645 238 C 640 244 634 242 632 236 Z" fill="#0f172a" />
      <path d="M 640 230 C 646 229 650 235 647 241 C 643 246 638 244 636 238 Z" fill="#1e293b" />
    </g>

    <!-- Flank Feather Plume overlaying the Hip Joint -->
    <path d="M 412 312 C 430 326 444 344 446 352 C 452 336 462 320 472 308 C 450 298 428 302 412 312 Z" fill="#475569" stroke="#334155" stroke-width="1.5" />
  </g>

  <!-- ==================== BICYCLE DRIVETRAIN (NEAR CRANK & CHAINRING) ==================== -->
  <!-- Vintage 5-Arm Chrome Chainring (Centered at 470, 480) -->
  <circle cx="470" cy="480" r="34" fill="none" stroke="url(#chromeGrad)" stroke-width="6" />
  <circle cx="470" cy="480" r="32" fill="none" stroke="#475569" stroke-width="2" stroke-dasharray="4 3" />
  <circle cx="470" cy="480" r="16" fill="url(#chromeGrad)" stroke="#475569" stroke-width="1.5" />
  <!-- Chainring 5 cutouts -->
  <circle cx="470" cy="460" r="5" fill="#334155" opacity="0.6" />
  <circle cx="489" cy="474" r="5" fill="#334155" opacity="0.6" />
  <circle cx="482" cy="496" r="5" fill="#334155" opacity="0.6" />
  <circle cx="458" cy="496" r="5" fill="#334155" opacity="0.6" />
  <circle cx="451" cy="474" r="5" fill="#334155" opacity="0.6" />

  <!-- NEAR PEDAL & CRANK ASSEMBLY -->
  <!-- Revolves smoothly 360 deg around Bottom Bracket Spindle (470, 480) -->
  <g class="rotating-crank">
    <animateTransform attributeName="transform" type="rotate" from="0 470 480" to="360 470 480" dur="2s" repeatCount="indefinite" />
    
    <!-- Polished Chrome Crank Arm (Length 48px, BB at 470,480 to Spindle at 470,432) -->
    <line x1="470" y1="480" x2="470" y2="432" stroke="url(#chromeGrad)" stroke-width="10" stroke-linecap="round" />
    <circle cx="470" cy="480" r="12" fill="url(#chromeGrad)" stroke="#64748b" stroke-width="1.5" />
    <circle cx="470" cy="480" r="4" fill="#334155" />

    <!-- Near Pedal Platform (Revolving around BB, counter-rotating to stay level under foot) -->
    <g transform="translate(470, 432)">
      <animateTransform attributeName="transform" type="rotate" from="0 0 0" to="-360 0 0" dur="2s" repeatCount="indefinite" />
      
      <!-- Pedal Spindle Cap -->
      <circle cx="0" cy="0" r="4.5" fill="#94a3b8" />
      <!-- Alloy Pedal Platform Body -->
      <rect x="-18" y="-4" width="36" height="8" rx="2.5" fill="#1e293b" stroke="url(#chromeGrad)" stroke-width="1.5" />
      <!-- Serrated Grip Teeth -->
      <line x1="-16" y1="-4" x2="16" y2="-4" stroke="#e2e8f0" stroke-width="1.5" stroke-dasharray="3 2" />
      <!-- Amber Safety Reflector -->
      <rect x="-12" y="-2" width="24" height="4" fill="#f59e0b" stroke="#b45309" stroke-width="0.8" />
    </g>
  </g>

  <!-- ==================== PELICAN NEAR LEG & WEBBED FOOT ==================== -->
  <!-- 
    Pure synchronized animation:
    Hip Joint: fixed at (435, 335)
    Knee Joint: flexes forward & down
    Ankle / Foot: rides directly on the revolving near pedal spindle P(t) = (470+48*sin θ, 480-48*cos θ)
    Period = exactly 2.0s, synchronized with crank rotation!
  -->
  <path id="near-pelican-leg" fill="#475569" stroke="#1e293b" stroke-width="2.5" stroke-linejoin="round">
    <animate attributeName="d" dur="2s" repeatCount="indefinite" keyTimes="0; 0.125; 0.25; 0.375; 0.5; 0.625; 0.75; 0.875; 1"
      values="
        M 430 325 Q 520 329 533 335 Q 537 345 474 418 L 492 430 L 456 430 L 460 418 Q 513 347 445 348 Z;
        M 430 325 Q 520 330 533 336 Q 537 346 508 432 L 526 444 L 490 444 L 494 432 Q 513 348 445 348 Z;
        M 430 325 Q 513 362 526 368 Q 530 378 522 466 L 540 478 L 504 478 L 508 466 Q 506 380 445 348 Z;
        M 430 325 Q 487 397 500 403 Q 504 413 508 500 L 526 512 L 490 512 L 494 500 Q 480 415 445 348 Z;
        M 430 325 Q 465 410 478 416 Q 482 426 474 514 L 492 526 L 456 526 L 460 514 Q 458 428 445 348 Z;
        M 430 325 Q 475 405 488 411 Q 492 421 440 500 L 458 512 L 422 512 L 426 500 Q 468 423 445 348 Z;
        M 430 325 Q 492 392 505 398 Q 509 408 426 466 L 444 478 L 408 478 L 412 466 Q 485 410 445 348 Z;
        M 430 325 Q 512 364 525 370 Q 529 380 440 432 L 458 444 L 422 444 L 426 432 Q 505 382 445 348 Z;
        M 430 325 Q 520 329 533 335 Q 537 345 474 418 L 492 430 L 456 430 L 460 418 Q 513 347 445 348 Z
      " />
  </path>

  <!-- Highlight stroke along Near Leg Shin & Knee -->
  <path fill="none" stroke="#94a3b8" stroke-width="2" stroke-linecap="round" opacity="0.6">
    <animate attributeName="d" dur="2s" repeatCount="indefinite" keyTimes="0; 0.125; 0.25; 0.375; 0.5; 0.625; 0.75; 0.875; 1"
      values="
        M 525 336 L 476 418;
        M 525 337 L 510 432;
        M 518 369 L 524 466;
        M 494 404 L 510 500;
        M 472 417 L 476 514;
        M 481 412 L 442 500;
        M 498 399 L 428 466;
        M 518 371 L 442 432;
        M 525 336 L 476 418
      " />
  </path>

  <!-- Webbed Foot Claws on Near Pedal -->
  <path fill="#0f172a" stroke="#020617" stroke-width="1">
    <animate attributeName="d" dur="2s" repeatCount="indefinite" keyTimes="0; 0.125; 0.25; 0.375; 0.5; 0.625; 0.75; 0.875; 1"
      values="
        M 492 430 L 497 431 L 491 433 Z;
        M 526 444 L 531 445 L 525 447 Z;
        M 540 478 L 545 479 L 539 481 Z;
        M 526 512 L 531 513 L 525 515 Z;
        M 492 526 L 497 527 L 491 529 Z;
        M 458 512 L 463 513 L 457 515 Z;
        M 444 478 L 449 479 L 443 481 Z;
        M 458 444 L 463 445 L 457 447 Z;
        M 492 430 L 497 431 L 491 433 Z
      " />
  </path>

  <!-- ==================== FOREGROUND SPEED DASHES & COASTAL BREEZE ==================== -->
  <g opacity="0.4">
    <!-- Subtle air stream lines emphasizing forward velocity -->
    <line x1="880" y1="210" x2="820" y2="210" stroke="#ffffff" stroke-width="2" stroke-linecap="round">
      <animate attributeName="x1" values="950; 750" dur="0.9s" repeatCount="indefinite" />
      <animate attributeName="x2" values="890; 690" dur="0.9s" repeatCount="indefinite" />
      <animate attributeName="opacity" values="0; 0.8; 0" dur="0.9s" repeatCount="indefinite" />
    </line>
    <line x1="920" y1="260" x2="850" y2="260" stroke="#ffffff" stroke-width="1.5" stroke-linecap="round">
      <animate attributeName="x1" values="980; 780" dur="0.7s" repeatCount="indefinite" />
      <animate attributeName="x2" values="910; 710" dur="0.7s" repeatCount="indefinite" />
      <animate attributeName="opacity" values="0; 0.7; 0" dur="0.7s" repeatCount="indefinite" />
    </line>
    <line x1="850" y1="360" x2="790" y2="360" stroke="#fde047" stroke-width="1.8" stroke-linecap="round">
      <animate attributeName="x1" values="900; 720" dur="0.8s" repeatCount="indefinite" />
      <animate attributeName="x2" values="840; 660" dur="0.8s" repeatCount="indefinite" />
      <animate attributeName="opacity" values="0; 0.6; 0" dur="0.8s" repeatCount="indefinite" />
    </line>
  </g>
</svg>