<svg xmlns="http://www.w3.org/2000/svg" viewBox="0 0 1200 900" width="100%" height="100%">
  <defs>
    <!-- Background Gradient -->
    <linearGradient id="bgGrad" x1="0%" y1="0%" x2="0%" y2="100%">
      <stop offset="0%" stop-color="#eef2f5" />
      <stop offset="100%" stop-color="#dce3ea" />
    </linearGradient>

    <!-- Base Cylinder Gradients -->
    <linearGradient id="baseRimGrad" x1="0%" y1="0%" x2="100%" y2="50%">
      <stop offset="0%" stop-color="#ffffff" stop-opacity="0.8" />
      <stop offset="50%" stop-color="#d9dee3" stop-opacity="0.5" />
      <stop offset="100%" stop-color="#9da6af" stop-opacity="0.2" />
    </linearGradient>
    <linearGradient id="baseWallGrad" x1="0%" y1="0%" x2="100%" y2="0%">
      <stop offset="0%" stop-color="#767e86" />
      <stop offset="35%" stop-color="#8b949d" />
      <stop offset="70%" stop-color="#676e76" />
      <stop offset="100%" stop-color="#4d535a" />
    </linearGradient>
    <linearGradient id="basePlinthGrad" x1="0%" y1="0%" x2="100%" y2="0%">
      <stop offset="0%" stop-color="#555a60" />
      <stop offset="50%" stop-color="#697178" />
      <stop offset="100%" stop-color="#3d4247" />
    </linearGradient>

    <!-- Grass Surface Linear & Radial Gradients -->
    <radialGradient id="grassGrad" cx="42%" cy="40%" r="58%">
      <stop offset="0%" stop-color="#9fc26d" />
      <stop offset="55%" stop-color="#8cae5e" />
      <stop offset="85%" stop-color="#76974b" />
      <stop offset="100%" stop-color="#63803d" />
    </radialGradient>

    <!-- River Water Gradients -->
    <linearGradient id="riverGrad" x1="0%" y1="0%" x2="100%" y2="100%">
      <stop offset="0%" stop-color="#4b7c8a" />
      <stop offset="50%" stop-color="#5c95a5" />
      <stop offset="100%" stop-color="#3a6470" />
    </linearGradient>
    <linearGradient id="riverBankGrad" x1="0%" y1="0%" x2="0%" y2="100%">
      <stop offset="0%" stop-color="#506634" />
      <stop offset="100%" stop-color="#304020" />
    </linearGradient>

    <!-- Submarine Hull Lighting Gradients -->
    <linearGradient id="hullLighting" x1="20%" y1="0%" x2="40%" y2="100%">
      <stop offset="0%" stop-color="#73797f" />
      <stop offset="18%" stop-color="#858b92" />
      <stop offset="30%" stop-color="#5c6165" />
      <stop offset="55%" stop-color="#3d4246" />
      <stop offset="80%" stop-color="#26292c" />
      <stop offset="100%" stop-color="#181b1d" />
    </linearGradient>

    <linearGradient id="hullHighlight" x1="0%" y1="0%" x2="100%" y2="50%">
      <stop offset="0%" stop-color="#a4b3bf" stop-opacity="0.9" />
      <stop offset="50%" stop-color="#7b8893" stop-opacity="0.4" />
      <stop offset="100%" stop-color="#454c52" stop-opacity="0" />
    </linearGradient>

    <!-- Sail / Conning Tower Gradients -->
    <linearGradient id="sailGrad" x1="15%" y1="0%" x2="85%" y2="100%">
      <stop offset="0%" stop-color="#73797f" />
      <stop offset="35%" stop-color="#5c6165" />
      <stop offset="75%" stop-color="#2f3337" />
      <stop offset="100%" stop-color="#1b1d20" />
    </linearGradient>

    <!-- Bronze Propeller Gradients -->
    <linearGradient id="bronzeGrad" x1="0%" y1="0%" x2="100%" y2="100%">
      <stop offset="0%" stop-color="#c49e5d" />
      <stop offset="45%" stop-color="#8a6b3c" />
      <stop offset="85%" stop-color="#544122" />
      <stop offset="100%" stop-color="#382b16" />
    </linearGradient>

    <!-- Concrete Cradle Gradients -->
    <linearGradient id="cradleTop" x1="0%" y1="0%" x2="100%" y2="0%">
      <stop offset="0%" stop-color="#dedbd3" />
      <stop offset="100%" stop-color="#c4c1b8" />
    </linearGradient>
    <linearGradient id="cradleSide" x1="0%" y1="0%" x2="0%" y2="100%">
      <stop offset="0%" stop-color="#aba79d" />
      <stop offset="100%" stop-color="#7f7c75" />
    </linearGradient>

    <!-- Soft Filters -->
    <filter id="softShadow" x="-20%" y="-20%" width="150%" height="150%">
      <feGaussianBlur in="SourceAlpha" stdDeviation="12" />
      <feColorMatrix type="matrix" values="0 0 0 0 0   0 0 0 0 0   0 0 0 0 0  0 0 0 0.35 0" />
      <feBlend in="SourceGraphic" in2="blurOut" mode="normal" />
    </filter>
    <filter id="plinthShadow" x="-10%" y="-10%" width="120%" height="120%">
      <feGaussianBlur stdDeviation="22" />
      <feColorMatrix type="matrix" values="0 0 0 0 0   0 0 0 0 0   0 0 0 0 0  0 0 0 0.22 0" />
    </filter>
    <filter id="miniAO" x="-30%" y="-30%" width="160%" height="160%">
      <feGaussianBlur stdDeviation="3.5" />
      <feColorMatrix type="matrix" values="0 0 0 0 0   0 0 0 0 0   0 0 0 0 0  0 0 0 0.6 0" />
    </filter>

    <!-- Reusable Miniature Elements -->
    <!-- Tree Model: Stylized Round Tree with Layered Volume -->
    <g id="miniTree">
      <!-- Tree shadow -->
      <ellipse cx="6" cy="14" rx="14" ry="7" fill="#1b2e10" opacity="0.4" filter="url(#miniAO)" />
      <!-- Trunk -->
      <path d="M-2,0 L-1.5,14 L1.5,14 L2,0 Z" fill="#4d3521" />
      <!-- Foliage Spheres Layered -->
      <circle cx="0" cy="-6" r="16" fill="#355e1c" />
      <circle cx="-3" cy="-9" r="13" fill="#467824" />
      <circle cx="-5" cy="-11" r="10" fill="#5c9630" />
      <circle cx="-6" cy="-13" r="6" fill="#75b541" />
      <ellipse cx="-4" cy="-14" rx="3.5" ry="2" fill="#9cd968" opacity="0.6" />
    </g>

    <!-- Human Figures (Mini Silhouettes with Casting Shadows) -->
    <g id="figureLooker">
      <ellipse cx="3" cy="2" rx="4" ry="1.8" fill="#1b2e10" opacity="0.5" />
      <path d="M-0.8,0 L-0.8,-6 L0.8,-6 L0.8,0 Z" fill="#2d343b" />
      <path d="M-1.8,-6 L-1.2,-13 L1.2,-13 L1.8,-6 Z" fill="#b04332" />
      <circle cx="0" cy="-15" r="1.6" fill="#e0c4a4" />
    </g>
    <g id="figureChild">
      <ellipse cx="2" cy="1.5" rx="2.5" ry="1.2" fill="#1b2e10" opacity="0.5" />
      <path d="M-0.6,0 L-0.6,-4 L0.6,-4 L0.6,0 Z" fill="#314352" />
      <path d="M-1.3,-4 L-1,-9 L1,-9 L1.3,-4 Z" fill="#d49c28" />
      <circle cx="0" cy="-10.5" r="1.3" fill="#e0c4a4" />
    </g>
    <g id="figureStroller">
      <ellipse cx="3" cy="2" rx="4" ry="1.8" fill="#1b2e10" opacity="0.5" />
      <path d="M-1,0 L-0.4,-6 L1,-6 L0.4,0 Z" fill="#22272a" />
      <path d="M-1.8,-6 L-1.4,-13 L1.4,-13 L1.8,-6 Z" fill="#42655c" />
      <circle cx="0.2" cy="-15" r="1.6" fill="#e0c4a4" />
    </g>

    <!-- Clip Path for Circular Model Base Top -->
    <clipPath id="baseTopClip">
      <ellipse cx="600" cy="530" rx="460" ry="245" />
    </clipPath>
  </defs>

  <!-- Canvas Background -->
  <rect x="0" y="0" width="1200" height="900" fill="url(#bgGrad)" />

  <!-- Base Ambient Occlusion Underneath Display Plinth -->
  <ellipse cx="600" cy="625" rx="470" ry="240" fill="#000000" filter="url(#plinthShadow)" />

  <!-- ==================== DISPLAY PLINTH CYLINDER ==================== -->
  <!-- Cylinder Outer Wall (Bottom Thickness, ~50px depth) -->
  <path d="M 140,530 C 140,665 346,775 600,775 C 854,775 1060,665 1060,530 L 1060,580 C 1060,715 854,825 600,825 C 346,825 140,715 140,580 Z" fill="url(#baseWallGrad)" />
  <path d="M 140,580 C 140,715 346,825 600,825 C 854,825 1060,715 1060,580 L 1060,586 C 1060,721 854,831 600,831 C 346,831 140,721 140,586 Z" fill="url(#basePlinthGrad)" />

  <!-- Base Top Plate & Light Rim -->
  <ellipse cx="600" cy="530" rx="461" ry="246" fill="url(#baseRimGrad)" />
  <ellipse cx="600" cy="530" rx="460" ry="245" fill="url(#grassGrad)" />

  <!-- DIORAMA SURFACE DETAILS (Clipped inside circular base top) -->
  <g clip-path="url(#baseTopClip)">
    <!-- Top-Right Edge: River / Estuary Water Cutout -->
    <path d="M 820,330 C 890,360 970,410 1065,470 L 1065,300 L 750,300 Z" fill="url(#riverGrad)" />
    <!-- River Bank Stone Rim -->
    <path d="M 820,330 C 890,360 970,410 1065,470" stroke="url(#riverBankGrad)" stroke-width="9" fill="none" />
    <path d="M 821,332 C 891,362 971,412 1065,472" stroke="#688047" stroke-width="2.5" fill="none" opacity="0.7" />

    <!-- Animated Water Ripples (Subtle & miniature scale) -->
    <path d="M 890,365 C 920,378 950,392 985,412" stroke="#87b6c5" stroke-width="1.8" fill="none" stroke-linecap="round" opacity="0.6">
      <animate attributeName="opacity" values="0.3;0.7;0.3" dur="5s" repeatCount="indefinite" />
      <animateTransform attributeName="transform" type="translate" values="-4,-2; 4,2; -4,-2" dur="7s" repeatCount="indefinite" />
    </path>
    <path d="M 940,350 C 970,362 1005,380 1030,395" stroke="#9ed4e5" stroke-width="1.4" fill="none" stroke-linecap="round" opacity="0.5">
      <animate attributeName="opacity" values="0.6;0.2;0.6" dur="6s" repeatCount="indefinite" />
      <animateTransform attributeName="transform" type="translate" values="3,1; -3,-1; 3,1" dur="9s" repeatCount="indefinite" />
    </path>

    <!-- Miniature Tug / Harbor Boat in the river corner -->
    <g transform="translate(940, 375) rotate(-22)">
      <!-- Animated gentle bobbing of the miniature boat -->
      <animateTransform attributeName="transform" type="rotate" values="-22 0 0; -20 0 0; -23.5 0 0; -22 0 0" dur="8s" repeatCount="indefinite" />
      <!-- Boat Wake -->
      <path d="M -15,10 C -25,12 -35,16 -42,20 M -15,-6 C -25,-10 -35,-12 -42,-15" stroke="#bfe6f2" stroke-width="1.2" fill="none" opacity="0.5" />
      <!-- Hull -->
      <path d="M -22,-6 L 16,-6 C 24,-6 28,0 28,0 C 28,0 24,6 16,6 L -22,6 C -25,4 -25,-4 -22,-6 Z" fill="#202428" />
      <!-- Red waterline / deck border -->
      <path d="M -21,-5 L 14,-5 C 20,-5 25,0 25,0 C 25,0 20,5 14,5 L -21,5 Z" fill="#873528" />
      <!-- Wooden/buff Deck -->
      <path d="M -19,-4 L 12,-4 C 17,-4 22,0 22,0 C 22,0 17,4 12,4 L -19,4 Z" fill="#c79d6e" />
      <!-- Cabin -->
      <rect x="-8" y="-3" width="13" height="6" rx="1.5" fill="#f4f6f8" />
      <rect x="0" y="-2" width="4" height="4" rx="0.8" fill="#505a63" />
      <!-- Tiny funnel -->
      <circle cx="-4" cy="0" r="1.4" fill="#a8352a" />
      <circle cx="-4" cy="0" r="0.6" fill="#1b1c1e" />
    </g>

    <!-- Park Paved Footpath encircling the submarine pit -->
    <path d="M 280,620 C 230,550 250,440 370,390 C 490,340 760,330 900,420 C 970,465 970,560 900,630 C 820,710 430,730 280,620 Z" fill="none" stroke="#b5b0a3" stroke-width="18" opacity="0.65" />
    <path d="M 280,620 C 230,550 250,440 370,390 C 490,340 760,330 900,420 C 970,465 970,560 900,630 C 820,710 430,730 280,620 Z" fill="none" stroke="#d5d0c4" stroke-width="14" opacity="0.8" />

    <!-- ==================== SUBMARINE DISPLAY PIT ==================== -->
    <!-- The Trench / Rectangular Basin for the Submarine Mounting -->
    <!-- Outer Rim Cast Shadow -->
    <polygon points="310,635 830,440 855,485 335,680" fill="#243419" opacity="0.6" filter="url(#miniAO)" />

    <!-- Trench Interior Pit: Angled rectangle aligned with sub axis (~-21 deg) -->
    <!-- Pit Floor -->
    <polygon points="320,630 820,442 840,480 340,668" fill="#4d534b" />
    <!-- Pit North Wall (Shadowed recess) -->
    <polygon points="320,630 820,442 820,454 320,642" fill="#2b312a" />
    <!-- Pit West Wall (Shadowed end) -->
    <polygon points="320,630 320,642 340,680 340,668" fill="#20241f" />
    <!-- Pit South Wall (Sunlit interior concrete lip) -->
    <polygon points="340,668 340,680 840,492 840,480" fill="#8c8d85" />
    <!-- Pit East Wall -->
    <polygon points="820,442 820,454 840,492 840,480" fill="#696c65" />

    <!-- Gravel / Drainage Bed at Bottom of Pit -->
    <polygon points="323,640 817,454 837,484 343,670" fill="#62665e" />
    <!-- Concrete Trench Border Coping (Sunlit top edge) -->
    <polyline points="318,629 822,440 842,478" fill="none" stroke="#dedbd2" stroke-width="3" />
    <polyline points="318,629 338,669 842,478" fill="none" stroke="#9ea099" stroke-width="2.5" />

    <!-- ==================== CONCRETE CRADLES ==================== -->
    <!-- Set of 5 concrete supports evenly spaced inside trench along hull length -->
    <!-- Cradle 1 (Fore-mid, under bow curve) -->
    <g transform="translate(390, 610) rotate(-21)">
      <!-- Ground contact AO -->
      <rect x="-8" y="-18" width="16" height="36" fill="#1b201a" opacity="0.6" filter="url(#miniAO)" />
      <!-- Base block -->
      <polygon points="-8,-16 8,-16 11,-12 11,18 -11,18 -11,-12" fill="url(#cradleSide)" />
      <!-- Beveled sunlit top with saddle cutout -->
      <path d="M -8,-16 L 8,-16 L 8,-6 C 4,-2 -4,-2 -8,-6 Z" fill="url(#cradleTop)" />
      <path d="M -8,-6 C -4,-2 4,-2 8,-6 L 8,15 L -8,15 Z" fill="#61635d" />
      <path d="M -8,-6 C -4,-2 4,-2 8,-6" stroke="#484a45" stroke-width="2" fill="none" />
    </g>

    <!-- Cradle 2 (Forward mid-body, widest section) -->
    <g transform="translate(485, 574) rotate(-21)">
      <rect x="-9" y="-20" width="18" height="40" fill="#1b201a" opacity="0.6" filter="url(#miniAO)" />
      <polygon points="-9,-18 9,-18 13,-14 13,20 -13,20 -13,-14" fill="url(#cradleSide)" />
      <path d="M -9,-18 L 9,-18 L 9,-7 C 5,-2 -5,-2 -9,-7 Z" fill="url(#cradleTop)" />
      <path d="M -9,-7 C -5,-2 5,-2 9,-7 L 9,17 L -9,17 Z" fill="#61635d" />
      <path d="M -9,-7 C -5,-2 5,-2 9,-7" stroke="#484a45" stroke-width="2.5" fill="none" />
    </g>

    <!-- Cradle 3 (Mid-aft body, under sail root) -->
    <g transform="translate(580, 538) rotate(-21)">
      <rect x="-9" y="-20" width="18" height="40" fill="#1b201a" opacity="0.6" filter="url(#miniAO)" />
      <polygon points="-9,-18 9,-18 13,-14 13,20 -13,20 -13,-14" fill="url(#cradleSide)" />
      <path d="M -9,-18 L 9,-18 L 9,-7 C 5,-2 -5,-2 -9,-7 Z" fill="url(#cradleTop)" />
      <path d="M -9,-7 C -5,-2 5,-2 9,-7 L 9,17 L -9,17 Z" fill="#61635d" />
      <path d="M -9,-7 C -5,-2 5,-2 9,-7" stroke="#484a45" stroke-width="2.5" fill="none" />
    </g>

    <!-- Cradle 4 (Aft body tapering section) -->
    <g transform="translate(675, 502) rotate(-21)">
      <rect x="-8" y="-18" width="16" height="36" fill="#1b201a" opacity="0.6" filter="url(#miniAO)" />
      <polygon points="-8,-16 8,-16 11,-12 11,18 -11,18 -11,-12" fill="url(#cradleSide)" />
      <path d="M -8,-16 L 8,-16 L 8,-6 C 4,-2 -4,-2 -8,-6 Z" fill="url(#cradleTop)" />
      <path d="M -8,-6 C -4,-2 4,-2 8,-6 L 8,15 L -8,15 Z" fill="#61635d" />
      <path d="M -8,-6 C -4,-2 4,-2 8,-6" stroke="#484a45" stroke-width="2" fill="none" />
    </g>

    <!-- Cradle 5 (Stern section near taper) -->
    <g transform="translate(760, 470) rotate(-21)">
      <rect x="-7" y="-15" width="14" height="30" fill="#1b201a" opacity="0.6" filter="url(#miniAO)" />
      <polygon points="-7,-14 7,-14 9,-10 9,15 -9,15 -9,-10" fill="url(#cradleSide)" />
      <path d="M -7,-14 L 7,-14 L 7,-5 C 3.5,-2 -3.5,-2 -7,-5 Z" fill="url(#cradleTop)" />
      <path d="M -7,-5 C -3.5,-2 3.5,-2 7,-5 L 7,13 L -7,13 Z" fill="#61635d" />
      <path d="M -7,-5 C -3.5,-2 3.5,-2 7,-5" stroke="#484a45" stroke-width="1.8" fill="none" />
    </g>

    <!-- Submarine Soft Ground Shadow -->
    <path d="M 230,645 C 310,655 450,610 630,550 C 740,510 830,470 870,445 C 890,440 850,475 740,535 C 610,605 450,670 310,690 C 250,695 210,670 230,645 Z" fill="#182412" opacity="0.55" filter="url(#softShadow)" />

    <!-- ==================== SUBMARINE HULL & STRUCTURE ==================== -->
    <!--
      USS ALBACORE (AGSS-569):
      Tear-drop body of revolution, circular cross sections.
      Ratio: Length ~ 7.5x Diameter.
      Viewing angle: ~30 deg oblique downward from front-quarter (Fore left foreground -> Aft right background).
      Coordinate alignment: Center ~ (540, 520), tilted approx -20.8 degrees.
    -->
    <g id="albacoreSubmarine">

      <!-- Stern X-Stern Rudder Assembly: Upper-Right and Lower-Left Fins (Behind hull or crossing) -->
      <!-- Lower-Far Fin (pointing down-away) -->
      <polygon points="810,466 828,474 840,476 830,460" fill="#1d2023" />
      <!-- Upper-Far Fin (pointing up-away) -->
      <polygon points="806,448 830,432 840,433 820,451" fill="#4d5358" stroke="#363b3f" stroke-width="0.8" />

      <!-- MAIN HULL (Teardrop Body of Revolution) -->
      <!--
        Length in canvas: ~610px (From Bow (240, 630) to Stern tip (835, 405)).
        Max diameter: ~82px, located at ~1/3 length (x~420, y~560).
        Blunt rounded hemispherical/elliptical bow, smoothly tapering to needle-sharp stern cone.
      -->
      <g id="mainHullBody">
        <!-- Hull Base Silhouette & 3D Volumetric Fill -->
        <path d="M 242,618 
                 C 225,624 220,634 228,644 
                 C 240,658 280,668 360,658 
                 C 450,646 565,604 680,540 
                 C 755,498 815,448 835,420
                 C 836,419 836,418 835,417
                 C 818,423 755,445 660,480 
                 C 530,528 415,556 335,572 
                 C 275,584 250,600 242,618 Z" 
              fill="url(#hullLighting)" stroke="#1a1d1f" stroke-width="0.8" />

        <!-- Longitudinal Specular Highlight Streak along upper shoulder -->
        <path d="M 246,626 
                 C 270,612 340,580 435,548 
                 C 545,510 655,462 745,432 
                 C 790,418 820,412 825,416 
                 C 815,422 765,440 680,475 
                 C 575,520 460,565 370,598 
                 C 305,622 260,635 246,626 Z" 
              fill="url(#hullHighlight)" opacity="0.65" />

        <!-- Sharp Slender Highlight Line along the widest shoulder -->
        <path d="M 260,625 C 330,595 440,555 570,505 C 670,465 760,432 805,420" 
              stroke="#b5c8d6" stroke-width="1.8" stroke-linecap="round" fill="none" opacity="0.75" />
        <path d="M 290,612 C 370,580 470,540 580,496" 
              stroke="#ffffff" stroke-width="0.8" stroke-linecap="round" fill="none" opacity="0.85" />

        <!-- Deep Shadow Along Underside Keel (Ground bounce & self shadow) -->
        <path d="M 240,652 
                 C 290,668 375,662 460,642 
                 C 570,615 675,565 765,502 
                 C 810,465 832,430 835,420 
                 C 825,435 770,475 690,525 
                 C 590,582 480,630 380,650 
                 C 300,665 250,660 240,652 Z" 
              fill="#111315" opacity="0.8" />

        <!-- Bow Sonar Window (Circular / elliptic acoustic dome window on bow side) -->
        <!-- Port Sonar Window -->
        <ellipse cx="265" cy="638" rx="5" ry="7.5" transform="rotate(-15 265 638)" fill="#1e2226" stroke="#484d53" stroke-width="1" />
        <ellipse cx="264" cy="637" rx="3.5" ry="5.5" transform="rotate(-15 264 637)" fill="#101214" />
        <ellipse cx="263" cy="635" rx="1.8" ry="3" transform="rotate(-15 263 635)" fill="#5c666f" opacity="0.7" />

        <!-- Starboard Sonar Window (slight top visible on curved horizon) -->
        <ellipse cx="282" cy="610" rx="3.5" ry="6" transform="rotate(-25 282 610)" fill="#1c2024" stroke="#4a5057" stroke-width="0.8" />
        <ellipse cx="281.5" cy="609.5" rx="2" ry="4" transform="rotate(-25 281.5 609.5)" fill="#101315" />

        <!-- Limber Holes / Drainage Slots (Fine rows along upper forward hull) -->
        <g fill="#181a1d" opacity="0.9">
          <!-- Row 1: Forward Upper Slots -->
          <rect x="330" y="608" width="5.5" height="1.2" rx="0.5" transform="rotate(-21 330 608)" />
          <rect x="340" y="604" width="5.5" height="1.2" rx="0.5" transform="rotate(-21 340 604)" />
          <rect x="350" y="600" width="5.5" height="1.2" rx="0.5" transform="rotate(-21 350 600)" />
          <rect x="360" y="596" width="5.5" height="1.2" rx="0.5" transform="rotate(-21 360 596)" />
          <rect x="370" y="592" width="5.5" height="1.2" rx="0.5" transform="rotate(-21 370 592)" />
          <rect x="380" y="588" width="5.5" height="1.2" rx="0.5" transform="rotate(-21 380 588)" />
          <rect x="390" y="584" width="5.5" height="1.2" rx="0.5" transform="rotate(-21 390 584)" />
          <rect x="400" y="580" width="5.5" height="1.2" rx="0.5" transform="rotate(-21 400 580)" />
          <rect x="410" y="576" width="5.5" height="1.2" rx="0.5" transform="rotate(-21 410 576)" />
          <rect x="420" y="572" width="5.5" height="1.2" rx="0.5" transform="rotate(-21 420 572)" />
          <rect x="430" y="568" width="5.5" height="1.2" rx="0.5" transform="rotate(-21 430 568)" />

          <!-- Row 2: Parallel Lower Slots -->
          <rect x="335" y="614" width="5.5" height="1.2" rx="0.5" transform="rotate(-21 335 614)" />
          <rect x="345" y="610" width="5.5" height="1.2" rx="0.5" transform="rotate(-21 345 610)" />
          <rect x="355" y="606" width="5.5" height="1.2" rx="0.5" transform="rotate(-21 355 606)" />
          <rect x="365" y="602" width="5.5" height="1.2" rx="0.5" transform="rotate(-21 365 602)" />
          <rect x="375" y="598" width="5.5" height="1.2" rx="0.5" transform="rotate(-21 375 598)" />
          <rect x="385" y="594" width="5.5" height="1.2" rx="0.5" transform="rotate(-21 385 594)" />
          <rect x="395" y="590" width="5.5" height="1.2" rx="0.5" transform="rotate(-21 395 590)" />
          <rect x="405" y="586" width="5.5" height="1.2" rx="0.5" transform="rotate(-21 405 586)" />
          <rect x="415" y="582" width="5.5" height="1.2" rx="0.5" transform="rotate(-21 415 582)" />
          <rect x="425" y="578" width="5.5" height="1.2" rx="0.5" transform="rotate(-21 425 578)" />
          <rect x="435" y="574" width="5.5" height="1.2" rx="0.5" transform="rotate(-21 435 574)" />

          <!-- Row 3: Aft Drainage Cluster -->
          <rect x="450" y="567" width="5" height="1.1" rx="0.5" transform="rotate(-21 450 567)" />
          <rect x="460" y="563" width="5" height="1.1" rx="0.5" transform="rotate(-21 460 563)" />
          <rect x="470" y="559" width="5" height="1.1" rx="0.5" transform="rotate(-21 470 559)" />
          <rect x="480" y="555" width="5" height="1.1" rx="0.5" transform="rotate(-21 480 555)" />
        </g>
      </g>

      <!-- STREAMLINED SAIL / CONNING TOWER -->
      <!--
        Located slightly forward of mid-hull (center ~ 480, 520).
        Length ~ 1/10 sub length (~62px), Height ~ 1/2 hull diameter (~41px).
        Streamlined profile: rounded leading edge, knife-sharp trailing edge.
      -->
      <g id="conningTower">
        <!-- Root Fillet / Ambient Occlusion on hull deck -->
        <path d="M 458,546 C 466,540 488,528 518,515 C 526,512 528,515 524,520 C 506,530 478,544 462,551 Z" fill="#1b1d20" opacity="0.75" />

        <!-- Starboard Fairwater Plane (Far Side Sail Plane) -->
        <!-- Wingspan total ~ 1.2x hull diameter (~98px) -->
        <path d="M 478,506 L 476,488 C 476,486 480,486 483,488 L 493,501 Z" fill="#4d5358" stroke="#31363a" stroke-width="0.7" />

        <!-- Sail Main Body -->
        <path d="M 464,545 
                 C 460,540 458,522 460,506 
                 C 461,498 464,495 469,494 
                 C 485,492 505,495 519,504 
                 C 525,508 526,512 525,514 
                 C 512,522 490,535 464,545 Z" 
              fill="url(#sailGrad)" stroke="#222528" stroke-width="0.8" />

        <!-- Sail Sunlit Top & Front Crown -->
        <path d="M 460,506 C 461,498 464,495 469,494 C 485,492 505,495 519,504 L 516,506 C 503,499 484,496 470,498 C 466,499 464,501 463,507 Z" fill="#888f96" />
        <path d="M 469,495 C 482,494 498,497 512,503" stroke="#d2d9e0" stroke-width="1.2" stroke-linecap="round" fill="none" opacity="0.8" />

        <!-- Port Fairwater Plane (Near Side Sail Plane, extending into foreground) -->
        <g id="portSailPlane">
          <!-- Plane Shadow on Sail Wall -->
          <polygon points="480,517 483,524 496,518 493,514" fill="#1e2124" opacity="0.6" />
          <!-- Hydrofoil Blade -->
          <path d="M 482,516 L 496,548 C 498,552 494,554 489,551 L 476,520 Z" fill="#484d52" stroke="#25292c" stroke-width="0.8" />
          <!-- Upper Bevel Highlight -->
          <path d="M 476,520 L 489,551" stroke="#878e95" stroke-width="1" fill="none" />
        </g>

        <!-- Periscope Shears & Mast Housings (Recessed inside sail top) -->
        <path d="M 478,494 L 478,485 L 480,485 L 480,494 Z" fill="#585e64" />
        <path d="M 484,496 L 484,482 L 486.5,482 L 486.5,496 Z" fill="#6c737a" />
        <circle cx="485.2" cy="481.5" r="1.1" fill="#222528" />
      </g>

      <!-- STERN X-RUDDER CONTROL SURFACES & PROPELLER -->
      <!--
        Albacore's hallmark: True X-stern configuration (4 diagonally oriented rudders at ~45°).
        Wingspan slightly greater than aft hull diameter at that station.
      -->
      <g id="xSternEmpennage">
        <!-- Near-Upper Fin (X-Rudder top-port blade, pointing up-left towards viewer) -->
        <polygon points="803,436 805,404 817,406 820,430" fill="#5c6268" stroke="#25282b" stroke-width="0.8" />
        <line x1="805" y1="404" x2="817" y2="406" stroke="#a1abb5" stroke-width="1" />

        <!-- Near-Lower Fin (X-Rudder bottom-port blade, pointing down-left towards viewer) -->
        <polygon points="814,443 827,476 837,473 827,437" fill="#32363b" stroke="#1d2022" stroke-width="0.8" />
        <line x1="814" y1="443" x2="827" y2="476" stroke="#4f545a" stroke-width="0.9" />

        <!-- Rudder Hinge / Trim Actuator Details -->
        <circle cx="813" cy="433" r="2.2" fill="#202326" />

        <!-- SINGLE PROPELLER (Single screw, bronze material, aft of X-rudder) -->
        <!-- Propeller Hub / Spinner Cone -->
        <polygon points="835,420 847,414 845,417" fill="url(#bronzeGrad)" />
        <path d="M 834,421 C 837,419 845,414 849,412 C 849,414 843,419 837,423 Z" fill="#523e1f" />

        <!-- 5-Bladed High-Skew Bronze Propeller -->
        <g id="propellerBlades">
          <!-- Blade 1 (pointing up) -->
          <path d="M 839,417 C 842,408 846,400 842,398 C 839,396 836,405 838,416 Z" fill="url(#bronzeGrad)" stroke="#3e2d14" stroke-width="0.5" />
          <!-- Blade 2 (pointing right-up) -->
          <path d="M 841,416 C 850,413 858,412 858,409 C 857,406 847,409 840,415 Z" fill="url(#bronzeGrad)" stroke="#3e2d14" stroke-width="0.5" />
          <!-- Blade 3 (pointing down-right) -->
          <path d="M 841,418 C 849,422 856,426 854,429 C 851,431 845,424 840,419 Z" fill="#69512b" stroke="#33240e" stroke-width="0.5" />
          <!-- Blade 4 (pointing down) -->
          <path d="M 839,419 C 839,428 837,436 834,436 C 831,435 834,426 838,418 Z" fill="#4d3a1c" stroke="#251a09" stroke-width="0.5" />
          <!-- Blade 5 (pointing left-up towards hull) -->
          <path d="M 837,417 C 832,414 826,412 827,409 C 829,407 834,411 838,416 Z" fill="#8c6d3a" stroke="#4a3719" stroke-width="0.5" />
        </g>
      </g>

    </g> <!-- End Albacore Submarine -->

    <!-- ==================== ACCESS BRIDGE & STAIRWAY ==================== -->
    <!--
      Located on the pit side: small stairway and bridge leading to sub hull access door.
      Materials: Light grey metal (#abb1b8).
    -->
    <g id="accessGangway">
      <!-- Ground Stairs (Leading up from trench side to catwalk) -->
      <!-- Stair stringers and treads -->
      <polygon points="536,608 546,602 546,620 536,626" fill="#858a91" />
      <polygon points="536,608 540,605 540,623 536,626" fill="#9ea4ac" />
      <!-- Step levels -->
      <line x1="538" y1="623" x2="545" y2="618" stroke="#d4d8de" stroke-width="2" />
      <line x1="538" y1="617" x2="545" y2="612" stroke="#d4d8de" stroke-width="2" />
      <line x1="538" y1="611" x2="545" y2="606" stroke="#d4d8de" stroke-width="2" />

      <!-- Horizontal Access Bridge spanning pit to submarine side hatch -->
      <!-- Pier Support Column -->
      <rect x="548" y="598" width="3.5" height="18" fill="#585c63" />
      <!-- Bridge Walkway Deck -->
      <polygon points="545,602 566,575 572,578 551,605" fill="#c2c7cd" stroke="#8c929a" stroke-width="0.8" />
      <!-- Bridge Shadow underneath -->
      <polygon points="547,605 568,578 572,580 551,607" fill="#2b2e31" opacity="0.6" />
      <!-- Safety Railings (Light metal lattice) -->
      <!-- Near Railing -->
      <line x1="545" y1="602" x2="566" y2="575" stroke="#9da4ac" stroke-width="1.8" />
      <line x1="545" y1="593" x2="566" y2="566" stroke="#ced3da" stroke-width="1.6" />
      <line x1="548" y1="600" x2="548" y2="591" stroke="#9da4ac" stroke-width="1.2" />
      <line x1="555" y1="591" x2="555" y2="582" stroke="#9da4ac" stroke-width="1.2" />
      <line x1="562" y1="581" x2="562" y2="572" stroke="#9da4ac" stroke-width="1.2" />
      <!-- Far Railing -->
      <line x1="551" y1="605" x2="572" y2="578" stroke="#7e848b" stroke-width="1.4" />
      <line x1="551" y1="596" x2="572" y2="569" stroke="#adb3ba" stroke-width="1.4" />

      <!-- Side Entry Access Door Frame on Submarine Flank -->
      <ellipse cx="572" cy="573" rx="4" ry="7" transform="rotate(-15 572 573)" fill="#1c1f21" stroke="#4d5359" stroke-width="1" />
      <ellipse cx="571" cy="573" rx="2.5" ry="5.5" transform="rotate(-15 571 573)" fill="#0f1113" />
    </g>

    <!-- ==================== PARK ENVIRONMENT & MINIATURE DETAILS ==================== -->
    <!-- Small Park Bench Near Submarine Bow -->
    <g transform="translate(360, 680) rotate(-18)">
      <!-- Bench Ground AO -->
      <ellipse cx="7" cy="12" rx="10" ry="3.5" fill="#1a2b10" opacity="0.4" />
      <!-- Legs -->
      <rect x="0" y="5" width="2" height="7" fill="#30353b" />
      <rect x="12" y="5" width="2" height="7" fill="#30353b" />
      <!-- Bench Slats (Wood/metal) -->
      <polygon points="-2,4 16,4 16,6 -2,6" fill="#805433" />
      <polygon points="-2,1 16,1 16,3 -2,3" fill="#9e6940" />
      <polygon points="-2,1 16,1 16,2 -2,2" fill="#ba8052" />
      <!-- Backrest -->
      <polygon points="-2,-3 16,-3 16,-1 -2,-1" fill="#805433" />
      <polygon points="-2,-3 16,-3 16,-2 -2,-2" fill="#a87146" />
    </g>

    <!-- Park Trees along Base Perimeter (Various Sizes & Depths) -->
    <!-- Far Trees (Distant background along base rim - lighter & softer) -->
    <g transform="translate(420, 370) scale(0.75)" opacity="0.85">
      <use href="#miniTree" />
    </g>
    <g transform="translate(490, 350) scale(0.65)" opacity="0.8">
      <use href="#miniTree" />
    </g>
    <g transform="translate(680, 340) scale(0.7)" opacity="0.8">
      <use href="#miniTree" />
    </g>
    <g transform="translate(740, 345) scale(0.8)" opacity="0.85">
      <use href="#miniTree" />
    </g>

    <!-- Mid-ground Trees (Flanking lawn) -->
    <g transform="translate(230, 480) scale(1.05)">
      <use href="#miniTree" />
    </g>
    <g transform="translate(200, 530) scale(0.9)">
      <use href="#miniTree" />
    </g>

    <!-- Near Foreground Trees (Bordering bottom edge - deeper richer tones) -->
    <g transform="translate(290, 690) scale(1.25)">
      <use href="#miniTree" />
    </g>
    <g transform="translate(780, 675) scale(1.15)">
      <use href="#miniTree" />
    </g>
    <g transform="translate(860, 620) scale(1.0)">
      <use href="#miniTree" />
    </g>

    <!-- Visitors / Mini Figurines Scatter Groups -->
    <!-- Group 1: Standing Directly Beneath the Bulbous Bow Gazing Upwards -->
    <g transform="translate(270, 650)">
      <!-- Adult Looking Up -->
      <use href="#figureLooker" />
      <!-- Child Standing next to adult pointing up -->
      <g transform="translate(6, 1)">
        <use href="#figureChild" />
      </g>
    </g>

    <!-- Group 2: Walking Along the Curved Park Path Near Gangway -->
    <g transform="translate(495, 645)">
      <use href="#figureStroller" />
      <g transform="translate(7, 3)">
        <use href="#figureLooker" />
      </g>
    </g>

    <!-- Group 3: Solitary Stroller Near the River Overlook -->
    <g transform="translate(805, 410)">
      <use href="#figureStroller" />
    </g>

    <!-- Group 4: Visitors Beside the Trench Stern -->
    <g transform="translate(735, 530)">
      <use href="#figureLooker" />
    </g>

  </g> <!-- End Clipped Diorama Surface -->

  <!-- Diorama Rim Fine Specular Accent Line (Left upper rim light) -->
  <path d="M 140,530 C 140,430 340,305 600,305 C 720,305 830,330 920,370" fill="none" stroke="#ffffff" stroke-width="2" opacity="0.65" />
</svg>