<svg xmlns="http://www.w3.org/2000/svg" viewBox="0 0 1100 700" width="100%" height="100%">
  <defs>
    <!-- Sky & Horizon Gradients -->
    <linearGradient id="sky-grad" x1="0%" y1="0%" x2="0%" y2="100%">
      <stop offset="0%" stop-color="#0284c7"/>
      <stop offset="45%" stop-color="#38bdf8"/>
      <stop offset="75%" stop-color="#bae6fd"/>
      <stop offset="90%" stop-color="#fed7aa"/>
      <stop offset="100%" stop-color="#fef08a"/>
    </linearGradient>

    <linearGradient id="ocean-grad" x1="0%" y1="0%" x2="0%" y2="100%">
      <stop offset="0%" stop-color="#0369a1"/>
      <stop offset="40%" stop-color="#0284c7"/>
      <stop offset="85%" stop-color="#0ea5e9"/>
      <stop offset="100%" stop-color="#38bdf8"/>
    </linearGradient>

    <linearGradient id="cliff-grad" x1="0%" y1="0%" x2="100%" y2="100%">
      <stop offset="0%" stop-color="#ca8a04"/>
      <stop offset="40%" stop-color="#b45309"/>
      <stop offset="80%" stop-color="#78350f"/>
      <stop offset="100%" stop-color="#451a03"/>
    </linearGradient>

    <linearGradient id="road-grad" x1="0%" y1="0%" x2="0%" y2="100%">
      <stop offset="0%" stop-color="#334155"/>
      <stop offset="25%" stop-color="#1e293b"/>
      <stop offset="100%" stop-color="#0f172a"/>
    </linearGradient>

    <!-- Metallic & Bicycle Gradients -->
    <linearGradient id="chrome-grad" x1="0%" y1="0%" x2="0%" y2="100%">
      <stop offset="0%" stop-color="#94a3b8"/>
      <stop offset="25%" stop-color="#f8fafc"/>
      <stop offset="50%" stop-color="#cbd5e1"/>
      <stop offset="75%" stop-color="#64748b"/>
      <stop offset="100%" stop-color="#475569"/>
    </linearGradient>

    <linearGradient id="frame-teal" x1="0%" y1="0%" x2="100%" y2="100%">
      <stop offset="0%" stop-color="#2dd4bf"/>
      <stop offset="35%" stop-color="#0d9488"/>
      <stop offset="85%" stop-color="#0f766e"/>
      <stop offset="100%" stop-color="#115e59"/>
    </linearGradient>

    <linearGradient id="frame-highlight" x1="0%" y1="0%" x2="0%" y2="100%">
      <stop offset="0%" stop-color="#99f6e4"/>
      <stop offset="50%" stop-color="#0d9488"/>
      <stop offset="100%" stop-color="#042f2e"/>
    </linearGradient>

    <linearGradient id="leather-saddle" x1="0%" y1="0%" x2="100%" y2="50%">
      <stop offset="0%" stop-color="#78350f"/>
      <stop offset="35%" stop-color="#92400e"/>
      <stop offset="70%" stop-color="#451a03"/>
      <stop offset="100%" stop-color="#290e02"/>
    </linearGradient>

    <linearGradient id="tire-grad" x1="0%" y1="0%" x2="100%" y2="100%">
      <stop offset="0%" stop-color="#334155"/>
      <stop offset="50%" stop-color="#1e293b"/>
      <stop offset="100%" stop-color="#0f172a"/>
    </linearGradient>

    <linearGradient id="brass-bell" x1="0%" y1="0%" x2="100%" y2="100%">
      <stop offset="0%" stop-color="#fef08a"/>
      <stop offset="45%" stop-color="#eab308"/>
      <stop offset="85%" stop-color="#ca8a04"/>
      <stop offset="100%" stop-color="#854d0e"/>
    </linearGradient>

    <!-- Pelican Anatomy Gradients -->
    <linearGradient id="pelican-bill" x1="0%" y1="0%" x2="100%" y2="15%">
      <stop offset="0%" stop-color="#94a3b8"/>
      <stop offset="30%" stop-color="#cbd5e1"/>
      <stop offset="65%" stop-color="#f59e0b"/>
      <stop offset="92%" stop-color="#d97706"/>
      <stop offset="100%" stop-color="#334155"/>
    </linearGradient>

    <linearGradient id="pelican-pouch" x1="0%" y1="0%" x2="100%" y2="80%">
      <stop offset="0%" stop-color="#fda4af"/>
      <stop offset="25%" stop-color="#f43f5e"/>
      <stop offset="60%" stop-color="#be123c"/>
      <stop offset="100%" stop-color="#881337"/>
    </linearGradient>

    <linearGradient id="pelican-neck" x1="0%" y1="0%" x2="0%" y2="100%">
      <stop offset="0%" stop-color="#451a03"/>
      <stop offset="40%" stop-color="#3b1a08"/>
      <stop offset="100%" stop-color="#1c0a02"/>
    </linearGradient>

    <linearGradient id="pelican-body" x1="0%" y1="0%" x2="100%" y2="100%">
      <stop offset="0%" stop-color="#64748b"/>
      <stop offset="30%" stop-color="#475569"/>
      <stop offset="70%" stop-color="#334155"/>
      <stop offset="100%" stop-color="#1e293b"/>
    </linearGradient>

    <linearGradient id="pelican-leg-near" x1="0%" y1="0%" x2="0%" y2="100%">
      <stop offset="0%" stop-color="#574841"/>
      <stop offset="40%" stop-color="#443731"/>
      <stop offset="85%" stop-color="#2d2420"/>
      <stop offset="100%" stop-color="#1a1513"/>
    </linearGradient>

    <linearGradient id="pelican-leg-far" x1="0%" y1="0%" x2="0%" y2="100%">
      <stop offset="0%" stop-color="#3a2f2b"/>
      <stop offset="50%" stop-color="#2c231f"/>
      <stop offset="100%" stop-color="#15110f"/>
    </linearGradient>

    <linearGradient id="headlight-beam" x1="0%" y1="0%" x2="100%" y2="0%">
      <stop offset="0%" stop-color="#fef08a" stop-opacity="0.45"/>
      <stop offset="40%" stop-color="#fef08a" stop-opacity="0.18"/>
      <stop offset="100%" stop-color="#fef08a" stop-opacity="0"/>
    </linearGradient>

    <!-- Crossed Wheel Spokes Definition (24 Spokes) -->
    <g id="wheel-spoke-cluster">
      <!-- 12 Tangential Leading Spokes -->
      <line x1="12.7" y1="5.9" x2="88" y2="0" stroke="#cbd5e1" stroke-width="1.2" stroke-opacity="0.8"/>
      <line x1="5.9" y1="12.7" x2="62.2" y2="62.2" stroke="#cbd5e1" stroke-width="1.2" stroke-opacity="0.8"/>
      <line x1="-5.9" y1="12.7" x2="0" y2="88" stroke="#cbd5e1" stroke-width="1.2" stroke-opacity="0.8"/>
      <line x1="-12.7" y1="5.9" x2="-62.2" y2="62.2" stroke="#cbd5e1" stroke-width="1.2" stroke-opacity="0.8"/>
      <line x1="-12.7" y1="-5.9" x2="-88" y2="0" stroke="#cbd5e1" stroke-width="1.2" stroke-opacity="0.8"/>
      <line x1="-5.9" y1="-12.7" x2="-62.2" y2="-62.2" stroke="#cbd5e1" stroke-width="1.2" stroke-opacity="0.8"/>
      <line x1="5.9" y1="-12.7" x2="0" y2="-88" stroke="#cbd5e1" stroke-width="1.2" stroke-opacity="0.8"/>
      <line x1="12.7" y1="-5.9" x2="62.2" y2="-62.2" stroke="#cbd5e1" stroke-width="1.2" stroke-opacity="0.8"/>
      <line x1="13.9" y1="1.7" x2="76.2" y2="44.0" stroke="#cbd5e1" stroke-width="1.2" stroke-opacity="0.8"/>
      <line x1="-1.7" y1="13.9" x2="-44.0" y2="76.2" stroke="#cbd5e1" stroke-width="1.2" stroke-opacity="0.8"/>
      <line x1="-13.9" y1="-1.7" x2="-76.2" y2="-44.0" stroke="#cbd5e1" stroke-width="1.2" stroke-opacity="0.8"/>
      <line x1="1.7" y1="-13.9" x2="44.0" y2="-76.2" stroke="#cbd5e1" stroke-width="1.2" stroke-opacity="0.8"/>
      <!-- 12 Tangential Trailing Spokes -->
      <line x1="12.7" y1="-5.9" x2="88" y2="0" stroke="#cbd5e1" stroke-width="1.2" stroke-opacity="0.8"/>
      <line x1="5.9" y1="-12.7" x2="62.2" y2="-62.2" stroke="#cbd5e1" stroke-width="1.2" stroke-opacity="0.8"/>
      <line x1="-5.9" y1="-12.7" x2="0" y2="-88" stroke="#cbd5e1" stroke-width="1.2" stroke-opacity="0.8"/>
      <line x1="-12.7" y1="-5.9" x2="-62.2" y2="-62.2" stroke="#cbd5e1" stroke-width="1.2" stroke-opacity="0.8"/>
      <line x1="-12.7" y1="5.9" x2="-88" y2="0" stroke="#cbd5e1" stroke-width="1.2" stroke-opacity="0.8"/>
      <line x1="-5.9" y1="12.7" x2="-62.2" y2="62.2" stroke="#cbd5e1" stroke-width="1.2" stroke-opacity="0.8"/>
      <line x1="5.9" y1="12.7" x2="0" y2="88" stroke="#cbd5e1" stroke-width="1.2" stroke-opacity="0.8"/>
      <line x1="12.7" y1="5.9" x2="62.2" y2="62.2" stroke="#cbd5e1" stroke-width="1.2" stroke-opacity="0.8"/>
      <line x1="13.9" y1="-1.7" x2="76.2" y2="-44.0" stroke="#cbd5e1" stroke-width="1.2" stroke-opacity="0.8"/>
      <line x1="-1.7" y1="-13.9" x2="-44.0" y2="-76.2" stroke="#cbd5e1" stroke-width="1.2" stroke-opacity="0.8"/>
      <line x1="-13.9" y1="1.7" x2="-76.2" y2="44.0" stroke="#cbd5e1" stroke-width="1.2" stroke-opacity="0.8"/>
      <line x1="1.7" y1="13.9" x2="44.0" y2="76.2" stroke="#cbd5e1" stroke-width="1.2" stroke-opacity="0.8"/>
    </g>
  </defs>

  <!-- ==================== BACKGROUND SCENERY ==================== -->
  <!-- Sky -->
  <rect x="0" y="0" width="1100" height="380" fill="url(#sky-grad)"/>

  <!-- Distant Golden Sun -->
  <circle cx="880" cy="280" r="65" fill="#fef08a" opacity="0.45"/>
  <circle cx="880" cy="280" r="45" fill="#ffffff" opacity="0.6"/>

  <!-- Distant Flying Pelicans Formation -->
  <g fill="#334155" opacity="0.6">
    <path d="M 140 100 Q 152 92, 164 100 Q 176 92, 188 100 Q 164 103, 140 100 Z"/>
    <path d="M 185 118 Q 194 112, 203 118 Q 212 112, 221 118 Q 203 121, 185 118 Z"/>
    <path d="M 215 138 Q 223 133, 231 138 Q 239 133, 247 138 Q 231 141, 215 138 Z"/>
  </g>

  <!-- Distant Coastal Headlands / Bluffs -->
  <path d="M 0 380 L 0 320 Q 80 290, 180 320 T 380 330 Q 520 285, 680 340 T 980 310 Q 1040 320, 1100 335 L 1100 380 Z" fill="url(#cliff-grad)" opacity="0.85"/>
  <!-- Silhouette of Monterey Cypress on Cliff -->
  <path d="M 120 312 L 123 275 Q 115 265, 95 265 Q 120 255, 140 262 Q 160 250, 150 268 Q 130 270, 126 275 L 128 312 Z" fill="#14532d" opacity="0.9"/>
  <path d="M 1020 315 L 1022 285 Q 1005 275, 990 278 Q 1015 265, 1038 272 Q 1055 260, 1045 280 Q 1030 282, 1025 285 L 1025 315 Z" fill="#14532d" opacity="0.8"/>

  <!-- Pacific Ocean with Wave Crests -->
  <rect x="0" y="380" width="1100" height="150" fill="url(#ocean-grad)"/>
  <path d="M 0 410 Q 275 402, 550 410 T 1100 410 L 1100 418 Q 825 410, 550 418 T 0 418 Z" fill="#38bdf8" opacity="0.4"/>
  <path d="M 0 445 Q 275 437, 550 445 T 1100 445 L 1100 453 Q 825 445, 550 453 T 0 453 Z" fill="#bae6fd" opacity="0.35"/>
  <path d="M 0 485 Q 275 478, 550 485 T 1100 485 L 1100 493 Q 825 486, 550 493 T 0 493 Z" fill="#e0f2fe" opacity="0.3"/>

  <!-- Coastal Bluff Foreground / Highway Embankment -->
  <path d="M 0 530 Q 350 515, 700 525 T 1100 520 L 1100 575 L 0 575 Z" fill="#78350f"/>
  <path d="M 0 530 Q 350 515, 700 525 T 1100 520 L 1100 540 Q 700 535, 350 525 T 0 540 Z" fill="#65a30d" opacity="0.75"/>

  <!-- Rustic Wooden Guardrail Behind Bike -->
  <g stroke="#451a03" stroke-linecap="round">
    <!-- Posts -->
    <rect x="60" y="495" width="12" height="60" fill="#78350f" stroke-width="1.5"/>
    <rect x="230" y="495" width="12" height="60" fill="#78350f" stroke-width="1.5"/>
    <rect x="400" y="495" width="12" height="60" fill="#78350f" stroke-width="1.5"/>
    <rect x="570" y="495" width="12" height="60" fill="#78350f" stroke-width="1.5"/>
    <rect x="740" y="495" width="12" height="60" fill="#78350f" stroke-width="1.5"/>
    <rect x="910" y="495" width="12" height="60" fill="#78350f" stroke-width="1.5"/>
    <rect x="1060" y="495" width="12" height="60" fill="#78350f" stroke-width="1.5"/>
    <!-- Rails -->
    <rect x="0" y="505" width="1100" height="9" fill="#92400e" stroke-width="1.5"/>
    <rect x="0" y="525" width="1100" height="9" fill="#92400e" stroke-width="1.5"/>
  </g>

  <!-- Highway Road Surface -->
  <rect x="0" y="565" width="1100" height="135" fill="url(#road-grad)"/>
  <!-- Road Edge Solid White Line -->
  <line x1="0" y1="575" x2="1100" y2="575" stroke="#f8fafc" stroke-width="3" opacity="0.8"/>

  <!-- Animated Moving Road Markings (Speed Illusion) -->
  <line x1="0" y1="645" x2="1100" y2="645" stroke="#facc15" stroke-width="6" stroke-dasharray="60,70">
    <animate attributeName="stroke-dashoffset" from="0" to="-130" dur="0.8s" repeatCount="indefinite"/>
  </line>
  <line x1="0" y1="582" x2="1100" y2="582" stroke="#64748b" stroke-width="2" stroke-dasharray="25,50">
    <animate attributeName="stroke-dashoffset" from="0" to="-75" dur="0.8s" repeatCount="indefinite"/>
  </line>

  <!-- Bike Wheel Shadow on Road -->
  <ellipse cx="260" cy="576" rx="75" ry="8" fill="#020617" opacity="0.45"/>
  <ellipse cx="760" cy="576" rx="75" ry="8" fill="#020617" opacity="0.45"/>
  <ellipse cx="470" cy="576" rx="90" ry="6" fill="#020617" opacity="0.3"/>

  <!-- ==================== BICYCLE & RIDER ==================== -->

  <!-- 1. FAR CRANK & FAR PEDAL (Behind Bicycle Frame) -->
  <g id="far-drivetrain" transform="translate(462, 446)">
    <g>
      <!-- Revolves 360 deg clockwise around bottom bracket spindle -->
      <animateTransform attributeName="transform" type="rotate" from="180 0 0" to="540 0 0" dur="1.6s" repeatCount="indefinite"/>
      <!-- Far Crank Arm (starts pointing down at t=0) -->
      <line x1="0" y1="0" x2="0" y2="-38" stroke="#334155" stroke-width="7" stroke-linecap="round"/>
      <!-- Far Pedal Unit -->
      <g transform="translate(0, -38)">
        <!-- Counter-rotates to keep pedal platform level -->
        <animateTransform attributeName="transform" type="rotate" from="-180 0 0" to="-540 0 0" dur="1.6s" repeatCount="indefinite"/>
        <rect x="-18" y="-4" width="36" height="8" rx="3" fill="#0f172a" stroke="#1e293b" stroke-width="1.5"/>
        <rect x="-14" y="-2" width="6" height="4" rx="1" fill="#b45309"/>
      </g>
    </g>
  </g>

  <!-- 2. FAR PELICAN LEG (Behind Bicycle Frame & Saddle) -->
  <!-- Morphing path synchronised 180 degrees out of phase with near leg -->
  <path id="far-leg" fill="url(#pelican-leg-far)" stroke="#1a1411" stroke-width="1.8" stroke-linejoin="round">
    <animate attributeName="d" dur="1.6s" repeatCount="indefinite"
      keyTimes="0; 0.125; 0.25; 0.375; 0.5; 0.625; 0.75; 0.875; 1"
      values="
        M 418 271 Q 432 328, 452 396 L 462 466 Q 474 470, 484 483 L 488 487 L 476 484 L 444 484 L 446 466 Q 436 426, 436 396 Q 420 321, 385 271 Z;
        M 418 271 Q 422 321, 436 380 L 435 455 Q 447 459, 457 472 L 461 476 L 449 473 L 417 473 L 419 455 Q 420 408, 420 380 Q 410 311, 385 271 Z;
        M 418 271 Q 420 306, 432 350 L 424 428 Q 436 432, 446 445 L 450 449 L 438 446 L 406 446 L 408 428 Q 416 381, 416 350 Q 408 301, 385 271 Z;
        M 418 271 Q 428 292, 444 324 L 435 401 Q 447 405, 457 418 L 461 422 L 449 419 L 417 419 L 419 401 Q 428 356, 428 324 Q 412 294, 385 271 Z;
        M 418 271 Q 436 286, 460 312 L 462 390 Q 474 394, 484 407 L 488 411 L 476 408 L 444 408 L 446 390 Q 444 346, 444 312 Q 422 291, 385 271 Z;
        M 418 271 Q 445 292, 476 324 L 489 401 Q 501 405, 511 418 L 515 422 L 503 419 L 471 419 L 473 401 Q 460 356, 460 324 Q 426 294, 385 271 Z;
        M 418 271 Q 452 304, 483 348 L 500 428 Q 512 432, 522 445 L 526 449 L 514 446 L 482 446 L 484 428 Q 467 381, 467 348 Q 428 301, 385 271 Z;
        M 418 271 Q 446 318, 473 376 L 489 455 Q 501 459, 511 472 L 515 476 L 503 473 L 471 473 L 473 455 Q 457 408, 457 376 Q 426 311, 385 271 Z;
        M 418 271 Q 432 328, 452 396 L 462 466 Q 474 470, 484 483 L 488 487 L 476 484 L 444 484 L 446 466 Q 436 426, 436 396 Q 420 321, 385 271 Z
      "
    />
  </path>

  <!-- 3. REAR WHEEL (Center at 260, 470) -->
  <g id="rear-wheel" transform="translate(260, 470)">
    <!-- Rotating Hub, Spokes, Valve, and Rim Texture -->
    <g id="rear-wheel-spin">
      <animateTransform attributeName="transform" type="rotate" from="0 0 0" to="360 0 0" dur="0.8s" repeatCount="indefinite"/>
      <!-- Tire Outer Rubber -->
      <circle cx="0" cy="0" r="105" fill="url(#tire-grad)"/>
      <!-- Tire Tread Pattern -->
      <circle cx="0" cy="0" r="101" fill="none" stroke="#0f172a" stroke-width="5" stroke-dasharray="8,10"/>
      <!-- Whitewall Tire Band -->
      <circle cx="0" cy="0" r="95" fill="none" stroke="#f8fafc" stroke-width="4"/>
      <!-- Metallic Wheel Rim -->
      <circle cx="0" cy="0" r="88" fill="none" stroke="url(#chrome-grad)" stroke-width="7"/>
      <circle cx="0" cy="0" r="84.5" fill="none" stroke="#334155" stroke-width="1.5"/>
      <!-- 24 Crossed Spokes -->
      <use href="#wheel-spoke-cluster"/>
      <!-- Tire Air Valve -->
      <rect x="68" y="-2" width="10" height="4" rx="1.5" fill="#f59e0b"/>
      <!-- Vintage Wheel Reflector / Accent Mark -->
      <circle cx="-55" cy="0" r="6" fill="#f59e0b" stroke="#78350f" stroke-width="1"/>
      <!-- Center Hub Shell -->
      <circle cx="0" cy="0" r="16" fill="url(#chrome-grad)" stroke="#334155" stroke-width="1.5"/>
      <circle cx="0" cy="0" r="6" fill="#0f172a"/>
    </g>
    <!-- Non-rotating Chrome Axle Nut -->
    <circle cx="0" cy="0" r="5" fill="#e2e8f0" stroke="#475569" stroke-width="1.5"/>
  </g>

  <!-- 4. FRONT WHEEL (Center at 760, 470) -->
  <g id="front-wheel" transform="translate(760, 470)">
    <!-- Rotating Hub, Spokes, Valve, and Rim Texture -->
    <g id="front-wheel-spin">
      <animateTransform attributeName="transform" type="rotate" from="0 0 0" to="360 0 0" dur="0.8s" repeatCount="indefinite"/>
      <!-- Tire Outer Rubber -->
      <circle cx="0" cy="0" r="105" fill="url(#tire-grad)"/>
      <!-- Tire Tread Pattern -->
      <circle cx="0" cy="0" r="101" fill="none" stroke="#0f172a" stroke-width="5" stroke-dasharray="8,10"/>
      <!-- Whitewall Tire Band -->
      <circle cx="0" cy="0" r="95" fill="none" stroke="#f8fafc" stroke-width="4"/>
      <!-- Metallic Wheel Rim -->
      <circle cx="0" cy="0" r="88" fill="none" stroke="url(#chrome-grad)" stroke-width="7"/>
      <circle cx="0" cy="0" r="84.5" fill="none" stroke="#334155" stroke-width="1.5"/>
      <!-- 24 Crossed Spokes -->
      <use href="#wheel-spoke-cluster"/>
      <!-- Tire Air Valve -->
      <rect x="68" y="-2" width="10" height="4" rx="1.5" fill="#f59e0b"/>
      <!-- Vintage Wheel Reflector / Accent Mark -->
      <circle cx="55" cy="0" r="6" fill="#f59e0b" stroke="#78350f" stroke-width="1"/>
      <!-- Center Hub Shell -->
      <circle cx="0" cy="0" r="16" fill="url(#chrome-grad)" stroke="#334155" stroke-width="1.5"/>
      <circle cx="0" cy="0" r="6" fill="#0f172a"/>
    </g>
    <!-- Non-rotating Chrome Axle Nut -->
    <circle cx="0" cy="0" r="5" fill="#e2e8f0" stroke="#475569" stroke-width="1.5"/>
  </g>

  <!-- 5. BICYCLE FRAME, FORK, FENDERS, & DRIVE CHAIN -->
  <!-- Rear Fender / Mudguard -->
  <path d="M 165 470 A 108 108 0 0 1 362 430" fill="none" stroke="url(#frame-teal)" stroke-width="14" stroke-linecap="round"/>
  <path d="M 165 470 A 108 108 0 0 1 362 430" fill="none" stroke="#99f6e4" stroke-width="2"/>
  <!-- Rear Fender Stays -->
  <line x1="260" y1="470" x2="175" y2="435" stroke="#cbd5e1" stroke-width="2.5"/>
  <line x1="260" y1="470" x2="215" y2="375" stroke="#cbd5e1" stroke-width="2.5"/>

  <!-- Front Fender / Mudguard -->
  <path d="M 680 410 A 108 108 0 0 1 855 485" fill="none" stroke="url(#frame-teal)" stroke-width="14" stroke-linecap="round"/>
  <path d="M 680 410 A 108 108 0 0 1 855 485" fill="none" stroke="#99f6e4" stroke-width="2"/>
  <!-- Front Fender Stays -->
  <line x1="760" y1="470" x2="845" y2="455" stroke="#cbd5e1" stroke-width="2.5"/>
  <line x1="760" y1="470" x2="720" y2="375" stroke="#cbd5e1" stroke-width="2.5"/>

  <!-- Rear Chainstay (BB to Rear Axle) -->
  <line x1="470" y1="450" x2="260" y2="470" stroke="url(#frame-teal)" stroke-width="10" stroke-linecap="round"/>
  <line x1="470" y1="450" x2="260" y2="470" stroke="#99f6e4" stroke-width="2" stroke-linecap="round"/>

  <!-- Rear Seatstay (Seat Cluster to Rear Axle) -->
  <line x1="425" y1="300" x2="260" y2="470" stroke="url(#frame-teal)" stroke-width="9" stroke-linecap="round"/>
  <line x1="425" y1="300" x2="260" y2="470" stroke="#99f6e4" stroke-width="1.8" stroke-linecap="round"/>

  <!-- Bicycle Chain & Rear Cog -->
  <!-- Rear Cog -->
  <circle cx="260" cy="470" r="16" fill="#475569" stroke="#94a3b8" stroke-width="2"/>
  <!-- Animated Moving Drive Chain Loop -->
  <path d="M 470 422 L 260 456 A 14 14 0 0 1 260 484 L 470 478 A 28 28 0 0 0 470 422" fill="none" stroke="#64748b" stroke-width="4" stroke-dasharray="5,4">
    <animate attributeName="stroke-dashoffset" from="0" to="-36" dur="0.8s" repeatCount="indefinite"/>
  </path>

  <!-- Seat Tube (BB 470,450 to Seat Cluster 425,300) -->
  <line x1="470" y1="450" x2="425" y2="300" stroke="url(#frame-teal)" stroke-width="12" stroke-linecap="round"/>
  <line x1="470" y1="450" x2="425" y2="300" stroke="#99f6e4" stroke-width="2.5" stroke-linecap="round"/>

  <!-- Down Tube (BB 470,450 to Head Tube 690,325) -->
  <line x1="470" y1="450" x2="690" y2="325" stroke="url(#frame-teal)" stroke-width="14" stroke-linecap="round"/>
  <line x1="470" y1="450" x2="690" y2="325" stroke="#99f6e4" stroke-width="3" stroke-linecap="round"/>
  <!-- Vintage Down Tube Brand Script -->
  <text transform="translate(535, 418) rotate(-29.5)" font-family="sans-serif" font-size="8.5" font-weight="900" fill="#fef08a" letter-spacing="2.5" opacity="0.9">PACIFIC PELICAN</text>

  <!-- Cruiser Cantilever Curved Twin Top Tubes -->
  <!-- Upper Curved Top Tube -->
  <path d="M 425 300 C 490 270, 610 265, 682 285" fill="none" stroke="url(#frame-teal)" stroke-width="11" stroke-linecap="round"/>
  <path d="M 425 300 C 490 270, 610 265, 682 285" fill="none" stroke="#99f6e4" stroke-width="2.5" stroke-linecap="round"/>
  <!-- Lower Cantilever Tube (Rear Dropouts through to Head Tube) -->
  <path d="M 260 470 C 340 370, 420 318, 688 310" fill="none" stroke="url(#frame-teal)" stroke-width="8" stroke-linecap="round"/>
  <path d="M 260 470 C 340 370, 420 318, 688 310" fill="none" stroke="#99f6e4" stroke-width="1.8" stroke-linecap="round"/>

  <!-- Head Tube (680,275 to 695,335) -->
  <line x1="680" y1="275" x2="695" y2="335" stroke="url(#frame-teal)" stroke-width="16" stroke-linecap="round"/>
  <line x1="680" y1="275" x2="695" y2="335" stroke="#f8fafc" stroke-width="3.5" stroke-linecap="round"/>
  <!-- Head Badge -->
  <rect x="682" y="295" width="8" height="12" rx="3" fill="#ca8a04"/>

  <!-- Front Curved Fork Blades -->
  <path d="M 695 335 Q 715 410, 760 470" fill="none" stroke="url(#frame-teal)" stroke-width="11" stroke-linecap="round"/>
  <path d="M 695 335 Q 715 410, 760 470" fill="none" stroke="#f8fafc" stroke-width="2.5" stroke-linecap="round"/>

  <!-- Front Dropouts & Axle Caps -->
  <circle cx="760" cy="470" r="8" fill="#475569" stroke="#94a3b8" stroke-width="1.5"/>
  <circle cx="260" cy="470" r="8" fill="#475569" stroke="#94a3b8" stroke-width="1.5"/>

  <!-- Seatpost & Vintage Brooks-Style Leather Saddle -->
  <!-- Chrome Seatpost with clamp -->
  <line x1="425" y1="300" x2="415" y2="270" stroke="url(#chrome-grad)" stroke-width="8" stroke-linecap="round"/>
  <rect x="410" y="270" width="12" height="6" rx="2" fill="#334155"/>
  <!-- Chrome Saddle Springs -->
  <path d="M 378 274 Q 383 282, 388 274 Q 393 282, 398 274" fill="none" stroke="url(#chrome-grad)" stroke-width="3.5"/>
  <!-- Leather Saddle Contour -->
  <path d="M 368 266 C 368 258, 388 256, 412 260 C 430 263, 442 267, 445 272 C 445 276, 436 276, 425 274 C 400 270, 375 272, 368 266 Z" fill="url(#leather-saddle)" stroke="#290e02" stroke-width="1.5"/>
  <!-- Brass Saddle Rivets -->
  <circle cx="373" cy="265" r="1.5" fill="#ca8a04"/>
  <circle cx="380" cy="266" r="1.5" fill="#ca8a04"/>
  <circle cx="390" cy="267" r="1.5" fill="#ca8a04"/>

  <!-- 6. PELICAN RIDER (Seated Body, Folded Wings, Neck, Head, Beak, & Scarf) -->
  <g id="pelican-rider">
    <!-- Tail Feathers extending back over saddle -->
    <path d="M 380 264 C 350 265, 320 280, 305 292 L 315 298 L 332 288 L 345 296 C 358 285, 375 275, 388 270 Z" fill="#334155" stroke="#1e293b" stroke-width="1.5"/>

    <!-- Main Torso & Flank Plumage -->
    <path d="M 425 275 C 455 275, 495 265, 525 240 C 545 220, 535 195, 500 192 C 460 190, 415 210, 375 258 C 365 270, 385 275, 425 275 Z" fill="url(#pelican-body)" stroke="#1e293b" stroke-width="2"/>
    <!-- Scalloped Mantle Feathers Texture -->
    <path d="M 440 215 Q 452 225, 464 215 Q 476 225, 488 215" fill="none" stroke="#64748b" stroke-width="2"/>
    <path d="M 425 232 Q 437 242, 449 232 Q 461 242, 473 232" fill="none" stroke="#64748b" stroke-width="2"/>
    <path d="M 410 250 Q 422 260, 434 250 Q 446 260, 458 250" fill="none" stroke="#64748b" stroke-width="2"/>

    <!-- Near Wing (Folded along flank with alula reaching toward handlebar) -->
    <path d="M 495 195 C 455 198, 395 240, 340 268 C 375 264, 430 250, 475 235 C 510 225, 530 210, 495 195 Z" fill="#475569" stroke="#1e293b" stroke-width="1.8"/>
    <!-- Wing Primary Feathers Edge -->
    <path d="M 340 268 L 390 252 L 440 240" fill="none" stroke="#1e293b" stroke-width="2"/>

    <!-- Wing Arm Reaching to Handlebar Grip -->
    <path d="M 485 210 C 530 215, 580 220, 634 234 C 636 238, 630 245, 622 244 C 575 235, 525 228, 480 222 Z" fill="#475569" stroke="#1e293b" stroke-width="1.8"/>
    <!-- Wing "Fingers" (Primary feather tips) curled around handlebar grip -->
    <path d="M 622 232 C 628 226, 638 226, 642 232 C 645 238, 638 243, 630 244 C 623 244, 618 238, 622 232 Z" fill="#64748b" stroke="#1e293b" stroke-width="1.5"/>
    <path d="M 636 233 Q 643 238, 641 244" stroke="#1e293b" stroke-width="1.5" fill="none"/>

    <!-- Head, S-Curve Neck, Pouch, & Bill Assembly with Cadence Bob -->
    <g id="pelican-head-bob">
      <!-- Gentle pedaling cadence bob synchronized with power strokes -->
      <animateTransform attributeName="transform" type="rotate"
        values="0 520 220; -1.2 520 220; 0 520 220; 1.2 520 220; 0 520 220"
        keyTimes="0; 0.25; 0.5; 0.75; 1" dur="1.6s" repeatCount="indefinite"/>

      <!-- California Brown Pelican S-Curved Neck (Chestnut hindneck, white stripe) -->
      <!-- Dark Chestnut Hindneck -->
      <path d="M 505 210 C 475 190, 520 145, 555 132 L 565 145 C 535 158, 500 195, 525 218 Z" fill="url(#pelican-neck)" stroke="#1c0a02" stroke-width="1.5"/>
      <!-- Silky White Neck Stripe -->
      <path d="M 525 218 C 500 195, 535 158, 565 145 C 572 150, 568 158, 558 165 C 542 178, 522 205, 535 220 Z" fill="#f8fafc" stroke="#e2e8f0" stroke-width="1"/>
      <!-- Foreneck Throat Base -->
      <path d="M 525 220 C 535 225, 550 205, 562 175 L 575 178 C 560 215, 545 235, 530 225 Z" fill="#3b1a08"/>

      <!-- Pelican Head & Crown -->
      <!-- Shaggy Nape Crest Feathers -->
      <path d="M 552 135 Q 532 132, 545 125 Q 535 122, 555 120" fill="none" stroke="#eab308" stroke-width="2.5" stroke-linecap="round"/>
      <!-- Head Base -->
      <path d="M 555 132 C 555 115, 580 112, 600 130 C 602 142, 595 152, 575 152 C 562 152, 555 142, 555 132 Z" fill="#fef08a" stroke="#ca8a04" stroke-width="1.5"/>

      <!-- Pelican Bare Orbital Skin & Eye -->
      <path d="M 576 134 C 576 128, 594 128, 596 134 C 596 141, 576 141, 576 134 Z" fill="#475569"/>
      <!-- Straw-Yellow Iris -->
      <circle cx="586" cy="134" r="5.5" fill="#fef08a" stroke="#ca8a04" stroke-width="1"/>
      <!-- Sharp Black Pupil -->
      <circle cx="587" cy="134" r="3" fill="#0f172a"/>
      <!-- Eye Highlight -->
      <circle cx="588.5" cy="132.5" r="1.2" fill="#ffffff"/>
      <!-- Keen Brow Mark -->
      <path d="M 578 130 Q 586 127, 593 131" stroke="#1e293b" stroke-width="1.5" fill="none"/>

      <!-- Iconic California Brown Pelican Bill & Gular Pouch -->
      <!-- Massive Gular (Throat) Pouch with elastic curvature -->
      <path d="M 742 165 C 700 195, 655 212, 620 205 C 585 198, 565 182, 565 168 C 585 168, 625 160, 675 158 L 742 165 Z" fill="url(#pelican-pouch)" stroke="#881337" stroke-width="1.5"/>
      <!-- Gular Pouch Longitudinal Stretch Striations -->
      <path d="M 625 172 Q 622 192, 618 204" stroke="#f43f5e" stroke-width="1.5" stroke-opacity="0.6" fill="none"/>
      <path d="M 652 168 Q 648 188, 642 205" stroke="#f43f5e" stroke-width="1.5" stroke-opacity="0.6" fill="none"/>
      <path d="M 680 166 Q 675 182, 670 198" stroke="#f43f5e" stroke-width="1.5" stroke-opacity="0.6" fill="none"/>
      <path d="M 708 164 Q 704 176, 698 188" stroke="#f43f5e" stroke-width="1.5" stroke-opacity="0.6" fill="none"/>

      <!-- Long Sturdy Upper Mandible (Maxilla) with Downcurved Hook (Nail) -->
      <path d="M 595 132 L 742 155 C 748 156, 750 162, 746 166 C 742 168, 738 162, 736 158 L 595 144 Z" fill="url(#pelican-bill)" stroke="#475569" stroke-width="1.5"/>
      <!-- Lateral Mandible Groove & Culmen Ridge Highlight -->
      <path d="M 598 135 L 738 155" stroke="#fef08a" stroke-width="1.5" stroke-linecap="round" fill="none" opacity="0.8"/>
      <!-- Hook Tip Dark Contrast -->
      <path d="M 740 156 Q 747 160, 744 167" stroke="#1e293b" stroke-width="2" fill="none"/>

      <!-- Fluttering Coastal Wind Scarf tied at neck -->
      <!-- Scarf Knot -->
      <ellipse cx="528" cy="208" rx="8" ry="6" fill="#f43f5e" stroke="#be123c" stroke-width="1.5"/>
      <!-- Animated Fluttering Tails -->
      <path fill="#f43f5e" stroke="#be123c" stroke-width="1.5">
        <animate attributeName="d" dur="0.6s" repeatCount="indefinite"
          values="
            M 524 206 Q 495 198, 465 204 Q 445 208, 430 198 Q 452 208, 475 206 Q 500 204, 524 212 Z;
            M 524 206 Q 495 208, 465 198 Q 440 190, 424 204 Q 450 200, 472 206 Q 500 210, 524 212 Z;
            M 524 206 Q 495 202, 465 208 Q 442 212, 428 200 Q 452 208, 474 204 Q 498 206, 524 212 Z;
            M 524 206 Q 495 198, 465 204 Q 445 208, 430 198 Q 452 208, 475 206 Q 500 204, 524 212 Z
          "
        />
      </path>
    </g>
  </g>

  <!-- 7. CRANKSET & NEAR CRANK ASSEMBLY (Center at 470, 450) -->
  <!-- Rotating Chainring (Spindle Center at 470, 450) -->
  <g transform="translate(470, 450)">
    <g>
      <animateTransform attributeName="transform" type="rotate" from="0 0 0" to="360 0 0" dur="1.6s" repeatCount="indefinite"/>
      <!-- 52T Chainring Outer Teeth Track -->
      <circle cx="0" cy="0" r="32" fill="none" stroke="#94a3b8" stroke-width="4" stroke-dasharray="3,3"/>
      <circle cx="0" cy="0" r="28" fill="#475569" fill-opacity="0.3" stroke="#64748b" stroke-width="2"/>
      <!-- 5-Arm Crank Spider -->
      <line x1="0" y1="0" x2="0" y2="-28" stroke="#cbd5e1" stroke-width="3"/>
      <line x1="0" y1="0" x2="26.6" y2="-8.6" stroke="#cbd5e1" stroke-width="3"/>
      <line x1="0" y1="0" x2="16.4" y2="22.6" stroke="#cbd5e1" stroke-width="3"/>
      <line x1="0" y1="0" x2="-16.4" y2="22.6" stroke="#cbd5e1" stroke-width="3"/>
      <line x1="0" y1="0" x2="-26.6" y2="-8.6" stroke="#cbd5e1" stroke-width="3"/>
      <circle cx="0" cy="0" r="10" fill="#1e293b" stroke="#cbd5e1" stroke-width="2"/>
    </g>
  </g>

  <!-- Near Crank Arm & Near Pedal -->
  <g id="near-crank-assembly" transform="translate(470, 450)">
    <g>
      <!-- Revolves 360 deg clockwise around bottom bracket spindle -->
      <animateTransform attributeName="transform" type="rotate" from="0 0 0" to="360 0 0" dur="1.6s" repeatCount="indefinite"/>
      <!-- Near Chrome Crank Arm (starts pointing straight up at t=0) -->
      <line x1="0" y1="0" x2="0" y2="-38" stroke="url(#chrome-grad)" stroke-width="9" stroke-linecap="round"/>
      <line x1="0" y1="0" x2="0" y2="-38" stroke="#f8fafc" stroke-width="2" stroke-linecap="round"/>
      <circle cx="0" cy="0" r="9" fill="url(#chrome-grad)" stroke="#475569" stroke-width="2"/>

      <!-- Near Pedal (Spindle at 0, -38) -->
      <g id="near-pedal-unit" transform="translate(0, -38)">
        <!-- Counter-rotates exactly -360 deg so pedal platform remains level -->
        <animateTransform attributeName="transform" type="rotate" from="0 0 0" to="-360 0 0" dur="1.6s" repeatCount="indefinite"/>
        <!-- Pedal Axle Spindle Bolt -->
        <circle cx="0" cy="0" r="5" fill="#475569" stroke="#cbd5e1" stroke-width="1.5"/>
        <!-- Pedal Platform Body -->
        <rect x="-20" y="-4" width="40" height="8" rx="3" fill="#1e293b" stroke="#64748b" stroke-width="1.5"/>
        <!-- Amber Safety Reflectors on Pedal Ends -->
        <rect x="-16" y="-2" width="7" height="4" rx="1" fill="#f59e0b"/>
        <rect x="9" y="-2" width="7" height="4" rx="1" fill="#f59e0b"/>
        <!-- Pedal Grip Serrations -->
        <line x1="-18" y1="-4" x2="18" y2="-4" stroke="#94a3b8" stroke-width="1" stroke-dasharray="2,2"/>
        <line x1="-18" y1="4" x2="18" y2="4" stroke="#94a3b8" stroke-width="1" stroke-dasharray="2,2"/>
      </g>
    </g>
  </g>

  <!-- 8. NEAR PELICAN LEG & WEBBED FOOT (Foreground, In Front of Frame & Crank) -->
  <!-- Morphing path calculated with exact inverse kinematics across 8 keyframes; foot rests firmly on pedal at all times -->
  <path id="near-leg" fill="url(#pelican-leg-near)" stroke="#1a1411" stroke-width="2" stroke-linejoin="round">
    <animate attributeName="d" dur="1.6s" repeatCount="indefinite"
      keyTimes="0; 0.125; 0.25; 0.375; 0.5; 0.625; 0.75; 0.875; 1"
      values="
        M 428 275 Q 446 290, 470 316 L 472 394 Q 484 398, 494 411 L 498 415 L 486 412 L 454 412 L 456 394 Q 454 350, 454 316 Q 432 295, 395 275 Z;
        M 428 275 Q 455 296, 486 328 L 499 405 Q 511 409, 521 422 L 525 426 L 513 423 L 481 423 L 483 405 Q 470 360, 470 328 Q 436 298, 395 275 Z;
        M 428 275 Q 462 308, 493 352 L 510 432 Q 522 436, 532 449 L 536 453 L 524 450 L 492 450 L 494 432 Q 477 385, 477 352 Q 438 305, 395 275 Z;
        M 428 275 Q 456 322, 483 380 L 499 459 Q 511 463, 521 476 L 525 480 L 513 477 L 481 477 L 483 459 Q 467 412, 467 380 Q 436 315, 395 275 Z;
        M 428 275 Q 442 332, 462 400 L 472 470 Q 484 474, 494 487 L 498 491 L 486 488 L 454 488 L 456 470 Q 446 430, 446 400 Q 430 325, 395 275 Z;
        M 428 275 Q 432 325, 446 384 L 445 459 Q 457 463, 467 476 L 471 480 L 459 477 L 427 477 L 429 459 Q 430 412, 430 384 Q 420 315, 395 275 Z;
        M 428 275 Q 430 310, 442 354 L 434 432 Q 446 436, 456 449 L 460 453 L 448 450 L 416 450 L 418 432 Q 426 385, 426 354 Q 418 305, 395 275 Z;
        M 428 275 Q 438 296, 454 328 L 445 405 Q 457 409, 467 422 L 471 426 L 459 423 L 427 423 L 429 405 Q 438 360, 438 328 Q 422 298, 395 275 Z;
        M 428 275 Q 446 290, 470 316 L 472 394 Q 484 398, 494 411 L 498 415 L 486 412 L 454 412 L 456 394 Q 454 350, 454 316 Q 432 295, 395 275 Z"
    />
  </path>
  <!-- Feather Fringe at Thigh/Flank Joint -->
  <path d="M 405 270 Q 418 285, 432 272 Q 425 282, 412 284 Z" fill="#334155"/>

  <!-- 9. HANDLEBARS, STEM, ACCESSORIES, & HEADLIGHT (Foreground) -->
  <!-- Chrome Handlebar Stem (quill style rising from head tube) -->
  <line x1="680" y1="275" x2="688" y2="236" stroke="url(#chrome-grad)" stroke-width="7" stroke-linecap="round"/>
  <rect x="683" y="233" width="10" height="7" rx="2" fill="#334155"/>

  <!-- Swept-Back Cruiser Handlebars -->
  <path d="M 688 236 C 680 234, 665 230, 646 232 C 632 233, 622 236, 615 240" fill="none" stroke="url(#chrome-grad)" stroke-width="7" stroke-linecap="round"/>
  <path d="M 688 236 C 680 234, 665 230, 646 232 C 632 233, 622 236, 615 240" fill="none" stroke="#f8fafc" stroke-width="2" stroke-linecap="round"/>
  <!-- Ergonomic Rubber Handlebar Grip -->
  <rect x="618" y="233" width="22" height="9" rx="3" fill="#1e293b" stroke="#0f172a" stroke-width="1"/>
  <line x1="623" y1="233" x2="623" y2="242" stroke="#475569" stroke-width="1.2"/>
  <line x1="628" y1="233" x2="628" y2="242" stroke="#475569" stroke-width="1.2"/>
  <line x1="633" y1="233" x2="633" y2="242" stroke="#475569" stroke-width="1.2"/>

  <!-- Aluminum Brake Lever -->
  <path d="M 648 236 Q 656 244, 664 246" fill="none" stroke="#cbd5e1" stroke-width="2.5" stroke-linecap="round"/>
  <!-- Flexible Brake Cable to Front Brake -->
  <path d="M 654 238 Q 675 258, 692 315" fill="none" stroke="#334155" stroke-width="2"/>

  <!-- Polished Brass Bicycle Bell with Ding Chime Animation -->
  <ellipse cx="672" cy="230" rx="7" ry="6" fill="url(#brass-bell)" stroke="#854d0e" stroke-width="1"/>
  <circle cx="670" cy="228" r="2" fill="#fef08a"/>
  <!-- Bell Sound Waves -->
  <circle cx="672" cy="224" r="5" fill="none" stroke="#fde047" stroke-width="1.5" opacity="0">
    <animate attributeName="r" from="5" to="15" dur="2s" repeatCount="indefinite"/>
    <animate attributeName="opacity" values="0; 0.85; 0" keyTimes="0; 0.25; 1" dur="2s" repeatCount="indefinite"/>
  </circle>

  <!-- Vintage Torpedo Chrome Headlight -->
  <path d="M 700 288 C 700 280, 715 278, 730 282 C 735 284, 736 294, 730 296 C 715 300, 700 298, 700 288 Z" fill="url(#chrome-grad)" stroke="#475569" stroke-width="1.5"/>
  <ellipse cx="730" cy="289" rx="3.5" ry="6.5" fill="#fef08a" stroke="#ca8a04" stroke-width="1"/>
  <!-- Mounting Bracket from Fork Crown -->
  <path d="M 696 325 L 706 295" stroke="url(#chrome-grad)" stroke-width="3" stroke-linecap="round"/>
  <!-- Glowing Forward Headlight Beam -->
  <polygon points="733,289 1100,240 1100,380 733,293" fill="url(#headlight-beam)"/>
</svg>