<svg xmlns="http://www.w3.org/2000/svg" viewBox="0 0 1000 800" width="100%" height="100%">
  <defs>
    <!-- Background Gradient -->
    <linearGradient id="studioBg" x1="0%" y1="0%" x2="0%" y2="100%">
      <stop offset="0%" stop-color="#edf2f7" />
      <stop offset="60%" stop-color="#f7fafc" />
      <stop offset="100%" stop-color="#ffffff" />
    </linearGradient>

    <!-- Base Gradients -->
    <linearGradient id="pedestalRim" x1="0%" y1="0%" x2="100%" y2="0%">
      <stop offset="0%" stop-color="#cbd5e1" />
      <stop offset="50%" stop-color="#f8fafc" />
      <stop offset="100%" stop-color="#94a3b8" />
    </linearGradient>
    <linearGradient id="pedestalSide" x1="0%" y1="0%" x2="0%" y2="100%">
      <stop offset="0%" stop-color="#64748b" />
      <stop offset="25%" stop-color="#475569" />
      <stop offset="100%" stop-color="#1e293b" />
    </linearGradient>

    <!-- Water Gradients -->
    <radialGradient id="waterSurface" cx="45%" cy="48%" r="52%">
      <stop offset="0%" stop-color="#56c2cb" />
      <stop offset="45%" stop-color="#3f9fa8" />
      <stop offset="80%" stop-color="#2a7780" />
      <stop offset="100%" stop-color="#1b5860" />
    </radialGradient>
    <linearGradient id="shallowWater" x1="0%" y1="0%" x2="100%" y2="100%">
      <stop offset="0%" stop-color="#7dd3dc" stop-opacity="0.8" />
      <stop offset="100%" stop-color="#3f9fa8" stop-opacity="0" />
    </linearGradient>

    <!-- Mountain Rock Gradients -->
    <!-- Sugarloaf (Main Peak) -->
    <linearGradient id="rockSun" x1="0%" y1="0%" x2="100%" y2="0%">
      <stop offset="0%" stop-color="#a8a29a" />
      <stop offset="35%" stop-color="#99938c" />
      <stop offset="100%" stop-color="#7a7570" />
    </linearGradient>
    <linearGradient id="rockShade" x1="0%" y1="0%" x2="100%" y2="0%">
      <stop offset="0%" stop-color="#72706e" />
      <stop offset="60%" stop-color="#595859" />
      <stop offset="100%" stop-color="#46464a" />
    </linearGradient>
    <linearGradient id="grooveLight" x1="0%" y1="0%" x2="0%" y2="100%">
      <stop offset="0%" stop-color="#bfb9b0" stop-opacity="0.8" />
      <stop offset="100%" stop-color="#8b8680" stop-opacity="0.2" />
    </linearGradient>

    <!-- Urca Hill (Low Mountain) -->
    <linearGradient id="urcaSun" x1="0%" y1="0%" x2="100%" y2="100%">
      <stop offset="0%" stop-color="#6ab364" />
      <stop offset="60%" stop-color="#4f8a4b" />
      <stop offset="100%" stop-color="#396636" />
    </linearGradient>

    <!-- City Building Gradients -->
    <linearGradient id="bldgRoof" x1="0%" y1="0%" x2="100%" y2="100%">
      <stop offset="0%" stop-color="#fed7aa" />
      <stop offset="100%" stop-color="#ea580c" />
    </linearGradient>
    <linearGradient id="bldgSun" x1="0%" y1="0%" x2="100%" y2="0%">
      <stop offset="0%" stop-color="#fdf4ff" />
      <stop offset="100%" stop-color="#cbd5e1" />
    </linearGradient>
    <linearGradient id="bldgShadow" x1="0%" y1="0%" x2="0%" y2="100%">
      <stop offset="0%" stop-color="#94a3b8" />
      <stop offset="100%" stop-color="#64748b" />
    </linearGradient>

    <!-- Cable Car Material -->
    <linearGradient id="cableCarBody" x1="0%" y1="0%" x2="100%" y2="100%">
      <stop offset="0%" stop-color="#fef08a" />
      <stop offset="40%" stop-color="#facc15" />
      <stop offset="100%" stop-color="#ca8a04" />
    </linearGradient>

    <!-- Filters -->
    <filter id="softShadow" x="-20%" y="-20%" width="150%" height="150%">
      <feGaussianBlur in="SourceAlpha" stdDeviation="12" />
      <feColorMatrix type="matrix" values="0 0 0 0 0.05   0 0 0 0 0.1   0 0 0 0 0.15  0 0 0 0.35 0" />
      <feOffset dx="-10" dy="18" />
      <feBlend in="SourceGraphic" in2="blurOut" mode="normal" />
    </filter>

    <filter id="pedestalDrop" x="-20%" y="-20%" width="140%" height="140%">
      <feGaussianBlur stdDeviation="22" />
      <feColorMatrix values="0 0 0 0 0.1   0 0 0 0 0.15   0 0 0 0 0.2  0 0 0 0.25 0" />
    </filter>

    <!-- Reusable Low-rise Micro Building Block -->
    <g id="microBlockA">
      <!-- Roof -->
      <polygon points="0,0 8,-4 16,0 8,4" fill="#f8fafc" />
      <!-- Left (lit) face -->
      <polygon points="0,0 8,4 8,11 0,7" fill="#e2e8f0" />
      <!-- Right (shade) face -->
      <polygon points="8,4 16,0 16,7 8,11" fill="#94a3b8" />
      <!-- Windows / detail on lit face -->
      <line x1="2" y1="3" x2="6" y2="5" stroke="#64748b" stroke-width="0.8" />
      <line x1="2" y1="5.5" x2="6" y2="7.5" stroke="#64748b" stroke-width="0.8" />
    </g>

    <g id="microBlockB">
      <polygon points="0,0 6,-3 12,0 6,3" fill="#fdba74" />
      <polygon points="0,0 6,3 6,8 0,5" fill="#fed7aa" />
      <polygon points="6,3 12,0 12,5 6,8" fill="#c2410c" />
    </g>

    <g id="microBlockC">
      <polygon points="0,0 11,-5 20,0 9,5" fill="#f1f5f9" />
      <polygon points="0,0 9,5 9,15 0,10" fill="#cbd5e1" />
      <polygon points="9,5 20,0 20,10 9,15" fill="#64748b" />
      <rect x="2" y="3" width="5" height="1.5" fill="#334155" transform="skewY(29)" />
      <rect x="2" y="7" width="5" height="1.5" fill="#334155" transform="skewY(29)" />
    </g>

    <!-- Little Sailboat -->
    <g id="sailboat">
      <!-- Wake trail -->
      <path d="M-2,6 C-15,10 -35,14 -60,16 C-30,12 -12,8 -2,6 Z" fill="#ffffff" opacity="0.6" />
      <path d="M-2,6 C-12,4 -28,2 -50,1 C-25,3 -10,5 -2,6 Z" fill="#ffffff" opacity="0.4" />
      <!-- Hull -->
      <polygon points="-8,4 10,4 14,7 -10,7" fill="#ffffff" />
      <polygon points="-10,7 14,7 10,9 -6,9" fill="#0f172a" opacity="0.4" />
      <!-- Sail -->
      <polygon points="2,3 3,-13 10,1" fill="#f8fafc" />
      <polygon points="1,3 2,-14 -6,2" fill="#e2e8f0" />
      <!-- Tiny boat shadow on water -->
      <ellipse cx="2" cy="8" rx="10" ry="2.5" fill="#134e4a" opacity="0.4" />
    </g>
  </defs>

  <style><![CDATA[
    .cable-line {
      stroke: #334155;
      stroke-width: 1.1;
      opacity: 0.85;
      stroke-linecap: round;
    }
    .track-line {
      stroke: #1e293b;
      stroke-dasharray: 2, 4;
      stroke-width: 0.6;
    }
    .groove {
      fill: none;
      stroke: url(#grooveLight);
      stroke-width: 1.4;
      stroke-linecap: round;
      opacity: 0.7;
    }
    .shadow-peninsula {
      fill: #164e63;
      opacity: 0.35;
    }
  ]]></style>

  <!-- Clean Minimalist Studio Background -->
  <rect width="1000" height="800" fill="url(#studioBg)" />

  <!-- Pedestal Floor Soft Ambient Shadow -->
  <ellipse cx="500" cy="625" rx="420" ry="150" filter="url(#pedestalDrop)" />

  <!-- DIORAMA BASE (3D Cylinder Pedestal) -->
  <g id="pedestalGroup">
    <!-- Pedestal Extruded Thickness/Cylinder Side Wall -->
    <path d="M 100,530 
             A 400,145 0 0,0 900,530 
             L 900,568 
             A 400,145 0 0,1 100,568 Z" 
          fill="url(#pedestalSide)" />
    
    <!-- Base Bottom Accent/Bevel -->
    <path d="M 100,568 A 400,145 0 0,0 900,568 L 900,573 A 400,145 0 0,1 100,573 Z" fill="#0f172a" />

    <!-- Pedestal Top Rim Highlight Line -->
    <ellipse cx="500" cy="530" rx="401.5" ry="146.5" fill="none" stroke="url(#pedestalRim)" stroke-width="2.5" />

    <!-- Pedestal Top Surface / The Water Body Canvas -->
    <ellipse id="waterDisk" cx="500" cy="530" rx="400" ry="145" fill="url(#waterSurface)" />
  </g>

  <!-- SCENIC LAYER (Clipped & Placed on Water Disk) -->
  <!-- Shallow coastal water tinting -->
  <path d="M 230,550 C 260,510 320,490 400,500 C 470,510 520,550 560,570 C 470,610 330,620 230,550 Z" 
        fill="url(#shallowWater)" />

  <!-- PENINSULA & MOUNTAIN CAST SHADOWS ON WATER -->
  <g id="waterShadows">
    <!-- Peninsula & Urca cast shadow -->
    <path d="M 280,565 C 380,560 430,530 460,540 C 480,560 410,610 320,605 Z" class="shadow-peninsula" />
    <!-- Sugarloaf Monolith massive diagonal shadow cast toward right-rear -->
    <path d="M 590,475 C 660,470 760,460 790,472 C 810,480 770,510 650,515 C 610,515 580,495 590,475 Z" 
          fill="#134e4a" opacity="0.45" />
  </g>

  <!-- PENINSULA LANDMASS (Three sides enclosed by water) -->
  <g id="peninsula">
    <!-- Sandy Beach (Shallow yellow rim) -->
    <path d="M 225,555 C 240,545 270,535 315,538 C 360,540 375,558 370,575 C 340,582 280,583 235,573 C 223,568 220,560 225,555 Z" 
          fill="#fef08a" stroke="#fde047" stroke-width="1.5" />
    <path d="M 232,558 C 255,548 290,544 325,546 C 360,548 368,560 365,570 C 330,577 285,576 242,568 Z" 
          fill="#fef9c3" />

    <!-- Urban Ground / Greenery Base Behind Beach -->
    <path d="M 245,554 C 275,535 340,530 380,545 C 440,520 480,520 520,535 C 550,530 580,515 620,515 C 655,525 660,535 635,545 C 570,565 470,560 360,572 C 300,575 255,568 245,554 Z" 
          fill="#2d6a4f" />
    
    <!-- Foothill vegetation cushions -->
    <path d="M 330,545 C 360,525 410,520 440,530 C 470,520 520,515 560,528 C 530,545 420,550 330,545 Z" 
          fill="#1b4332" opacity="0.6" />
  </g>

  <!-- MOUNTAIN 1: MORRO DA URCA (Low rounded mountain, gentle dome) -->
  <!-- Height: Approx 165px (Main peak will be ~300px, exactly 1.8x ratio) -->
  <g id="morroDaUrca">
    <!-- Base shadow/AO -->
    <ellipse cx="430" cy="525" rx="85" ry="30" fill="#143621" opacity="0.4" />

    <!-- Shaded slope (Back/Right side, away from 45° top-left light) -->
    <path d="M 425,372 C 465,372 505,420 520,525 C 460,538 410,535 365,528 C 390,440 405,372 425,372 Z" 
          fill="#3b6937" />

    <!-- Main Sunlit Body (Lush green dome, slightly flattened rounded top) -->
    <path d="M 345,525 C 355,445 385,370 425,370 C 455,370 475,395 490,435 C 440,445 390,480 345,525 Z" 
          fill="url(#urcaSun)" />

    <!-- Soft highlight on Urca's crest -->
    <path d="M 400,372 C 418,368 435,368 448,373 C 440,378 415,380 400,372 Z" 
          fill="#86efac" opacity="0.6" />

    <!-- Foliage clumps/texture on the hillside -->
    <circle cx="390" cy="420" r="14" fill="#5a9e54" />
    <circle cx="405" cy="412" r="18" fill="#6ab364" />
    <circle cx="425" cy="418" r="16" fill="#40773d" />
    <circle cx="445" cy="435" r="20" fill="#315c2f" />
    <circle cx="375" cy="455" r="18" fill="#52934c" />
    <circle cx="400" cy="460" r="22" fill="#447e3f" />
    <circle cx="430" cy="465" r="25" fill="#356332" />
    <circle cx="465" cy="480" r="20" fill="#254d23" />
    <circle cx="360" cy="495" r="16" fill="#4a8845" />

    <!-- Minimalist Middle Cable-Car Station on Urca Summit -->
    <g id="urcaStation" transform="translate(425, 365)">
      <!-- Station Platform & Shed -->
      <polygon points="-12,0 0,-4 14,0 0,4" fill="#e2e8f0" />
      <polygon points="-12,0 0,4 0,7 -12,3" fill="#cbd5e1" />
      <polygon points="0,4 14,0 14,3 0,7" fill="#64748b" />
      <!-- Roof box -->
      <polygon points="-8,-1 0,-3 8,-1 0,1" fill="#38bdf8" />
    </g>
  </g>

  <!-- SADDLE RIDGE (Distinct saddle between the two peaks) -->
  <g id="saddleCol">
    <path d="M 480,480 C 510,485 535,482 555,475 C 545,495 510,505 480,495 Z" fill="#264e2b" />
    <!-- Rocks and low bushes in saddle -->
    <ellipse cx="520" cy="485" rx="18" ry="7" fill="#6b7280" />
    <ellipse cx="522" cy="483" rx="14" ry="5" fill="#9ca3af" />
  </g>

  <!-- MOUNTAIN 2: SUGARLOAF MONOLITH (Pão de Açúcar - Main Peak) -->
  <!-- Direct vertical rise from water; rounded summit; height ~ 295px (1.8x Urca); steep sheer cliffs -->
  <g id="sugarloafPeak" filter="url(#softShadow)">
    <!-- Base Ambient Occlusion at water interface -->
    <path d="M 540,515 C 570,525 640,520 670,500 C 650,490 580,490 540,515 Z" fill="#0f291e" opacity="0.6" />

    <!-- 1. BACK/COLD SHADE FACE (Right & Eastern precipice) -->
    <!-- Sheer drop straight into Guanabara Bay -->
    <path d="M 610,195 
             C 645,200 668,230 675,290 
             C 685,360 682,430 675,495 
             C 640,505 605,500 580,492 
             C 595,410 600,310 610,195 Z" 
          fill="url(#rockShade)" />

    <!-- 2. FRONT/WARM LIT FACE (Left & Western face receiving 45° sun) -->
    <!-- Bread-loaf rounded top: height > top width; base slightly wider than top -->
    <path d="M 610,195 
             C 570,195 548,225 540,285 
             C 530,355 532,435 545,495 
             C 565,498 585,495 610,490 
             C 600,310 595,215 610,195 Z" 
          fill="url(#rockSun)" />

    <!-- 3. TOP DOME HIGHLIGHT (Curved dome crest highlight) -->
    <path d="M 565,215 C 590,193 625,193 645,212 C 630,205 585,205 565,215 Z" 
          fill="#d6d3d1" opacity="0.8" />
    <line x1="575" y1="205" x2="630" y2="205" stroke="#f5f5f4" stroke-width="1.8" stroke-linecap="round" />

    <!-- 4. VERTICAL WEATHERING GROOVES & ROCK TEXTURE (Only on lit/mid faces) -->
    <path d="M 565,240 C 563,280 562,330 564,380 C 565,420 568,460 570,490" class="groove" />
    <path d="M 580,225 C 578,275 577,340 580,410 C 582,450 585,475 586,492" class="groove" />
    <path d="M 552,280 C 550,330 551,390 554,450" class="groove" stroke-width="1" />
    <path d="M 598,220 C 596,260 595,320 597,390 C 598,430 600,470 602,490" class="groove" stroke-width="1.1" />

    <!-- Rock clefts/crevices with green vegetation clinging to fissures -->
    <!-- Cliffside vegetation patches (never fully green mountain, granite bare rock dominant) -->
    <g id="rockFoliage">
      <!-- Base fringe vegetation -->
      <path d="M 542,492 C 555,475 575,478 585,490 Z" fill="#2d6a4f" />
      <path d="M 550,488 C 558,480 570,480 578,489 Z" fill="#40916c" />
      <!-- Vertical crevice shrubs -->
      <path d="M 570,360 C 573,355 577,358 576,366 C 574,372 569,370 570,360 Z" fill="#365314" />
      <circle cx="578" cy="415" r="3.5" fill="#4d7c0f" />
      <circle cx="579" cy="421" r="2.5" fill="#365314" />
      <circle cx="563" cy="330" r="2.8" fill="#4d7c0f" />
      <!-- Foot of mountain rising directly from water (eastern base) -->
      <path d="M 640,495 C 655,485 670,488 676,497 Z" fill="#1e3a2f" />
    </g>

    <!-- Summit Station / Cable Car Terminal on Sugarloaf -->
    <g id="summitStation" transform="translate(605, 192)">
      <!-- Observation Deck Platform -->
      <polygon points="-10,0 2,-4 15,0 3,4" fill="#f1f5f9" />
      <!-- Station Building -->
      <polygon points="-8,-1 2,-4 10,-1 2,1" fill="#38bdf8" />
      <polygon points="-8,-1 2,1 2,5 -8,3" fill="#cbd5e1" />
      <polygon points="2,1 10,-1 10,3 2,5" fill="#64748b" />
      <!-- Look-out railing highlight -->
      <line x1="-9" y1="-1" x2="3" y2="4" stroke="#ffffff" stroke-width="0.7" />
    </g>
  </g>

  <!-- LOW-RISE CITY AT PENINSULA WATERFRONT (Near edge, height < 1/5th Urca (~30px max)) -->
  <!-- Structured miniature blocks: lit facets facing left, shaded facets facing right -->
  <g id="cityBlocks" transform="translate(250, 532)">
    <!-- Row 3 (Back) -->
    <use href="#microBlockA" x="40" y="-8" />
    <use href="#microBlockB" x="65" y="-12" />
    <use href="#microBlockA" x="85" y="-10" />
    <use href="#microBlockB" x="110" y="-8" />
    
    <!-- Row 2 (Middle) -->
    <use href="#microBlockC" x="15" y="0" />
    <use href="#microBlockA" x="38" y="3" />
    <use href="#microBlockB" x="58" y="2" />
    <use href="#microBlockC" x="78" y="5" />
    <use href="#microBlockA" x="105" y="3" />
    <use href="#microBlockB" x="125" y="0" />

    <!-- Row 1 (Forefront / Near Beach) -->
    <use href="#microBlockB" x="0" y="10" />
    <use href="#microBlockA" x="18" y="13" />
    <use href="#microBlockC" x="34" y="15" />
    <use href="#microBlockB" x="60" y="14" />
    <use href="#microBlockA" x="78" y="16" />
    <use href="#microBlockC" x="98" y="14" />

    <!-- Shoreline Terminal / Ground Station for Cable Car 1 -->
    <g id="beachStation" transform="translate(130, 2)">
      <polygon points="0,0 8,-4 18,0 10,4" fill="#f8fafc" />
      <polygon points="0,0 10,4 10,12 0,8" fill="#38bdf8" />
      <polygon points="10,4 18,0 18,8 10,12" fill="#0284c7" />
      <rect x="3" y="4" width="4" height="4" fill="#0f172a" transform="skewY(22)" />
    </g>
  </g>

  <!-- CABLE CAR SYSTEM (Two Distinct Sections, Parallel Cables, Moving Cabins) -->
  <g id="cableCarSystem">
    <!-- SECTION 1: Shoreline Station (388, 534) to Morro da Urca Summit (425, 365) -->
    <!-- Dual Parallel Fine Cables -->
    <line x1="388" y1="532" x2="423" y2="367" class="cable-line" />
    <line x1="390" y1="535" x2="425" y2="370" class="cable-line" />

    <!-- SECTION 2: Morro da Urca Summit (432, 366) to Sugarloaf Top Station (606, 194) -->
    <!-- Steeper than Section 1, spans across the scenic saddle gap -->
    <line x1="432" y1="365" x2="604" y2="193" class="cable-line" />
    <line x1="434" y1="368" x2="606" y2="196" class="cable-line" />

    <!-- ANIMATED CABIN 1 (Section 1: Traversing Shore <-> Urca) -->
    <!-- Distance approx 170px, loop duration 9s, smooth back-and-forth -->
    <g>
      <g>
        <path d="M 0,0 L 0,5" stroke="#334155" stroke-width="1" />
        <!-- Rounded square micro-cabin -->
        <rect x="-4.5" y="5" width="9" height="7.5" rx="2" fill="url(#cableCarBody)" stroke="#a16207" stroke-width="0.6" />
        <!-- Viewing window strip -->
        <rect x="-3.5" y="6.5" width="7" height="2.5" rx="0.6" fill="#0284c7" />
        <!-- Sunlight glint on window -->
        <line x1="-2" y1="7" x2="1" y2="7" stroke="#ffffff" stroke-width="0.7" stroke-linecap="round" />
        <!-- Tiny Cabin Shadow underneath on ground -->
        <ellipse cx="2" cy="18" rx="4" ry="1.5" fill="#064e3b" opacity="0.3" />

        <animateMotion 
          path="M 394,505 L 416,400 L 394,505 Z" 
          dur="8s" 
          repeatCount="indefinite" 
          calcMode="spline" 
          keyTimes="0; 0.5; 1" 
          keySplines="0.45 0.05 0.55 0.95; 0.45 0.05 0.55 0.95" />
      </g>
    </g>

    <!-- ANIMATED CABIN 2 (Section 2: Traversing Urca <-> Sugarloaf) -->
    <!-- Higher altitude, steeper incline, suspended high above the saddle -->
    <g>
      <g>
        <path d="M 0,0 L 0,5" stroke="#1e293b" stroke-width="1" />
        <rect x="-4.5" y="5" width="9" height="7.5" rx="2" fill="url(#cableCarBody)" stroke="#a16207" stroke-width="0.6" />
        <rect x="-3.5" y="6.5" width="7" height="2.5" rx="0.6" fill="#0284c7" />
        <line x1="-2" y1="7" x2="1" y2="7" stroke="#ffffff" stroke-width="0.7" stroke-linecap="round" />
        <!-- Distant faint shadow across saddle trees -->
        <ellipse cx="3" cy="35" rx="5" ry="2" fill="#064e3b" opacity="0.25" />

        <animateMotion 
          path="M 452,347 L 585,214 L 452,347 Z" 
          dur="10s" 
          repeatCount="indefinite" 
          calcMode="spline" 
          keyTimes="0; 0.5; 1" 
          keySplines="0.45 0.05 0.55 0.95; 0.45 0.05 0.55 0.95" />
      </g>
    </g>
  </g>

  <!-- HARBOR & BAY ENVIRONMENT DETAILS -->
  <!-- Sailboat 1: Cruising slowly across foreground bay, leaving wake -->
  <g transform="translate(680, 580)">
    <use href="#sailboat" />
    <!-- Gentle animated bobbing & drifting -->
    <animateTransform 
      attributeName="transform" 
      type="translate" 
      values="680,580; 705,574; 680,580" 
      dur="11s" 
      repeatCount="indefinite" 
      calcMode="spline" 
      keyTimes="0; 0.5; 1" 
      keySplines="0.4 0 0.6 1; 0.4 0 0.6 1" />
  </g>

  <!-- Sailboat 2: Quieter, smaller boat closer to base perimeter edge -->
  <g transform="translate(230, 480) scale(0.65)">
    <use href="#sailboat" />
    <animateTransform 
      attributeName="transform" 
      type="translate" 
      values="230,480; 215,485; 230,480" 
      dur="9s" 
      repeatCount="indefinite" 
      calcMode="spline" 
      keyTimes="0; 0.5; 1" 
      keySplines="0.4 0 0.6 1; 0.4 0 0.6 1" />
  </g>

  <!-- Distant ambient ripples (soft subtle lines on water) -->
  <ellipse cx="620" cy="540" rx="45" ry="4" fill="none" stroke="#67e8f9" stroke-width="0.8" opacity="0.4" />
  <ellipse cx="360" cy="600" rx="60" ry="5" fill="none" stroke="#67e8f9" stroke-width="0.8" opacity="0.3" />
</svg>