<svg xmlns="http://www.w3.org/2000/svg" viewBox="0 0 1200 900" width="100%" height="100%">
  <defs>
    <!-- Background Museum Studio Gradient -->
    <linearGradient id="bgGrad" x1="0%" y1="0%" x2="0%" y2="100%">
      <stop offset="0%" stop-color="#edf1f5"/>
      <stop offset="60%" stop-color="#f5f7fa"/>
      <stop offset="100%" stop-color="#ffffff"/>
    </linearGradient>

    <!-- Plinth Shadow Filter -->
    <filter id="plinthShadowFilter" x="-20%" y="-20%" width="140%" height="140%">
      <feGaussianBlur in="SourceAlpha" stdDeviation="22"/>
      <feColorMatrix type="matrix" values="0 0 0 0 0.12  0 0 0 0 0.16  0 0 0 0 0.22  0 0 0 0.24 0"/>
      <feOffset dx="0" dy="32"/>
      <feBlend in="SourceGraphic" in2="blurOut" mode="normal"/>
    </filter>

    <!-- Soft Ambient Ground Shadow Filter -->
    <filter id="softShadowFilter" x="-30%" y="-30%" width="160%" height="160%">
      <feGaussianBlur stdDeviation="7"/>
    </filter>

    <filter id="contactShadowFilter" x="-20%" y="-20%" width="140%" height="140%">
      <feGaussianBlur stdDeviation="3"/>
    </filter>

    <!-- Plinth Wall Gradient -->
    <linearGradient id="plinthWallGrad" x1="0%" y1="0%" x2="100%" y2="0%">
      <stop offset="0%" stop-color="#41464b"/>
      <stop offset="25%" stop-color="#555c63"/>
      <stop offset="55%" stop-color="#363a3e"/>
      <stop offset="85%" stop-color="#26292c"/>
      <stop offset="100%" stop-color="#1d1f21"/>
    </linearGradient>

    <!-- Plinth Bevel Rim Gradient -->
    <linearGradient id="plinthRimGrad" x1="0%" y1="0%" x2="100%" y2="100%">
      <stop offset="0%" stop-color="#ffffff" stop-opacity="0.9"/>
      <stop offset="35%" stop-color="#cbd3dc" stop-opacity="0.7"/>
      <stop offset="70%" stop-color="#737c87" stop-opacity="0.4"/>
      <stop offset="100%" stop-color="#3a3f45" stop-opacity="0.3"/>
    </linearGradient>

    <!-- Lawn Top Gradient -->
    <linearGradient id="lawnGrad" x1="20%" y1="10%" x2="80%" y2="90%">
      <stop offset="0%" stop-color="#9dc06c"/>
      <stop offset="45%" stop-color="#8cae5e"/>
      <stop offset="100%" stop-color="#749649"/>
    </linearGradient>

    <!-- River Water Gradient -->
    <linearGradient id="riverGrad" x1="0%" y1="0%" x2="100%" y2="100%">
      <stop offset="0%" stop-color="#2a5c66"/>
      <stop offset="50%" stop-color="#38707c"/>
      <stop offset="100%" stop-color="#1f464e"/>
    </linearGradient>

    <!-- Trench Interior Gradient -->
    <linearGradient id="trenchFloorGrad" x1="0%" y1="0%" x2="0%" y2="100%">
      <stop offset="0%" stop-color="#555850"/>
      <stop offset="30%" stop-color="#75776d"/>
      <stop offset="100%" stop-color="#8a8a7e"/>
    </linearGradient>

    <!-- Submarine Hull Lighting Gradients -->
    <!-- Transverse Lighting: Lit Top, Cold Crest Highlight, Dark Shadow Underbelly -->
    <linearGradient id="hullTransverseGrad" x1="0%" y1="0%" x2="0%" y2="100%">
      <stop offset="0%" stop-color="#696e74"/>
      <stop offset="14%" stop-color="#5c6165"/>
      <stop offset="30%" stop-color="#6d7378"/>
      <stop offset="38%" stop-color="#939da6"/>
      <stop offset="45%" stop-color="#4d5256"/>
      <stop offset="70%" stop-color="#2f3337"/>
      <stop offset="92%" stop-color="#191b1d"/>
      <stop offset="100%" stop-color="#121315"/>
    </linearGradient>

    <!-- Bow Spherical Volumetric Radial Gradient -->
    <radialGradient id="bowCapGrad" cx="30%" cy="30%" r="70%">
      <stop offset="0%" stop-color="#828990"/>
      <stop offset="35%" stop-color="#5c6165"/>
      <stop offset="75%" stop-color="#2f3337"/>
      <stop offset="100%" stop-color="#181a1c"/>
    </radialGradient>

    <!-- Hull Specular Cold Highlight Line -->
    <linearGradient id="hullSpecularLine" x1="0%" y1="0%" x2="100%" y2="0%">
      <stop offset="0%" stop-color="#b8c6d4" stop-opacity="0"/>
      <stop offset="8%" stop-color="#b8c6d4" stop-opacity="0.3"/>
      <stop offset="25%" stop-color="#d6e3f0" stop-opacity="0.95"/>
      <stop offset="55%" stop-color="#adc0d1" stop-opacity="0.8"/>
      <stop offset="85%" stop-color="#7d91a3" stop-opacity="0.3"/>
      <stop offset="100%" stop-color="#506170" stop-opacity="0"/>
    </linearGradient>

    <!-- Conning Tower / Sail Lighting -->
    <linearGradient id="sailGrad" x1="0%" y1="0%" x2="0%" y2="100%">
      <stop offset="0%" stop-color="#767c82"/>
      <stop offset="15%" stop-color="#5c6165"/>
      <stop offset="55%" stop-color="#3c4044"/>
      <stop offset="100%" stop-color="#222528"/>
    </linearGradient>

    <!-- Bronze Propeller Gradients -->
    <linearGradient id="bronzePropGrad" x1="0%" y1="0%" x2="100%" y2="100%">
      <stop offset="0%" stop-color="#b39054"/>
      <stop offset="45%" stop-color="#8a6b3c"/>
      <stop offset="80%" stop-color="#614823"/>
      <stop offset="100%" stop-color="#3d2c14"/>
    </linearGradient>

    <!-- Concrete Cradle Gradient -->
    <linearGradient id="cradleLightGrad" x1="0%" y1="0%" x2="0%" y2="100%">
      <stop offset="0%" stop-color="#dedbd2"/>
      <stop offset="30%" stop-color="#c4c1b8"/>
      <stop offset="100%" stop-color="#9e9b92"/>
    </linearGradient>
    <linearGradient id="cradleShadowGrad" x1="0%" y1="0%" x2="100%" y2="0%">
      <stop offset="0%" stop-color="#918e85"/>
      <stop offset="100%" stop-color="#69665f"/>
    </linearGradient>

    <!-- Tree Foliage Gradients -->
    <radialGradient id="treeCanopy1" cx="35%" cy="30%" r="65%">
      <stop offset="0%" stop-color="#88b548"/>
      <stop offset="45%" stop-color="#5e8830"/>
      <stop offset="85%" stop-color="#3c5c1b"/>
      <stop offset="100%" stop-color="#283d12"/>
    </radialGradient>
    <radialGradient id="treeCanopy2" cx="30%" cy="25%" r="70%">
      <stop offset="0%" stop-color="#9bc957"/>
      <stop offset="40%" stop-color="#6e9b38"/>
      <stop offset="80%" stop-color="#466921"/>
      <stop offset="100%" stop-color="#2d4415"/>
    </radialGradient>

    <!-- Plinth Clipping Ellipse -->
    <clipPath id="plinthTopClip">
      <ellipse cx="600" cy="500" rx="475" ry="235"/>
    </clipPath>

    <!-- Base Human Figure Template -->
    <g id="figure-standing">
      <ellipse cx="0" cy="1" rx="2" ry="0.8" fill="#14181a" opacity="0.4"/>
      <path d="M -1,-1 L -0.5,-6 L 0.5,-6 L 1,-1 Z" fill="#26292b"/>
      <path d="M -1.5,-6 L -1.5,-12 L 1.5,-12 L 1.5,-6 Z" fill="#32363a"/>
      <circle cx="0" cy="-14.5" r="1.3" fill="#32363a"/>
    </g>
  </defs>

  <style>
    <![CDATA[
      /* Miniature Boat Gentle Bobbing and Water Drift */
      #miniature-boat {
        animation: boatBob 5.5s ease-in-out infinite;
        transform-origin: 940px 580px;
      }
      @keyframes boatBob {
        0% {
          transform: translate(0px, 0px) rotate(0deg);
        }
        50% {
          transform: translate(-1.5px, 1.8px) rotate(1.4deg);
        }
        100% {
          transform: translate(0px, 0px) rotate(0deg);
        }
      }

      /* Subtle River Wake Shimmer */
      .water-ripple {
        animation: rippleShimmer 5.5s ease-in-out infinite;
      }
      @keyframes rippleShimmer {
        0%, 100% {
          opacity: 0.35;
          transform: scale(1);
        }
        50% {
          opacity: 0.7;
          transform: scale(1.08);
        }
      }
    ]]>
  </style>

  <!-- ==================== BACKGROUND ==================== -->
  <rect width="1200" height="900" fill="url(#bgGrad)"/>

  <!-- ==================== DISPLAY PLINTH ==================== -->
  <!-- Plinth Floor Ambient Shadow -->
  <ellipse cx="600" cy="580" rx="500" ry="245" fill="#0f141a" opacity="0.22" filter="url(#plinthShadowFilter)"/>

  <!-- Plinth Cylinder Wall (Thickness) -->
  <path d="M 125,500 A 475,235 0 0,0 1075,500 L 1075,555 A 475,235 0 0,1 125,555 Z" fill="url(#plinthWallGrad)"/>
  <!-- Dark Rim Base Shadow -->
  <path d="M 125,555 A 475,235 0 0,0 1075,555 L 1075,558 A 475,235 0 0,1 125,558 Z" fill="#141618" opacity="0.8"/>

  <!-- Plinth Top Surface (Masked Diorama Field) -->
  <g clip-path="url(#plinthTopClip)">
    <!-- Base Lawn -->
    <ellipse cx="600" cy="500" rx="475" ry="235" fill="url(#lawnGrad)"/>

    <!-- Subtle Park Mowing Stripes -->
    <g opacity="0.12" stroke="#ffffff" stroke-width="14" fill="none">
      <line x1="200" y1="360" x2="600" y2="720"/>
      <line x1="260" y1="330" x2="660" y2="690"/>
      <line x1="320" y1="300" x2="720" y2="660"/>
      <line x1="380" y1="270" x2="780" y2="630"/>
      <line x1="440" y1="250" x2="840" y2="610"/>
      <line x1="500" y1="240" x2="900" y2="600"/>
    </g>

    <!-- River Sliver at Plinth Corner (Piscataqua River Edge) -->
    <path d="M 830,620 Q 910,540 1080,485 L 1080,680 L 800,680 Z" fill="url(#riverGrad)"/>

    <!-- River Embankment / Stone Retaining Edge -->
    <path d="M 830,620 Q 910,540 1080,485" fill="none" stroke="#686d69" stroke-width="6"/>
    <path d="M 830,620 Q 910,540 1080,485" fill="none" stroke="#9da39e" stroke-width="2" opacity="0.8"/>

    <!-- River Water Ripples -->
    <path class="water-ripple" d="M 890,595 Q 940,565 1010,540" fill="none" stroke="#6ab5c2" stroke-width="1.2" opacity="0.4"/>
    <path class="water-ripple" d="M 865,630 Q 920,595 990,570" fill="none" stroke="#5daab8" stroke-width="1" opacity="0.3"/>

    <!-- Tiny Moored Motorboat in River Corner -->
    <g id="miniature-boat">
      <!-- Boat Shadow in Water -->
      <ellipse cx="943" cy="582" rx="20" ry="8" fill="#142c30" opacity="0.55"/>
      <!-- Boat Hull -->
      <path d="M 924,577 Q 944,570 962,577 Q 958,586 940,587 Q 926,585 924,577 Z" fill="#edf0f2" stroke="#223945" stroke-width="0.8"/>
      <!-- Mahogany Foredeck -->
      <path d="M 946,573 Q 956,574 961,577 Q 955,581 946,579 Z" fill="#874729"/>
      <!-- Cabin Top & Windshield -->
      <rect x="932" y="575" width="12" height="6" rx="1.5" fill="#3a5663"/>
      <path d="M 938,574 L 943,574 L 942,579 L 938,579 Z" fill="#a4d1db" opacity="0.85"/>
      <!-- Mooring Line to Bank -->
      <path d="M 924,577 Q 915,576 908,583" fill="none" stroke="#33383a" stroke-width="0.7"/>
    </g>

    <!-- Perimeter Diorama Trees (Round Canopy Model Trees) -->
    <!-- Tree 1: Far Left Edge -->
    <g transform="translate(230, 480)">
      <ellipse cx="10" cy="18" rx="26" ry="12" fill="#32471e" opacity="0.35" filter="url(#softShadowFilter)"/>
      <path d="M -2,0 L -1,18 L 2,18 L 1,0 Z" fill="#4d3826"/>
      <circle cx="0" cy="-6" r="22" fill="url(#treeCanopy1)"/>
      <circle cx="-5" cy="-12" r="13" fill="#90bf4f" opacity="0.35"/>
    </g>

    <!-- Tree 2: Left Rear Edge -->
    <g transform="translate(300, 390)">
      <ellipse cx="12" cy="16" rx="22" ry="10" fill="#32471e" opacity="0.35" filter="url(#softShadowFilter)"/>
      <path d="M -2,0 L -1,16 L 2,16 L 1,0 Z" fill="#4d3826"/>
      <circle cx="0" cy="-4" r="19" fill="url(#treeCanopy2)"/>
      <circle cx="-4" cy="-9" r="11" fill="#a1d15c" opacity="0.35"/>
    </g>

    <!-- Tree 3: Rear Center Edge -->
    <g transform="translate(680, 290)">
      <ellipse cx="14" cy="16" rx="24" ry="11" fill="#32471e" opacity="0.3" filter="url(#softShadowFilter)"/>
      <path d="M -2,0 L -1,16 L 2,16 L 1,0 Z" fill="#4d3826"/>
      <circle cx="0" cy="-5" r="20" fill="url(#treeCanopy1)"/>
    </g>

    <!-- Tree 4: Rear Right Edge -->
    <g transform="translate(810, 335)">
      <ellipse cx="12" cy="15" rx="20" ry="9" fill="#32471e" opacity="0.3" filter="url(#softShadowFilter)"/>
      <path d="M -1.5,0 L -1,15 L 2,15 L 1,0 Z" fill="#4d3826"/>
      <circle cx="0" cy="-4" r="17" fill="url(#treeCanopy2)"/>
    </g>

    <!-- Tree 5: Bottom Left Foreground Edge -->
    <g transform="translate(380, 670)">
      <ellipse cx="14" cy="18" rx="26" ry="11" fill="#2b3b1c" opacity="0.4" filter="url(#softShadowFilter)"/>
      <path d="M -2,0 L -1,18 L 3,18 L 2,0 Z" fill="#453120"/>
      <circle cx="0" cy="-8" r="23" fill="url(#treeCanopy1)"/>
      <circle cx="-6" cy="-14" r="14" fill="#9cd154" opacity="0.35"/>
    </g>

    <!-- Miniature Park Bench on Lawn -->
    <g transform="translate(485, 595)">
      <ellipse cx="4" cy="5" rx="14" ry="4" fill="#243318" opacity="0.3"/>
      <!-- Bench Cast Iron Legs -->
      <path d="M -9,3 L -9,7 M -6,3 L -6,7 M 6,3 L 6,7 M 9,3 L 9,7" stroke="#1d2919" stroke-width="1.2"/>
      <!-- Wooden Slats -->
      <rect x="-10" y="0" width="20" height="2.2" rx="0.5" fill="#8f542c"/>
      <rect x="-10" y="2.8" width="20" height="2" rx="0.5" fill="#754220"/>
      <rect x="-10" y="-3.5" width="20" height="2" rx="0.5" fill="#9c5f34"/>
    </g>

    <!-- ==================== DISPLAY TRENCH & CRADLES ==================== -->
    <!-- The Trench: Shallow Rectangular Excavation aligned with Sub Keel -->
    <g transform="translate(560, 480) rotate(-22)">
      <!-- Ground Shadow Inside Pit Wall (Top and Left Rims) -->
      <path d="M -235,-32 L 255,-32 L 255,32 L -235,32 Z" fill="#353833"/>
      <!-- Trench Pit Floor -->
      <path d="M -232,-28 L 252,-28 L 252,32 L -232,32 Z" fill="url(#trenchFloorGrad)"/>

      <!-- Trench Stone Coping Edge (Highlight on Lip) -->
      <rect x="-236" y="-34" width="492" height="68" rx="2" fill="none" stroke="#b0aba0" stroke-width="2.5"/>
      <path d="M -236,-34 L 256,-34 L 256,-32 L -236,-32 Z" fill="#dfdcce"/>

      <!-- Trench Floor Shadows of Pit Walls -->
      <rect x="-232" y="-28" width="484" height="6" fill="#232620" opacity="0.45"/>
      <rect x="-232" y="-28" width="8" height="60" fill="#232620" opacity="0.35"/>

      <!-- Submarine Hull Projected Soft Ground Shadow Inside/Over Trench -->
      <path d="M -180,6 C -90,-8 0,-12 100,-10 C 190,-8 280,2 350,14 C 270,30 180,36 80,35 C -20,34 -110,24 -180,6 Z"
            fill="#171918" opacity="0.55" filter="url(#softShadowFilter)"/>

      <!-- Concrete Cradles (托架) Side-by-Side Supporting Keel -->
      <!-- Cradle 1 (Forward, under heavy bow section) -->
      <g transform="translate(-105, 0)">
        <!-- Ground contact shadow -->
        <rect x="-10" y="-26" width="26" height="52" fill="#1b1c1a" opacity="0.5" filter="url(#contactShadowFilter)"/>
        <!-- Main Concrete Pier Body -->
        <path d="M -8,-24 L 8,-24 L 11,24 L -11,24 Z" fill="url(#cradleShadowGrad)"/>
        <path d="M -8,-24 L 6,-24 L 8,24 L -6,24 Z" fill="url(#cradleLightGrad)"/>
        <!-- Concave Saddle Cutout to seat teardrop hull -->
        <path d="M -8,-24 Q 0,-16 8,-24 L 8,-20 Q 0,-12 -8,-20 Z" fill="#323431"/>
        <line x1="-8" y1="-24" x2="8" y2="-24" stroke="#e8e5dc" stroke-width="1.2"/>
      </g>

      <!-- Cradle 2 (Mid-Forward, near max diameter) -->
      <g transform="translate(0, 0)">
        <rect x="-11" y="-28" width="28" height="56" fill="#1b1c1a" opacity="0.5" filter="url(#contactShadowFilter)"/>
        <path d="M -9,-26 L 9,-26 L 12,26 L -12,26 Z" fill="url(#cradleShadowGrad)"/>
        <path d="M -9,-26 L 7,-26 L 9,26 L -7,26 Z" fill="url(#cradleLightGrad)"/>
        <path d="M -9,-26 Q 0,-17 9,-26 L 9,-22 Q 0,-13 -9,-22 Z" fill="#323431"/>
        <line x1="-9" y1="-26" x2="9" y2="-26" stroke="#e8e5dc" stroke-width="1.2"/>
      </g>

      <!-- Cradle 3 (Mid-Aft, hull beginning to taper) -->
      <g transform="translate(105, 0)">
        <rect x="-10" y="-25" width="24" height="50" fill="#1b1c1a" opacity="0.5" filter="url(#contactShadowFilter)"/>
        <path d="M -8,-23 L 8,-23 L 10,23 L -10,23 Z" fill="url(#cradleShadowGrad)"/>
        <path d="M -8,-23 L 6,-23 L 8,23 L -6,23 Z" fill="url(#cradleLightGrad)"/>
        <path d="M -8,-23 Q 0,-15 8,-23 L 8,-19 Q 0,-11 -8,-19 Z" fill="#323431"/>
        <line x1="-8" y1="-23" x2="8" y2="-23" stroke="#e8e5dc" stroke-width="1.2"/>
      </g>

      <!-- Cradle 4 (Aft section) -->
      <g transform="translate(210, 0)">
        <rect x="-9" y="-22" width="22" height="44" fill="#1b1c1a" opacity="0.5" filter="url(#contactShadowFilter)"/>
        <path d="M -7,-20 L 7,-20 L 9,20 L -9,20 Z" fill="url(#cradleShadowGrad)"/>
        <path d="M -7,-20 L 5,-20 L 7,20 L -5,20 Z" fill="url(#cradleLightGrad)"/>
        <path d="M -7,-20 Q 0,-13 7,-20 L 7,-16 Q 0,-9 -7,-16 Z" fill="#323431"/>
        <line x1="-7" y1="-20" x2="7" y2="-20" stroke="#e8e5dc" stroke-width="1.2"/>
      </g>
    </g>

    <!-- ==================== SUBMARINE HULL & RIGGING ==================== -->
    <!--
      Submarine Axis:
      Length = 600px, Max Diameter = 80px (Exact 7.5 : 1 proportion).
      Widest point at x = 0 (1/3 from bow: bow is at x = -200, stern tip at x = +400).
      Sail height = 40px (0.5 * D), length = 60px (0.1 * L).
      Sail planes span = 96px (1.2 * D).
    -->
    <g id="submarine-body" transform="translate(560, 475) rotate(-22)">

      <!-- Starboard Sail Plane (Far side, angled away behind sail) -->
      <path d="M 40,-56 L 44,-96 L 56,-95 L 58,-56 Z" fill="#43474a" stroke="#252729" stroke-width="0.7"/>
      <line x1="44" y1="-96" x2="56" y2="-95" stroke="#757c82" stroke-width="1"/>

      <!-- Starboard Upper X-Rudder (Far side, canted at 45°) -->
      <g transform="translate(372, 0)">
        <path d="M -8,-6 L 8,-28 L 22,-26 L 10,-4 Z" fill="#3b3f42" stroke="#1d1f21" stroke-width="0.7"/>
        <line x1="8" y1="-28" x2="22" y2="-26" stroke="#7c848a" stroke-width="1"/>
      </g>

      <!-- Starboard Lower X-Rudder (Far lower side) -->
      <g transform="translate(372, 0)">
        <path d="M -8,5 L 6,24 L 18,22 L 8,3 Z" fill="#202224" stroke="#141517" stroke-width="0.7"/>
      </g>

      <!-- MAIN TEARDROP HULL (Complete Body of Revolution) -->
      <!-- Smooth single closed hydrodynamic contour -->
      <path id="teardrop-hull"
            d="M -200,0
               C -200,-22.1 -100,-40 0,-40
               C 140,-40 280,-20 400,0
               C 280,20 140,40 0,40
               C -100,40 -200,22.1 -200,0 Z"
            fill="url(#hullTransverseGrad)"
            stroke="#1d2022"
            stroke-width="1.2"/>

      <!-- Bow Rounded Volumetric 3D Dome Overlay -->
      <path d="M -200,0
               C -200,-22.1 -150,-35 -100,-37
               L -100,37
               C -150,35 -200,22.1 -200,0 Z"
            fill="url(#bowCapGrad)"
            opacity="0.85"/>

      <!-- Cold Specular Highlight Line along widest flank crest -->
      <path d="M -180,-14
               C -110,-27 -10,-28 110,-27
               C 220,-24 310,-14 385,-1.5"
            fill="none"
            stroke="url(#hullSpecularLine)"
            stroke-width="2.2"
            stroke-linecap="round"/>

      <!-- Bottom Ambient Occlusion Narrow Edge -->
      <path d="M -180,18
               C -100,38 0,40 120,38
               C 220,35 310,22 390,2"
            fill="none"
            stroke="#0d0e10"
            stroke-width="2"
            opacity="0.9"/>

      <!-- Bow Acoustic Sonar Window (Circular Dome on Port Bow Flank) -->
      <g transform="translate(-160, 6)">
        <circle cx="0" cy="0" r="4.2" fill="#1b1d1f" stroke="#3d4246" stroke-width="0.8"/>
        <circle cx="0" cy="0" r="3.2" fill="#282c30"/>
        <circle cx="-0.8" cy="-0.8" r="1.2" fill="#69737d" opacity="0.8"/>
      </g>

      <!-- Tiny Drainage Holes (成排铺满细小的排水孔 - Two Complete Full Rows) -->
      <g fill="#141618">
        <!-- Row 1 (Upper Limber Slots) -->
        <g id="drainage-row-1">
          <rect x="-120" y="13" width="4.5" height="1.4" rx="0.4"/>
          <rect x="-110" y="13" width="4.5" height="1.4" rx="0.4"/>
          <rect x="-100" y="13" width="4.5" height="1.4" rx="0.4"/>
          <rect x="-90" y="13" width="4.5" height="1.4" rx="0.4"/>
          <rect x="-80" y="13" width="4.5" height="1.4" rx="0.4"/>
          <rect x="-70" y="13" width="4.5" height="1.4" rx="0.4"/>
          <rect x="-60" y="13" width="4.5" height="1.4" rx="0.4"/>
          <rect x="-50" y="13" width="4.5" height="1.4" rx="0.4"/>
          <rect x="-40" y="13" width="4.5" height="1.4" rx="0.4"/>
          <rect x="-30" y="13" width="4.5" height="1.4" rx="0.4"/>
          <rect x="-20" y="13" width="4.5" height="1.4" rx="0.4"/>
          <rect x="-10" y="13" width="4.5" height="1.4" rx="0.4"/>
          <rect x="0" y="13" width="4.5" height="1.4" rx="0.4"/>
          <rect x="10" y="13" width="4.5" height="1.4" rx="0.4"/>
          <rect x="20" y="13" width="4.5" height="1.4" rx="0.4"/>
          <rect x="30" y="13" width="4.5" height="1.4" rx="0.4"/>
          <rect x="40" y="13" width="4.5" height="1.4" rx="0.4"/>
          <rect x="50" y="13" width="4.5" height="1.4" rx="0.4"/>
          <rect x="60" y="13" width="4.5" height="1.4" rx="0.4"/>
          <rect x="70" y="13" width="4.5" height="1.4" rx="0.4"/>
          <rect x="80" y="13" width="4.5" height="1.4" rx="0.4"/>
          <rect x="90" y="13" width="4.5" height="1.4" rx="0.4"/>
          <rect x="100" y="13" width="4.5" height="1.4" rx="0.4"/>
          <rect x="110" y="13" width="4.5" height="1.4" rx="0.4"/>
          <rect x="120" y="13" width="4.5" height="1.4" rx="0.4"/>
          <rect x="130" y="13" width="4.5" height="1.4" rx="0.4"/>
          <rect x="140" y="13" width="4.5" height="1.4" rx="0.4"/>
          <rect x="150" y="13" width="4.5" height="1.4" rx="0.4"/>
          <rect x="160" y="13" width="4.5" height="1.4" rx="0.4"/>
          <rect x="170" y="13" width="4.5" height="1.4" rx="0.4"/>
        </g>
        <!-- Row 2 (Lower Limber Slots, slightly staggered) -->
        <g id="drainage-row-2">
          <rect x="-115" y="16.5" width="4.5" height="1.4" rx="0.4"/>
          <rect x="-105" y="16.5" width="4.5" height="1.4" rx="0.4"/>
          <rect x="-95" y="16.5" width="4.5" height="1.4" rx="0.4"/>
          <rect x="-85" y="16.5" width="4.5" height="1.4" rx="0.4"/>
          <rect x="-75" y="16.5" width="4.5" height="1.4" rx="0.4"/>
          <rect x="-65" y="16.5" width="4.5" height="1.4" rx="0.4"/>
          <rect x="-55" y="16.5" width="4.5" height="1.4" rx="0.4"/>
          <rect x="-45" y="16.5" width="4.5" height="1.4" rx="0.4"/>
          <rect x="-35" y="16.5" width="4.5" height="1.4" rx="0.4"/>
          <rect x="-25" y="16.5" width="4.5" height="1.4" rx="0.4"/>
          <rect x="-15" y="16.5" width="4.5" height="1.4" rx="0.4"/>
          <rect x="-5" y="16.5" width="4.5" height="1.4" rx="0.4"/>
          <rect x="5" y="16.5" width="4.5" height="1.4" rx="0.4"/>
          <rect x="15" y="16.5" width="4.5" height="1.4" rx="0.4"/>
          <rect x="25" y="16.5" width="4.5" height="1.4" rx="0.4"/>
          <rect x="35" y="16.5" width="4.5" height="1.4" rx="0.4"/>
          <rect x="45" y="16.5" width="4.5" height="1.4" rx="0.4"/>
          <rect x="55" y="16.5" width="4.5" height="1.4" rx="0.4"/>
          <rect x="65" y="16.5" width="4.5" height="1.4" rx="0.4"/>
          <rect x="75" y="16.5" width="4.5" height="1.4" rx="0.4"/>
          <rect x="85" y="16.5" width="4.5" height="1.4" rx="0.4"/>
          <rect x="95" y="16.5" width="4.5" height="1.4" rx="0.4"/>
          <rect x="105" y="16.5" width="4.5" height="1.4" rx="0.4"/>
          <rect x="115" y="16.5" width="4.5" height="1.4" rx="0.4"/>
          <rect x="125" y="16.5" width="4.5" height="1.4" rx="0.4"/>
          <rect x="135" y="16.5" width="4.5" height="1.4" rx="0.4"/>
          <rect x="145" y="16.5" width="4.5" height="1.4" rx="0.4"/>
          <rect x="155" y="16.5" width="4.5" height="1.4" rx="0.4"/>
          <rect x="165" y="16.5" width="4.5" height="1.4" rx="0.4"/>
        </g>
      </g>
      <!-- Tiny highlight rim over drainage slots -->
      <line x1="-120" y1="12.4" x2="175" y2="12.4" stroke="#484e54" stroke-width="0.5" opacity="0.6"/>

      <!-- Side Visitor Access Door (Cut into Hull Flank for museum entry) -->
      <g transform="translate(112, 0)">
        <rect x="0" y="-8" width="16" height="22" rx="3" fill="#111314" stroke="#484d52" stroke-width="1"/>
        <rect x="1.5" y="-6.5" width="13" height="19" rx="2" fill="#1b1d20"/>
        <line x1="2" y1="-7" x2="14" y2="-7" stroke="#757d85" stroke-width="0.8"/>
      </g>

      <!-- STREAMLINED SAIL / CONNING TOWER (围壳) -->
      <!-- Mid-Forward position (x = 20 to 80), Height = 40px (y = -38 to -78) -->
      <g id="conning-tower">
        <!-- Sail Ambient Occlusion Shadow at Root Junction -->
        <path d="M 18,-37 C 35,-39 65,-39 82,-35 L 80,-31 C 60,-34 35,-34 20,-31 Z" fill="#141618" opacity="0.8"/>

        <!-- Sail Aerodynamic Streamlined Body -->
        <path d="M 20,-38
                 C 20,-50 25,-75 32,-78
                 C 45,-80 70,-80 78,-78
                 C 81,-75 81,-50 82,-35
                 C 68,-37 42,-39 20,-38 Z"
              fill="url(#sailGrad)"
              stroke="#24272a"
              stroke-width="1"/>

        <!-- Sail Top Edge Sharp Highlight Rim -->
        <path d="M 32,-78 C 45,-80 70,-80 78,-78" fill="none" stroke="#9da7b0" stroke-width="1.3" stroke-linecap="round"/>

        <!-- Sail Leading Edge Round Highlight -->
        <path d="M 20,-38 C 20,-50 25,-75 32,-78" fill="none" stroke="#848e96" stroke-width="1.1"/>

        <!-- Periscope Shears / Mast Fairing Top Cutout -->
        <ellipse cx="50" cy="-78.5" rx="14" ry="2" fill="#25282b" stroke="#4a5056" stroke-width="0.6"/>

        <!-- Port Sail Plane (围壳舵 - Horizontal Diving Plane extending towards viewer) -->
        <g id="port-sail-plane">
          <!-- Cast Shadow on Hull Flank below the plane -->
          <path d="M 35,-42 L 56,-12 L 64,-12 L 58,-42 Z" fill="#161819" opacity="0.55" filter="url(#contactShadowFilter)"/>
          <!-- Hydrofoil Surface -->
          <path d="M 36,-56 L 43,-14 Q 48,-13 54,-14 L 58,-56 Z"
                fill="#4d5256"
                stroke="#1d1f21"
                stroke-width="0.8"/>
          <!-- Top Illuminated Edge -->
          <line x1="36" y1="-56" x2="43" y2="-14" stroke="#87919a" stroke-width="1.2"/>
          <!-- Underside Shadow Edge -->
          <path d="M 43,-14 L 54,-14 L 58,-56 L 55,-54 Z" fill="#2b2e30"/>
        </g>
      </g>

      <!-- AFT CONTROL SURFACES: X-SHAPED RUDDERS (X形尾舵) -->
      <!-- Albacore's iconic 4 canted fins arranged in an X, NOT a cross -->
      <g id="x-tail-rudders" transform="translate(372, 0)">
        <!-- Port Upper X-Rudder (Canted up-forward towards viewer) -->
        <g id="rudder-port-upper">
          <path d="M -8,-5 L 4,-26 L 18,-24 L 8,-3 Z"
                fill="#4e5357"
                stroke="#1c1e20"
                stroke-width="0.8"/>
          <!-- Leading Edge Highlight -->
          <line x1="-8" y1="-5" x2="4" y2="-26" stroke="#8e97a0" stroke-width="1.2"/>
          <line x1="4" y1="-26" x2="18" y2="-24" stroke="#8e97a0" stroke-width="0.8"/>
        </g>

        <!-- Port Lower X-Rudder (Canted down-forward towards viewer) -->
        <g id="rudder-port-lower">
          <path d="M -8,5 L 6,26 L 20,24 L 8,3 Z"
                fill="#2d3033"
                stroke="#141517"
                stroke-width="0.8"/>
          <!-- Leading Edge Catch Light -->
          <line x1="-8" y1="5" x2="6" y2="26" stroke="#5d6369" stroke-width="1"/>
          <!-- Underside Deep Shadow -->
          <path d="M 6,26 L 20,24 L 8,3 Z" fill="#161819" opacity="0.6"/>
        </g>
      </g>

      <!-- PROPELLER (单具暗铜色螺旋桨位于艇尾最尖端) -->
      <g id="propeller" transform="translate(400, 0)">
        <!-- Propeller Hub Cone -->
        <path d="M -1,-5 L 14,-1.8 L 14,1.8 L -1,5 Z" fill="#543c1c" stroke="#362610" stroke-width="0.6"/>
        <line x1="-1" y1="-4" x2="13" y2="-1.5" stroke="#a38248" stroke-width="0.8"/>

        <!-- 5-Bladed Scimitar Dark Bronze Screw -->
        <!-- Blade 1 (Top) -->
        <path d="M 3,-3 Q 7,-18 13,-20 Q 15,-15 7,-3 Z" fill="url(#bronzePropGrad)" stroke="#422f16" stroke-width="0.6"/>
        <line x1="3" y1="-3" x2="13" y2="-20" stroke="#c4a564" stroke-width="0.8"/>

        <!-- Blade 2 (Upper Forward) -->
        <path d="M 2,-2 Q -6,-14 -3,-18 Q 4,-14 5,-2 Z" fill="url(#bronzePropGrad)" stroke="#422f16" stroke-width="0.6"/>

        <!-- Blade 3 (Lower Forward) -->
        <path d="M 2,2 Q -6,14 -4,17 Q 3,13 4,2 Z" fill="#694e24" stroke="#36250f" stroke-width="0.6"/>

        <!-- Blade 4 (Lower Aft) -->
        <path d="M 3,3 Q 8,18 14,19 Q 15,14 6,3 Z" fill="#4d3718" stroke="#291a08" stroke-width="0.6"/>

        <!-- Blade 5 (Right Hub Edge) -->
        <path d="M 6,-1 Q 18,-4 20,0 Q 18,4 6,1 Z" fill="url(#bronzePropGrad)" stroke="#422f16" stroke-width="0.6"/>
      </g>
    </g>

    <!-- ==================== GANGWAY BRIDGE & ACCESS STAIRS ==================== -->
    <!-- Small flight of stairs and bridge connecting trench rim to submarine side door -->
    <g id="gangway-assembly" transform="translate(642, 452)">
      <!-- Ground Shadow of Bridge and Stairs -->
      <path d="M -22,18 L 8,34 L 14,52 L -6,38 Z" fill="#1b201c" opacity="0.4" filter="url(#contactShadowFilter)"/>

      <!-- Bridge Gangway Deck (Light Gray Metal) -->
      <path d="M -24,8 L 4,22 L 8,16 L -20,2 Z" fill="#b0b5b8" stroke="#5d6368" stroke-width="0.7"/>
      <line x1="-24" y1="8" x2="4" y2="22" stroke="#dbe0e3" stroke-width="0.8"/>

      <!-- Bridge Tubular Handrails -->
      <!-- Left Railing -->
      <path d="M -20,-3 L 6,11" fill="none" stroke="#7d858c" stroke-width="1.2"/>
      <line x1="-20" y1="2" x2="-20" y2="-3" stroke="#53595f" stroke-width="0.9"/>
      <line x1="-8" y1="8" x2="-8" y2="3" stroke="#53595f" stroke-width="0.9"/>
      <line x1="6" y1="17" x2="6" y2="11" stroke="#53595f" stroke-width="0.9"/>

      <!-- Right Railing -->
      <path d="M -24,3 L 2,17" fill="none" stroke="#939ba3" stroke-width="1.2"/>
      <line x1="-24" y1="8" x2="-24" y2="3" stroke="#686f75" stroke-width="0.9"/>
      <line x1="-11" y1="14" x2="-11" y2="9" stroke="#686f75" stroke-width="0.9"/>
      <line x1="2" y1="22" x2="2" y2="17" stroke="#686f75" stroke-width="0.9"/>

      <!-- Metal Access Stairs descending to lawn/trench walkway -->
      <g transform="translate(4, 20)">
        <!-- Step 1 -->
        <path d="M 0,0 L 5,3 L 9,1 L 4,-2 Z" fill="#a4aaaf" stroke="#4f555a" stroke-width="0.5"/>
        <!-- Step 2 -->
        <path d="M 3,4 L 8,7 L 12,5 L 7,2 Z" fill="#a4aaaf" stroke="#4f555a" stroke-width="0.5"/>
        <!-- Step 3 -->
        <path d="M 6,8 L 11,11 L 15,9 L 10,6 Z" fill="#a4aaaf" stroke="#4f555a" stroke-width="0.5"/>
        <!-- Step 4 -->
        <path d="M 9,12 L 14,15 L 18,13 L 13,10 Z" fill="#a4aaaf" stroke="#4f555a" stroke-width="0.5"/>
        <!-- Step 5 (Bottom Landing) -->
        <path d="M 12,16 L 17,19 L 21,17 L 16,14 Z" fill="#8e9499" stroke="#4f555a" stroke-width="0.5"/>

        <!-- Stair Outer Handrail -->
        <path d="M 1,-4 L 14,11" fill="none" stroke="#7d858c" stroke-width="1.2"/>
        <line x1="1" y1="1" x2="1" y2="-4" stroke="#5a6066" stroke-width="0.8"/>
        <line x1="7" y1="8" x2="7" y2="3" stroke="#5a6066" stroke-width="0.8"/>
        <line x1="14" y1="17" x2="14" y2="11" stroke="#5a6066" stroke-width="0.8"/>
      </g>
    </g>

    <!-- ==================== MINIATURE HUMAN SILHOUETTES ==================== -->
    <!-- Group 1: Standing directly beneath the bulbous bow, looking up in awe -->
    <g transform="translate(375, 570)">
      <!-- Person 1 (Adult looking up) -->
      <ellipse cx="2" cy="2" rx="3.5" ry="1.2" fill="#1a2414" opacity="0.4"/>
      <path d="M -1,0 L -0.5,-5.5 L 0.5,-5.5 L 1,0 Z" fill="#222527"/>
      <path d="M -1.6,-5.5 L -1.4,-11.5 L 1.4,-11.5 L 1.6,-5.5 Z" fill="#2d3134"/>
      <!-- Head tilted backward looking up at the bow dome -->
      <circle cx="-0.8" cy="-14" r="1.4" fill="#222527"/>

      <!-- Person 2 (Companion pointing up at bow sonar) -->
      <g transform="translate(8, 2)">
        <ellipse cx="2" cy="2" rx="3.5" ry="1.2" fill="#1a2414" opacity="0.4"/>
        <path d="M -1,0 L -0.5,-5.5 L 0.5,-5.5 L 1,0 Z" fill="#222527"/>
        <path d="M -1.5,-5.5 L -1.5,-11 L 1.5,-11 L 1.5,-5.5 Z" fill="#363b3f"/>
        <circle cx="0.2" cy="-13.5" r="1.3" fill="#222527"/>
        <!-- Raised pointing arm -->
        <line x1="-1" y1="-10" x2="-4" y2="-14" stroke="#222527" stroke-width="0.9"/>
      </g>

      <!-- Person 3 (Child standing close) -->
      <g transform="translate(16, 4)">
        <ellipse cx="1.5" cy="1.5" rx="2.5" ry="0.9" fill="#1a2414" opacity="0.4"/>
        <path d="M -0.8,0 L -0.4,-3.8 L 0.4,-3.8 L 0.8,0 Z" fill="#222527"/>
        <path d="M -1.2,-3.8 L -1.2,-7.8 L 1.2,-7.8 L 1.2,-3.8 Z" fill="#43484d"/>
        <circle cx="-0.3" cy="-9.6" r="1.1" fill="#222527"/>
      </g>
    </g>

    <!-- Group 2: Visitors approaching the gangway stairs -->
    <g transform="translate(680, 502)">
      <ellipse cx="2" cy="2" rx="3.5" ry="1.2" fill="#1a2414" opacity="0.4"/>
      <path d="M -1,0 L -0.5,-5.5 L 0.5,-5.5 L 1,0 Z" fill="#222527"/>
      <path d="M -1.5,-5.5 L -1.5,-11.5 L 1.5,-11.5 L 1.5,-5.5 Z" fill="#303539"/>
      <circle cx="0" cy="-14" r="1.3" fill="#222527"/>

      <g transform="translate(7, 3)">
        <ellipse cx="2" cy="2" rx="3.5" ry="1.2" fill="#1a2414" opacity="0.4"/>
        <path d="M -1,0 L -0.5,-5 L 0.5,-5 L 1,0 Z" fill="#222527"/>
        <path d="M -1.4,-5 L -1.4,-11 L 1.4,-11 L 1.4,-5 Z" fill="#26292c"/>
        <circle cx="0" cy="-13.2" r="1.3" fill="#222527"/>
      </g>
    </g>

    <!-- Group 3: Solitary visitor strolling near bench -->
    <g transform="translate(460, 608)">
      <ellipse cx="2" cy="2" rx="3.5" ry="1.2" fill="#1a2414" opacity="0.4"/>
      <path d="M -1,0 L -0.5,-5.5 L 0.5,-5.5 L 1,0 Z" fill="#222527"/>
      <path d="M -1.5,-5.5 L -1.5,-11.5 L 1.5,-11.5 L 1.5,-5.5 Z" fill="#2d3134"/>
      <circle cx="0" cy="-14" r="1.3" fill="#222527"/>
    </g>
  </g>

  <!-- ==================== PLINTH TOP RIM BEVEL HIGHLIGHT ==================== -->
  <ellipse cx="600" cy="500" rx="475" ry="235"
           fill="none"
           stroke="url(#plinthRimGrad)"
           stroke-width="2.5"
           pointer-events="none"/>
</svg>