<svg xmlns="http://www.w3.org/2000/svg" viewBox="0 0 1000 950" width="100%" height="100%">
  <defs>
    <!-- Background Gradient -->
    <linearGradient id="bg-grad" x1="0" y1="0" x2="0" y2="1">
      <stop offset="0%" stop-color="#e8edf3" />
      <stop offset="45%" stop-color="#f2f5f8" />
      <stop offset="100%" stop-color="#ffffff" />
    </linearGradient>

    <!-- Filters for Depth and Shadows -->
    <filter id="pedestal-shadow-filter" x="-20%" y="-20%" width="140%" height="140%">
      <feGaussianBlur stdDeviation="18" />
    </filter>
    <filter id="soft-ground-shadow" x="-30%" y="-30%" width="160%" height="160%">
      <feGaussianBlur stdDeviation="7" />
    </filter>
    <filter id="micro-shadow" x="-40%" y="-40%" width="180%" height="180%">
      <feGaussianBlur stdDeviation="2.5" />
    </filter>
    <filter id="distant-soft" x="-20%" y="-20%" width="140%" height="140%">
      <feGaussianBlur stdDeviation="0.6" />
    </filter>

    <!-- Display Base Gradients -->
    <radialGradient id="pedestal-top-grad" cx="45%" cy="40%" r="60%">
      <stop offset="0%" stop-color="#f5ede2" />
      <stop offset="65%" stop-color="#ebdcc9" />
      <stop offset="100%" stop-color="#dfcfb8" />
    </radialGradient>
    <linearGradient id="pedestal-skirt-grad" x1="0" y1="0" x2="1" y2="0">
      <stop offset="0%" stop-color="#968572" />
      <stop offset="25%" stop-color="#baa996" />
      <stop offset="60%" stop-color="#7a6b5a" />
      <stop offset="100%" stop-color="#544738" />
    </linearGradient>
    <linearGradient id="pedestal-lip-grad" x1="0" y1="0" x2="1" y2="0">
      <stop offset="0%" stop-color="#baa996" />
      <stop offset="30%" stop-color="#d9caba" />
      <stop offset="70%" stop-color="#8f806e" />
      <stop offset="100%" stop-color="#695b4c" />
    </linearGradient>

    <!-- Sandstone Architectural Gradients -->
    <linearGradient id="wall-lit" x1="0" y1="0" x2="1" y2="0">
      <stop offset="0%" stop-color="#d98064" />
      <stop offset="100%" stop-color="#c56d52" />
    </linearGradient>
    <linearGradient id="wall-shade" x1="0" y1="0" x2="1" y2="0">
      <stop offset="0%" stop-color="#7d3728" />
      <stop offset="100%" stop-color="#5a2419" />
    </linearGradient>
    <linearGradient id="wall-top" x1="0" y1="0" x2="1" y2="0">
      <stop offset="0%" stop-color="#e8987f" />
      <stop offset="100%" stop-color="#d27c62" />
    </linearGradient>

    <!-- Green Tile Roof Gradients -->
    <linearGradient id="roof-lit-grad" x1="0" y1="1" x2="0" y2="0">
      <stop offset="0%" stop-color="#387349" />
      <stop offset="60%" stop-color="#4c9461" />
      <stop offset="100%" stop-color="#5ea873" />
    </linearGradient>
    <linearGradient id="roof-shade-grad" x1="0" y1="0" x2="0" y2="1">
      <stop offset="0%" stop-color="#2a5737" />
      <stop offset="100%" stop-color="#183622" />
    </linearGradient>

    <!-- Golden Spheres Material -->
    <radialGradient id="gold-ball-grad" cx="35%" cy="30%" r="65%">
      <stop offset="0%" stop-color="#fffce8" />
      <stop offset="25%" stop-color="#ffd566" />
      <stop offset="65%" stop-color="#c9962e" />
      <stop offset="90%" stop-color="#8f6515" />
      <stop offset="100%" stop-color="#573c08" />
    </radialGradient>

    <!-- Fountain Water Material -->
    <radialGradient id="water-grad" cx="45%" cy="45%" r="55%">
      <stop offset="0%" stop-color="#68d8d6" />
      <stop offset="60%" stop-color="#2ba8a0" />
      <stop offset="100%" stop-color="#1b6e68" />
    </radialGradient>

    <!-- Courtyard Orange Tree Definition -->
    <g id="orange-tree-def">
      <ellipse cx="0" cy="2" rx="6" ry="3.5" fill="rgba(45,30,20,0.3)" />
      <path d="M -0.8,2 L -0.8,-7 L 0.8,-7 L 0.8,2 Z" fill="#69462d" />
      <!-- Foliage Crown -->
      <circle cx="0" cy="-11" r="7.5" fill="#326e32" />
      <circle cx="-2.5" cy="-13" r="5" fill="#438a43" />
      <circle cx="2" cy="-13" r="4.5" fill="#529e52" />
      <circle cx="-1" cy="-15" r="3" fill="#65b365" />
      <!-- Tiny Orange Dots -->
      <circle cx="-3" cy="-10" r="1.1" fill="#e67e22" />
      <circle cx="2.5" cy="-9" r="1" fill="#f39c12" />
      <circle cx="-0.5" cy="-13.5" r="1.2" fill="#d35400" />
      <circle cx="3" cy="-13" r="0.9" fill="#e67e22" />
    </g>

    <!-- Column Stump Definition for Ruins -->
    <g id="column-stump">
      <!-- Base Plinth -->
      <path d="M -7,0 L 0,-3.5 L 7,0 L 0,3.5 Z" fill="#cfbaa9" />
      <path d="M -7,0 L 0,3.5 L 0,5.5 L -7,2 Z" fill="#b39d8c" />
      <path d="M 0,3.5 L 7,0 L 7,2 L 0,5.5 Z" fill="#9c8777" />
      <!-- Broken Shaft -->
      <path d="M -4,-1 L -4,-9 Q 0,-10 4,-8 L 4,0 Q 0,2 -4,-1 Z" fill="#bda797" />
      <path d="M -4,-1 Q 0,2 4,0 L 4,-8 Q 0,-6 -4,-9 Z" fill="#cbb7a7" opacity="0.6" />
      <ellipse cx="0" cy="-8.5" rx="3.8" ry="1.8" fill="#dfcfc1" />
    </g>

    <!-- Stepped Merlon Definition -->
    <path id="stepped-merlon" d="M 0,0 L 0,-12 L 2,-12 L 2,-15 L 4,-15 L 4,-18 L 7,-18 L 7,-15 L 9,-15 L 9,-12 L 11,-12 L 11,0 Z" />

    <style>
      <![CDATA[
        /* Gentle miniature ambient sway for palm trees */
        @keyframes swayTree1 {
          0%, 100% { transform: rotate(0deg); }
          50% { transform: rotate(1.4deg); }
        }
        @keyframes swayTree2 {
          0%, 100% { transform: rotate(0deg); }
          50% { transform: rotate(-1.5deg); }
        }
        @keyframes swayTree3 {
          0%, 100% { transform: rotate(0deg); }
          50% { transform: rotate(1.2deg); }
        }
        @keyframes swayTree4 {
          0%, 100% { transform: rotate(0deg); }
          50% { transform: rotate(-1.3deg); }
        }
        @keyframes swayTree5 {
          0%, 100% { transform: rotate(0deg); }
          50% { transform: rotate(1.1deg); }
        }
        @keyframes fountainPulse {
          0%, 100% { transform: scale(1); opacity: 0.8; }
          50% { transform: scale(1.18); opacity: 1; }
        }
        .anim-tree-1 { transform-origin: 230px 680px; animation: swayTree1 6.5s ease-in-out infinite; }
        .anim-tree-2 { transform-origin: 325px 750px; animation: swayTree2 7.8s ease-in-out infinite; }
        .anim-tree-3 { transform-origin: 215px 580px; animation: swayTree3 5.8s ease-in-out infinite; }
        .anim-tree-4 { transform-origin: 435px 735px; animation: swayTree4 7.2s ease-in-out infinite; }
        .anim-tree-5 { transform-origin: 520px 665px; animation: swayTree5 6.0s ease-in-out infinite; }
        .anim-fountain { transform-origin: 442px 512px; animation: fountainPulse 4.2s ease-in-out infinite; }
      ]]>
    </style>
  </defs>

  <!-- Canvas Background -->
  <rect x="0" y="0" width="1000" height="950" fill="url(#bg-grad)" />

  <!-- ========================================== -->
  <!-- 1. DISPLAY BASE & PEDESTAL                 -->
  <!-- ========================================== -->
  <g id="display-pedestal">
    <!-- Under-base Soft Shadow -->
    <ellipse cx="500" cy="745" rx="430" ry="175" fill="rgba(38,24,14,0.22)" filter="url(#pedestal-shadow-filter)" />

    <!-- Pedestal Base Lower Skirt -->
    <path d="M 90,620 A 410,195 0 0,0 910,620 v 58 A 410,195 0 0,1 90,678 Z" fill="url(#pedestal-skirt-grad)" />
    <!-- Pedestal Base Bottom Bevel -->
    <path d="M 90,678 A 410,195 0 0,0 910,678 v 10 A 410,195 0 0,1 90,688 Z" fill="#42372a" />

    <!-- Ambient Shadow Under Top Edge -->
    <path d="M 90,620 A 410,195 0 0,0 910,620 v 14 A 410,195 0 0,1 90,634 Z" fill="rgba(30,20,12,0.38)" />

    <!-- Upper Bevel Lip -->
    <path d="M 90,620 A 410,195 0 0,0 910,620 v 4 A 410,195 0 0,1 90,624 Z" fill="url(#pedestal-lip-grad)" />

    <!-- Pedestal Top Surface (The Diorama Ground) -->
    <ellipse cx="500" cy="620" rx="410" ry="195" fill="url(#pedestal-top-grad)" />

    <!-- Thin Crisp Highlight Rim on Top Edge -->
    <path d="M 90,620 A 410,195 0 0,1 910,620" fill="none" stroke="#fffcf5" stroke-width="2.2" opacity="0.95" />
    <path d="M 90,620 A 410,195 0 0,0 910,620" fill="none" stroke="#d5c2ab" stroke-width="1.2" opacity="0.6" />

    <!-- Subtle Plaza Paving Grid Marks on Top Surface -->
    <g opacity="0.15" stroke="#a68c72" stroke-width="1" fill="none">
      <path d="M 190,580 L 490,730 M 260,540 L 560,690 M 330,500 L 630,650 M 400,460 L 700,610 M 470,440 L 770,590" />
      <path d="M 330,710 L 630,560 M 260,670 L 560,520 M 190,630 L 490,480 M 380,740 L 680,590 M 440,755 L 740,605" />
    </g>
  </g>

  <!-- ========================================== -->
  <!-- 2. DISTANT RUINS (EARLY MOSQUE COLUMN BASES) -->
  <!-- ========================================== -->
  <!-- Rendered with softer edges, lighter tones, lowered contrast for depth -->
  <g id="distant-ruins" filter="url(#distant-soft)" opacity="0.92">
    <!-- Archaeological Excavation Bed -->
    <polygon points="540,430 730,350 820,400 630,480" fill="#dfd0c0" opacity="0.6" />
    <path d="M 540,430 L 730,350 L 820,400 L 630,480 Z" fill="none" stroke="#cbb8a5" stroke-width="1.5" />

    <!-- Foundation Wall Trenches -->
    <path d="M 560,420 L 750,340 M 580,440 L 770,360 M 600,460 L 790,380" stroke="#bda895" stroke-width="2.5" fill="none" opacity="0.5" />
    <path d="M 590,445 L 680,395 M 650,470 L 740,420" stroke="#bda895" stroke-width="2" fill="none" opacity="0.5" />

    <!-- Row 1 of Column Stumps (Furthest Back - 7 Pillars) -->
    <use href="#column-stump" x="600" y="380" />
    <use href="#column-stump" x="625" y="368" />
    <use href="#column-stump" x="650" y="356" />
    <use href="#column-stump" x="675" y="344" />
    <use href="#column-stump" x="700" y="332" />
    <use href="#column-stump" x="725" y="320" />
    <use href="#column-stump" x="750" y="308" />

    <!-- Row 2 of Column Stumps (Middle - 7 Pillars) -->
    <use href="#column-stump" x="580" y="405" />
    <use href="#column-stump" x="605" y="393" />
    <use href="#column-stump" x="630" y="381" />
    <use href="#column-stump" x="655" y="369" />
    <use href="#column-stump" x="680" y="357" />
    <use href="#column-stump" x="705" y="345" />
    <use href="#column-stump" x="730" y="333" />

    <!-- Row 3 of Column Stumps (Front of Ruins - 7 Pillars) -->
    <use href="#column-stump" x="560" y="430" />
    <use href="#column-stump" x="585" y="418" />
    <use href="#column-stump" x="610" y="406" />
    <use href="#column-stump" x="635" y="394" />
    <use href="#column-stump" x="660" y="382" />
    <use href="#column-stump" x="685" y="370" />
    <use href="#column-stump" x="710" y="358" />

    <!-- Low Ruined Pier Walls -->
    <polygon points="760,355 775,348 775,354 760,361" fill="#c5b09f" />
    <polygon points="775,348 785,353 785,359 775,354" fill="#a89382" />
    <polygon points="565,445 580,438 580,444 565,451" fill="#c5b09f" />
  </g>

  <!-- ========================================== -->
  <!-- 3. MAIN BUILDING CAST SHADOWS (ON GROUND)  -->
  <!-- ========================================== -->
  <g id="ground-shadows" filter="url(#soft-ground-shadow)" opacity="0.45">
    <!-- Prayer Hall Footprint Cast Shadow (Stretching East/South-East) -->
    <polygon points="410,580 720,430 790,465 770,540 540,655 410,580" fill="#2d1a10" />
    <!-- Minaret Tower Long Slender Shadow -->
    <polygon points="380,575 426,552 640,435 625,410 334,552 380,575" fill="#2d1a10" />
    <!-- Courtyard Shadow -->
    <polygon points="360,530 470,470 510,490 410,550" fill="#26160c" />
  </g>

  <!-- ========================================== -->
  <!-- 4. PRAYER HALL & COURTYARD (LOW & VAST)    -->
  <!-- ========================================== -->
  <g id="prayer-hall-and-courtyard">
    <!-- Prayer Hall Foundation / Wall Base Outer AO -->
    <polygon points="410,582 725,425 725,450 410,607" fill="#4d1f14" opacity="0.6" />

    <!-- Courtyard (Sahn) Area - Located North of Prayer Hall -->
    <g id="courtyard-sahn">
      <!-- Sunken Courtyard Paved Floor -->
      <polygon points="370,522 470,472 530,502 430,552" fill="#e5dac9" />
      <polygon points="370,522 470,472 530,502 430,552" fill="none" stroke="#c7b6a0" stroke-width="1" />

      <!-- Perimeter Cloister Gallery / Low Arcaded Walls -->
      <!-- Back Wall -->
      <polygon points="470,472 530,502 530,494 470,464" fill="#a65840" />
      <polygon points="470,464 530,494 530,491 470,461" fill="#df8b73" />
      <!-- Left Wall -->
      <polygon points="370,522 470,472 470,464 370,514" fill="#c7735a" />
      <polygon points="370,514 470,464 470,461 370,511" fill="#f0a58f" />
      <!-- Front Low Railing -->
      <polygon points="370,522 430,552 430,547 370,517" fill="#c7735a" />
      <!-- Ambient Occlusion in Courtyard Corners -->
      <polygon points="460,477 470,472 475,475 465,480" fill="rgba(40,15,8,0.4)" />

      <!-- Central Ablution Basin (净身泉) -->
      <g id="ablution-fountain">
        <!-- Outer Basin Shadow -->
        <ellipse cx="445" cy="514" rx="19" ry="10" fill="rgba(35,20,10,0.35)" />
        <!-- Basin Outer Marble Wall -->
        <polygon points="430,512 445,504 460,512 445,520" fill="#f3ece2" />
        <polygon points="430,512 445,520 445,524 430,516" fill="#cfc2b0" />
        <polygon points="445,520 460,512 460,516 445,524" fill="#9e8f7d" />
        <!-- Inner Water Pool -->
        <ellipse cx="445" cy="512" rx="12" ry="6" fill="url(#water-grad)" />
        <!-- Animated Water Ripples (SMIL + CSS) -->
        <ellipse class="anim-fountain" cx="445" cy="512" rx="7" ry="3.5" fill="none" stroke="#bbf7f4" stroke-width="1.2" opacity="0.8">
          <animate attributeName="rx" values="4;10;4" dur="4.2s" repeatCount="indefinite" />
          <animate attributeName="ry" values="2;5;2" dur="4.2s" repeatCount="indefinite" />
          <animate attributeName="opacity" values="0.9;0.2;0.9" dur="4.2s" repeatCount="indefinite" />
        </ellipse>
        <!-- Center Fountain Jet Core -->
        <circle cx="445" cy="511" r="1.5" fill="#ffffff" />
      </g>

      <!-- Rows of Small Citrus Trees in Courtyard (成排小树 - 2 Rows of 4 Trees) -->
      <!-- Row 1: Along Left Arcade -->
      <use href="#orange-tree-def" x="390" y="515" />
      <use href="#orange-tree-def" x="412" y="504" />
      <use href="#orange-tree-def" x="434" y="493" />
      <use href="#orange-tree-def" x="456" y="482" />
      <!-- Row 2: Along Right Arcade -->
      <use href="#orange-tree-def" x="415" y="538" />
      <use href="#orange-tree-def" x="437" y="527" />
      <use href="#orange-tree-def" x="459" y="516" />
      <use href="#orange-tree-def" x="481" y="505" />
    </g>

    <!-- Parallel Green-Tiled Gabled Roofs (9 Parallel Aisles) -->
    <!-- Low prayer hall ridge height <= 1/6 minaret height (~48px vs 69px limit) -->
    <g id="prayer-hall-roofs">
      <!-- Outer South Facade Wall (Lit Face) -->
      <polygon points="410,582 580,497 580,475 410,560" fill="url(#wall-lit)" />
      <!-- Wall Buttresses / Pilasters on South Facade -->
      <path d="M 430,572 L 430,550 M 460,557 L 460,535 M 490,542 L 490,520 M 520,527 L 520,505 M 550,512 L 550,490" stroke="#e8987f" stroke-width="2.5" />
      <!-- Top Wall Cornice Highlight -->
      <polygon points="410,560 580,475 580,472 410,557" fill="#f8b6a1" />

      <!-- The 9 Parallel Gabled Roofs (From Back-East to Front-West) -->
      <!-- ROOF 9 (Furthest East) -->
      <g id="roof-aisle-9">
        <polygon points="562,486 662,436 673,441 573,491" fill="url(#roof-shade-grad)" />
        <polygon points="551,480 651,430 662,436 562,486" fill="url(#roof-lit-grad)" />
        <polygon points="540,486 551,480 562,486" fill="#c7735a" />
        <line x1="551" y1="480" x2="651" y2="430" stroke="#7ad496" stroke-width="1.2" />
      </g>
      <!-- ROOF 8 -->
      <g id="roof-aisle-8">
        <polygon points="544,495 644,445 655,450 555,500" fill="url(#roof-shade-grad)" />
        <polygon points="533,489 633,439 644,445 544,495" fill="url(#roof-lit-grad)" />
        <polygon points="522,495 533,489 544,495" fill="#c7735a" />
        <line x1="533" y1="489" x2="633" y2="439" stroke="#7ad496" stroke-width="1.2" />
      </g>
      <!-- ROOF 7 -->
      <g id="roof-aisle-7">
        <polygon points="526,504 626,454 637,459 537,509" fill="url(#roof-shade-grad)" />
        <polygon points="515,498 615,448 626,454 526,504" fill="url(#roof-lit-grad)" />
        <polygon points="504,504 515,498 526,504" fill="#c7735a" />
        <line x1="515" y1="498" x2="615" y2="448" stroke="#7ad496" stroke-width="1.2" />
      </g>
      <!-- ROOF 6 -->
      <g id="roof-aisle-6">
        <polygon points="508,513 608,463 619,468 519,518" fill="url(#roof-shade-grad)" />
        <polygon points="497,507 597,457 608,463 508,513" fill="url(#roof-lit-grad)" />
        <polygon points="486,513 497,507 508,513" fill="#c7735a" />
        <line x1="497" y1="507" x2="597" y2="457" stroke="#7ad496" stroke-width="1.2" />
      </g>
      <!-- ROOF 5 (Central Aisle - Slightly Raised Lantern Peak) -->
      <g id="roof-aisle-5">
        <polygon points="490,522 590,472 601,477 501,527" fill="url(#roof-shade-grad)" />
        <polygon points="479,515 579,465 590,472 490,522" fill="url(#roof-lit-grad)" />
        <polygon points="468,522 479,515 490,522" fill="#c7735a" />
        <line x1="479" y1="515" x2="579" y2="465" stroke="#8ce2a8" stroke-width="1.5" />
      </g>
      <!-- ROOF 4 -->
      <g id="roof-aisle-4">
        <polygon points="472,531 572,481 583,486 483,536" fill="url(#roof-shade-grad)" />
        <polygon points="461,525 561,475 572,481 472,531" fill="url(#roof-lit-grad)" />
        <polygon points="450,531 461,525 472,531" fill="#c7735a" />
        <line x1="461" y1="525" x2="561" y2="475" stroke="#7ad496" stroke-width="1.2" />
      </g>
      <!-- ROOF 3 -->
      <g id="roof-aisle-3">
        <polygon points="454,540 554,490 565,495 465,545" fill="url(#roof-shade-grad)" />
        <polygon points="443,534 543,484 554,490 454,540" fill="url(#roof-lit-grad)" />
        <polygon points="432,540 443,534 454,540" fill="#c7735a" />
        <line x1="443" y1="534" x2="543" y2="484" stroke="#7ad496" stroke-width="1.2" />
      </g>
      <!-- ROOF 2 -->
      <g id="roof-aisle-2">
        <polygon points="436,549 536,499 547,504 447,554" fill="url(#roof-shade-grad)" />
        <polygon points="425,543 525,493 536,499 436,549" fill="url(#roof-lit-grad)" />
        <polygon points="414,549 425,543 436,549" fill="#c7735a" />
        <line x1="425" y1="543" x2="525" y2="493" stroke="#7ad496" stroke-width="1.2" />
      </g>
      <!-- ROOF 1 (Abutting the Minaret Base) -->
      <g id="roof-aisle-1">
        <polygon points="418,558 518,508 529,513 429,563" fill="url(#roof-shade-grad)" />
        <polygon points="407,552 507,502 518,508 418,558" fill="url(#roof-lit-grad)" />
        <polygon points="396,558 407,552 418,558" fill="#c7735a" />
        <line x1="407" y1="552" x2="507" y2="502" stroke="#7ad496" stroke-width="1.2" />
      </g>

      <!-- East Shaded Flank Wall of Prayer Hall -->
      <polygon points="573,491 673,441 673,456 573,506" fill="url(#wall-shade)" />
      <!-- Ambient Occlusion where Roof Valleys meet -->
      <path d="M 562,486 L 662,436 M 544,495 L 644,445 M 526,504 L 626,454 M 508,513 L 608,463 M 490,522 L 590,472 M 472,531 L 572,481 M 454,540 L 554,490 M 436,549 L 536,499" stroke="rgba(20,45,25,0.45)" stroke-width="1.5" />
    </g>
  </g>

  <!-- ========================================== -->
  <!-- 5. THE MINARET (FOCAL MASTERPIECE)         -->
  <!-- ========================================== -->
  <!-- Rising from the corner of the prayer hall  -->
  <!-- Total Height: 414px; Base Width: 72px (5.75x ratio) -->
  <g id="koutoubia-minaret">
    <!-- Ambient Occlusion at Minaret Base -->
    <polygon points="325,550 380,578 435,550 430,545 380,570 330,545" fill="rgba(45,15,8,0.5)" filter="url(#micro-shadow)" />

    <!-- - -->
    <!-- 5A. MAIN SHAFT (主塔身 - 4/5 Total Height) -->
    <!-- - -->
    <!-- Back Shaded Edge AO -->
    <line x1="426" y1="552" x2="426" y2="242" stroke="rgba(30,10,5,0.5)" stroke-width="1.5" />

    <!-- RIGHT FACE (Shaded Face / 背光面) -->
    <!-- Per Rule: "背光面并入暗部，不画砌缝格纹表面细节" -->
    <g id="minaret-main-shade-face">
      <polygon points="380,575 426,552 426,242 380,265" fill="url(#wall-shade)" />
      <!-- Base Bottom Dark Trim -->
      <polygon points="380,575 426,552 426,547 380,570" fill="#42160d" />

      <!-- Deep Recessed Window Openings in Shade -->
      <!-- Tier 1 Window -->
      <polygon points="400,505 407,501 407,485 400,488" fill="#301109" />
      <path d="M 400,488 Q 403.5,485 407,485" stroke="#220b06" stroke-width="1" />
      <!-- Tier 2 Double Windows -->
      <polygon points="395,435 401,432 401,412 395,415" fill="#301109" />
      <polygon points="405,430 411,427 411,407 405,410" fill="#301109" />
      <!-- Tier 3 Window -->
      <polygon points="398,365 406,361 406,340 398,344" fill="#301109" />
      <!-- Tier 4 Twin Windows -->
      <polygon points="395,305 401,302 401,288 395,291" fill="#301109" />
      <polygon points="405,300 411,297 411,283 405,286" fill="#301109" />

      <!-- Subtle Vertical Atmospheric Drop-shadow from Corner -->
      <line x1="380" y1="265" x2="380" y2="575" stroke="#3d140a" stroke-width="1.8" />
    </g>

    <!-- LEFT FACE (Lit Face / 受光面) -->
    <!-- Rich architectural shallow relief: blind arches, sebka tracery -->
    <g id="minaret-main-lit-face">
      <!-- Base Lit Sandstone Wall -->
      <polygon points="334,552 380,575 380,265 334,242" fill="url(#wall-lit)" />

      <!-- Corner Highlight Line (Sun-Catcher Vertex) -->
      <line x1="334" y1="242" x2="334" y2="552" stroke="#f7b79e" stroke-width="1.6" />
      <!-- Top Edge Highlight Line -->
      <line x1="334" y1="242" x2="380" y2="265" stroke="#ffd1be" stroke-width="1.8" />

      <!-- Subtle Horizontal Ashlar Masonry Courses (受光面砖石砌缝) -->
      <g stroke="#b85f44" stroke-width="0.8" opacity="0.45">
        <line x1="334" y1="520" x2="380" y2="543" />
        <line x1="334" y1="480" x2="380" y2="503" />
        <line x1="334" y1="440" x2="380" y2="463" />
        <line x1="334" y1="390" x2="380" y2="413" />
        <line x1="334" y1="340" x2="380" y2="363" />
        <line x1="334" y1="290" x2="380" y2="313" />
      </g>

      <!-- REGISTER 1 (Lower): Slit Arches & Base Framing -->
      <g id="lit-register-1">
        <!-- Recessed Arch Embrasure -->
        <polygon points="352,525 362,530 362,505 352,500" fill="#4d1c12" />
        <path d="M 352,500 Q 357,495 362,505" fill="#4d1c12" />
        <!-- Shallow Relief Frame Highlight -->
        <path d="M 350,527 L 350,498 Q 357,492 364,502 L 364,531" fill="none" stroke="#f5ab93" stroke-width="1.3" />
        <path d="M 351,528 L 351,499 Q 357,493 363,503 L 363,532" fill="none" stroke="#8f3a22" stroke-width="0.8" />
      </g>

      <!-- REGISTER 2 (Lower-Mid): Paired Polylobed Blind Arches -->
      <g id="lit-register-2">
        <!-- Recessed Panel -->
        <polygon points="342,470 372,485 372,425 342,410" fill="#b96348" />
        <!-- Recessed Window Openings -->
        <polygon points="347,460 353,463 353,442 347,439" fill="#4d1c12" />
        <polygon points="360,466 366,469 366,448 360,445" fill="#4d1c12" />
        <!-- Left Multifoil Arch Relief Line -->
        <path d="M 345,463 L 345,445 C 345,438 349,436 355,441 L 355,468" fill="none" stroke="#f7bba5" stroke-width="1.4" />
        <path d="M 346,464 L 346,446 C 346,439 350,437 356,442 L 356,469" fill="none" stroke="#85331c" stroke-width="0.9" />
        <!-- Right Multifoil Arch Relief Line -->
        <path d="M 358,469 L 358,451 C 358,444 362,442 368,447 L 368,474" fill="none" stroke="#f7bba5" stroke-width="1.4" />
        <!-- Connecting Capital & Framing Pilaster -->
        <line x1="341" y1="410" x2="373" y2="426" stroke="#f7bba5" stroke-width="1.5" />
      </g>

      <!-- REGISTER 3 (Upper-Mid): Interlacing Diamond Lozenge (Sebka) Panel -->
      <g id="lit-register-3">
        <!-- Panel Border Frame -->
        <polygon points="341,400 373,416 373,340 341,324" fill="#bd684d" stroke="#f5ab93" stroke-width="1.2" />
        <!-- Central Horseshoe Arch Window -->
        <polygon points="353,385 361,389 361,365 353,361" fill="#45170d" />
        <path d="M 353,361 C 350,356 364,356 361,365" fill="#45170d" />
        <!-- Sebka Mesh Lines (Shallow Relief Diamonds) -->
        <g stroke="#f9c2ae" stroke-width="1.2" fill="none">
          <!-- Rising Diagonals -->
          <path d="M 344,380 L 352,360 L 360,340 L 368,322" />
          <path d="M 352,398 L 360,378 L 368,358" />
          <path d="M 344,355 L 352,335 L 360,315" />
          <!-- Falling Diagonals -->
          <path d="M 368,380 L 360,360 L 352,340 L 344,322" />
          <path d="M 368,398 L 360,378 L 352,358 L 344,340" />
          <path d="M 360,398 L 352,378 L 344,358" />
        </g>
        <!-- Shadow Under-grooves of Sebka -->
        <g stroke="#7d2f19" stroke-width="0.8" fill="none" opacity="0.6">
          <path d="M 344,381 L 352,361 L 360,341 L 368,323" />
          <path d="M 368,381 L 360,361 L 352,341 L 344,323" />
        </g>
      </g>

      <!-- REGISTER 4 (Top): Triple Multifoil Arcades -->
      <g id="lit-register-4">
        <!-- Arch 1 -->
        <path d="M 343,308 L 343,295 C 343,290 351,290 351,299 L 351,312" fill="none" stroke="#f7bba5" stroke-width="1.3" />
        <!-- Arch 2 (Center) -->
        <path d="M 352,312 L 352,299 C 352,294 361,294 361,303 L 361,316" fill="none" stroke="#f7bba5" stroke-width="1.3" />
        <!-- Arch 3 -->
        <path d="M 362,316 L 362,303 C 362,298 370,298 370,307 L 370,320" fill="none" stroke="#f7bba5" stroke-width="1.3" />
        <!-- Central Window -->
        <polygon points="354,308 359,310 359,298 354,296" fill="#45170d" />
      </g>

      <!-- Stone Corbels / Brackets Supporting Frieze -->
      <g stroke="#f5ab93" stroke-width="2">
        <line x1="337" y1="281" x2="337" y2="284" />
        <line x1="344" y1="284" x2="344" y2="287" />
        <line x1="351" y1="288" x2="351" y2="291" />
        <line x1="358" y1="291" x2="358" y2="294" />
        <line x1="365" y1="295" x2="365" y2="298" />
        <line x1="372" y1="298" x2="372" y2="301" />
        <line x1="378" y1="301" x2="378" y2="304" />
      </g>
    </g>

    <!-- - -->
    <!-- 5B. CERAMIC TILE FRIEZE (白绿相间的瓷砖带) -->
    <!-- - -->
    <g id="ceramic-tile-frieze">
      <!-- Lit Face Tile Band -->
      <polygon points="334,264 380,287 380,268 334,245" fill="#f4f8f5" />
      <!-- Emerald Green Mosaic Inlays (Suggested #2f8f6a) -->
      <polygon points="336,263 342,266 342,251 336,248" fill="#2f8f6a" />
      <polygon points="345,268 351,271 351,256 345,253" fill="#2f8f6a" />
      <polygon points="354,272 360,275 360,260 354,257" fill="#2f8f6a" />
      <polygon points="363,277 369,280 369,265 363,262" fill="#2f8f6a" />
      <polygon points="372,281 378,284 378,269 372,266" fill="#2f8f6a" />
      <!-- White Zigzag Highlights -->
      <path d="M 334,255 L 342,260 L 351,255 L 360,260 L 369,255 L 378,260" fill="none" stroke="#ffffff" stroke-width="1.4" />

      <!-- Shaded Face Tile Band (Wraps into shadow) -->
      <polygon points="380,287 426,264 426,245 380,268" fill="#9ea39e" />
      <polygon points="383,283 389,280 389,265 383,268" fill="#1b543e" />
      <polygon points="392,279 398,276 398,261 392,264" fill="#1b543e" />
      <polygon points="401,274 407,271 407,256 401,259" fill="#1b543e" />
      <polygon points="410,270 416,267 416,252 410,255" fill="#1b543e" />
      <polygon points="419,265 424,262 424,248 419,251" fill="#1b543e" />

      <!-- Cornice Upper Projecting Stringcourse -->
      <polygon points="332,244 380,268 428,244 428,240 380,264 332,240" fill="#f09e86" />
      <line x1="332" y1="240" x2="380" y2="264" stroke="#ffffff" stroke-width="1.8" />
    </g>

    <!-- - -->
    <!-- 5C. STEPPED BATTLEMENTS (一圈阶梯状雉堞)   -->
    <!-- - -->
    <g id="stepped-battlements">
      <!-- Gallery Terrace Deck Floor -->
      <polygon points="334,242 380,265 426,242 380,219" fill="#aa543c" />

      <!-- Shaded East Merlons (Silhouette against sky) -->
      <g fill="#612316" stroke="#48180e" stroke-width="0.5">
        <path d="M 426,242 L 426,230 L 424,230 L 424,227 L 422,227 L 422,224 L 418,224 L 418,227 L 416,227 L 416,230 L 414,230 L 414,242 Z" />
        <path d="M 414,242 L 414,235 L 412,235 L 412,232 L 410,232 L 410,229 L 406,229 L 406,232 L 404,232 L 404,235 L 402,235 L 402,247 Z" />
        <path d="M 402,247 L 402,240 L 400,240 L 400,237 L 398,237 L 398,234 L 394,234 L 394,237 L 392,237 L 392,240 L 390,240 L 390,253 Z" />
        <path d="M 390,253 L 390,246 L 388,246 L 388,243 L 386,243 L 386,240 L 382,240 L 382,243 L 380,243 L 380,246 L 378,246 L 378,258 Z" />
      </g>

      <!-- Lit South & West Merlons (Sharp 3-step Almohad stepped crests) -->
      <g fill="#d6785e" stroke="#faad96" stroke-width="0.6">
        <!-- Merlon 1 (Left corner) -->
        <path d="M 334,242 L 334,228 L 336,228 L 336,225 L 338,225 L 338,222 L 341,222 L 341,225 L 343,225 L 343,228 L 345,228 L 345,247 Z" />
        <!-- Merlon 2 -->
        <path d="M 345,247 L 345,234 L 347,234 L 347,231 L 349,231 L 349,228 L 352,228 L 352,231 L 354,231 L 354,234 L 356,234 L 356,253 Z" />
        <!-- Merlon 3 -->
        <path d="M 356,253 L 356,239 L 358,239 L 358,236 L 360,236 L 360,233 L 363,233 L 363,236 L 365,236 L 365,239 L 367,239 L 367,258 Z" />
        <!-- Merlon 4 -->
        <path d="M 367,258 L 367,245 L 369,245 L 369,242 L 371,242 L 371,239 L 374,239 L 374,242 L 376,242 L 376,245 L 378,245 L 378,264 Z" />
        <!-- Merlon 5 (Center-front point) -->
        <path d="M 378,264 L 378,251 L 380,251 L 380,248 L 382,248 L 382,245 L 385,245 L 385,248 L 387,248 L 387,251 L 389,251 L 389,265 Z" />
      </g>
      <!-- Stepped Merlon Bright Rim Highlights -->
      <path d="M 334,228 L 336,228 L 336,225 L 338,225 L 338,222 L 341,222 M 345,234 L 347,234 L 347,231 L 349,231 L 349,228 L 352,228 M 356,239 L 358,239 L 358,236 L 360,236 L 360,233 L 363,233 M 367,245 L 369,245 L 369,242 L 371,242 L 371,239 L 374,239" stroke="#ffffff" stroke-width="1.2" fill="none" />
    </g>

    <!-- - -->
    <!-- 5D. LANTERN TOWER (方形小塔 - 1/2 Main Width) -->
    <!-- - -->
    <!-- Base width: 23px half-span (exactly 1/2 main shaft 46px half-span) -->
    <!-- Height: 48px (Y=252 to Y=204) -->
    <g id="minaret-lantern-tower">
      <!-- Shadow of Lantern on Balcony Floor -->
      <polygon points="380,252 403,240 415,246 380,260" fill="rgba(30,10,5,0.45)" />

      <!-- Shaded Face (Right) -->
      <polygon points="380,252 403,240 403,196 380,207" fill="url(#wall-shade)" />
      <!-- Deep Arched Window in Shade -->
      <polygon points="389,232 394,229 394,217 389,219" fill="#2d0f07" />

      <!-- Lit Face (Left) -->
      <polygon points="357,240 380,252 380,207 357,196" fill="url(#wall-lit)" />
      <!-- Lit Edge Highlight -->
      <line x1="357" y1="196" x2="357" y2="240" stroke="#fbc1ab" stroke-width="1.4" />
      <line x1="357" y1="196" x2="380" y2="207" stroke="#ffffff" stroke-width="1.5" />

      <!-- Diamond Lattice Panels on Lantern (四面菱格纹板 - Sebka Lozenge Panel) -->
      <g id="lantern-sebka-panel">
        <polygon points="361,238 376,246 376,209 361,202" fill="#c46a4e" stroke="#f7ab93" stroke-width="1" />
        <!-- Recessed Keyhole/Horseshoe Window -->
        <polygon points="366,233 371,236 371,220 366,217" fill="#45170d" />
        <path d="M 366,217 Q 368.5,214 371,220" fill="#45170d" />
        <!-- Diamond Lattice Tracery Lines -->
        <g stroke="#ffd2c2" stroke-width="1" fill="none">
          <line x1="362" y1="230" x2="375" y2="214" />
          <line x1="362" y1="220" x2="375" y2="227" />
          <line x1="362" y1="210" x2="375" y2="217" />
          <line x1="375" y1="238" x2="362" y2="223" />
        </g>
      </g>

      <!-- Lantern Top Stepped Miniature Merlons -->
      <g fill="#d6785e" stroke="#faad96" stroke-width="0.5">
        <path d="M 357,196 L 357,190 L 360,190 L 360,187 L 363,187 L 363,190 L 365,190 L 365,200 Z" />
        <path d="M 365,200 L 365,193 L 367,193 L 367,190 L 370,190 L 370,193 L 373,193 L 373,204 Z" />
        <path d="M 373,204 L 373,197 L 375,197 L 375,194 L 378,194 L 378,197 L 380,197 L 380,207 Z" />
      </g>
      <!-- Lantern Roof Deck -->
      <polygon points="357,196 380,207 403,196 380,185" fill="#ab553e" />
    </g>

    <!-- - -->
    <!-- 5E. FLUTED RIBBED DOME (带竖向凹槽的小穹顶) -->
    <!-- - -->
    <!-- Height: 24px (Y=198 to Y=174); Width: 22px -->
    <g id="minaret-fluted-dome">
      <!-- Dome Base Octagonal Ring -->
      <polygon points="368,196 380,202 392,196 392,193 380,199 368,193" fill="#cf775d" />

      <!-- Shaded Hemisphere / Side -->
      <path d="M 380,174 Q 394,183 392,195 L 380,200 Z" fill="#6c291b" />
      <!-- Lit Hemisphere / Side -->
      <path d="M 380,174 Q 366,183 368,195 L 380,200 Z" fill="#d87d63" />

      <!-- Vertical Flutes / Grooves (竖向凹槽 - 7 Ribbed Melon Segments) -->
      <!-- Rib 1 (Far left) -->
      <path d="M 380,174 Q 369,183 371,196" stroke="#f6b19a" stroke-width="1.6" fill="none" />
      <!-- Rib 2 -->
      <path d="M 380,174 Q 373,184 374,198" stroke="#ffd2c2" stroke-width="1.8" fill="none" />
      <!-- Rib 3 (Lit Core) -->
      <path d="M 380,174 Q 377,185 378,200" stroke="#ffffff" stroke-width="1.5" fill="none" />
      <!-- Rib 4 (Center Apex Seam) -->
      <path d="M 380,174 Q 380,186 380,201" stroke="#e0866c" stroke-width="1.2" fill="none" />
      <!-- Rib 5 (Shade boundary) -->
      <path d="M 380,174 Q 384,185 383,199" stroke="#782d1e" stroke-width="1.5" fill="none" />
      <!-- Rib 6 -->
      <path d="M 380,174 Q 387,184 387,197" stroke="#541e13" stroke-width="1.6" fill="none" />
      <!-- Rib 7 (Far right) -->
      <path d="M 380,174 Q 390,183 390,195" stroke="#42160d" stroke-width="1.4" fill="none" />

      <!-- Top Cap Ring -->
      <ellipse cx="380" cy="174" rx="2.5" ry="1.2" fill="#ffd566" />
    </g>

    <!-- - -->
    <!-- 5F. GOLDEN SPHERES & FINIAL ROD (三颗金铜色圆球与细杆) -->
    <!-- - -->
    <!-- Yamur: 3 spheres from largest to smallest + slender side rod (细杆) -->
    <g id="yamur-golden-finial">
      <!-- Main Vertical Spindle Pole -->
      <line x1="380" y1="174" x2="380" y2="136" stroke="#c9962e" stroke-width="2.2" />
      <line x1="379.5" y1="174" x2="379.5" y2="136" stroke="#fff1b3" stroke-width="0.8" />

      <!-- Sphere 1 (Bottom - Largest: radius 7.5px) -->
      <circle cx="380" cy="167" r="7.5" fill="url(#gold-ball-grad)" stroke="#8c6114" stroke-width="0.6" />
      <!-- Specular Gleam -->
      <ellipse cx="377.5" cy="164.5" rx="2.5" ry="1.5" fill="#ffffff" opacity="0.9" />

      <!-- Sphere 2 (Middle - Medium: radius 5.5px) -->
      <circle cx="380" cy="154" r="5.5" fill="url(#gold-ball-grad)" stroke="#8c6114" stroke-width="0.5" />
      <ellipse cx="378" cy="152" rx="1.8" ry="1.1" fill="#ffffff" opacity="0.9" />

      <!-- Sphere 3 (Top - Smallest: radius 3.8px) -->
      <circle cx="380" cy="144" r="3.8" fill="url(#gold-ball-grad)" stroke="#8c6114" stroke-width="0.5" />
      <ellipse cx="378.8" cy="142.5" rx="1.2" ry="0.8" fill="#ffffff" opacity="0.95" />

      <!-- Spindle Spearhead / Pear Finial Tip -->
      <path d="M 378.5,137 L 380,131 L 381.5,137 Q 380,138.5 378.5,137 Z" fill="url(#gold-ball-grad)" stroke="#8c6114" stroke-width="0.5" />

      <!-- Slender Diagonal Rod Arm (旁边一根细杆 - Historic Banner/Gnomon Rod) -->
      <line x1="380" y1="172" x2="397" y2="148" stroke="#c9962e" stroke-width="1.3" />
      <line x1="379.5" y1="171.5" x2="396.5" y2="147.5" stroke="#fff5cc" stroke-width="0.6" />
      <!-- Small Gilded Ring / Knob on Tip of Rod -->
      <circle cx="397" cy="148" r="1.6" fill="url(#gold-ball-grad)" />
      <circle cx="396.5" cy="147.5" r="0.6" fill="#ffffff" />
    </g>
  </g>

  <!-- ========================================== -->
  <!-- 6. FOREGROUND DETAILS: ROSE GARDEN,       -->
  <!--    WHITE SHRINE, PALM TREES                -->
  <!-- ========================================== -->
  <!-- Crisp, highly defined, slightly deeper colors for miniature closeness -->
  <g id="foreground-diorama">

    <!-- - -->
    <!-- 6A. ROSE GARDENS (玫瑰园 - 深绿圆角矩形配玫红点缀与小径) -->
    <!-- - -->
    <g id="rose-gardens">
      <!-- Light Gravel Walkway Bands (浅色小径) -->
      <path d="M 230,640 L 460,760 M 340,630 L 420,775 M 190,660 L 530,730" stroke="#f2e6d6" stroke-width="12" stroke-linecap="round" fill="none" opacity="0.8" />

      <!-- PARTERRE 1 (Left-Center Rose Bed) -->
      <g id="rose-bed-1">
        <!-- Bed Drop Shadow -->
        <rect x="250" y="655" width="62" height="34" rx="9" transform="matrix(0.92 0.38 -0.38 0.92 260 -50)" fill="rgba(30,20,10,0.25)" filter="url(#micro-shadow)" />
        <!-- Stone Retaining Border -->
        <rect x="250" y="653" width="62" height="34" rx="9" transform="matrix(0.92 0.38 -0.38 0.92 260 -50)" fill="#bda892" />
        <!-- Lush Dark Green Parterre -->
        <rect x="252" y="655" width="58" height="30" rx="7" transform="matrix(0.92 0.38 -0.38 0.92 260 -50)" fill="#1c4723" />
        <rect x="253" y="656" width="56" height="28" rx="6" transform="matrix(0.92 0.38 -0.38 0.92 260 -50)" fill="#24592d" />
        <!-- Rose Blossom Dots (深绿配几点玫红: #d44d72, #e85d85, #f07b9e) -->
        <g transform="matrix(0.92 0.38 -0.38 0.92 260 -50)">
          <circle cx="260" cy="665" r="2.2" fill="#d44d72" />
          <circle cx="268" cy="662" r="1.8" fill="#e85d85" />
          <circle cx="276" cy="668" r="2.4" fill="#f07b9e" />
          <circle cx="285" cy="663" r="1.9" fill="#d44d72" />
          <circle cx="295" cy="667" r="2.3" fill="#e85d85" />
          <circle cx="302" cy="663" r="1.7" fill="#f07b9e" />
          <circle cx="264" cy="675" r="2.1" fill="#e85d85" />
          <circle cx="273" cy="678" r="2.5" fill="#d44d72" />
          <circle cx="282" cy="673" r="1.8" fill="#f07b9e" />
          <circle cx="291" cy="677" r="2.4" fill="#d44d72" />
          <circle cx="300" cy="674" r="1.9" fill="#e85d85" />
        </g>
      </g>

      <!-- PARTERRE 2 (Foreground Mid-Right Rose Bed) -->
      <g id="rose-bed-2">
        <rect x="360" y="695" width="56" height="30" rx="8" transform="matrix(0.92 0.38 -0.38 0.92 275 -95)" fill="rgba(30,20,10,0.25)" filter="url(#micro-shadow)" />
        <rect x="360" y="693" width="56" height="30" rx="8" transform="matrix(0.92 0.38 -0.38 0.92 275 -95)" fill="#bda892" />
        <rect x="362" y="695" width="52" height="26" rx="6" transform="matrix(0.92 0.38 -0.38 0.92 275 -95)" fill="#1c4723" />
        <rect x="363" y="696" width="50" height="24" rx="5" transform="matrix(0.92 0.38 -0.38 0.92 275 -95)" fill="#24592d" />
        <!-- Rose Dots -->
        <g transform="matrix(0.92 0.38 -0.38 0.92 275 -95)">
          <circle cx="370" cy="705" r="2.3" fill="#e85d85" />
          <circle cx="378" cy="702" r="1.9" fill="#d44d72" />
          <circle cx="388" cy="707" r="2.5" fill="#f07b9e" />
          <circle cx="398" cy="703" r="1.8" fill="#d44d72" />
          <circle cx="406" cy="706" r="2.2" fill="#e85d85" />
          <circle cx="374" cy="714" r="2.1" fill="#d44d72" />
          <circle cx="384" cy="716" r="2.4" fill="#e85d85" />
          <circle cx="394" cy="713" r="1.9" fill="#f07b9e" />
          <circle cx="402" cy="715" r="2.2" fill="#d44d72" />
        </g>
      </g>

      <!-- PARTERRE 3 (Right Foreground Rose Bed) -->
      <g id="rose-bed-3">
        <rect x="460" y="670" width="50" height="26" rx="7" transform="matrix(0.92 0.38 -0.38 0.92 270 -140)" fill="rgba(30,20,10,0.25)" filter="url(#micro-shadow)" />
        <rect x="460" y="668" width="50" height="26" rx="7" transform="matrix(0.92 0.38 -0.38 0.92 270 -140)" fill="#bda892" />
        <rect x="462" y="670" width="46" height="22" rx="5" transform="matrix(0.92 0.38 -0.38 0.92 270 -140)" fill="#1c4723" />
        <!-- Rose Dots -->
        <g transform="matrix(0.92 0.38 -0.38 0.92 270 -140)">
          <circle cx="470" cy="678" r="2.1" fill="#d44d72" />
          <circle cx="479" cy="676" r="1.8" fill="#f07b9e" />
          <circle cx="488" cy="680" r="2.3" fill="#e85d85" />
          <circle cx="497" cy="677" r="1.7" fill="#d44d72" />
          <circle cx="474" cy="686" r="2.4" fill="#e85d85" />
          <circle cx="484" cy="687" r="2.0" fill="#d44d72" />
          <circle cx="493" cy="684" r="2.3" fill="#f07b9e" />
        </g>
      </g>
    </g>

    <!-- - -->
    <!-- 6B. WHITE DOMED SHRINE (极小的白色圆顶小屋) -->
    <!-- - -->
    <!-- Marabout / Koubba at a corner of the plaza -->
    <g id="white-koubba-shrine">
      <!-- Ground Drop Shadow -->
      <polygon points="170,642 196,654 216,644 190,634" fill="rgba(35,20,10,0.3)" filter="url(#micro-shadow)" />

      <!-- Cubic Shrine Base (Shaded Face - Right) -->
      <polygon points="184,642 198,635 198,620 184,627" fill="#d4cfc5" />
      <!-- Cubic Shrine Base (Lit Face - Left) -->
      <polygon points="170,635 184,642 184,627 170,620" fill="#fbfaf6" />
      <line x1="170" y1="620" x2="184" y2="627" stroke="#ffffff" stroke-width="1.2" />

      <!-- Tiny Horseshoe Arched Doorway in Deep Shadow -->
      <polygon points="175,638 180,640.5 180,629 175,626.5" fill="#362217" />
      <path d="M 175,626.5 Q 177.5,624 180,629" fill="#362217" />
      <!-- Doorway Lit Arch Trim -->
      <path d="M 174,637 L 174,626 Q 177.5,623 181,628.5 L 181,640" stroke="#ffffff" stroke-width="0.8" fill="none" />

      <!-- Cubic Shrine Flat Terrace Roof -->
      <polygon points="170,620 184,627 198,620 184,613" fill="#ece7dc" />

      <!-- Small White Hemispherical Dome (Qubba) -->
      <path d="M 175,618 C 175,607 193,607 193,618 Z" fill="#fcfbf7" stroke="#e0dbce" stroke-width="0.6" />
      <!-- Dome Soft Shade on Right -->
      <path d="M 184,607 C 193,607 193,618 184,618 Z" fill="#ded9cc" opacity="0.6" />
      <!-- Dome Highlight on Left -->
      <ellipse cx="181" cy="611" rx="2" ry="3" fill="#ffffff" />
      <!-- Micro Golden Finial Pin -->
      <line x1="184" y1="607" x2="184" y2="603" stroke="#c9962e" stroke-width="1" />
      <circle cx="184" cy="603" r="0.8" fill="#ffd566" />
    </g>

    <!-- - -->
    <!-- 6C. TALL SLENDER PALM TREES (高瘦的棕榈树) -->
    <!-- - -->
    <!-- Max height < 1/3 of main minaret shaft (~103px limit; heights: 70px to 92px) -->
    <!-- Natural non-grid layout with at least 2 sizes -->
    <!-- Animated gentle breeze swaying with pivot at tree base -->
    <g id="palm-trees">

      <!-- PALM TREE 1 (Foreground Left - Tall: 92px) -->
      <g id="palm-tree-1" class="anim-tree-1">
        <!-- Cast Shadow on Plaza -->
        <ellipse cx="250" cy="688" rx="24" ry="7" fill="rgba(35,22,12,0.3)" filter="url(#micro-shadow)" />
        <!-- Curved Slender Segmented Trunk -->
        <path d="M 230,680 Q 235,635 242,592" stroke="#634026" stroke-width="3.4" fill="none" stroke-linecap="round" />
        <path d="M 229,680 Q 234,635 241,592" stroke="#875c39" stroke-width="1.8" fill="none" />
        <!-- Trunk Rings (Bark Texture) -->
        <g stroke="#3d2414" stroke-width="1.2">
          <line x1="228" y1="670" x2="232" y2="671" />
          <line x1="230" y1="655" x2="234" y2="656" />
          <line x1="232" y1="640" x2="236" y2="641" />
          <line x1="235" y1="625" x2="239" y2="626" />
          <line x1="238" y1="610" x2="242" y2="611" />
        </g>
        <!-- Spreading Crown of Arching Pinnate Palm Fronds -->
        <g id="fronds-tree-1">
          <!-- Deep Shade Fronds Underneath -->
          <path d="M 242,592 Q 215,585 198,600" stroke="#1d4523" stroke-width="2.2" fill="none" />
          <path d="M 242,592 Q 248,575 272,595" stroke="#1d4523" stroke-width="2.2" fill="none" />
          <!-- Mid Green Radiating Fronds -->
          <path d="M 242,592 Q 220,570 205,580" stroke="#2e6b37" stroke-width="2.5" fill="none" />
          <path d="M 242,592 Q 235,560 228,548" stroke="#33783e" stroke-width="2.4" fill="none" />
          <path d="M 242,592 Q 252,558 262,550" stroke="#33783e" stroke-width="2.4" fill="none" />
          <path d="M 242,592 Q 268,570 282,580" stroke="#2e6b37" stroke-width="2.5" fill="none" />
          <path d="M 242,592 Q 255,600 270,612" stroke="#26592e" stroke-width="2.2" fill="none" />
          <path d="M 242,592 Q 230,600 215,615" stroke="#26592e" stroke-width="2.2" fill="none" />
          <!-- Lit Top Frond Highlights -->
          <path d="M 242,592 Q 240,565 244,545" stroke="#48a156" stroke-width="2.2" fill="none" />
          <path d="M 242,592 Q 228,572 214,578" stroke="#48a156" stroke-width="1.6" fill="none" />
          <path d="M 242,592 Q 258,572 272,578" stroke="#48a156" stroke-width="1.6" fill="none" />
          <!-- Crown Heart Core -->
          <circle cx="242" cy="592" r="3" fill="#694323" />
        </g>
      </g>

      <!-- PALM TREE 2 (Foreground Mid-Left - Tall: 88px) -->
      <g id="palm-tree-2" class="anim-tree-2">
        <ellipse cx="345" cy="758" rx="22" ry="6.5" fill="rgba(35,22,12,0.3)" filter="url(#micro-shadow)" />
        <path d="M 325,750 Q 332,710 338,665" stroke="#634026" stroke-width="3.2" fill="none" stroke-linecap="round" />
        <path d="M 324,750 Q 331,710 337,665" stroke="#875c39" stroke-width="1.6" fill="none" />
        <!-- Fronds -->
        <g>
          <path d="M 338,665 Q 312,652 300,670" stroke="#1d4523" stroke-width="2.2" fill="none" />
          <path d="M 338,665 Q 345,645 365,668" stroke="#1d4523" stroke-width="2.2" fill="none" />
          <path d="M 338,665 Q 318,638 308,648" stroke="#2e6b37" stroke-width="2.4" fill="none" />
          <path d="M 338,665 Q 334,630 330,620" stroke="#33783e" stroke-width="2.3" fill="none" />
          <path d="M 338,665 Q 348,630 358,622" stroke="#33783e" stroke-width="2.3" fill="none" />
          <path d="M 338,665 Q 362,642 374,655" stroke="#2e6b37" stroke-width="2.4" fill="none" />
          <path d="M 338,665 Q 336,634 340,617" stroke="#48a156" stroke-width="2" fill="none" />
          <circle cx="338" cy="665" r="2.8" fill="#694323" />
        </g>
      </g>

      <!-- PALM TREE 3 (Plaza Edge Near Minaret - Medium-Small: 74px) -->
      <g id="palm-tree-3" class="anim-tree-3">
        <ellipse cx="230" cy="587" rx="18" ry="5.5" fill="rgba(35,22,12,0.3)" filter="url(#micro-shadow)" />
        <path d="M 215,580 Q 220,545 226,508" stroke="#634026" stroke-width="2.8" fill="none" stroke-linecap="round" />
        <path d="M 214,580 Q 219,545 225,508" stroke="#875c39" stroke-width="1.4" fill="none" />
        <!-- Fronds -->
        <g>
          <path d="M 226,508 Q 204,498 194,512" stroke="#23542b" stroke-width="2" fill="none" />
          <path d="M 226,508 Q 210,485 200,495" stroke="#2e6b37" stroke-width="2.2" fill="none" />
          <path d="M 226,508 Q 222,478 220,468" stroke="#388544" stroke-width="2.2" fill="none" />
          <path d="M 226,508 Q 235,478 244,472" stroke="#388544" stroke-width="2.2" fill="none" />
          <path d="M 226,508 Q 248,488 258,500" stroke="#2e6b37" stroke-width="2.2" fill="none" />
          <path d="M 226,508 Q 225,480 228,465" stroke="#48a156" stroke-width="1.8" fill="none" />
          <circle cx="226" cy="508" r="2.5" fill="#694323" />
        </g>
      </g>

      <!-- PALM TREE 4 (Near Foreground Parterre - Medium: 78px) -->
      <g id="palm-tree-4" class="anim-tree-4">
        <ellipse cx="452" cy="742" rx="20" ry="6" fill="rgba(35,22,12,0.3)" filter="url(#micro-shadow)" />
        <path d="M 435,735 Q 440,698 446,660" stroke="#634026" stroke-width="3" fill="none" stroke-linecap="round" />
        <path d="M 434,735 Q 439,698 445,660" stroke="#875c39" stroke-width="1.5" fill="none" />
        <!-- Fronds -->
        <g>
          <path d="M 446,660 Q 424,648 412,662" stroke="#23542b" stroke-width="2.1" fill="none" />
          <path d="M 446,660 Q 428,635 418,645" stroke="#2e6b37" stroke-width="2.2" fill="none" />
          <path d="M 446,660 Q 442,625 438,615" stroke="#388544" stroke-width="2.2" fill="none" />
          <path d="M 446,660 Q 455,625 464,618" stroke="#388544" stroke-width="2.2" fill="none" />
          <path d="M 446,660 Q 468,638 478,650" stroke="#2e6b37" stroke-width="2.2" fill="none" />
          <path d="M 446,660 Q 445,628 448,612" stroke="#48a156" stroke-width="1.8" fill="none" />
          <circle cx="446" cy="660" r="2.6" fill="#694323" />
        </g>
      </g>

      <!-- PALM TREE 5 (Far Right Plaza - Slender: 84px) -->
      <g id="palm-tree-5" class="anim-tree-5">
        <ellipse cx="538" cy="672" rx="21" ry="6" fill="rgba(35,22,12,0.3)" filter="url(#micro-shadow)" />
        <path d="M 520,665 Q 526,625 532,584" stroke="#634026" stroke-width="3" fill="none" stroke-linecap="round" />
        <path d="M 519,665 Q 525,625 531,584" stroke="#875c39" stroke-width="1.5" fill="none" />
        <!-- Fronds -->
        <g>
          <path d="M 532,584 Q 508,572 496,588" stroke="#1d4523" stroke-width="2" fill="none" />
          <path d="M 532,584 Q 514,558 504,568" stroke="#2e6b37" stroke-width="2.3" fill="none" />
          <path d="M 532,584 Q 528,548 524,538" stroke="#33783e" stroke-width="2.3" fill="none" />
          <path d="M 532,584 Q 542,548 552,540" stroke="#33783e" stroke-width="2.3" fill="none" />
          <path d="M 532,584 Q 556,560 568,572" stroke="#2e6b37" stroke-width="2.3" fill="none" />
          <path d="M 532,584 Q 531,552 534,535" stroke="#48a156" stroke-width="2" fill="none" />
          <circle cx="532" cy="584" r="2.7" fill="#694323" />
        </g>
      </g>
    </g>
  </g>
</svg>