<svg xmlns="http://www.w3.org/2000/svg" viewBox="0 0 1000 800" width="100%" height="100%">
  <defs>
    <!-- Background Gradient -->
    <linearGradient id="bgGrad" x1="0%" y1="0%" x2="0%" y2="100%">
      <stop offset="0%" stop-color="#edf2f7" />
      <stop offset="100%" stop-color="#d9e2ec" />
    </linearGradient>

    <!-- Base Cylinder Gradients -->
    <linearGradient id="baseRimGrad" x1="0%" y1="0%" x2="100%" y2="100%">
      <stop offset="0%" stop-color="#ffffff" stop-opacity="0.9" />
      <stop offset="100%" stop-color="#cbd5e1" stop-opacity="0.3" />
    </linearGradient>
    <linearGradient id="baseSideGrad" x1="0%" y1="0%" x2="0%" y2="100%">
      <stop offset="0%" stop-color="#b0bec5" />
      <stop offset="50%" stop-color="#78909c" />
      <stop offset="100%" stop-color="#546e7a" />
    </linearGradient>

    <!-- Grass Top Surface Gradient -->
    <radialGradient id="grassGrad" cx="45%" cy="40%" r="55%">
      <stop offset="0%" stop-color="#9fc26d" />
      <stop offset="70%" stop-color="#8cae5e" />
      <stop offset="100%" stop-color="#76974b" />
    </radialGradient>

    <!-- Water Canal Gradient -->
    <linearGradient id="waterGrad" x1="0%" y1="0%" x2="100%" y2="50%">
      <stop offset="0%" stop-color="#5294a8" />
      <stop offset="50%" stop-color="#64a7bd" />
      <stop offset="100%" stop-color="#417c8f" />
    </linearGradient>

    <!-- Concrete Trench & Cradles -->
    <linearGradient id="trenchFloor" x1="0%" y1="0%" x2="100%" y2="100%">
      <stop offset="0%" stop-color="#a8a59b" />
      <stop offset="100%" stop-color="#8c897f" />
    </linearGradient>
    <linearGradient id="cradleLight" x1="0%" y1="0%" x2="100%" y2="0%">
      <stop offset="0%" stop-color="#dedad1" />
      <stop offset="60%" stop-color="#c4c1b8" />
      <stop offset="100%" stop-color="#9e9b92" />
    </linearGradient>

    <!-- Submarine Body Gradients (Albany / Albacore Teardrop) -->
    <!-- Albacore: Length 7.5x Diameter. Light from top-left. -->
    <linearGradient id="subDorsalGrad" x1="20%" y1="10%" x2="60%" y2="90%">
      <stop offset="0%" stop-color="#82888e" />
      <stop offset="25%" stop-color="#5c6165" />
      <stop offset="60%" stop-color="#3d4246" />
      <stop offset="90%" stop-color="#24272a" />
      <stop offset="100%" stop-color="#181a1c" />
    </linearGradient>

    <!-- Specular Highlight Strip -->
    <linearGradient id="specularStrip" x1="0%" y1="0%" x2="100%" y2="0%">
      <stop offset="0%" stop-color="#a6c8e0" stop-opacity="0" />
      <stop offset="20%" stop-color="#cde2f5" stop-opacity="0.75" />
      <stop offset="50%" stop-color="#eaf3fb" stop-opacity="0.85" />
      <stop offset="80%" stop-color="#cde2f5" stop-opacity="0.6" />
      <stop offset="100%" stop-color="#a6c8e0" stop-opacity="0" />
    </linearGradient>

    <!-- Sail / Conning Tower Gradient -->
    <linearGradient id="sailGrad" x1="10%" y1="0%" x2="90%" y2="100%">
      <stop offset="0%" stop-color="#6f757a" />
      <stop offset="45%" stop-color="#505559" />
      <stop offset="100%" stop-color="#26292b" />
    </linearGradient>

    <!-- Propeller Bronze -->
    <linearGradient id="bronzeGrad" x1="0%" y1="0%" x2="100%" y2="100%">
      <stop offset="0%" stop-color="#c49a58" />
      <stop offset="50%" stop-color="#8a6b3c" />
      <stop offset="100%" stop-color="#544122" />
    </linearGradient>

    <!-- Metal Bridge & Stairs -->
    <linearGradient id="metalGrad" x1="0%" y1="0%" x2="100%" y2="100%">
      <stop offset="0%" stop-color="#e2e8f0" />
      <stop offset="100%" stop-color="#94a3b8" />
    </linearGradient>

    <!-- Drop Shadows and Diffuse Filters -->
    <filter id="softShadow" x="-20%" y="-20%" width="150%" height="150%">
      <feGaussianBlur in="SourceAlpha" stdDeviation="14" />
      <feColorMatrix type="matrix" values="0 0 0 0 0.1   0 0 0 0 0.15   0 0 0 0 0.2   0 0 0 0.38 0"/>
      <feOffset dx="18" dy="28" />
      <feBlend in="SourceGraphic" in2="blurOut" mode="normal" />
    </filter>

    <filter id="cradleShadow" x="-30%" y="-30%" width="160%" height="160%">
      <feGaussianBlur stdDeviation="3" />
    </filter>

    <filter id="dioramaBaseShadow" x="-30%" y="-30%" width="160%" height="160%">
      <feGaussianBlur stdDeviation="22" />
      <feColorMatrix type="matrix" values="0 0 0 0 0.15   0 0 0 0 0.2   0 0 0 0 0.25   0 0 0 0.35 0"/>
      <feOffset dx="0" dy="35" />
    </filter>

    <!-- Tree Symbol: Round miniature architectural canopy with multi-shade volumes -->
    <g id="miniTreeLarge">
      <ellipse cx="6" cy="18" rx="16" ry="7" fill="#4d6628" opacity="0.35" filter="url(#cradleShadow)"/>
      <!-- Trunk -->
      <path d="M-1.5,18 L1.5,18 L1,8 L-1,8 Z" fill="#5c442d"/>
      <!-- Foliage Spheres -->
      <circle cx="0" cy="0" r="16" fill="#6d9438" />
      <circle cx="-3" cy="-4" r="13" fill="#88b347" />
      <circle cx="-5" cy="-6" r="9" fill="#a4d158" />
      <ellipse cx="-5" cy="-7" rx="6" ry="4" fill="#c3eb7a" opacity="0.7"/>
    </g>

    <g id="miniTreeSmall">
      <ellipse cx="4" cy="12" rx="11" ry="5" fill="#4d6628" opacity="0.35" filter="url(#cradleShadow)"/>
      <path d="M-1,12 L1,12 L0.8,5 L-0.8,5 Z" fill="#5c442d"/>
      <circle cx="0" cy="0" r="11" fill="#628731" />
      <circle cx="-2" cy="-3" r="9" fill="#7ba53c" />
      <circle cx="-4" cy="-4" r="6" fill="#95c748" />
    </g>

    <!-- Concrete Cradle Unit Template -->
    <g id="cradleUnit">
      <!-- Cradle shadow -->
      <polygon points="-8,18 42,18 48,22 -2,22" fill="#242b1a" opacity="0.4" filter="url(#cradleShadow)"/>
      <!-- Base block -->
      <path d="M-6,14 L38,14 L42,18 L-2,18 Z" fill="#9e9b92" />
      <!-- Left side dark bevel -->
      <polygon points="-6,14 -2,18 -2,10 -6,6" fill="#848177" />
      <!-- Front light face -->
      <path d="M-2,10 L-2,18 L42,18 L42,10 C32,15 8,15 -2,10 Z" fill="url(#cradleLight)" />
      <!-- Top curved support surface -->
      <path d="M-6,6 L-2,10 C8,15 32,15 42,10 L38,6 C28,11 4,11 -6,6 Z" fill="#e8e5dc" />
    </g>

    <!-- Miniature Figurine Silhouette Template -->
    <g id="tinyFigure">
      <!-- tiny shadow -->
      <ellipse cx="2" cy="1" rx="2.5" ry="1.2" fill="#253318" opacity="0.5" />
      <!-- legs/body/head -->
      <path d="M-0.8,0 L-0.8,-4 L0.8,-4 L0.8,0" stroke="#334155" stroke-width="0.8" stroke-linecap="round"/>
      <path d="M-1.2,-4 L1.2,-4 L1,-8 L-1,-8 Z" fill="#475569"/>
      <circle cx="0" cy="-9.8" r="1.2" fill="#f8fafc"/>
    </g>

    <g id="tinyFigureLookUp">
      <ellipse cx="1.5" cy="1" rx="2.8" ry="1.3" fill="#253318" opacity="0.5" />
      <path d="M-0.8,0 L-0.4,-4 L0.8,-4 L1.2,0" stroke="#1e293b" stroke-width="0.8" stroke-linecap="round"/>
      <path d="M-1.3,-4 L1.3,-4 L1.5,-8 L-0.9,-8 Z" fill="#64748b"/>
      <!-- Head tilted backward looking up -->
      <circle cx="0.8" cy="-9.8" r="1.3" fill="#fbbf24"/>
    </g>

    <!-- Miniature Sailboat Component for Canal Corner -->
    <g id="miniBoat">
      <!-- Shadow on water -->
      <ellipse cx="6" cy="12" rx="14" ry="4" fill="#264b56" opacity="0.4" filter="url(#cradleShadow)"/>
      <!-- Hull -->
      <path d="M-14,8 C-5,14 12,13 18,7 C12,4 -3,4 -14,8 Z" fill="#f8fafc" />
      <path d="M-14,8 C-5,12 12,11 18,7 L17,9 C11,13 -5,14 -14,10 Z" fill="#94a3b8" />
      <!-- Cabin -->
      <polygon points="-4,6 6,5 8,7 -2,8" fill="#cbd5e1" />
      <line x1="3" y1="6" x2="3" y2="-12" stroke="#475569" stroke-width="1" />
      <!-- Sail -->
      <polygon points="3,-11 3,4 12,4" fill="#ffffff" opacity="0.95" />
      <polygon points="2,-10 2,4 -5,4" fill="#e2e8f0" opacity="0.85" />
    </g>

    <style><![CDATA[
      @keyframes boatFloat {
        0%, 100% {
          transform: translate(840px, 570px) rotate(3deg) scale(0.9);
        }
        50% {
          transform: translate(842px, 572px) rotate(1deg) scale(0.9);
        }
      }
      @keyframes waterShimmer {
        0%, 100% { opacity: 0.35; stroke-dashoffset: 0; }
        50% { opacity: 0.65; stroke-dashoffset: 15; }
      }
      @keyframes treeBreeze {
        0%, 100% { transform: scale(1) rotate(0deg); }
        50% { transform: scale(1.01, 0.99) rotate(0.8deg); }
      }
      .anim-boat {
        animation: boatFloat 6s ease-in-out infinite;
        transform-origin: 840px 570px;
      }
      .anim-water {
        animation: waterShimmer 5s ease-in-out infinite;
      }
      .anim-tree {
        animation: treeBreeze 7s ease-in-out infinite;
        transform-box: fill-box;
        transform-origin: bottom center;
      }
    ]]></style>
  </defs>

  <!-- BACKGROUND: Subtle Gallery / Display Pedestal Room -->
  <rect width="1000" height="800" fill="url(#bgGrad)" />

  <!-- ========================================== -->
  <!-- 1. CIRCULAR DISPLAY PEDESTAL (DIORAMA BASE) -->
  <!-- ========================================== -->
  <!-- Base soft drop shadow below pedestal -->
  <ellipse cx="500" cy="520" rx="400" ry="215" fill="#1e293b" opacity="0.3" filter="url(#dioramaBaseShadow)" />

  <!-- Pedestal Cylinder Lower/Side Wall -->
  <path d="M 100,500
           A 400 215 0 0 0 900,500
           L 900,535
           A 400 215 0 0 1 100,535
           Z" fill="url(#baseSideGrad)" />

  <!-- Pedestal Front Rim Highlight Edge -->
  <path d="M 100,535 A 400 215 0 0 0 900,535" fill="none" stroke="#475569" stroke-width="1.5" opacity="0.7"/>

  <!-- Pedestal Top Surface (Ground: Grass & Canal Corner) -->
  <g id="pedestalTop">
    <!-- Base Clipping Path for circular top -->
    <clipPath id="pedestalDiscClip">
      <ellipse cx="500" cy="500" rx="400" ry="215" />
    </clipPath>

    <g clip-path="url(#pedestalDiscClip)">
      <!-- Lawn Ground -->
      <ellipse cx="500" cy="500" rx="400" ry="215" fill="url(#grassGrad)" />

      <!-- Subtle grass mowing stripes / texture bands -->
      <g opacity="0.08" fill="#ffffff">
        <polygon points="120,420 880,420 860,445 140,445" />
        <polygon points="160,470 840,470 815,495 185,495" />
        <polygon points="220,520 780,520 750,545 250,545" />
        <polygon points="300,570 700,570 660,595 340,595" />
      </g>

      <!-- Corner River / Water Feature at East-South Corner -->
      <!-- A neat landscaped canal cut at base edge -->
      <path d="M 750,520 C 790,510 830,525 910,550 L 910,650 L 710,650 C 720,600 730,550 750,520 Z" fill="#3a6058" />
      <!-- Water bed edge stone -->
      <path d="M 750,520 C 790,510 830,525 910,550" fill="none" stroke="#b8b5a8" stroke-width="5" />
      <path d="M 752,523 C 792,513 832,528 910,553 L 910,650 L 715,650 C 725,602 734,553 752,523 Z" fill="url(#waterGrad)" />

      <!-- Water Caustics / Ripple Shimmer lines -->
      <g class="anim-water" stroke="#bfe7f5" stroke-width="1.2" stroke-linecap="round" fill="none" opacity="0.45">
        <path d="M 765,545 Q 785,548 810,543 Q 835,538 860,545" stroke-dasharray="16 8"/>
        <path d="M 740,575 Q 770,572 805,578 Q 840,582 880,573" stroke-dasharray="24 10"/>
        <path d="M 770,610 Q 805,616 850,608" stroke-dasharray="20 12"/>
      </g>

      <!-- Miniature boat floating in corner canal -->
      <g class="anim-boat">
        <use href="#miniBoat" />
      </g>

      <!-- ========================================== -->
      <!-- 2. RECTANGULAR DISPLAY TRENCH & CRADLES    -->
      <!-- ========================================== -->
      <!-- Long sunken concrete trench oriented with submarine axis (NW to SE perspective) -->
      <!-- Trench cutout shadow & walls -->
      <g id="displayTrench">
        <!-- Trench Sunken Outer Rim / Retaining Border -->
        <polygon points="268,368 705,538 672,582 235,412" fill="#757369" />
        <!-- Trench Floor -->
        <polygon points="274,375 698,540 668,576 244,411" fill="url(#trenchFloor)" />
        <!-- Inner shadow of trench north/west walls (receding depth) -->
        <polygon points="268,368 705,538 698,545 277,381" fill="#44433c" opacity="0.8" />
        <polygon points="268,368 277,381 247,417 235,412" fill="#363530" opacity="0.9" />
        <!-- South/East lighted inner walls -->
        <polygon points="247,417 671,582 668,576 244,411" fill="#dedad1" opacity="0.6" />
        <polygon points="705,538 672,582 668,576 698,540" fill="#c4c1b8" opacity="0.8" />
        
        <!-- Trench gravel / drainage expansion joints -->
        <g stroke="#6b6960" stroke-width="0.8" opacity="0.6">
          <line x1="330" y1="400" x2="310" y2="426" />
          <line x1="410" y1="431" x2="390" y2="457" />
          <line x1="490" y1="462" x2="470" y2="488" />
          <line x1="570" y1="493" x2="550" y2="519" />
          <line x1="640" y1="520" x2="620" y2="546" />
        </g>
      </g>

      <!-- Concrete Support Cradles (parallel across trench, h <= 0.25 D) -->
      <!-- cradle height ~18px, hull diam ~82px, h/D ~ 0.22 (< 0.25) -->
      <g id="cradles">
        <!-- Cradle 1 (Forebody) -->
        <use href="#cradleUnit" x="325" y="388" />
        <!-- Cradle 2 (Mid-Fore) -->
        <use href="#cradleUnit" x="405" y="419" />
        <!-- Cradle 3 (Midship) -->
        <use href="#cradleUnit" x="485" y="450" />
        <!-- Cradle 4 (Aft) -->
        <use href="#cradleUnit" x="565" y="481" />
        <!-- Cradle 5 (Tail support) -->
        <use href="#cradleUnit" x="630" y="506" />
      </g>

      <!-- Access Stairs and Gangway Bridge to Submarine Side Door -->
      <g id="accessGangway">
        <!-- Ground stairs down/up from lawn to bridge -->
        <!-- Small stair stringers -->
        <polygon points="392,488 412,496 410,508 390,500" fill="#94a3b8" />
        <polygon points="392,488 412,496 414,494 394,486" fill="#cbd5e1" />
        <!-- Stair steps -->
        <line x1="394" y1="490" x2="414" y2="498" stroke="#f1f5f9" stroke-width="1.5" />
        <line x1="392" y1="494" x2="412" y2="502" stroke="#f1f5f9" stroke-width="1.5" />
        <line x1="390" y1="498" x2="410" y2="506" stroke="#f1f5f9" stroke-width="1.5" />

        <!-- Gangway Bridge extending across trench to side door -->
        <!-- Shadow of bridge on trench bottom -->
        <polygon points="405,488 425,445 435,449 415,492" fill="#20221c" opacity="0.45" filter="url(#cradleShadow)"/>
        <!-- Bridge Structure -->
        <polygon points="403,485 423,440 431,443 411,488" fill="url(#metalGrad)" />
        <polygon points="403,485 411,488 411,491 403,488" fill="#64748b" />
        <!-- Handrails -->
        <line x1="402" y1="479" x2="422" y2="434" stroke="#94a3b8" stroke-width="1.5" />
        <line x1="410" y1="482" x2="430" y2="437" stroke="#94a3b8" stroke-width="1.5" />
        <!-- Railing uprights -->
        <line x1="403" y1="485" x2="402" y2="479" stroke="#64748b" stroke-width="1.2" />
        <line x1="412" y1="465" x2="411" y2="459" stroke="#64748b" stroke-width="1.2" />
        <line x1="423" y1="440" x2="422" y2="434" stroke="#64748b" stroke-width="1.2" />
        <!-- Small bridge platform step entering submarine hatch -->
        <ellipse cx="427" cy="439" rx="4" ry="2" fill="#cbd5e1" stroke="#475569" stroke-width="0.8"/>
      </g>

      <!-- Submarine Cast Shadow on Ground & Trench (Soft diffuse directional) -->
      <g id="subGroundShadow">
        <path d="M 230,375
                 C 270,360 360,400 480,455
                 C 590,505 700,560 765,585
                 C 745,595 670,580 560,530
                 C 430,470 310,410 230,385
                 Z" fill="#1b2413" opacity="0.42" filter="url(#softShadow)" />
      </g>

      <!-- ========================================== -->
      <!-- 3. SUBMARINE BODY: USS ALBACORE (AGSS-569) -->
      <!-- ========================================== -->
      <!--
        Albany / Portsmouth Albacore Pioneer Teardrop Hull:
        Viewing Angle: oblique 30° top-down perspective from bow side (3/4 view).
        Bow rounded & blunt, max beam at 1/3 length, tapering smooth to pinpoint stern.
        L ~ 610px, Max Diam ~ 82px (ratio L/D ~ 7.44 ≈ 7.5).
        Bow at (200, 310), 1/3 point around (380, 395), Stern at (780, 570).
      -->
      <g id="submarine">
        <!-- Submarine Lower Hull Ambient Occlusion & Base Form -->
        <path d="M 198,312
                 C 192,328 210,358 245,385
                 C 300,425 365,455 450,490
                 C 555,532 680,568 775,576
                 L 778,574
                 C 730,555 640,505 540,445
                 C 440,385 360,332 290,296
                 C 230,265 204,285 198,312 Z"
              fill="#181a1c" />

        <!-- Submarine Main Teardrop Hull Volume -->
        <path id="hullMain"
              d="M 198,312
                 C 190,326 206,352 242,378
                 C 295,415 360,444 445,478
                 C 550,520 675,556 775,573
                 C 778,573 777,570 774,568
                 C 715,535 635,480 540,424
                 C 435,362 355,308 288,274
                 C 232,246 205,270 198,312 Z"
              fill="url(#subDorsalGrad)" />

        <!-- Longitudinal Cold Specular Highlight Strip (along widest beam line) -->
        <path d="M 205,316
                 C 220,336 265,368 335,402
                 C 415,442 510,480 610,518
                 C 675,542 730,558 765,568
                 C 740,558 680,540 612,514
                 C 512,476 414,435 334,395
                 C 264,360 218,328 205,316 Z"
              fill="url(#specularStrip)" />

        <!-- Secondary Upper Crest Ambient Fill -->
        <path d="M 202,305
                 C 235,275 305,290 385,330
                 C 485,380 595,445 710,515
                 C 745,537 770,555 774,568
                 C 725,540 645,488 550,432
                 C 445,370 362,316 295,282
                 C 245,257 212,275 202,305 Z"
              fill="#7b8288" opacity="0.3" />

        <!-- Hull Details: Bow Sonar Window (circular acoustic window on forward side) -->
        <g id="sonarWindow">
          <ellipse cx="225" cy="334" rx="4.8" ry="7.5" transform="rotate(-26 225 334)" fill="#151718" stroke="#3d4246" stroke-width="1"/>
          <ellipse cx="224" cy="333" rx="3.5" ry="5.8" transform="rotate(-26 224 333)" fill="#25292c" />
          <ellipse cx="223.5" cy="331.5" rx="1.5" ry="2.8" transform="rotate(-26 223.5 331.5)" fill="#68727a" opacity="0.6"/>
        </g>

        <!-- Hull Details: Limber Holes / Drainage Slots (neat micro perforations in rows) -->
        <g id="limberHoles" fill="#151718" opacity="0.85">
          <!-- Row 1 (Fore) -->
          <ellipse cx="265" cy="346" rx="2.2" ry="0.9" transform="rotate(24 265 346)" />
          <ellipse cx="272" cy="350" rx="2.2" ry="0.9" transform="rotate(24 272 350)" />
          <ellipse cx="279" cy="354" rx="2.2" ry="0.9" transform="rotate(24 279 354)" />
          <ellipse cx="286" cy="358" rx="2.2" ry="0.9" transform="rotate(24 286 358)" />
          <ellipse cx="293" cy="362" rx="2.2" ry="0.9" transform="rotate(24 293 362)" />
          <ellipse cx="300" cy="366" rx="2.2" ry="0.9" transform="rotate(24 300 366)" />
          <ellipse cx="307" cy="370" rx="2.2" ry="0.9" transform="rotate(24 307 370)" />
          <ellipse cx="314" cy="374" rx="2.2" ry="0.9" transform="rotate(24 314 374)" />

          <!-- Row 2 (Mid-Fore) -->
          <ellipse cx="268" cy="352" rx="2.2" ry="0.9" transform="rotate(24 268 352)" />
          <ellipse cx="275" cy="356" rx="2.2" ry="0.9" transform="rotate(24 275 356)" />
          <ellipse cx="282" cy="360" rx="2.2" ry="0.9" transform="rotate(24 282 360)" />
          <ellipse cx="289" cy="364" rx="2.2" ry="0.9" transform="rotate(24 289 364)" />
          <ellipse cx="296" cy="368" rx="2.2" ry="0.9" transform="rotate(24 296 368)" />
          <ellipse cx="303" cy="372" rx="2.2" ry="0.9" transform="rotate(24 303 372)" />
          <ellipse cx="310" cy="376" rx="2.2" ry="0.9" transform="rotate(24 310 376)" />
          <ellipse cx="317" cy="380" rx="2.2" ry="0.9" transform="rotate(24 317 380)" />

          <!-- Mid-Hull Aft Slots -->
          <ellipse cx="460" cy="454" rx="2" ry="0.8" transform="rotate(25 460 454)" />
          <ellipse cx="467" cy="458" rx="2" ry="0.8" transform="rotate(25 467 458)" />
          <ellipse cx="474" cy="462" rx="2" ry="0.8" transform="rotate(25 474 462)" />
          <ellipse cx="481" cy="466" rx="2" ry="0.8" transform="rotate(25 481 466)" />
          <ellipse cx="488" cy="470" rx="2" ry="0.8" transform="rotate(25 488 470)" />
          <ellipse cx="495" cy="474" rx="2" ry="0.8" transform="rotate(25 495 474)" />
          <ellipse cx="502" cy="478" rx="2" ry="0.8" transform="rotate(25 502 478)" />
          <ellipse cx="509" cy="482" rx="2" ry="0.8" transform="rotate(25 509 482)" />
        </g>

        <!-- Access Door outline on hull side matching gangway bridge -->
        <g id="accessDoor">
          <path d="M 425,432 C 427,428 431,430 433,434 L 430,442 C 428,444 424,442 422,438 Z" fill="#222628" stroke="#4b5156" stroke-width="0.8"/>
          <!-- Inner opening shade -->
          <ellipse cx="427" cy="436" rx="2.5" ry="4" fill="#0f1112" />
        </g>

        <!-- ========================================== -->
        <!-- 4. STREAMLINED SAIL / CONNING TOWER       -->
        <!-- ========================================== -->
        <!--
          Position: Midship forward (center ~ 390, 335).
          Shape: teardrop/airfoil fin (rounded leading edge, sharp trailing edge).
          Height ~ 40px (approx 0.5 hull diameter).
          Length ~ 60px (approx 0.1 submarine length).
        -->
        <g id="conningTower">
          <!-- Shadow of Sail cast onto starboard curved hull -->
          <path d="M 378,348
                   C 395,355 425,372 445,385
                   C 425,380 405,365 385,355 Z" fill="#141719" opacity="0.65" filter="url(#cradleShadow)"/>

          <!-- Portside Sailplane (Horizontal Dive Plane sticking out into open space) -->
          <!-- Span ~ 1.2x diameter total span (~50px per side) -->
          <g id="portDivePlane">
            <!-- Shadow under port sail plane -->
            <polygon points="360,305 320,285 330,282 370,301" fill="#1d2022" opacity="0.6"/>
            <!-- Hydrofoil surface -->
            <polygon points="360,303 318,282 328,279 370,299" fill="#5a5f64" stroke="#71777d" stroke-width="0.6"/>
            <!-- Leading edge bright highlight -->
            <line x1="318" y1="282" x2="360" y2="303" stroke="#a4b0ba" stroke-width="0.8" />
          </g>

          <!-- Main Fin Body -->
          <!-- Left/Back dark edge -->
          <path d="M 362,338
                   C 356,310 360,290 374,282
                   C 382,278 392,284 415,310
                   C 432,328 438,342 432,352
                   C 418,348 388,342 362,338 Z" fill="url(#sailGrad)" />

          <!-- Top fairing / crest of Sail -->
          <path d="M 374,282
                   C 378,280 385,280 398,290
                   C 412,302 422,318 424,323
                   C 415,312 400,298 388,290
                   C 380,285 375,283 374,282 Z" fill="#8d949b" />

          <!-- Sail Leading Edge highlight -->
          <path d="M 362,338
                   C 358,318 362,295 374,282" fill="none" stroke="#9aa3ab" stroke-width="1.2" stroke-linecap="round"/>

          <!-- Starboard Sailplane (Horizontal Dive Plane on viewer side) -->
          <g id="starboardDivePlane">
            <!-- Root ambient shadow -->
            <ellipse cx="400" cy="342" rx="4" ry="2" fill="#1a1c1e" />
            <!-- Plane body -->
            <polygon points="392,342 435,364 445,360 404,338" fill="#4d5358" />
            <polygon points="392,341 435,363 445,357 403,336" fill="#6f757b" />
            <!-- Bright leading edge -->
            <line x1="392" y1="341" x2="435" y2="363" stroke="#b2bcc6" stroke-width="0.9" />
          </g>

          <!-- Sail top periscope housing cap (subtle miniature fairing) -->
          <ellipse cx="380" cy="284" rx="2.5" ry="1.2" fill="#303538" stroke="#7e868d" stroke-width="0.5"/>
        </g>

        <!-- ========================================== -->
        <!-- 5. STERN X-FORM CONTROL RUDS & PROPELLER   -->
        <!-- ========================================== -->
        <!--
          Portsmouth Albacore famous innovation:
          - X-stern control surfaces (4 fins set at ~45° X-angle, NOT cruciform +)
          - Span slightly greater than stern hull diameter (~32px span vs ~24px hull at that station)
          - Single large 5-bladed bronze propeller at the extreme aft conical tip.
        -->
        <g id="sternAssembly">
          <!-- X-Rudder Upper-Port Fin (pointing up-away) -->
          <polygon points="752,553 770,528 777,532 758,557" fill="#3b3f43" />
          <line x1="752" y1="553" x2="770" y2="528" stroke="#7d848c" stroke-width="0.8" />

          <!-- X-Rudder Lower-Port Fin (pointing down-away) -->
          <polygon points="756,564 778,578 774,583 753,568" fill="#1b1c1e" />

          <!-- X-Rudder Upper-Starboard Fin (pointing up-forward towards viewer) -->
          <polygon points="748,561 768,542 775,545 754,565" fill="#585e64" />
          <polygon points="750,560 769,541 773,543 754,562" fill="#7d858c" />
          <line x1="750" y1="560" x2="769" y2="541" stroke="#b6c0cb" stroke-width="0.8" />

          <!-- X-Rudder Lower-Starboard Fin (pointing down-forward towards viewer) -->
          <polygon points="752,568 768,598 762,601 748,571" fill="#292c2f" />
          <line x1="752" y1="568" x2="768" y2="598" stroke="#484d52" stroke-width="0.7" />

          <!-- Propeller Shaft Cone Hub -->
          <path d="M 774,570 L 787,577 L 775,575 Z" fill="#3a301d" />

          <!-- Single Bronze Propeller (Skewed 5-blade submarine screw) -->
          <!-- Suggesting stationary bronze sculptural quality of museum exhibit -->
          <g id="propeller" fill="url(#bronzeGrad)" stroke="#523e1b" stroke-width="0.5">
            <!-- Center hub cap -->
            <ellipse cx="786" cy="577" rx="2.5" ry="3.5" fill="#dfb36c" />
            <!-- Blade 1 (Upper) -->
            <path d="M 786,576 C 788,567 795,562 798,565 C 798,570 792,575 786,576 Z" />
            <!-- Blade 2 (Upper Right) -->
            <path d="M 787,577 C 795,576 802,580 801,584 C 796,585 790,581 787,577 Z" />
            <!-- Blade 3 (Lower Right) -->
            <path d="M 787,578 C 792,585 793,592 789,594 C 785,592 784,584 787,578 Z" />
            <!-- Blade 4 (Lower Left) -->
            <path d="M 785,578 C 780,585 773,586 772,582 C 774,578 781,576 785,578 Z" />
            <!-- Blade 5 (Upper Left) -->
            <path d="M 785,576 C 779,572 778,564 782,563 C 785,565 786,572 785,576 Z" />
          </g>
        </g>
      </g>

      <!-- ========================================== -->
      <!-- 6. ENVIRONMENT & MINIATURE DIORAMA DETAILS -->
      <!-- ========================================== -->

      <!-- Park Bench near Submarine (Trench Side) -->
      <g id="parkBench" transform="translate(365, 480)">
        <!-- Bench shadow -->
        <ellipse cx="10" cy="5" rx="11" ry="3.5" fill="#2d3b20" opacity="0.4" />
        <!-- Bench legs -->
        <line x1="2" y1="2" x2="2" y2="6" stroke="#334155" stroke-width="1.2" />
        <line x1="18" y1="2" x2="18" y2="6" stroke="#334155" stroke-width="1.2" />
        <!-- Wood slats -->
        <polygon points="0,1 18,1 20,-1 2,-1" fill="#b45309" stroke="#78350f" stroke-width="0.5"/>
        <polygon points="1,-2 19,-2 20,-4 2,-4" fill="#d97706" stroke="#78350f" stroke-width="0.5"/>
      </g>

      <!-- Park Trees Distributed along Pedestal Perimeter -->
      <!-- Distant Trees (subtle desaturation / atmospheric depth) -->
      <g id="treesDistant" opacity="0.88">
        <g class="anim-tree" style="animation-delay: -1.5s;">
          <use href="#miniTreeSmall" x="220" y="240" transform="scale(0.85)" />
        </g>
        <g class="anim-tree" style="animation-delay: -3.2s;">
          <use href="#miniTreeLarge" x="310" y="210" transform="scale(0.8)" />
        </g>
        <g class="anim-tree" style="animation-delay: -0.7s;">
          <use href="#miniTreeSmall" x="650" y="270" transform="scale(0.9)" />
        </g>
        <g class="anim-tree" style="animation-delay: -4.5s;">
          <use href="#miniTreeLarge" x="740" y="320" transform="scale(0.85)" />
        </g>
      </g>

      <!-- Foreground Trees (Crisper, fuller saturation & contrast) -->
      <g id="treesForeground">
        <g class="anim-tree" style="animation-delay: 0s;">
          <use href="#miniTreeLarge" x="145" y="440" />
        </g>
        <g class="anim-tree" style="animation-delay: -2s;">
          <use href="#miniTreeSmall" x="180" y="495" />
        </g>
        <g class="anim-tree" style="animation-delay: -3.8s;">
          <use href="#miniTreeLarge" x="210" y="550" />
        </g>
        <g class="anim-tree" style="animation-delay: -1.2s;">
          <use href="#miniTreeSmall" x="690" y="580" />
        </g>
      </g>

      <!-- Scattered Groups of Miniature Figurines (at least two sizes / distinct scales) -->
      <g id="miniatureFigures">
        <!-- Group 1: Standing under the massive rounded bow, looking up in awe -->
        <g id="groupBow" transform="translate(225, 395)">
          <use href="#tinyFigureLookUp" x="0" y="0" />
          <use href="#tinyFigureLookUp" x="6" y="3" transform="scale(0.9)" />
          <use href="#tinyFigure" x="-7" y="2" transform="scale(0.95)" />
        </g>

        <!-- Group 2: Two figures walking along the lawn near midship -->
        <g id="groupWalkMid" transform="translate(480, 525)">
          <use href="#tinyFigure" x="0" y="0" />
          <use href="#tinyFigure" x="8" y="-3" transform="scale(0.85)" />
        </g>

        <!-- Group 3: Solitary visitor near park bench -->
        <g id="figureBench" transform="translate(355, 482)">
          <use href="#tinyFigure" x="0" y="0" transform="scale(0.9)" />
        </g>

        <!-- Group 4: Figures by the stern examining the innovative X-rudder & propeller -->
        <g id="groupStern" transform="translate(735, 595)">
          <use href="#tinyFigureLookUp" x="0" y="0" transform="scale(0.95)" />
          <use href="#tinyFigure" x="7" y="-2" transform="scale(0.9)" />
        </g>
      </g>

    </g> <!-- /pedestalDiscClip -->
  </g> <!-- /pedestalTop -->

  <!-- Top Rim Specular Bright Ring of the Diorama Base -->
  <ellipse cx="500" cy="500" rx="400" ry="215" fill="none" stroke="url(#baseRimGrad)" stroke-width="2.5" />
</svg>