<svg xmlns="http://www.w3.org/2000/svg" viewBox="0 0 1200 800" width="100%" height="100%">
  <defs>
    <!-- Sky & Atmosphere Gradients -->
    <linearGradient id="skyGrad" x1="0%" y1="0%" x2="0%" y2="100%">
      <stop offset="0%" stop-color="#1e3a8a"/>
      <stop offset="35%" stop-color="#38bdf8"/>
      <stop offset="65%" stop-color="#fed7aa"/>
      <stop offset="85%" stop-color="#fef08a"/>
      <stop offset="100%" stop-color="#fef9c3"/>
    </linearGradient>

    <radialGradient id="sunGlow" cx="50%" cy="50%" r="50%">
      <stop offset="0%" stop-color="#ffffff" stop-opacity="1"/>
      <stop offset="30%" stop-color="#fef08a" stop-opacity="0.8"/>
      <stop offset="60%" stop-color="#f97316" stop-opacity="0.3"/>
      <stop offset="100%" stop-color="#f97316" stop-opacity="0"/>
    </radialGradient>

    <!-- Ocean Gradients -->
    <linearGradient id="oceanGrad" x1="0%" y1="0%" x2="0%" y2="100%">
      <stop offset="0%" stop-color="#0284c7"/>
      <stop offset="40%" stop-color="#0369a1"/>
      <stop offset="80%" stop-color="#075985"/>
      <stop offset="100%" stop-color="#0c4a6e"/>
    </linearGradient>

    <!-- Road & Ground Gradients -->
    <linearGradient id="roadGrad" x1="0%" y1="0%" x2="0%" y2="100%">
      <stop offset="0%" stop-color="#475569"/>
      <stop offset="30%" stop-color="#334155"/>
      <stop offset="100%" stop-color="#1e293b"/>
    </linearGradient>

    <linearGradient id="bluffGrad" x1="0%" y1="0%" x2="0%" y2="100%">
      <stop offset="0%" stop-color="#ca8a04"/>
      <stop offset="40%" stop-color="#a16207"/>
      <stop offset="100%" stop-color="#713f12"/>
    </linearGradient>

    <!-- Bicycle Finish Gradients -->
    <linearGradient id="frameTeal" x1="0%" y1="0%" x2="100%" y2="100%">
      <stop offset="0%" stop-color="#2dd4bf"/>
      <stop offset="30%" stop-color="#0f766e"/>
      <stop offset="70%" stop-color="#115e59"/>
      <stop offset="100%" stop-color="#042f2e"/>
    </linearGradient>

    <linearGradient id="chromeGrad" x1="0%" y1="0%" x2="0%" y2="100%">
      <stop offset="0%" stop-color="#ffffff"/>
      <stop offset="35%" stop-color="#cbd5e1"/>
      <stop offset="50%" stop-color="#94a3b8"/>
      <stop offset="65%" stop-color="#f1f5f9"/>
      <stop offset="100%" stop-color="#64748b"/>
    </linearGradient>

    <linearGradient id="rimGrad" x1="0%" y1="0%" x2="100%" y2="100%">
      <stop offset="0%" stop-color="#f8fafc"/>
      <stop offset="50%" stop-color="#94a3b8"/>
      <stop offset="100%" stop-color="#475569"/>
    </linearGradient>

    <linearGradient id="leatherGrad" x1="0%" y1="0%" x2="100%" y2="50%">
      <stop offset="0%" stop-color="#b45309"/>
      <stop offset="40%" stop-color="#78350f"/>
      <stop offset="80%" stop-color="#451a03"/>
      <stop offset="100%" stop-color="#290e02"/>
    </linearGradient>

    <!-- Pelican Breeding Plumage Gradients -->
    <!-- Characteristic Scarlet Red Gular Pouch of California Brown Pelican -->
    <linearGradient id="pouchGrad" x1="10%" y1="10%" x2="90%" y2="90%">
      <stop offset="0%" stop-color="#e11d48"/>
      <stop offset="25%" stop-color="#dc2626"/>
      <stop offset="60%" stop-color="#b91c1c"/>
      <stop offset="85%" stop-color="#991b1b"/>
      <stop offset="100%" stop-color="#7f1d1d"/>
    </linearGradient>

    <radialGradient id="pouchGaze" cx="55%" cy="65%" r="45%">
      <stop offset="0%" stop-color="#ff4d4d" stop-opacity="0.8"/>
      <stop offset="60%" stop-color="#dc2626" stop-opacity="0"/>
    </radialGradient>

    <!-- Velvety Mahogany/Chestnut Hindneck -->
    <linearGradient id="chestnutNeck" x1="0%" y1="0%" x2="100%" y2="100%">
      <stop offset="0%" stop-color="#78350f"/>
      <stop offset="40%" stop-color="#451a03"/>
      <stop offset="80%" stop-color="#311102"/>
      <stop offset="100%" stop-color="#1c0701"/>
    </linearGradient>

    <!-- Straw-Yellow / Golden Crown -->
    <linearGradient id="crownYellow" x1="0%" y1="0%" x2="0%" y2="100%">
      <stop offset="0%" stop-color="#fef08a"/>
      <stop offset="40%" stop-color="#fde047"/>
      <stop offset="80%" stop-color="#eab308"/>
      <stop offset="100%" stop-color="#ca8a04"/>
    </linearGradient>

    <!-- Bill Horn & Salmon Blush -->
    <linearGradient id="billGrad" x1="0%" y1="0%" x2="100%" y2="50%">
      <stop offset="0%" stop-color="#64748b"/>
      <stop offset="35%" stop-color="#94a3b8"/>
      <stop offset="70%" stop-color="#cbd5e1"/>
      <stop offset="85%" stop-color="#f87171"/>
      <stop offset="100%" stop-color="#dc2626"/>
    </linearGradient>

    <!-- Body & Silvery Feathers -->
    <linearGradient id="darkBelly" x1="0%" y1="0%" x2="0%" y2="100%">
      <stop offset="0%" stop-color="#334155"/>
      <stop offset="40%" stop-color="#1e293b"/>
      <stop offset="100%" stop-color="#0f172a"/>
    </linearGradient>

    <linearGradient id="featherSilver" x1="0%" y1="0%" x2="100%" y2="100%">
      <stop offset="0%" stop-color="#f1f5f9"/>
      <stop offset="35%" stop-color="#cbd5e1"/>
      <stop offset="70%" stop-color="#64748b"/>
      <stop offset="100%" stop-color="#334155"/>
    </linearGradient>

    <linearGradient id="tarsusGrad" x1="0%" y1="0%" x2="100%" y2="100%">
      <stop offset="0%" stop-color="#475569"/>
      <stop offset="50%" stop-color="#334155"/>
      <stop offset="100%" stop-color="#1e293b"/>
    </linearGradient>

    <!-- Shadow Filter -->
    <filter id="bikeShadow" x="-10%" y="-10%" width="120%" height="140%">
      <feGaussianBlur in="SourceAlpha" stdDeviation="6"/>
      <feColorMatrix type="matrix" values="0 0 0 0 0   0 0 0 0 0   0 0 0 0 0  0 0 0 0.45 0"/>
      <feOffset dx="15" dy="25"/>
      <feBlend in="SourceGraphic" in2="blurOut" mode="normal"/>
    </filter>

    <!-- Reusable Spoke definition -->
    <style><![CDATA[
      .spoke { stroke: #cbd5e1; stroke-width: 1.25; stroke-opacity: 0.85; }
      .spoke-highlight { stroke: #ffffff; stroke-width: 1; stroke-opacity: 0.9; }
      .feather-line { stroke: #e2e8f0; stroke-width: 1.2; stroke-linecap: round; }
      .feather-barb { stroke: #94a3b8; stroke-width: 0.7; stroke-opacity: 0.6; }
      .pouch-crease { stroke: #991b1b; stroke-width: 1.3; stroke-opacity: 0.7; fill: none; }
      .scute { stroke: #1e293b; stroke-width: 1.2; }
    ]]></style>
  </defs>

  <!-- ================= BACKGROUND LAYER ================= -->
  <!-- Sky -->
  <rect x="0" y="0" width="1200" height="500" fill="url(#skyGrad)"/>

  <!-- Golden Coastal Sun -->
  <circle cx="1020" cy="180" r="140" fill="url(#sunGlow)"/>
  <circle cx="1020" cy="180" r="45" fill="#fffbeb" opacity="0.9"/>

  <!-- Distant Cirrus Clouds -->
  <path d="M 50,120 Q 200,105 380,125 T 700,110 T 950,135" fill="none" stroke="#ffffff" stroke-width="8" opacity="0.35" stroke-linecap="round"/>
  <path d="M 120,80 Q 300,70 520,85 T 850,75" fill="none" stroke="#ffffff" stroke-width="5" opacity="0.25" stroke-linecap="round"/>

  <!-- Distant Pelican Flock in V-Formation -->
  <g opacity="0.55" fill="none" stroke="#475569" stroke-width="2.2" stroke-linecap="round">
    <!-- Lead bird -->
    <path d="M 240,90 Q 248,82 255,88 Q 262,82 270,90"/>
    <path d="M 275,102 Q 282,95 288,100 Q 294,95 301,102"/>
    <path d="M 310,114 Q 317,108 322,112 Q 327,108 333,114"/>
    <path d="M 210,105 Q 217,98 223,103 Q 229,98 236,105"/>
    <path d="M 180,120 Q 186,113 192,117 Q 198,113 204,120"/>
  </g>

  <!-- Distant Pacific Ocean & Horizon -->
  <rect x="0" y="420" width="1200" height="90" fill="url(#oceanGrad)"/>
  <path d="M 0,424 Q 300,422 600,425 T 1200,423" stroke="#e0f2fe" stroke-width="1.5" opacity="0.75" fill="none"/>
  <path d="M 0,438 Q 250,435 550,439 T 1200,436" stroke="#bae6fd" stroke-width="1.8" opacity="0.6" fill="none"/>
  <path d="M 0,455 Q 350,451 700,456 T 1200,453" stroke="#7dd3fc" stroke-width="2" opacity="0.5" fill="none"/>
  <path d="M 0,475 Q 280,471 620,477 T 1200,474" stroke="#38bdf8" stroke-width="2.5" opacity="0.4" fill="none"/>

  <!-- Distant Headlands / Coastal Bluffs (Big Sur / California Shoreline) -->
  <path d="M 0,430 Q 180,395 380,420 T 780,425 Q 920,410 1080,428 L 1200,435 L 1200,500 L 0,500 Z" fill="#0c4a6e" opacity="0.45"/>
  <path d="M 0,445 Q 160,425 320,440 T 720,442 Q 950,430 1200,450 L 1200,510 L 0,510 Z" fill="#065f46" opacity="0.55"/>

  <!-- Coastal Bluff / Embankment with Wildflowers -->
  <path d="M 0,490 Q 240,465 520,485 T 1050,475 Q 1140,480 1200,485 L 1200,560 L 0,560 Z" fill="url(#bluffGrad)"/>
  <path d="M 0,515 Q 320,495 640,510 T 1200,505 L 1200,560 L 0,560 Z" fill="#65a30d" opacity="0.75"/>

  <!-- California Poppies along the roadside -->
  <g id="poppies">
    <circle cx="80" cy="515" r="4.5" fill="#f97316"/>
    <circle cx="83" cy="513" r="3.5" fill="#fbbf24"/>
    <circle cx="140" cy="510" r="5" fill="#ea580c"/>
    <circle cx="142" cy="508" r="3" fill="#fde047"/>
    <circle cx="210" cy="522" r="4" fill="#f97316"/>
    <circle cx="290" cy="518" r="5.5" fill="#f97316"/>
    <circle cx="293" cy="515" r="3.5" fill="#facc15"/>
    <circle cx="950" cy="505" r="5" fill="#f97316"/>
    <circle cx="1020" cy="510" r="5" fill="#ea580c"/>
    <circle cx="1080" cy="515" r="4" fill="#f97316"/>
    <circle cx="1140" cy="518" r="5" fill="#ea580c"/>
  </g>

  <!-- Paved Coastal Road / Bike Path -->
  <rect x="0" y="540" width="1200" height="260" fill="url(#roadGrad)"/>

  <!-- Road Texture & Markings -->
  <line x1="0" y1="545" x2="1200" y2="545" stroke="#94a3b8" stroke-width="3" opacity="0.4"/>
  <!-- Bike Lane Solid White Edge Line -->
  <line x1="0" y1="685" x2="1200" y2="685" stroke="#ffffff" stroke-width="4.5" stroke-dasharray="70 40" opacity="0.85"/>
  <!-- Shoulder Line -->
  <line x1="0" y1="565" x2="1200" y2="565" stroke="#facc15" stroke-width="3" opacity="0.7"/>

  <!-- ================= BICYCLE SHADOW ================= -->
  <g opacity="0.4">
    <!-- Rear Wheel Shadow -->
    <ellipse cx="300" cy="675" rx="100" ry="16" fill="#0f172a"/>
    <!-- Front Wheel Shadow -->
    <ellipse cx="890" cy="675" rx="100" ry="16" fill="#0f172a"/>
    <!-- Frame & Rider Shadow -->
    <path d="M 300,675 L 590,685 L 890,675 L 680,695 L 420,690 Z" fill="#0f172a"/>
    <ellipse cx="610" cy="688" rx="130" ry="22" fill="#0f172a"/>
  </g>

  <!-- ================= BACKGROUND BICYCLE COMPONENTS ================= -->
  <!-- Left / Far Side Pedal & Crank (Upstroke Position ~215°) -->
  <g id="far-pedal-assembly">
    <!-- Far Crank Arm (pointing up and backwards) -->
    <line x1="540" y1="560" x2="490" y2="515" stroke="#64748b" stroke-width="9" stroke-linecap="round"/>
    <line x1="540" y1="560" x2="490" y2="515" stroke="#cbd5e1" stroke-width="4" stroke-linecap="round"/>
    <!-- Far Pedal Axle & Body -->
    <rect x="470" y="508" width="30" height="10" rx="3" fill="#1e293b" stroke="#94a3b8" stroke-width="1.5"/>
    <line x1="472" y1="513" x2="498" y2="513" stroke="#f59e0b" stroke-width="2"/>
  </g>

  <!-- Far Side Webbed Foot & Leg (Upstroke / Flexed pedaling motion) -->
  <g id="pelican-left-leg">
    <!-- Left Thigh (feathers emerging from underbelly) -->
    <path d="M 470,360 C 460,400 450,430 458,455 C 468,460 482,450 488,430 C 495,400 495,370 485,355 Z" fill="#1e293b"/>
    <!-- Left Crus / Tibiotarsus (feathered drumstick) -->
    <path d="M 458,455 Q 460,480 468,500 L 480,495 Q 475,475 488,430 Z" fill="#334155"/>
    <!-- Left Tarsus (bare leg bone) -->
    <line x1="468" y1="500" x2="480" y2="518" stroke="#334155" stroke-width="8" stroke-linecap="round"/>
    <!-- Left Webbed Totipalmate Foot resting on raised pedal -->
    <!-- Spread webbed toes angled on pedal -->
    <path d="M 480,518 L 455,510 L 450,518 L 470,523 L 495,523 Z" fill="#1e293b" opacity="0.9"/>
    <path d="M 480,518 L 470,510 Q 480,505 495,508 L 490,520 Z" fill="#334155" opacity="0.9"/>
    <!-- Claws curling over far pedal -->
    <path d="M 455,510 Q 450,512 452,516" stroke="#0f172a" stroke-width="2" fill="none"/>
    <path d="M 450,518 Q 445,520 447,524" stroke="#0f172a" stroke-width="2" fill="none"/>
  </g>

  <!-- ================= BICYCLE WHEELS ================= -->

  <!-- REAR WHEEL (Center: X=270, Y=560) -->
  <g id="rear-wheel">
    <!-- Pneumatic Tire -->
    <circle cx="270" cy="560" r="110" fill="none" stroke="#0f172a" stroke-width="15"/>
    <!-- Tire Tread Subtle Ridge -->
    <circle cx="270" cy="560" r="116" fill="none" stroke="#1e293b" stroke-width="2" stroke-dasharray="4 3"/>
    <!-- Vintage Gumwall / Tan Sidewall -->
    <circle cx="270" cy="560" r="102" fill="none" stroke="#d97706" stroke-width="4.5"/>
    <!-- Double-wall Alloy Rim -->
    <circle cx="270" cy="560" r="98" fill="none" stroke="url(#rimGrad)" stroke-width="5.5"/>
    <circle cx="270" cy="560" r="95" fill="none" stroke="#475569" stroke-width="1.2"/>

    <!-- Full Set of Tangent-Cross Wire Spokes (Rear Wheel - 28 Spokes) -->
    <g id="rear-wheel-spokes">
      <!-- Trailing Spokes (Hub to Rim) -->
      <line x1="284" y1="560" x2="357" y2="600" class="spoke"/>
      <line x1="282" y1="566" x2="334" y2="631" class="spoke"/>
      <line x1="279" y1="571" x2="303" y2="651" class="spoke"/>
      <line x1="274" y1="574" x2="265" y2="655" class="spoke"/>
      <line x1="268" y1="574" x2="228" y2="647" class="spoke"/>
      <line x1="263" y1="571" x2="197" y2="624" class="spoke"/>
      <line x1="259" y1="567" x2="178" y2="591" class="spoke"/>
      <line x1="256" y1="560" x2="175" y2="550" class="spoke"/>
      <line x1="258" y1="554" x2="186" y2="509" class="spoke"/>
      <line x1="261" y1="549" x2="210" y2="477" class="spoke"/>
      <line x1="266" y1="546" x2="246" y2="466" class="spoke"/>
      <line x1="272" y1="546" x2="284" y2="467" class="spoke"/>
      <line x1="277" y1="548" x2="323" y2="483" class="spoke"/>
      <line x1="281" y1="553" x2="350" y2="512" class="spoke"/>

      <!-- Leading / Cross Spokes (Opposite Tangent) -->
      <line x1="284" y1="560" x2="349" y2="513" class="spoke-highlight"/>
      <line x1="281" y1="567" x2="357" y2="558" class="spoke-highlight"/>
      <line x1="277" y1="572" x2="342" y2="603" class="spoke-highlight"/>
      <line x1="271" y1="574" x2="315" y2="643" class="spoke-highlight"/>
      <line x1="265" y1="573" x2="277" y2="655" class="spoke-highlight"/>
      <line x1="260" y1="569" x2="238" y2="650" class="spoke-highlight"/>
      <line x1="257" y1="563" x2="204" y2="628" class="spoke-highlight"/>
      <line x1="256" y1="557" x2="182" y2="589" class="spoke-highlight"/>
      <line x1="259" y1="551" x2="177" y2="540" class="spoke-highlight"/>
      <line x1="263" y1="547" x2="191" y2="499" class="spoke-highlight"/>
      <line x1="269" y1="546" x2="221" y2="471" class="spoke-highlight"/>
      <line x1="275" y1="547" x2="260" y2="465" class="spoke-highlight"/>
      <line x1="280" y1="550" x2="299" y2="472" class="spoke-highlight"/>
      <line x1="283" y1="555" x2="335" y2="495" class="spoke-highlight"/>
    </g>

    <!-- Rear Cog Cassette & Hub -->
    <circle cx="270" cy="560" r="24" fill="#475569" stroke="#94a3b8" stroke-width="2"/>
    <circle cx="270" cy="560" r="18" fill="#334155" stroke="#cbd5e1" stroke-width="1.5" stroke-dasharray="5 3"/>
    <circle cx="270" cy="560" r="10" fill="url(#chromeGrad)" stroke="#1e293b" stroke-width="1.5"/>
    <circle cx="270" cy="560" r="4" fill="#0f172a"/>
  </g>

  <!-- FRONT WHEEL (Center: X=870, Y=560) -->
  <g id="front-wheel">
    <!-- Pneumatic Tire -->
    <circle cx="870" cy="560" r="110" fill="none" stroke="#0f172a" stroke-width="15"/>
    <!-- Tire Tread -->
    <circle cx="870" cy="560" r="116" fill="none" stroke="#1e293b" stroke-width="2" stroke-dasharray="4 3"/>
    <!-- Tan Gumwall Sidewall -->
    <circle cx="870" cy="560" r="102" fill="none" stroke="#d97706" stroke-width="4.5"/>
    <!-- Double-wall Alloy Rim -->
    <circle cx="870" cy="560" r="98" fill="none" stroke="url(#rimGrad)" stroke-width="5.5"/>
    <circle cx="870" cy="560" r="95" fill="none" stroke="#475569" stroke-width="1.2"/>

    <!-- Full Set of Tangent-Cross Wire Spokes (Front Wheel - 28 Spokes) -->
    <g id="front-wheel-spokes">
      <!-- Trailing Spokes -->
      <line x1="884" y1="560" x2="957" y2="600" class="spoke"/>
      <line x1="882" y1="566" x2="934" y2="631" class="spoke"/>
      <line x1="879" y1="571" x2="903" y2="651" class="spoke"/>
      <line x1="874" y1="574" x2="865" y2="655" class="spoke"/>
      <line x1="868" y1="574" x2="828" y2="647" class="spoke"/>
      <line x1="863" y1="571" x2="797" y2="624" class="spoke"/>
      <line x1="859" y1="567" x2="778" y2="591" class="spoke"/>
      <line x1="856" y1="560" x2="775" y2="550" class="spoke"/>
      <line x1="858" y1="554" x2="786" y2="509" class="spoke"/>
      <line x1="861" y1="549" x2="810" y2="477" class="spoke"/>
      <line x1="866" y1="546" x2="846" y2="466" class="spoke"/>
      <line x1="872" y1="546" x2="884" y2="467" class="spoke"/>
      <line x1="877" y1="548" x2="923" y2="483" class="spoke"/>
      <line x1="881" y1="553" x2="950" y2="512" class="spoke"/>

      <!-- Leading / Cross Spokes -->
      <line x1="884" y1="560" x2="949" y2="513" class="spoke-highlight"/>
      <line x1="881" y1="567" x2="957" y2="558" class="spoke-highlight"/>
      <line x1="877" y1="572" x2="942" y2="603" class="spoke-highlight"/>
      <line x1="871" y1="574" x2="915" y2="643" class="spoke-highlight"/>
      <line x1="865" y1="573" x2="877" y2="655" class="spoke-highlight"/>
      <line x1="860" y1="569" x2="838" y2="650" class="spoke-highlight"/>
      <line x1="857" y1="563" x2="804" y2="628" class="spoke-highlight"/>
      <line x1="856" y1="557" x2="782" y2="589" class="spoke-highlight"/>
      <line x1="859" y1="551" x2="777" y2="540" class="spoke-highlight"/>
      <line x1="863" y1="547" x2="791" y2="499" class="spoke-highlight"/>
      <line x1="869" y1="546" x2="821" y2="471" class="spoke-highlight"/>
      <line x1="875" y1="547" x2="860" y2="465" class="spoke-highlight"/>
      <line x1="880" y1="550" x2="899" y2="472" class="spoke-highlight"/>
      <line x1="883" y1="555" x2="935" y2="495" class="spoke-highlight"/>
    </g>

    <!-- Front Hub -->
    <circle cx="870" cy="560" r="14" fill="url(#chromeGrad)" stroke="#1e293b" stroke-width="1.5"/>
    <circle cx="870" cy="560" r="5" fill="#0f172a"/>
  </g>

  <!-- ================= BICYCLE FRAME (Classic Diamond Geometry) ================= -->
  <!--
      Key Nodes:
      - Rear Dropouts: (270, 560)
      - Bottom Bracket (BB): (530, 560)
      - Seat Lug / Cluster: (465, 345)
      - Head Tube Top: (770, 305)
      - Head Tube Bottom: (790, 385)
      - Front Dropouts: (870, 560)
  -->
  <g id="bicycle-frame">
    <!-- Chainstays (BB to Rear Dropout) -->
    <line x1="530" y1="560" x2="270" y2="560" stroke="url(#frameTeal)" stroke-width="11" stroke-linecap="round"/>
    <line x1="530" y1="559" x2="280" y2="559" stroke="#5eead4" stroke-width="2.5" opacity="0.6"/>

    <!-- Seatstays (Seat Cluster to Rear Dropout) -->
    <line x1="465" y1="345" x2="270" y2="560" stroke="url(#frameTeal)" stroke-width="9.5" stroke-linecap="round"/>
    <line x1="463" y1="348" x2="275" y2="556" stroke="#ffffff" stroke-width="2" opacity="0.5"/>
    <!-- Chrome Seatstay Caps & Dropout Plate -->
    <circle cx="270" cy="560" r="11" fill="url(#chromeGrad)" stroke="#334155" stroke-width="1.5"/>
    <circle cx="270" cy="560" r="4" fill="#0f172a"/>

    <!-- Down Tube (Head Tube Bottom to BB) -->
    <line x1="790" y1="385" x2="530" y2="560" stroke="url(#frameTeal)" stroke-width="15" stroke-linecap="round"/>
    <line x1="786" y1="381" x2="532" y2="552" stroke="#5eead4" stroke-width="3" opacity="0.6"/>

    <!-- Seat Tube (BB to Seat Lug) -->
    <line x1="530" y1="560" x2="465" y2="345" stroke="url(#frameTeal)" stroke-width="13.5" stroke-linecap="round"/>
    <line x1="527" y1="558" x2="464" y2="347" stroke="#5eead4" stroke-width="3" opacity="0.6"/>

    <!-- Top Tube (Seat Lug to Head Tube Top) -->
    <line x1="465" y1="345" x2="770" y2="305" stroke="url(#frameTeal)" stroke-width="13" stroke-linecap="round"/>
    <line x1="467" y1="342" x2="768" y2="303" stroke="#ffffff" stroke-width="2.5" opacity="0.7"/>

    <!-- Vintage Brand Decal on Down Tube ("PELICAN COAST") -->
    <g transform="translate(685, 450) rotate(-34)">
      <rect x="-45" y="-6" width="90" height="12" rx="3" fill="#0f766e" opacity="0.9"/>
      <text x="0" y="3" font-family="sans-serif" font-size="7.5" font-weight="bold" fill="#fef08a" text-anchor="middle" letter-spacing="1.5">PACIFIC</text>
    </g>

    <!-- Head Tube (with Chrome Lugs & Headbadge) -->
    <line x1="770" y1="305" x2="790" y2="385" stroke="url(#frameTeal)" stroke-width="17" stroke-linecap="butt"/>
    <!-- Head Tube Cutaway Chrome Lugs -->
    <path d="M 762,305 L 778,305 L 775,322 L 760,320 Z" fill="url(#chromeGrad)"/>
    <path d="M 781,370 L 797,372 L 798,388 L 783,388 Z" fill="url(#chromeGrad)"/>
    <!-- Vintage Brass Head Badge -->
    <ellipse cx="778" cy="345" rx="5" ry="9" fill="#f59e0b" stroke="#78350f" stroke-width="0.8"/>

    <!-- Front Fork (Curved Classic Rake from Head Tube to Front Hub) -->
    <path d="M 790,385 Q 810,480 870,560" fill="none" stroke="url(#frameTeal)" stroke-width="11" stroke-linecap="round"/>
    <!-- Chrome Fork Crown -->
    <path d="M 784,383 C 784,395 798,397 800,387 Z" fill="url(#chromeGrad)" stroke="#64748b" stroke-width="1"/>
    <!-- Chrome Fork Blades Tip -->
    <path d="M 850,535 Q 860,548 870,560" fill="none" stroke="url(#chromeGrad)" stroke-width="11" stroke-linecap="round"/>
    <circle cx="870" cy="560" r="10" fill="url(#chromeGrad)" stroke="#334155" stroke-width="1.5"/>

    <!-- Water Bottle Cage & Bidon on Down Tube -->
    <line x1="610" y1="500" x2="680" y2="455" stroke="#cbd5e1" stroke-width="3" stroke-linecap="round"/>
    <rect x="625" y="465" width="40" height="15" rx="4" transform="rotate(-34 645 472)" fill="#f8fafc" stroke="#94a3b8" stroke-width="1.5"/>

    <!-- Bottom Bracket Shell -->
    <circle cx="530" cy="560" r="17" fill="url(#chromeGrad)" stroke="#0f172a" stroke-width="2"/>
  </g>

  <!-- ================= DRIVETRAIN (Chain, Chainring, Derailleur) ================= -->
  <g id="drivetrain">
    <!-- 52T Polished Chainring with Drillium Cutouts -->
    <circle cx="530" cy="560" r="40" fill="url(#chromeGrad)" stroke="#475569" stroke-width="1.5"/>
    <circle cx="530" cy="560" r="37" fill="none" stroke="#334155" stroke-width="3" stroke-dasharray="5 3"/>
    <!-- 5-Arm Spider -->
    <circle cx="530" cy="560" r="28" fill="#0f766e" stroke="#115e59" stroke-width="2"/>
    <circle cx="530" cy="560" r="16" fill="url(#chromeGrad)"/>
    <!-- Chainring Cutout Windows -->
    <circle cx="548" cy="548" r="5" fill="#1e293b"/>
    <circle cx="548" cy="572" r="5" fill="#1e293b"/>
    <circle cx="530" cy="582" r="5" fill="#1e293b"/>
    <circle cx="512" cy="572" r="5" fill="#1e293b"/>
    <circle cx="512" cy="548" r="5" fill="#1e293b"/>

    <!-- Drive Chain (Taut Top Run, Tensioned Bottom Run) -->
    <path d="M 530,520 L 270,542" stroke="#cbd5e1" stroke-width="4.5" stroke-linecap="round"/>
    <path d="M 530,520 L 270,542" stroke="#0f172a" stroke-width="2" stroke-dasharray="4 2.5"/>
    <!-- Rear Derailleur Pulleys & Cage -->
    <path d="M 270,578 L 276,605 L 292,608" fill="none" stroke="#475569" stroke-width="4" stroke-linecap="round"/>
    <circle cx="276" cy="605" r="7" fill="#1e293b" stroke="#94a3b8" stroke-width="1.5"/>
    <!-- Bottom Chain Run -->
    <path d="M 276,605 Q 400,600 530,598" stroke="#cbd5e1" stroke-width="4.5" fill="none"/>
    <path d="M 276,605 Q 400,600 530,598" stroke="#0f172a" stroke-width="2" stroke-dasharray="4 2.5" fill="none"/>
  </g>

  <!-- ================= COCKPIT (Seatpost, Saddle, Stem, Handlebars) ================= -->
  <g id="cockpit">
    <!-- Chrome Seatpost with Micro-Adjust Clamp -->
    <line x1="465" y1="345" x2="445" y2="295" stroke="url(#chromeGrad)" stroke-width="9.5" stroke-linecap="round"/>
    <path d="M 438,295 L 452,295 L 450,299 L 440,299 Z" fill="#334155"/>

    <!-- Vintage Brooks-Style Leather Saddle -->
    <!-- Saddle Chrome Rails -->
    <path d="M 418,302 L 468,300" stroke="#94a3b8" stroke-width="2.5"/>
    <path d="M 425,302 Q 445,310 460,300" stroke="#94a3b8" stroke-width="2" fill="none"/>
    <!-- Leather Saddle Top -->
    <path d="M 405,294 C 420,286 450,290 480,296 C 472,308 430,311 405,302 Z" fill="url(#leatherGrad)"/>
    <!-- Copper Rivets on Cantle -->
    <circle cx="410" cy="298" r="1.8" fill="#f59e0b"/>
    <circle cx="416" cy="296" r="1.8" fill="#f59e0b"/>
    <circle cx="423" cy="295" r="1.8" fill="#f59e0b"/>

    <!-- Quill Stem (Emerging from Headset) -->
    <path d="M 770,305 L 758,245 L 788,240" fill="none" stroke="url(#chromeGrad)" stroke-width="9" stroke-linecap="square"/>
    <circle cx="758" cy="245" r="7" fill="url(#chromeGrad)"/>
    <!-- Headset Locknuts -->
    <rect x="764" y="298" width="13" height="8" rx="2" fill="url(#chromeGrad)" stroke="#475569" stroke-width="1"/>

    <!-- Vintage Brass Handlebar Bell -->
    <circle cx="762" cy="235" r="8" fill="#f59e0b" stroke="#b45309" stroke-width="1.2"/>
    <circle cx="760" cy="233" r="2.5" fill="#fef08a"/>

    <!-- Left Handlebar & Grip (Far Side) -->
    <path d="M 788,240 C 802,238 820,248 812,268 L 795,282" fill="none" stroke="#78350f" stroke-width="7" stroke-linecap="round"/>
  </g>

  <!-- ================= CALIFORNIA BROWN PELICAN (RIDER) ================= -->
  <!--
      Anatomy & Breeding Plumage:
      - Crown/Crest: Bright straw-yellow / golden crest with windblown nuptial plumes
      - Nape/Hindneck: Deep velvety chocolate-chestnut / mahogany
      - Lateral Neck Stripe: Distinctive crisp white ribbon running from eye to lower mantle
      - Foreneck: Rich chestnut-mahogany with silvery base
      - Bare Facial Skin: Intense turquoise/blue orbital ring around pale iris
      - Bill: Immense horn-slate culmen with hooked carmine-red tipped unguis
      - Gular Pouch: ENORMOUS, striking scarlet/carmine-red expandable pouch
      - Body/Mantle: Silvery-gray lanceolate feathers with dark charcoal borders
      - Wings: Broad, powerful with individually separated, emarginated flight feathers
      - Feet: Full totipalmate webbed feet with 4 toes webbed together, pedaling actively
  -->
  <g id="california-brown-pelican">

    <!-- Tail Rectrices (Layered over rear wheel) -->
    <g id="pelican-tail">
      <path d="M 425,310 C 385,325 345,340 325,355 C 345,350 375,340 435,322 Z" fill="#334155" stroke="#1e293b" stroke-width="1"/>
      <path d="M 430,312 C 390,332 355,352 335,368 C 358,360 390,345 440,324 Z" fill="#475569" stroke="#1e293b" stroke-width="1"/>
      <path d="M 435,315 C 400,340 370,365 350,380 C 375,370 410,350 445,328 Z" fill="#64748b" stroke="#1e293b" stroke-width="1"/>
      <!-- Tail Feather Shafts -->
      <line x1="430" y1="312" x2="330" y2="355" class="feather-line" stroke-width="1.2"/>
      <line x1="435" y1="315" x2="340" y2="368" class="feather-line" stroke-width="1.2"/>
      <line x1="440" y1="320" x2="355" y2="380" class="feather-line" stroke-width="1.2"/>
    </g>

    <!-- Main Torso / Underbelly & Flanks (Firmly seated on saddle) -->
    <g id="pelican-body">
      <!-- Dark sepia/blackish breeding belly & breast core -->
      <path d="M 435,296 C 455,290 500,285 540,280 C 585,275 625,250 635,225 C 645,210 630,230 620,250 C 595,290 550,335 490,345 C 450,350 430,325 435,296 Z" fill="url(#darkBelly)"/>

      <!-- Layered Lanceolate Feathers on Mantle & Flank -->
      <!-- Lower Flank Feather Scales -->
      <path d="M 470,305 C 485,325 515,335 545,325 C 530,315 505,305 470,305 Z" fill="#475569" stroke="#1e293b" stroke-width="1"/>
      <path d="M 495,295 C 515,318 545,325 575,312 C 555,302 530,295 495,295 Z" fill="#64748b" stroke="#1e293b" stroke-width="1"/>
      <path d="M 520,285 C 545,308 575,315 605,298 C 585,288 560,280 520,285 Z" fill="#94a3b8" stroke="#334155" stroke-width="1"/>

      <!-- Breast Feathering Contour -->
      <path d="M 570,270 C 595,280 625,275 640,245 C 630,240 610,245 590,255 Z" fill="#cbd5e1" stroke="#475569" stroke-width="1"/>
      <path d="M 590,250 C 612,260 638,252 648,230 C 635,225 618,230 600,240 Z" fill="#f1f5f9" stroke="#64748b" stroke-width="1"/>
    </g>

    <!-- Far Wing / Left Wing (Extending to Left Handlebar) -->
    <g id="pelican-far-wing" opacity="0.85">
      <!-- Primaries gripping far side of handlebar -->
      <path d="M 610,210 C 660,195 720,205 765,230 C 785,240 795,250 802,258 L 788,262 C 770,250 740,235 690,225 Z" fill="#334155" stroke="#1e293b" stroke-width="1.2"/>
      <path d="M 770,235 C 790,245 808,255 812,265 L 802,268 C 795,258 780,248 765,240 Z" fill="#1e293b"/>
      <path d="M 760,242 C 780,252 798,262 805,275 L 795,278 C 785,268 770,255 755,248 Z" fill="#0f172a"/>
    </g>

    <!-- RIGHT LEG & WEBBED FOOT (Foreground - DOWNSTROKE POWER STROKE) -->
    <!--
        Pelican Leg Action:
        Thigh slopes forward -> Knee flexes -> Crus/drumstick angles back ->
        Ankle/hock bends -> Tarsus drives down-forward ->
        Large Totipalmate Foot firmly flattens against the pedal cage at (575, 595).
    -->
    <g id="pelican-right-leg">
      <!-- Feathered Muscular Thigh -->
      <path d="M 485,325 C 495,355 515,385 538,408 C 555,410 568,390 565,360 C 560,335 540,320 485,325 Z" fill="#334155" stroke="#1e293b" stroke-width="1.2"/>
      <!-- Feathery edging on thigh -->
      <path d="M 515,385 Q 525,405 538,408 Q 545,395 555,400" fill="none" stroke="#64748b" stroke-width="2"/>

      <!-- Crus / Drumstick (Feathered upper turning into bare hock) -->
      <path d="M 538,408 Q 545,445 535,482 L 552,480 Q 562,440 562,395 Z" fill="url(#tarsusGrad)" stroke="#1e293b" stroke-width="1.2"/>

      <!-- Bare Tarsometatarsus (Scaly Lower Leg powering down-forward) -->
      <line x1="540" y1="480" x2="575" y2="590" stroke="url(#tarsusGrad)" stroke-width="11" stroke-linecap="round"/>
      <line x1="538" y1="480" x2="573" y2="590" stroke="#64748b" stroke-width="2.5" stroke-linecap="round"/>
      <!-- Scute scale rings on tarsus -->
      <line x1="542" y1="500" x2="551" y2="503" class="scute"/>
      <line x1="548" y1="522" x2="557" y2="525" class="scute"/>
      <line x1="554" y1="544" x2="563" y2="547" class="scute"/>
      <line x1="560" y1="566" x2="569" y2="569" class="scute"/>

      <!-- TOTIPALMATE WEBBED FOOT (All 4 toes connected by broad swimming webbing) -->
      <!-- Taut Webbing between Toes 1, 2, 3, and 4 stretched over pedal -->
      <g id="right-webbed-foot">
        <!-- Broad Webbing Membrane -->
        <path d="M 575,590 L 532,596 Q 555,605 585,612 Q 610,610 628,602 Q 615,590 575,590 Z" fill="#1e293b" stroke="#0f172a" stroke-width="1.2"/>
        <path d="M 572,592 L 545,598 Q 570,607 602,607 L 572,592 Z" fill="#334155" opacity="0.6"/>

        <!-- Four Toes with Joints and Nails -->
        <!-- Toe 1 (Hallux - reversed/lateral, connected by web) -->
        <path d="M 575,590 L 532,596" stroke="#0f172a" stroke-width="4.5" stroke-linecap="round"/>
        <path d="M 532,596 Q 526,598 528,603" stroke="#020617" stroke-width="2.8" fill="none"/>

        <!-- Toe 2 (Inner Forward Toe) -->
        <path d="M 575,590 L 585,612" stroke="#0f172a" stroke-width="5" stroke-linecap="round"/>
        <path d="M 585,612 Q 586,618 582,621" stroke="#020617" stroke-width="3" fill="none"/>

        <!-- Toe 3 (Middle Long Toe pressing forward pedal edge) -->
        <path d="M 575,590 L 620,608" stroke="#0f172a" stroke-width="5" stroke-linecap="round"/>
        <path d="M 620,608 Q 627,611 626,616" stroke="#020617" stroke-width="3" fill="none"/>

        <!-- Toe 4 (Outer Long Toe gripping over pedal outer cage) -->
        <path d="M 575,590 L 628,600" stroke="#0f172a" stroke-width="4.5" stroke-linecap="round"/>
        <path d="M 628,600 Q 635,602 633,607" stroke="#020617" stroke-width="2.8" fill="none"/>
      </g>
    </g>

    <!-- Near Side Pedal & Crank (Foreground Layer to show foot/pedal interlock) -->
    <g id="near-pedal-and-crank">
      <!-- Right Crank Arm (Pointing down-forward at ~38°) -->
      <line x1="530" y1="560" x2="575" y2="595" stroke="url(#chromeGrad)" stroke-width="10" stroke-linecap="round"/>
      <line x1="530" y1="560" x2="575" y2="595" stroke="#ffffff" stroke-width="3.5" stroke-linecap="round" opacity="0.8"/>
      <!-- Crank Center Bolt -->
      <circle cx="530" cy="560" r="7" fill="#1e293b"/>
      <circle cx="530" cy="560" r="3" fill="#cbd5e1"/>

      <!-- Right Pedal Platform & Cage -->
      <rect x="562" y="595" width="34" height="12" rx="3" transform="rotate(-15 579 601)" fill="#334155" stroke="#94a3b8" stroke-width="1.8"/>
      <!-- Amber Pedal Reflector -->
      <rect x="568" y="598" width="22" height="4" rx="1.5" transform="rotate(-15 579 600)" fill="#f59e0b"/>
      <circle cx="575" cy="595" r="4" fill="url(#chromeGrad)"/>
    </g>

    <!-- RIGHT WING (Foreground - Clear Indication of Feathers & Gripping Handlebars) -->
    <!--
        Feather Groups:
        1. Scapulars (lanceolate, silvery grey edged with blackish brown)
        2. Lesser & Median Coverts (tiled scalloped rows)
        3. Greater Coverts (longer overlapping feathers)
        4. Secondaries (trailing edge along forearm)
        5. Primaries (10 large flight feathers curving around handlebar)
    -->
    <g id="pelican-right-wing">
      <!-- Scapular Feathers (Over back and upper wing) -->
      <g id="scapulars">
        <path d="M 480,260 C 510,245 540,230 560,215 C 570,225 550,250 515,270 Z" fill="#cbd5e1" stroke="#334155" stroke-width="1.2"/>
        <path d="M 505,255 C 535,240 570,225 590,210 C 600,220 580,245 545,265 Z" fill="#e2e8f0" stroke="#334155" stroke-width="1.2"/>
        <path d="M 535,250 C 565,235 600,220 620,205 C 630,215 610,240 575,258 Z" fill="#f8fafc" stroke="#475569" stroke-width="1.2"/>
        <!-- Lanceolate Feather Shafts -->
        <line x1="485" y1="258" x2="550" y2="220" class="feather-line"/>
        <line x1="510" y1="253" x2="580" y2="215" class="feather-line"/>
        <line x1="540" y1="248" x2="610" y2="210" class="feather-line"/>
      </g>

      <!-- Lesser & Median Wing Coverts (Layered Scallops) -->
      <g id="wing-coverts">
        <!-- Row 1: Lesser Coverts -->
        <path d="M 550,235 Q 565,225 580,235 Q 595,225 610,235 Q 625,225 640,235 Q 655,225 670,235" fill="none" stroke="#475569" stroke-width="8" stroke-linecap="round"/>
        <path d="M 550,235 Q 565,225 580,235 Q 595,225 610,235 Q 625,225 640,235 Q 655,225 670,235" fill="none" stroke="#94a3b8" stroke-width="4" stroke-linecap="round"/>

        <!-- Row 2: Median Coverts -->
        <path d="M 565,248 Q 582,238 600,248 Q 618,238 635,248 Q 652,238 670,248 Q 688,238 705,248" fill="none" stroke="#334155" stroke-width="10" stroke-linecap="round"/>
        <path d="M 565,248 Q 582,238 600,248 Q 618,238 635,248 Q 652,238 670,248 Q 688,238 705,248" fill="none" stroke="#cbd5e1" stroke-width="5" stroke-linecap="round"/>

        <!-- Row 3: Greater Coverts -->
        <path d="M 580,262 C 600,250 630,250 650,262 C 670,250 700,250 720,262" fill="none" stroke="#1e293b" stroke-width="11" stroke-linecap="round"/>
        <path d="M 580,262 C 600,250 630,250 650,262 C 670,250 700,250 720,262" fill="none" stroke="#e2e8f0" stroke-width="4" stroke-linecap="round"/>
      </g>

      <!-- Secondary Flight Feathers (Trailing Edge along Forearm) -->
      <g id="secondaries">
        <!-- Individual overlapping secondary flight feathers -->
        <path d="M 570,265 C 585,295 600,320 610,335 C 618,335 625,325 620,305 L 595,265 Z" fill="url(#featherSilver)" stroke="#1e293b" stroke-width="1.2"/>
        <path d="M 590,265 C 605,295 620,320 630,335 C 638,335 645,325 640,305 L 615,265 Z" fill="url(#featherSilver)" stroke="#1e293b" stroke-width="1.2"/>
        <path d="M 610,265 C 625,295 640,320 650,335 C 658,335 665,325 660,305 L 635,265 Z" fill="url(#featherSilver)" stroke="#1e293b" stroke-width="1.2"/>
        <path d="M 630,265 C 645,295 660,320 670,335 C 678,335 685,325 680,305 L 655,265 Z" fill="url(#featherSilver)" stroke="#1e293b" stroke-width="1.2"/>
        <path d="M 650,265 C 665,295 680,318 690,330 C 698,330 705,320 700,300 L 675,265 Z" fill="url(#featherSilver)" stroke="#1e293b" stroke-width="1.2"/>

        <!-- Secondary Feather Quills / Shafts -->
        <line x1="580" y1="268" x2="612" y2="332" class="feather-line"/>
        <line x1="600" y1="268" x2="632" y2="332" class="feather-line"/>
        <line x1="620" y1="268" x2="652" y2="332" class="feather-line"/>
        <line x1="640" y1="268" x2="672" y2="332" class="feather-line"/>
        <line x1="660" y1="268" x2="692" y2="328" class="feather-line"/>
      </g>

      <!-- Primary Flight Feathers (Emarginated, Steered around Right Handlebar) -->
      <!-- Long, distinct primary remiges with slots, vanes, and quills -->
      <g id="primaries">
        <!-- P1 - P4 (Transition from wrist) -->
        <path d="M 680,260 C 710,285 745,305 765,320 C 772,318 775,310 768,295 L 710,255 Z" fill="#334155" stroke="#0f172a" stroke-width="1.2"/>
        <path d="M 700,255 C 730,278 770,295 795,308 C 802,305 804,298 795,285 L 725,250 Z" fill="#1e293b" stroke="#0f172a" stroke-width="1.2"/>

        <!-- P5 - P7 (Reaching and wrapping over the handlebar grip) -->
        <path d="M 715,248 C 750,265 795,280 825,290 C 832,286 833,278 820,270 L 740,242 Z" fill="#334155" stroke="#0f172a" stroke-width="1.2"/>
        <path d="M 730,242 C 770,255 818,265 848,272 C 855,268 855,260 838,255 L 755,238 Z" fill="#1e293b" stroke="#0f172a" stroke-width="1.2"/>

        <!-- P8 - P10 (Outer Primaries curling firmly around handlebar grip & brake lever) -->
        <path d="M 745,238 C 785,245 835,250 862,255 C 868,250 866,242 848,240 L 770,232 Z" fill="#0f172a" stroke="#020617" stroke-width="1.3"/>
        <path d="M 750,234 C 790,238 842,240 870,242 C 876,236 872,230 852,228 L 775,228 Z" fill="#1e293b" stroke="#020617" stroke-width="1.3"/>

        <!-- Primary Feather Shafts / Rachis (Crisp ivory lines) -->
        <line x1="690" y1="258" x2="765" y2="315" class="feather-line" stroke="#e2e8f0"/>
        <line x1="710" y1="252" x2="795" y2="302" class="feather-line" stroke="#e2e8f0"/>
        <line x1="725" y1="245" x2="825" y2="284" class="feather-line" stroke="#f8fafc"/>
        <line x1="740" y1="240" x2="846" y2="267" class="feather-line" stroke="#ffffff"/>
        <line x1="755" y1="235" x2="860" y2="250" class="feather-line" stroke="#ffffff"/>
        <line x1="760" y1="230" x2="868" y2="238" class="feather-line" stroke="#ffffff"/>

        <!-- Fine Barb Hatching Textures on Outer Vanes -->
        <path d="M 780,248 L 785,255 M 800,253 L 805,260 M 820,258 L 825,265 M 840,262 L 845,270" class="feather-barb"/>
      </g>

      <!-- Right Handlebar Grip & Brake Lever (Interlocking with Wing) -->
      <!-- Handlebar Drop Curve -->
      <path d="M 788,240 C 825,235 848,255 838,285 C 830,305 808,315 785,310" fill="none" stroke="#78350f" stroke-width="8" stroke-linecap="round"/>
      <!-- Honey Brown Perforated Leather Bar Tape -->
      <path d="M 810,245 L 815,253 M 825,255 L 830,263 M 835,270 L 838,280 M 830,290 L 825,298" stroke="#f59e0b" stroke-width="1.5"/>
      <!-- Gum Brake Hood & Drilled Chrome Lever -->
      <path d="M 830,255 C 845,253 852,260 848,270 Z" fill="#b45309"/>
      <path d="M 848,265 Q 858,285 852,305" fill="none" stroke="url(#chromeGrad)" stroke-width="4.5" stroke-linecap="round"/>
      <circle cx="853" cy="285" r="1.5" fill="#1e293b"/>
      <circle cx="852" cy="293" r="1.5" fill="#1e293b"/>
      <!-- Brake Cable gracefully arching to front caliper -->
      <path d="M 835,255 Q 855,275 845,350 Q 840,390 825,410" fill="none" stroke="#1e293b" stroke-width="2.5"/>
    </g>

    <!-- ELEGANT S-CURVED NECK (Full Breeding Plumage) -->
    <!--
        Plumage Features:
        1. Deep Velvety Chocolate-Chestnut / Mahogany Nape & Hindneck
        2. Bold, Crisp Snow-White Lateral Neck Stripe (Eye to Base of Neck)
        3. Rich Dark Chestnut Foreneck
    -->
    <g id="pelican-neck">
      <!-- 1. Hindneck: Dark Velvety Mahogany-Chestnut Strip -->
      <path d="M 590,205 C 570,165 570,120 610,85 C 625,72 645,68 650,68 C 640,85 615,115 605,150 C 598,175 608,195 620,210 Z" fill="url(#chestnutNeck)" stroke="#1c0701" stroke-width="1"/>

      <!-- 2. Distinctive Pure White Lateral Neck Stripe -->
      <path d="M 650,68 C 645,85 625,115 618,150 C 612,180 622,200 635,220 L 648,212 C 638,195 628,175 632,150 C 638,118 655,90 668,78 Z" fill="#ffffff" stroke="#e2e8f0" stroke-width="0.8"/>
      <!-- Soft shading on white stripe -->
      <path d="M 648,212 C 638,195 628,175 632,150 C 635,130 642,112 650,96" fill="none" stroke="#cbd5e1" stroke-width="2"/>

      <!-- 3. Foreneck: Deep Chestnut-Brown with Silvery Highlights at Base -->
      <path d="M 648,212 C 638,195 628,175 632,150 C 638,125 650,105 665,95 L 670,110 C 660,125 650,145 648,170 C 645,190 655,205 660,215 Z" fill="#451a03"/>
      <!-- Base of foreneck silvery sheen -->
      <path d="M 640,215 Q 652,225 665,225" fill="none" stroke="#e2e8f0" stroke-width="3" stroke-linecap="round"/>
    </g>

    <!-- CHARACTERISTIC LARGE EXPANDABLE GULAR POUCH (Breeding Scarlet Red) -->
    <!--
        California Brown Pelican (*Pelecanus occidentalis californicus*)
        is uniquely distinguished during courtship and peak breeding season
        by its intense, brilliant scarlet / carmine red gular pouch!
    -->
    <g id="gular-pouch">
      <!-- Outer Pouch Volume -->
      <path d="M 658,110 C 645,145 650,185 690,212 C 730,238 785,232 830,195 C 865,165 890,140 905,135 C 885,138 840,148 780,145 C 720,142 675,125 658,110 Z" fill="url(#pouchGrad)" stroke="#991b1b" stroke-width="1.8"/>

      <!-- Pouch Internal Vascular Radiance / Glow -->
      <path d="M 670,125 C 660,155 670,190 705,212 C 745,232 790,225 835,192 C 865,168 880,145 890,140 C 860,145 820,152 770,150 C 720,148 685,135 670,125 Z" fill="url(#pouchGaze)"/>

      <!-- Elastic Vascular Folds & Striations (Indicating thin, stretchy, living pouch skin) -->
      <path d="M 665,120 Q 668,160 705,195 Q 735,220 765,222" class="pouch-crease"/>
      <path d="M 680,125 Q 688,165 725,198 Q 755,218 785,215" class="pouch-crease"/>
      <path d="M 705,130 Q 715,168 750,195 Q 780,210 810,200" class="pouch-crease"/>
      <path d="M 735,135 Q 750,168 780,190 Q 810,198 838,180" class="pouch-crease"/>
      <path d="M 770,138 Q 790,165 820,180 Q 845,185 868,162" class="pouch-crease"/>
      <path d="M 810,140 Q 835,158 860,165" class="pouch-crease"/>

      <!-- Subtle sunlight edge highlight along lowest translucent boundary of pouch -->
      <path d="M 695,214 Q 745,236 805,218 Q 845,198 880,158" fill="none" stroke="#fca5a5" stroke-width="2.5" opacity="0.75" stroke-linecap="round"/>
    </g>

    <!-- HEAD, NUPTIAL CREST, EYE & BILL -->
    <g id="pelican-head">
      <!-- Occipital Nuptial Crest & Crown (Bright Golden / Straw-Yellow) -->
      <!-- Nuptial Feathers Lifting in the Sea Breeze -->
      <path d="M 625,70 Q 600,68 580,72 Q 605,78 625,80 Z" fill="#eab308" stroke="#ca8a04" stroke-width="0.8"/>
      <path d="M 628,65 Q 595,60 575,64 Q 600,72 630,73 Z" fill="#fde047" stroke="#eab308" stroke-width="0.8"/>
      <path d="M 632,58 Q 605,52 585,55 Q 610,65 635,68 Z" fill="#fef08a" stroke="#facc15" stroke-width="0.8"/>

      <!-- Crown Dome (Straw Yellow) -->
      <path d="M 628,68 C 625,52 642,42 665,42 C 685,42 698,52 705,65 C 695,62 675,60 655,62 C 640,63 632,65 628,68 Z" fill="url(#crownYellow)" stroke="#ca8a04" stroke-width="1"/>

      <!-- Creamy-White Forehead & Supercilium -->
      <path d="M 665,42 C 682,42 700,50 710,62 L 695,68 C 685,58 675,55 665,55 Z" fill="#fffbeb"/>

      <!-- Bare Facial Skin & Eye Region (Breeding Season Turquoise Orbital Ring) -->
      <path d="M 680,62 C 672,62 665,68 665,77 C 665,85 674,90 682,90 C 692,90 698,82 696,72 C 695,65 688,62 680,62 Z" fill="#38bdf8" stroke="#0284c7" stroke-width="1.2"/>
      <!-- Soft salmon/pink flush on lores (in front of eye) -->
      <path d="M 692,68 C 700,68 708,72 712,78 L 702,82 C 698,78 692,75 688,75 Z" fill="#f87171" opacity="0.8"/>

      <!-- Eye (Pale Straw Iris & Dark Pupil) -->
      <circle cx="680" cy="75" r="6" fill="#fef08a" stroke="#ca8a04" stroke-width="1"/>
      <circle cx="680" cy="75" r="3.2" fill="#090d16"/>
      <!-- Specular Highlight (Lively expression!) -->
      <circle cx="678.5" cy="73" r="1.3" fill="#ffffff"/>

      <!-- IMMENSE PELICAN BILL (Maxilla / Upper Mandible) -->
      <!--
          Culmen: Long, flattened dorsal ridge, slate-horn color,
          hooked downwards at tip (unguis), with salmon-red breeding flush
      -->
      <g id="upper-bill">
        <!-- Upper Mandible Base to Hooked Nail -->
        <path d="M 698,60 L 920,105 Q 930,107 934,115 Q 935,128 926,128 Q 922,128 920,120 L 702,82 Z" fill="url(#billGrad)" stroke="#475569" stroke-width="1.3"/>

        <!-- Downcurved Unguis (Hooked Nail at tip of bill) -->
        <path d="M 920,105 Q 932,108 935,116 Q 936,128 925,128 Q 920,123 920,118 Z" fill="#dc2626" stroke="#991b1b" stroke-width="1.2"/>
        <path d="M 922,112 Q 928,114 930,120" stroke="#fecaca" stroke-width="1.2" fill="none"/>

        <!-- Longitudinal Lateral Groove / Ridge running the length of the maxilla -->
        <path d="M 705,72 L 918,112" stroke="#475569" stroke-width="2" stroke-linecap="round"/>
        <path d="M 705,70 L 915,110" stroke="#f8fafc" stroke-width="1" stroke-linecap="round" opacity="0.8"/>

        <!-- Nostril / Basal bill keratin texture -->
        <path d="M 705,68 Q 720,70 735,74" stroke="#334155" stroke-width="1.8" fill="none"/>
      </g>

      <!-- Lower Mandible (Flexible, Slender Rami supporting Gular Pouch) -->
      <path d="M 700,82 L 920,120" stroke="#64748b" stroke-width="3" stroke-linecap="round"/>
      <path d="M 700,83 L 920,121" stroke="#fca5a5" stroke-width="1.5" stroke-linecap="round" opacity="0.85"/>
    </g>

    <!-- Wind & Speed Accents (Joyous Cycling Mood!) -->
    <g id="speed-whiskers" opacity="0.5" stroke="#ffffff" stroke-width="2" stroke-linecap="round">
      <line x1="945" y1="115" x2="975" y2="115"/>
      <line x1="935" y1="95" x2="960" y2="95"/>
      <line x1="885" y1="230" x2="915" y2="230"/>
    </g>

  </g>

  <!-- ================= FOREGROUND DETAILS ================= -->
  <!-- Vintage Chrome Bullet Headlight (Mounted to Fork Crown) -->
  <g id="vintage-headlight">
    <!-- Bracket -->
    <path d="M 788,385 L 810,365" stroke="url(#chromeGrad)" stroke-width="4.5" stroke-linecap="round"/>
    <!-- Bullet Casing -->
    <path d="M 805,355 C 795,365 805,378 818,378 L 832,374 C 836,368 836,362 832,358 Z" fill="url(#chromeGrad)" stroke="#475569" stroke-width="1.2"/>
    <!-- Convex Glass Lens with Prismatic Flutes -->
    <ellipse cx="832" cy="366" rx="4" ry="8" fill="#fef9c3" stroke="#cbd5e1" stroke-width="1.5"/>
    <ellipse cx="832" cy="366" rx="2" ry="5" fill="#ffffff" opacity="0.8"/>
  </g>

</svg>