<svg xmlns="http://www.w3.org/2000/svg" viewBox="0 0 1000 1000" width="100%" height="100%">
  <defs>
    <!-- Background Gradient -->
    <linearGradient id="bgGrad" x1="0%" y1="0%" x2="0%" y2="100%">
      <stop offset="0%" stop-color="#f5f7fa" />
      <stop offset="100%" stop-color="#e4e8ee" />
    </linearGradient>

    <!-- Podium Drop Shadow -->
    <radialGradient id="podiumDropShadow" cx="50%" cy="50%" r="50%">
      <stop offset="0%" stop-color="#1e2530" stop-opacity="0.22" />
      <stop offset="60%" stop-color="#1e2530" stop-opacity="0.12" />
      <stop offset="100%" stop-color="#1e2530" stop-opacity="0" />
    </radialGradient>

    <!-- Plinth Gradients -->
    <linearGradient id="plinthTop" x1="0%" y1="0%" x2="100%" y2="100%">
      <stop offset="0%" stop-color="#f7f2ea" />
      <stop offset="60%" stop-color="#ede3d1" />
      <stop offset="100%" stop-color="#dfd2bc" />
    </linearGradient>
    <linearGradient id="plinthSide" x1="0%" y1="0%" x2="100%" y2="0%">
      <stop offset="0%" stop-color="#9e8b74" />
      <stop offset="35%" stop-color="#b8a58d" />
      <stop offset="70%" stop-color="#c9b79f" />
      <stop offset="100%" stop-color="#806d57" />
    </linearGradient>

    <!-- Shadow filter for subtle contact and building cast shadow -->
    <filter id="softShadow" x="-20%" y="-20%" width="150%" height="150%">
      <feGaussianBlur in="SourceAlpha" stdDeviation="6" />
      <feColorMatrix type="matrix" values="0 0 0 0 0.2   0 0 0 0 0.16  0 0 0 0 0.18  0 0 0 0.35 0" />
      <feOffset dx="15" dy="18" />
      <feBlend in="SourceGraphic" in2="blurOut" mode="normal" />
    </filter>

    <filter id="distantHaze" x="-10%" y="-10%" width="120%" height="120%">
      <feGaussianBlur stdDeviation="0.8" />
    </filter>

    <!-- Architectural Merlon Definition (Step Cresting) -->
    <path id="merlonLight" d="M 0,0 L 4,0 L 4,-3 L 7,-3 L 7,-7 L 10,-7 L 10,-3 L 13,-3 L 13,0 L 17,0 L 17,3 L 0,3 Z" fill="#cf7f61" />
    <path id="merlonDark" d="M 0,0 L 4,0 L 4,-3 L 7,-3 L 7,-7 L 10,-7 L 10,-3 L 13,-3 L 13,0 L 17,0 L 17,3 L 0,3 Z" fill="#753c30" />

    <!-- Ruin Pillar Stub Definition -->
    <g id="ruinPillar">
      <ellipse cx="0" cy="5" rx="5" ry="2.5" fill="#4d3a2e" opacity="0.3" />
      <path d="M -4,0 L 4,-2 L 4,5 L -4,7 Z" fill="#9e5741" />
      <path d="M 0,1 L 4,-2 L 4,5 L 0,7 Z" fill="#7d3e2d" />
      <ellipse cx="0" cy="0" rx="4" ry="2" fill="#c47a62" />
    </g>

    <!-- Small Garden Tree in Court -->
    <g id="courtTree">
      <ellipse cx="0" cy="2" rx="4" ry="2" fill="#2d382e" opacity="0.25" />
      <path d="M -0.8,2 L 0.8,2 L 0.5,-4 L -0.5,-4 Z" fill="#523927" />
      <circle cx="0" cy="-6" r="3.5" fill="#3c6b41" />
      <circle cx="-1" cy="-7" r="2.5" fill="#568a5c" />
    </g>

    <style><![CDATA[
      @keyframes palmSway1 {
        0%, 100% { transform: rotate(0deg); }
        50% { transform: rotate(2.8deg); }
      }
      @keyframes palmSway2 {
        0%, 100% { transform: rotate(0deg); }
        50% { transform: rotate(-2.2deg); }
      }
      @keyframes palmSway3 {
        0%, 100% { transform: rotate(0deg); }
        50% { transform: rotate(3.2deg); }
      }
      .sway1 {
        transform-origin: 0px 0px;
        animation: palmSway1 6.5s ease-in-out infinite;
      }
      .sway2 {
        transform-origin: 0px 0px;
        animation: palmSway2 8s ease-in-out infinite;
      }
      .sway3 {
        transform-origin: 0px 0px;
        animation: palmSway3 7.2s ease-in-out infinite;
      }
    ]]></style>
  </defs>

  <!-- Background -->
  <rect width="1000" height="1000" fill="url(#bgGrad)" />

  <!-- Display Plinth Base Shadow -->
  <ellipse cx="500" cy="740" rx="410" ry="185" fill="url(#podiumDropShadow)" />

  <!-- ================= DISPLAY PODIUM (DIORAMA BASE) ================= -->
  <!-- Plinth Thickness / Cylinder Extrusion (Height: 46px) -->
  <path d="M 100,680 
           A 400 180 0 0 0 900 680 
           L 900 725 
           A 400 180 0 0 1 100 725 Z" 
        fill="url(#plinthSide)" />

  <!-- Plinth Base Rim Highlight/Chamfer -->
  <path d="M 100,725 A 400 180 0 0 0 900 725" fill="none" stroke="#63523f" stroke-width="2.5" />

  <!-- Plinth Top Face -->
  <ellipse cx="500" cy="680" rx="400" ry="180" fill="url(#plinthTop)" />
  <!-- Beveled Crisp Edge Highlight -->
  <ellipse cx="500" cy="680" rx="399.5" ry="179.5" fill="none" stroke="#ffffff" stroke-width="2" opacity="0.8" />
  <ellipse cx="500" cy="680" rx="397.5" ry="177.5" fill="none" stroke="#baa48b" stroke-width="1.2" opacity="0.6" />

  <!-- DIORAMA CONTENT CLIP / CONTAINER -->
  <g id="dioramaScene">
    <!-- Pavement & Surrounding Plaza Area Texture/Paving lines in miniature -->
    <path d="M 230,680 L 770,680" stroke="#d5c7b0" stroke-width="1.5" stroke-dasharray="10 20" opacity="0.4" />
    <path d="M 270,720 L 730,720" stroke="#d5c7b0" stroke-width="1.5" stroke-dasharray="8 16" opacity="0.3" />

    <!-- ================= 1. RUINS SITE OF EARLIER MOSQUE (远端矮柱基遗址) ================= -->
    <!-- Distant: softer, lower saturation, air perspective -->
    <g id="ruins" filter="url(#distantHaze)" opacity="0.85">
      <!-- Grid of column stubs (Nave remains of previous Almoravid mosque) -->
      <!-- Row 1 -->
      <use href="#ruinPillar" x="220" y="550" />
      <use href="#ruinPillar" x="250" y="540" />
      <use href="#ruinPillar" x="280" y="530" />
      <use href="#ruinPillar" x="310" y="520" />
      <use href="#ruinPillar" x="340" y="510" />
      <use href="#ruinPillar" x="370" y="500" />
      <use href="#ruinPillar" x="400" y="490" />
      <!-- Row 2 -->
      <use href="#ruinPillar" x="240" y="565" />
      <use href="#ruinPillar" x="270" y="555" />
      <use href="#ruinPillar" x="300" y="545" />
      <use href="#ruinPillar" x="330" y="535" />
      <use href="#ruinPillar" x="360" y="525" />
      <use href="#ruinPillar" x="390" y="515" />
      <use href="#ruinPillar" x="420" y="505" />
      <!-- Row 3 -->
      <use href="#ruinPillar" x="260" y="580" />
      <use href="#ruinPillar" x="290" y="570" />
      <use href="#ruinPillar" x="320" y="560" />
      <use href="#ruinPillar" x="350" y="550" />
      <use href="#ruinPillar" x="380" y="540" />
      <use href="#ruinPillar" x="410" y="530" />
      <use href="#ruinPillar" x="440" y="520" />
    </g>

    <!-- ================= ROSE GARDEN & PATHS (玫瑰园与小径) ================= -->
    <g id="roseGardens">
      <!-- Garden Bed Shadows -->
      <rect x="535" y="705" width="135" height="42" rx="14" fill="#30261c" opacity="0.18" />
      <rect x="685" y="665" width="105" height="38" rx="12" fill="#30261c" opacity="0.18" />
      <rect x="625" y="620" width="125" height="36" rx="12" fill="#30261c" opacity="0.18" />

      <!-- Deep Green Rounded Beds (受光与深绿材质) -->
      <rect x="530" y="700" width="135" height="42" rx="14" fill="#1b4528" stroke="#14361e" stroke-width="1.5" />
      <rect x="532" y="702" width="131" height="18" rx="9" fill="#255734" opacity="0.6" /> <!-- Highlight -->

      <rect x="680" y="660" width="105" height="38" rx="12" fill="#1b4528" stroke="#14361e" stroke-width="1.5" />
      <rect x="682" y="662" width="101" height="16" rx="8" fill="#255734" opacity="0.6" />

      <rect x="620" y="615" width="125" height="36" rx="12" fill="#1e4a2b" stroke="#14361e" stroke-width="1.5" />
      <rect x="622" y="617" width="121" height="15" rx="7" fill="#285c37" opacity="0.6" />

      <!-- Rose Blooms: miniature magenta / rose-pink dots scattered -->
      <!-- Bed 1 -->
      <circle cx="548" cy="714" r="2.2" fill="#d92b6b" />
      <circle cx="565" cy="725" r="1.8" fill="#e84381" />
      <circle cx="580" cy="712" r="2.5" fill="#c2185b" />
      <circle cx="598" cy="728" r="2"   fill="#e84381" />
      <circle cx="615" cy="716" r="2.4" fill="#d92b6b" />
      <circle cx="632" cy="727" r="1.9" fill="#c2185b" />
      <circle cx="648" cy="713" r="2.3" fill="#e84381" />
      <circle cx="560" cy="733" r="1.6" fill="#d92b6b" />
      <circle cx="620" cy="734" r="2"   fill="#ff5277" />

      <!-- Bed 2 -->
      <circle cx="698" cy="672" r="2"   fill="#d92b6b" />
      <circle cx="715" cy="682" r="2.3" fill="#e84381" />
      <circle cx="732" cy="670" r="1.8" fill="#c2185b" />
      <circle cx="750" cy="684" r="2.4" fill="#d92b6b" />
      <circle cx="768" cy="673" r="2.1" fill="#e84381" />

      <!-- Bed 3 -->
      <circle cx="638" cy="628" r="2.2" fill="#e84381" />
      <circle cx="658" cy="635" r="1.9" fill="#d92b6b" />
      <circle cx="678" cy="626" r="2.4" fill="#c2185b" />
      <circle cx="700" cy="636" r="2"   fill="#e84381" />
      <circle cx="722" cy="627" r="2.2" fill="#d92b6b" />
    </g>

    <!-- ================= TINY WHITE DOMED KOUBBA (广场一角极小白色圆顶小屋) ================= -->
    <!-- Located at the forward-right corner of the plaza -->
    <g id="koubba" transform="translate(735, 715)">
      <!-- Ground Shadow -->
      <ellipse cx="6" cy="10" rx="14" ry="6" fill="#2d261e" opacity="0.25" />
      <!-- Square Room Body: light face (left) and shade face (right) -->
      <!-- Left (lit) -->
      <path d="M -8,2 L 3,7 L 3,-5 L -8,-9 Z" fill="#fcfcfc" />
      <!-- Right (shade) -->
      <path d="M 3,7 L 14,2 L 14,-9 L 3,-5 Z" fill="#cfd6de" />
      <!-- Tiny Arched Doorway (with deep recess aperture) -->
      <path d="M -4,0 L -1,1.5 L -1,-4 Q -2.5,-6 -4,-4 Z" fill="#424b54" />
      <!-- Roof cornice band -->
      <polygon points="-8,-9 3,-5 14,-9 3,-12" fill="#edeef0" />
      <!-- Little White Dome -->
      <ellipse cx="3" cy="-12" rx="6.5" ry="4.5" fill="#cfd6de" />
      <path d="M -3.5,-12 A 6.5 6.5 0 0 1 9.5,-12 Z" fill="#ffffff" />
      <ellipse cx="2" cy="-14" rx="4" ry="3" fill="#ffffff" opacity="0.9" />
      <!-- Finial on dome -->
      <circle cx="3" cy="-19" r="1.2" fill="#c9962e" />
      <line x1="3" y1="-19" x2="3" y2="-17" stroke="#c9962e" stroke-width="0.8" />
    </g>

    <!-- ================= GROUND SHADOW CAST BY PRAYER HALL & MINARET ================= -->
    <!-- Sunlight from top-left (approx 45°), shadows stretch towards bottom-right -->
    <g id="buildingCastShadow" opacity="0.28">
      <!-- Minaret tall diagonal shadow -->
      <polygon points="340,650 490,750 450,775 320,660" fill="#2a1e17" />
      <!-- Prayer Hall broad shadow -->
      <polygon points="360,650 720,685 680,725 350,670" fill="#2a1e17" />
    </g>

    <!-- ================= 2. PRAYER HALL & COURTYARD (祈祷厅与庭院) ================= -->
    <!-- Proportions: Ridge height <= 1/6 Minaret total height (~420 total minaret height => ridge ~50-60px),
         Footprint width approx 1x Minaret height (~420px wide). -->
    <g id="prayerHallStructure">
      <!-- Base Plinth of the Mosque (赭红砂岩基座) -->
      <!-- Back / Side walls -->
      <!-- Lit wall (SW face) -->
      <polygon points="270,590 270,642 590,652 590,600" fill="#c77254" />
      <!-- Shade wall (SE face) -->
      <polygon points="590,652 690,610 690,560 590,600" fill="#753928" />
      <!-- Wall top edge highlight -->
      <line x1="270" y1="590" x2="590" y2="600" stroke="#e69175" stroke-width="1.5" />
      <!-- Ground contact ambient occlusion -->
      <path d="M 268,642 L 590,653 L 692,611" fill="none" stroke="#2b140d" stroke-width="2.5" opacity="0.4" />

      <!-- Square Courtyard (方形庭院) on one side (East flank of the hall) -->
      <!-- Sunken paved courtyard floor -->
      <polygon points="530,600 585,576 645,595 590,619" fill="#dfd0b7" stroke="#9c8770" stroke-width="1" />
      <polygon points="535,601 585,578 640,596 590,617" fill="#ccbca4" /> <!-- subtle ambient drop -->

      <!-- Ablution Fountain (净身泉) in Courtyard Center -->
      <!-- Water basin pool -->
      <ellipse cx="586" cy="597" rx="9" ry="5.5" fill="#315c54" stroke="#e8ded1" stroke-width="1.5" />
      <ellipse cx="586" cy="597" rx="7.5" ry="4" fill="#3a8275" />
      <!-- Central bubbling fountain jet ring / marble pillar -->
      <ellipse cx="586" cy="596" rx="2.5" ry="1.5" fill="#ffffff" />

      <!-- Rows of small courtyard trees (成排小树) -->
      <use href="#courtTree" x="552" y="594" />
      <use href="#courtTree" x="566" y="588" />
      <use href="#courtTree" x="580" y="582" />

      <use href="#courtTree" x="600" y="612" />
      <use href="#courtTree" x="614" y="606" />
      <use href="#courtTree" x="628" y="600" />

      <!-- PARALLEL GREEN TILE GABLED ROOFS (成排的绿色瓦坡屋顶并列) -->
      <!-- Authentic Moroccan mosque nave structure: 11 parallel gables of green ceramic tiles -->
      <!-- Left side of gable: lit (#4f8f5e), Right side of gable: shade (#2d5738), Ridge: highlight (#76b586) -->

      <!-- Nave 1 (Furthest Back) -->
      <polygon points="310,540 475,548 485,557 320,549" fill="#2d5738" />
      <polygon points="320,549 485,557 475,566 310,558" fill="#4f8f5e" />
      <line x1="320" y1="549" x2="485" y2="557" stroke="#76b586" stroke-width="1.2" />

      <!-- Nave 2 -->
      <polygon points="305,549 470,557 480,566 315,558" fill="#2d5738" />
      <polygon points="315,558 480,566 470,575 305,567" fill="#4f8f5e" />
      <line x1="315" y1="558" x2="480" y2="566" stroke="#76b586" stroke-width="1.2" />

      <!-- Nave 3 -->
      <polygon points="300,558 465,566 475,575 310,567" fill="#2d5738" />
      <polygon points="310,567 475,575 465,584 300,576" fill="#4f8f5e" />
      <line x1="310" y1="567" x2="475" y2="575" stroke="#76b586" stroke-width="1.2" />

      <!-- Nave 4 -->
      <polygon points="295,567 460,575 470,584 305,576" fill="#2d5738" />
      <polygon points="305,576 470,584 460,593 295,585" fill="#4f8f5e" />
      <line x1="305" y1="576" x2="470" y2="584" stroke="#76b586" stroke-width="1.2" />

      <!-- Nave 5 -->
      <polygon points="290,576 455,584 465,593 300,585" fill="#2d5738" />
      <polygon points="300,585 465,593 455,602 290,594" fill="#4f8f5e" />
      <line x1="300" y1="585" x2="465" y2="593" stroke="#76b586" stroke-width="1.2" />

      <!-- Nave 6 -->
      <polygon points="285,585 450,593 460,602 295,594" fill="#2d5738" />
      <polygon points="295,594 460,602 450,611 285,603" fill="#4f8f5e" />
      <line x1="295" y1="594" x2="450" y2="602" stroke="#76b586" stroke-width="1.2" />

      <!-- Nave 7 -->
      <polygon points="280,594 445,602 455,611 290,603" fill="#2d5738" />
      <polygon points="290,603 455,611 445,620 280,612" fill="#4f8f5e" />
      <line x1="290" y1="603" x2="445" y2="611" stroke="#76b586" stroke-width="1.2" />

      <!-- Nave 8 -->
      <polygon points="275,603 440,611 450,620 285,612" fill="#2d5738" />
      <polygon points="285,612 450,620 440,629 275,621" fill="#4f8f5e" />
      <line x1="285" y1="612" x2="450" y2="620" stroke="#76b586" stroke-width="1.2" />

      <!-- Nave 9 -->
      <polygon points="270,612 435,620 445,629 280,621" fill="#2d5738" />
      <polygon points="280,621 445,629 435,638 270,630" fill="#4f8f5e" />
      <line x1="280" y1="621" x2="445" y2="629" stroke="#76b586" stroke-width="1.2" />

      <!-- Nave 10 (Foreground Nave) -->
      <polygon points="265,621 430,629 440,638 275,630" fill="#2d5738" />
      <polygon points="275,630 440,638 430,647 265,639" fill="#3f7a4f" />
      <line x1="275" y1="630" x2="440" y2="638" stroke="#76b586" stroke-width="1.2" />

      <!-- Triangular Gable Ends facing West along the prayer hall facade -->
      <polygon points="270,590 285,585 285,594" fill="#c77254" />
      <polygon points="270,599 285,594 285,603" fill="#c77254" />
      <polygon points="270,608 285,603 285,612" fill="#c77254" />
      <polygon points="270,617 285,612 285,621" fill="#c77254" />
      <polygon points="270,626 285,621 285,630" fill="#c77254" />
      <polygon points="265,639 280,630 280,643" fill="#d47b5d" />
    </g>

    <!-- ================= 3-7. THE KOUTOUBIA MINARET (库图比亚宣礼塔) ================= -->
    <!-- Proportions:
         Total Height ~420px. Base width ~78px. Height-to-base ratio > 5:1 (420/78 = ~5.4:1).
         Main tower: 4/5 of total height = ~336px (Y: 590 up to Y: 254).
         Upper tower + dome + finial: 1/5 = ~84px (Y: 254 up to Y: 170).
         Upper tower width ~ 1/2 of main tower width (~40px vs ~78px).
    -->

    <!-- Tower Base Shadow Junction with Prayer Hall Roof -->
    <path d="M 215,595 L 305,625 L 305,585 Z" fill="#24140e" opacity="0.35" />

    <!-- ===== MAIN SHAFT (③ 主塔身) ===== -->
    <!-- Base coordinates: Corner SW: (220, 595), Center Front SE: (295, 625), East Corner: (365, 590) -->
    <!-- Top coordinates:  Corner SW: (220, 260), Center Front SE: (295, 290), East Corner: (365, 255) -->

    <!-- Main Tower Left Face (SUNLIT: Ocher sandstone / warm orange-terracotta) -->
    <polygon points="220,595 295,625 295,290 220,260" fill="#c26d50" />
    <!-- Bright Top-Left Rim Light -->
    <line x1="220" y1="260" x2="295" y2="290" stroke="#f29a7e" stroke-width="2" />
    <line x1="220" y1="260" x2="220" y2="595" stroke="#f4a389" stroke-width="1.5" />

    <!-- Main Tower Right Face (SHADE: Purplish-brown sandstone) -->
    <polygon points="295,625 365,590 365,255 295,290" fill="#783e30" />
    <!-- Corner divide crease shadow -->
    <line x1="295" y1="290" x2="295" y2="625" stroke="#5e2e22" stroke-width="1.8" />
    <!-- Bottom Ambient Occlusion Crease -->
    <line x1="295" y1="625" x2="365" y2="590" stroke="#421a11" stroke-width="2" opacity="0.6" />

    <!-- BAS-RELIEF BLIND ARCHES ON MAIN SHAFT (浅浮雕盲拱线条 - 4 Distinct Tiers/Panels) -->
    <!-- Front-Left Lit Face Decorative Relief (Rendered with crisp highlight & subtle inset shade) -->
    <g id="towerReliefFacadeLeft">
      <!-- Tier 1 (Lowest Register): Multi-foil Lobed Blind Arches -->
      <path d="M 235,535 L 235,490 Q 235,475 255,475 Q 275,475 275,490 L 275,550" 
            fill="none" stroke="#e08a6d" stroke-width="2.5" />
      <path d="M 235,535 L 235,490 Q 235,475 255,475 Q 275,475 275,490 L 275,550" 
            fill="none" stroke="#873f2c" stroke-width="1" transform="translate(1, 1)" />
      <!-- Inner slit window with deep aperture -->
      <rect x="252" y="492" width="6" height="15" rx="3" fill="#381b13" />

      <!-- Tier 2: Interlacing Arches (Sebka blind arcade base) -->
      <path d="M 233,455 C 233,430 252,430 252,410 C 252,430 273,430 273,455" 
            fill="none" stroke="#e08a6d" stroke-width="2" />
      <path d="M 243,458 C 243,438 262,438 262,418 C 262,438 281,438 281,458" 
            fill="none" stroke="#e08a6d" stroke-width="2" />
      <rect x="252" y="425" width="6" height="16" rx="3" fill="#381b13" />

      <!-- Tier 3: Lambrequin / Moroccan Horseshoe Arches with Alfiz frame -->
      <path d="M 232,395 L 232,350 L 278,368 L 278,413 Z" 
            fill="none" stroke="#873f2c" stroke-width="1.2" opacity="0.6" />
      <path d="M 238,390 L 238,365 Q 248,348 258,360 Q 268,348 273,372 L 273,403" 
            fill="none" stroke="#f09678" stroke-width="2.2" />
      <circle cx="256" cy="370" r="3" fill="#381b13" />
      <rect x="254" y="375" width="4.5" height="12" rx="2" fill="#381b13" />

      <!-- Tier 4 (Top Register): Classic Diamond Sebka Lozenge Lattice (菱格网纹) -->
      <g stroke="#f09678" stroke-width="1.8" fill="none">
        <path d="M 235,335 L 255,305 L 275,335 L 255,355 Z" />
        <path d="M 255,305 L 275,278" />
        <path d="M 235,335 L 255,362" />
        <path d="M 245,320 L 265,292" />
        <path d="M 265,348 L 245,320" />
      </g>
      <!-- Slit openings on top register -->
      <rect x="246" y="318" width="4" height="12" rx="2" fill="#381b13" />
      <rect x="261" y="324" width="4" height="12" rx="2" fill="#381b13" />
    </g>

    <!-- Right Face (In Shade) Arches (Merged into dark tone with subtle deep values) -->
    <g id="towerReliefFacadeRight" opacity="0.65">
      <path d="M 308,548 L 308,505 Q 328,490 348,500 L 348,530" 
            fill="none" stroke="#502419" stroke-width="2" />
      <rect x="325" y="508" width="5" height="14" rx="2.5" fill="#240c06" />

      <path d="M 307,468 C 315,445 330,448 338,430 C 345,448 355,445 358,460" 
            fill="none" stroke="#502419" stroke-width="2" />
      <rect x="326" y="438" width="5" height="15" rx="2.5" fill="#240c06" />

      <g stroke="#502419" stroke-width="1.8" fill="none">
        <path d="M 308,348 L 328,328 L 348,340 L 328,360 Z" />
        <path d="M 328,328 L 348,308" />
        <path d="M 318,338 L 338,318" />
      </g>
      <rect x="324" y="333" width="4" height="11" rx="2" fill="#240c06" />
    </g>

    <!-- ===== ④ CERAMIC TILE FRIEZE & STEPPED MERLONS (瓷砖带与阶梯状雉堞) ===== -->
    <!-- Ceramic Mosaic Tile Band: White (#ffffff) alternating with Emerald Green (#2f8f6a) -->
    <!-- Left Face Tile Band -->
    <polygon points="219,268 295,298 295,282 219,252" fill="#ffffff" />
    <g fill="#2f8f6a">
      <polygon points="222,267 228,269 228,255 222,253" />
      <polygon points="234,272 240,274 240,260 234,258" />
      <polygon points="246,277 252,279 252,265 246,263" />
      <polygon points="258,282 264,284 264,270 258,268" />
      <polygon points="270,287 276,289 276,275 270,273" />
      <polygon points="282,292 288,294 288,280 282,278" />
    </g>

    <!-- Right Face Tile Band (Darker emerald in shade) -->
    <polygon points="295,298 366,263 366,247 295,282" fill="#cfded8" />
    <g fill="#1b5e44">
      <polygon points="302,293 308,290 308,276 302,279" />
      <polygon points="314,287 320,284 320,270 314,273" />
      <polygon points="326,281 332,278 332,264 326,267" />
      <polygon points="338,275 344,272 344,258 338,261" />
      <polygon points="350,269 356,266 356,252 350,255" />
    </g>

    <!-- Cornice Stringcourse -->
    <polygon points="218,252 295,282 367,247 367,243 295,278 218,248" fill="#e89e84" />
    <line x1="218" y1="248" x2="295" y2="278" stroke="#ffffff" stroke-width="1.5" />

    <!-- Stepped Merlons / Crenellations (一圈阶梯状雉堞) -->
    <!-- Sunlit Left Edge Merlons -->
    <use href="#merlonLight" x="220" y="246" transform="rotate(22 220 246) scale(0.9)" />
    <use href="#merlonLight" x="238" y="253" transform="rotate(22 238 253) scale(0.9)" />
    <use href="#merlonLight" x="256" y="260" transform="rotate(22 256 260) scale(0.9)" />
    <use href="#merlonLight" x="274" y="267" transform="rotate(22 274 267) scale(0.9)" />

    <!-- Shaded Right Edge Merlons -->
    <use href="#merlonDark" x="296" y="277" transform="rotate(-26 296 277) scale(0.9)" />
    <use href="#merlonDark" x="313" y="269" transform="rotate(-26 313 269) scale(0.9)" />
    <use href="#merlonDark" x="330" y="261" transform="rotate(-26 330 261) scale(0.9)" />
    <use href="#merlonDark" x="347" y="253" transform="rotate(-26 347 253) scale(0.9)" />

    <!-- Gallery Platform Walkway visible inside merlons -->
    <polygon points="230,248 295,274 355,244 295,232" fill="#592b1f" />

    <!-- ===== ⑤ UPPER LANTERN TOWER (更小的方形小塔) ===== -->
    <!-- Proportions: ~1/2 the width of main tower (~40px wide). Height ~45px. -->
    <!-- Left Face (Lit) -->
    <polygon points="260,250 295,264 295,206 260,195" fill="#cf7759" />
    <line x1="260" y1="195" x2="295" y2="206" stroke="#fca990" stroke-width="1.5" />
    <line x1="260" y1="195" x2="260" y2="250" stroke="#fca990" stroke-width="1" />

    <!-- Right Face (Shade) -->
    <polygon points="295,264 330,248 330,192 295,206" fill="#753729" />
    <line x1="295" y1="206" x2="295" y2="264" stroke="#522216" stroke-width="1.2" />

    <!-- Sebka Lozenge Grid Panels on Lantern Tower (四面有菱格纹板) -->
    <!-- Left panel -->
    <g stroke="#f59c82" stroke-width="1.2" fill="none">
      <path d="M 267,238 L 277,222 L 287,238 L 277,248 Z" />
      <path d="M 277,222 L 287,208 L 293,218" />
      <path d="M 263,228 L 277,208" />
      <circle cx="277" cy="225" r="1.8" fill="#381b13" />
    </g>
    <!-- Right panel -->
    <g stroke="#522216" stroke-width="1.2" fill="none">
      <path d="M 302,246 L 312,232 L 322,242 L 312,252 Z" />
      <path d="M 312,232 L 322,220" />
      <circle cx="312" cy="235" r="1.5" fill="#290e07" />
    </g>

    <!-- Upper Lantern Frieze & Mini Merlons -->
    <polygon points="259,195 295,206 331,192 331,188 295,199 259,190" fill="#2f8f6a" />
    <polygon points="258,190 295,201 332,187 332,185 295,197 258,187" fill="#ffffff" />
    <!-- Miniature stepped cresting -->
    <path d="M 262,189 L 265,189 L 265,186 L 268,186 L 268,191 L 273,191 L 273,188 L 276,188 L 276,194 L 282,194 L 282,191 L 285,191 L 285,197 L 294,200 L 294,196 L 298,196 L 298,199 L 304,196 L 304,193 L 308,193 L 308,197 L 314,194 L 314,191 L 318,191 L 318,195 L 326,191" 
          fill="none" stroke="#cf7759" stroke-width="1.6" />

    <!-- ===== ⑥ RIBBED CUPOLA DOME (带竖向凹槽的小穹顶) ===== -->
    <!-- Dome Base Ring -->
    <ellipse cx="295" cy="188" rx="16" ry="7" fill="#693024" />
    <!-- Fluted Ribbed Dome Body -->
    <g id="flutedDome">
      <!-- Base hemisphere shape -->
      <path d="M 279,188 C 279,166 311,166 311,188 Z" fill="#803f2e" />
      <!-- Vertical Concave Flutes / Ribs (竖向凹槽) with alternating light/shadow strokes -->
      <path d="M 279,188 C 280,172 291,168 295,167" fill="none" stroke="#e38c71" stroke-width="2.2" />
      <path d="M 284,189 C 285,173 293,168 295,167" fill="none" stroke="#f7a892" stroke-width="2" />
      <path d="M 290,190 C 290,174 294,168 295,167" fill="none" stroke="#fca990" stroke-width="2.5" /> <!-- Center apex rib highlight -->
      <path d="M 296,190 C 296,174 296,168 295,167" fill="none" stroke="#b05840" stroke-width="1.8" />
      <path d="M 302,189 C 301,174 297,168 295,167" fill="none" stroke="#632517" stroke-width="2" />
      <path d="M 307,188 C 305,173 298,168 295,167" fill="none" stroke="#4a180d" stroke-width="2" />
    </g>

    <!-- ===== ⑦ GOLDEN ORBS JAMUR FINIAL (金铜色圆球与细杆) ===== -->
    <!-- Three graduated golden bronze globes (#c9962e) descending in size + vertical rod with offset slender lance -->
    <g id="finial">
      <!-- Central Spire Shaft -->
      <line x1="295" y1="172" x2="295" y2="108" stroke="#876116" stroke-width="2" />
      <line x1="294.2" y1="172" x2="294.2" y2="108" stroke="#e0b248" stroke-width="1" />

      <!-- Side Slender Rod / Caliph's Lance (旁边一根细杆) -->
      <line x1="299.5" y1="168" x2="299.5" y2="102" stroke="#4a3610" stroke-width="1" />
      <line x1="299" y1="168" x2="299" y2="102" stroke="#d6a93e" stroke-width="0.8" />
      <!-- Finial transverse bracket -->
      <line x1="294" y1="164" x2="300" y2="164" stroke="#c9962e" stroke-width="1.2" />

      <!-- Bottom Ball 1 (Largest, ~8px radius) -->
      <ellipse cx="295" cy="158" rx="8" ry="7.5" fill="#a1751d" />
      <ellipse cx="293" cy="156" rx="6.5" ry="6" fill="#c9962e" />
      <ellipse cx="291.5" cy="154.5" rx="3.5" ry="3" fill="#fadc73" />
      <circle cx="290.5" cy="153.5" r="1.5" fill="#ffffff" /> <!-- Specular hot-spot -->

      <!-- Middle Ball 2 (Medium, ~5.8px radius) -->
      <ellipse cx="295" cy="141" rx="6" ry="5.5" fill="#a1751d" />
      <ellipse cx="293.5" cy="139.5" rx="4.8" ry="4.4" fill="#c9962e" />
      <ellipse cx="292" cy="138" rx="2.5" ry="2.2" fill="#fadc73" />
      <circle cx="291.2" cy="137.5" r="1" fill="#ffffff" />

      <!-- Top Ball 3 (Smallest, ~3.8px radius) -->
      <ellipse cx="295" cy="127" rx="4" ry="3.7" fill="#a1751d" />
      <ellipse cx="294" cy="126" rx="3.2" ry="3" fill="#c9962e" />
      <ellipse cx="293" cy="125" rx="1.8" ry="1.5" fill="#fadc73" />
      <circle cx="292.5" cy="124.5" r="0.7" fill="#ffffff" />

      <!-- Spire Top Crown Terminal -->
      <polygon points="295,108 293,115 297,115" fill="#fadc73" />
      <circle cx="295" cy="107" r="1.5" fill="#ffffff" />
    </g>

    <!-- ================= PALM TREES (广场上的高瘦棕榈树 - 微缩模型) ================= -->
    <!-- Proportions: Tree height <= 1/3 Main Tower (~336px / 3 = 112px max).
         Detailed trunks, individual fronds that sway gently via SVG/CSS animations.
         Trunk pivots centered exactly at ground roots.
    -->

    <!-- PALM 1 (Left Fore-Plaza) -->
    <!-- Ground Footprint Shadow -->
    <ellipse cx="210" cy="690" rx="14" ry="6" fill="#2d2218" opacity="0.25" />
    <g transform="translate(210, 690)">
      <!-- Animated Tree Crown & Trunk -->
      <g class="sway1">
        <!-- Slender textured trunk -->
        <path d="M 0,0 C -5,-35 2,-70 -3,-100" fill="none" stroke="#694a32" stroke-width="4.2" stroke-linecap="round" />
        <path d="M 0,0 C -5,-35 2,-70 -3,-100" fill="none" stroke="#8a6749" stroke-width="2.2" stroke-dasharray="2 3.5" />
        <path d="M -0.5,0 C -5.5,-35 1.5,-70 -3.5,-100" fill="none" stroke="#3b2718" stroke-width="1" />
        <!-- Palm Fronds Canopy (at x: -3, y: -100) -->
        <g transform="translate(-3, -100)">
          <!-- Back Fronds (Dark Olive) -->
          <path d="M 0,0 Q -15,-20 -38,-15 Q -22,-5 0,0 Z" fill="#1b4221" />
          <path d="M 0,0 Q 15,-22 35,-18 Q 20,-6 0,0 Z" fill="#1e4725" />
          <path d="M 0,0 Q 25,-10 40,8 Q 20,6 0,0 Z" fill="#1b4221" />
          <!-- Front Fronds (Lit Vivid Green) -->
          <path d="M 0,0 Q -25,-12 -42,5 Q -22,0 0,0 Z" fill="#2c6934" />
          <path d="M 0,0 Q -20,-28 -28,-38 Q -10,-18 0,0 Z" fill="#3d8248" />
          <path d="M 0,0 Q 5,-30 12,-42 Q 8,-18 0,0 Z" fill="#4b9657" />
          <path d="M 0,0 Q -8,-15 -22,-24" stroke="#7ac487" stroke-width="0.8" fill="none" />
          <path d="M 0,0 Q 8,-16 18,-25" stroke="#7ac487" stroke-width="0.8" fill="none" />
          <!-- Dates Cluster / Heart of Palm -->
          <circle cx="-1" cy="1" r="2.8" fill="#a86820" />
          <circle cx="2" cy="2" r="2.2" fill="#c7802e" />
        </g>
      </g>
    </g>

    <!-- PALM 2 (Right Fore-Plaza, near Rose Garden) -->
    <!-- Ground Footprint Shadow -->
    <ellipse cx="505" cy="745" rx="16" ry="6.5" fill="#2d2218" opacity="0.25" />
    <g transform="translate(505, 745)">
      <g class="sway2">
        <!-- Trunk -->
        <path d="M 0,0 C 8,-35 2,-70 8,-106" fill="none" stroke="#694a32" stroke-width="4.5" stroke-linecap="round" />
        <path d="M 0,0 C 8,-35 2,-70 8,-106" fill="none" stroke="#8a6749" stroke-width="2.5" stroke-dasharray="2 3.5" />
        <path d="M -0.5,0 C 7.5,-35 1.5,-70 7.5,-106" fill="none" stroke="#3b2718" stroke-width="1.2" />
        <!-- Fronds Canopy (at x: 8, y: -106) -->
        <g transform="translate(8, -106)">
          <path d="M 0,0 Q -18,-22 -42,-18 Q -24,-6 0,0 Z" fill="#1b4221" />
          <path d="M 0,0 Q 18,-25 40,-20 Q 22,-8 0,0 Z" fill="#1e4725" />
          <path d="M 0,0 Q 26,-8 44,12 Q 22,8 0,0 Z" fill="#224f2a" />
          <path d="M 0,0 Q -26,-10 -46,8 Q -24,2 0,0 Z" fill="#2d6b36" />
          <path d="M 0,0 Q -15,-30 -22,-44 Q -8,-20 0,0 Z" fill="#3c8548" />
          <path d="M 0,0 Q 10,-32 18,-45 Q 10,-20 0,0 Z" fill="#4d9e5b" />
          <circle cx="0" cy="2" r="3" fill="#a86820" />
        </g>
      </g>
    </g>

    <!-- PALM 3 (Mid-ground, Plaza Perimeter - slightly smaller for depth) -->
    <!-- Ground Footprint Shadow -->
    <ellipse cx="795" cy="625" rx="12" ry="5" fill="#2d2218" opacity="0.22" />
    <g transform="translate(795, 625) scale(0.85)">
      <g class="sway3">
        <!-- Trunk -->
        <path d="M 0,0 C -4,-30 4,-65 0,-96" fill="none" stroke="#694a32" stroke-width="4.2" stroke-linecap="round" />
        <path d="M 0,0 C -4,-30 4,-65 0,-96" fill="none" stroke="#8a6749" stroke-width="2.2" stroke-dasharray="2 3.5" />
        <!-- Fronds Canopy (at x: 0, y: -96) -->
        <g transform="translate(0, -96)">
          <path d="M 0,0 Q -15,-18 -36,-14 Q -20,-5 0,0 Z" fill="#1b4221" />
          <path d="M 0,0 Q 16,-20 36,-16 Q 20,-6 0,0 Z" fill="#1e4725" />
          <path d="M 0,0 Q -22,-8 -38,7 Q -20,2 0,0 Z" fill="#296332" />
          <path d="M 0,0 Q 22,-8 38,8 Q 20,4 0,0 Z" fill="#34783e" />
          <path d="M 0,0 Q -8,-24 -16,-36 Q -6,-16 0,0 Z" fill="#418a4c" />
          <path d="M 0,0 Q 8,-25 15,-38 Q 8,-16 0,0 Z" fill="#4ea15b" />
          <circle cx="0" cy="1" r="2.5" fill="#a86820" />
        </g>
      </g>
    </g>

    <!-- PALM 4 (Far Left Background, near old ruins - softly atmospheric) -->
    <ellipse cx="170" cy="565" rx="9" ry="4" fill="#2d2218" opacity="0.18" />
    <g transform="translate(170, 565) scale(0.68)" filter="url(#distantHaze)">
      <g class="sway2">
        <path d="M 0,0 C 3,-28 -2,-60 2,-88" fill="none" stroke="#7a5d45" stroke-width="4" stroke-linecap="round" />
        <g transform="translate(2, -88)">
          <path d="M 0,0 Q -14,-16 -32,-12 Q -18,-4 0,0 Z" fill="#254d2b" />
          <path d="M 0,0 Q 14,-18 32,-14 Q 18,-5 0,0 Z" fill="#2a5731" />
          <path d="M 0,0 Q -20,-8 -34,6 Q -18,2 0,0 Z" fill="#3b7343" />
          <path d="M 0,0 Q 20,-8 34,7 Q 18,3 0,0 Z" fill="#468750" />
          <path d="M 0,0 Q 0,-24 0,-34 Q 4,-14 0,0 Z" fill="#589e63" />
        </g>
      </g>
    </g>

  </g>
</svg>