<svg xmlns="http://www.w3.org/2000/svg" xmlns:xlink="http://www.w3.org/1999/xlink" viewBox="0 0 1200 1000" width="1200" height="1000">
<defs>
  <linearGradient id="bg" x1="0" y1="0" x2="0" y2="1"><stop offset="0" stop-color="#dde5e8"/><stop offset="1" stop-color="#f6f2ea"/></linearGradient>
  <radialGradient id="topG" cx="0.35" cy="0.3" r="0.85"><stop offset="0" stop-color="#f4e9cf"/><stop offset="1" stop-color="#e0cba5"/></radialGradient>
  <linearGradient id="sideG" x1="0" y1="0" x2="1" y2="0"><stop offset="0" stop-color="#d0b58a"/><stop offset="0.5" stop-color="#bb9f74"/><stop offset="1" stop-color="#977b5c"/></linearGradient>
  <linearGradient id="fFront" x1="0" y1="0" x2="0" y2="1"><stop offset="0" stop-color="#c2694a"/><stop offset="1" stop-color="#dc8f5e"/></linearGradient>
  <linearGradient id="fRight" x1="0" y1="0" x2="0" y2="1"><stop offset="0" stop-color="#7a4049"/><stop offset="1" stop-color="#9a5755"/></linearGradient>
  <radialGradient id="roughHL" cx="0.15" cy="0.9" r="0.6"><stop offset="0" stop-color="#ffe2c0" stop-opacity="0.35"/><stop offset="1" stop-color="#ffe2c0" stop-opacity="0"/></radialGradient>
  <linearGradient id="aoBottom" x1="0" y1="0" x2="0" y2="1"><stop offset="0" stop-color="#3a1d2a" stop-opacity="0.32"/><stop offset="1" stop-color="#3a1d2a" stop-opacity="0"/></linearGradient>
  <linearGradient id="aoTop" x1="0" y1="0" x2="0" y2="1"><stop offset="0" stop-color="#3a1f3a" stop-opacity="0"/><stop offset="1" stop-color="#3a1f3a" stop-opacity="0.32"/></linearGradient>
  <linearGradient id="mGL" x1="0" y1="0" x2="0" y2="1"><stop offset="0" stop-color="#c9714e"/><stop offset="1" stop-color="#e8a074"/></linearGradient>
  <linearGradient id="mGS" x1="0" y1="0" x2="0" y2="1"><stop offset="0" stop-color="#7f444c"/><stop offset="1" stop-color="#9c5a5a"/></linearGradient>
  <radialGradient id="domeG" cx="0.3" cy="0.25" r="0.85"><stop offset="0" stop-color="#f0b185"/><stop offset="0.45" stop-color="#c97852"/><stop offset="1" stop-color="#7e4350"/></radialGradient>
  <radialGradient id="gold" cx="0.35" cy="0.3" r="0.75"><stop offset="0" stop-color="#fbe9a6"/><stop offset="0.45" stop-color="#d9a63a"/><stop offset="1" stop-color="#8d6120"/></radialGradient>
  <radialGradient id="leaf" cx="0.35" cy="0.3" r="0.8"><stop offset="0" stop-color="#78b85e"/><stop offset="0.55" stop-color="#3f7a3f"/><stop offset="1" stop-color="#2a5a38"/></radialGradient>
  <linearGradient id="roofSlope" x1="0" y1="0" x2="1" y2="1"><stop offset="0" stop-color="#38704f"/><stop offset="1" stop-color="#2a5a41"/></linearGradient>
  <linearGradient id="roofGable" x1="0" y1="0" x2="0" y2="1"><stop offset="0" stop-color="#62ad74"/><stop offset="1" stop-color="#3f7a4f"/></linearGradient>
  <linearGradient id="trunkG" x1="0" y1="0" x2="1" y2="0"><stop offset="0" stop-color="#c49a6c"/><stop offset="1" stop-color="#7a5642"/></linearGradient>
  <linearGradient id="basinG" x1="0" y1="0" x2="1" y2="0"><stop offset="0" stop-color="#ead9bc"/><stop offset="1" stop-color="#b09783"/></linearGradient>
  <linearGradient id="waterG" x1="0" y1="0" x2="1" y2="1"><stop offset="0" stop-color="#63a09b"/><stop offset="1" stop-color="#3d7380"/></linearGradient>
  <radialGradient id="hutDome" cx="0.3" cy="0.25" r="0.85"><stop offset="0" stop-color="#ffffff"/><stop offset="1" stop-color="#d3c8cd"/></radialGradient>
  <linearGradient id="shT" gradientUnits="userSpaceOnUse" x1="-210" y1="-95" x2="-30" y2="-170"><stop offset="0" stop-color="#5a3550" stop-opacity="0.45"/><stop offset="1" stop-color="#5a3550" stop-opacity="0"/></linearGradient>
  <linearGradient id="hazeG" x1="0" y1="0" x2="0" y2="1"><stop offset="0" stop-color="#f6efe0" stop-opacity="0.45"/><stop offset="1" stop-color="#f6efe0" stop-opacity="0"/></linearGradient>
  <linearGradient id="nearG" x1="0" y1="0" x2="0" y2="1"><stop offset="0" stop-color="#5a3d30" stop-opacity="0"/><stop offset="1" stop-color="#5a3d30" stop-opacity="0.12"/></linearGradient>

  <filter id="fb" filterUnits="userSpaceOnUse" x="-2000" y="-2000" width="5000" height="5000"><feGaussianBlur stdDeviation="2.5"/></filter>
  <filter id="fs" filterUnits="userSpaceOnUse" x="-2000" y="-2000" width="5000" height="5000"><feGaussianBlur stdDeviation="7"/></filter>
  <filter id="f1" filterUnits="userSpaceOnUse" x="-2000" y="-2000" width="5000" height="5000"><feGaussianBlur stdDeviation="1.2"/></filter>
  <filter id="ff" filterUnits="userSpaceOnUse" x="-2000" y="-2000" width="5000" height="5000"><feGaussianBlur stdDeviation="0.8"/></filter>
  <filter id="f8" filterUnits="userSpaceOnUse" x="-2000" y="-2000" width="5000" height="5000"><feGaussianBlur stdDeviation="9"/></filter>

  <clipPath id="topclip"><ellipse cx="600" cy="650" rx="480" ry="240"/></clipPath>

  <pattern id="grid" width="40" height="40" patternUnits="userSpaceOnUse"><path d="M0,0H40M0,0V40" stroke="#c9b48c" stroke-width="0.6" opacity="0.35" fill="none"/></pattern>
  <pattern id="ctile" width="12" height="12" patternUnits="userSpaceOnUse"><rect width="12" height="12" fill="#e8d6b2"/><path d="M0,0H12M0,0V12" stroke="#c9b083" stroke-width="0.6" fill="none"/></pattern>
  <pattern id="joints" width="16" height="12" patternUnits="userSpaceOnUse"><path d="M0,0.5H16M0,6.5H16M4,0V6M12,6V12" stroke="#7d3a28" stroke-width="0.5" opacity="0.28" fill="none"/></pattern>
  <pattern id="interl" width="12" height="16" patternUnits="userSpaceOnUse">
    <path d="M0,0V6Q1,13 6,16Q11,13 12,6V0M-6,0V6Q-5,13 0,16Q5,13 6,6V0M6,0V6Q7,13 12,16Q17,13 18,6V0" fill="none" stroke="#7a3a2a" stroke-width="0.8" stroke-opacity="0.75"/>
    <path d="M0,0V6Q1,13 6,16Q11,13 12,6V0M-6,0V6Q-5,13 0,16Q5,13 6,6V0M6,0V6Q7,13 12,16Q17,13 18,6V0" fill="none" stroke="#f4c49c" stroke-width="0.6" stroke-opacity="0.6" transform="translate(0.8,-0.8)"/>
  </pattern>
  <pattern id="lozenge" width="8" height="8" patternUnits="userSpaceOnUse" patternTransform="translate(6,9)">
    <path d="M0,0L8,8M8,0L0,8" stroke="#6f3424" stroke-width="0.7" stroke-opacity="0.75" fill="none"/>
    <path d="M0.9,-0.9L8.9,7.1M8.9,0.9L0.9,8.9" stroke="#f4c49c" stroke-width="0.5" stroke-opacity="0.6" fill="none"/>
  </pattern>
  <pattern id="tileBand" width="12" height="25" patternUnits="userSpaceOnUse" patternTransform="translate(0,5)">
    <rect width="12" height="25" fill="#f7f3e6"/>
    <rect width="12" height="3" fill="#2f8f6a"/><rect y="22" width="12" height="3" fill="#2f8f6a"/>
    <path d="M6,4.5L11,12.5L6,20.5L1,12.5Z" fill="#2f8f6a"/>
    <path d="M6,8.5L8.4,12.5L6,16.5L3.6,12.5Z" fill="#f7f3e6"/>
  </pattern>

  <path id="archP" d="M0,0V0.62Q0,0.88 0.5,1Q1,0.88 1,0.62V0Z" vector-effect="non-scaling-stroke"/>
  <g id="archR">
    <use xlink:href="#archP" fill="#7d3c2a" fill-opacity="0.34"/>
    <use xlink:href="#archP" fill="none" stroke="#7a3a2a" stroke-width="0.9" stroke-opacity="0.8"/>
    <use xlink:href="#archP" fill="none" stroke="#f4c49c" stroke-width="0.7" stroke-opacity="0.7" transform="translate(0.03,-0.01)"/>
  </g>
  <use id="archD" xlink:href="#archP" fill="#4a2540" fill-opacity="0.32"/>
  <path id="mer" d="M0,0H14V8H12V15H10.5V21H8.5V25H5.5V21H3.5V15H2V8H0Z" stroke="#6f3526" stroke-width="0.5" stroke-opacity="0.5" vector-effect="non-scaling-stroke"/>

  <g id="roofU">
    <path d="M14.4,-27.96L60.6,-77.46L75,-42.78L28.8,6.72Z" fill="url(#roofSlope)"/>
    <path d="M14.4,-27.96L60.6,-77.46" stroke="#7fc08f" stroke-width="1.1" stroke-linecap="round" opacity="0.85" fill="none"/>
    <path d="M28.8,6.72L75,-42.78" stroke="#1d4733" stroke-width="1.2" opacity="0.5" fill="none"/>
    <path d="M0,0L28.8,6.72L14.4,-27.96Z" fill="url(#roofGable)"/>
    <path d="M4.75,-9.23L24.05,-4.73M9.5,-18.45L19.3,-16.17" stroke="#2c6040" stroke-width="0.7" opacity="0.6" fill="none"/>
    <path d="M0,0L14.4,-27.96" stroke="#b6e3bd" stroke-width="1.2" opacity="0.85" fill="none" stroke-linecap="round"/>
    <path d="M0,0L28.8,6.72" stroke="#1f4a34" stroke-width="1.2" opacity="0.5" fill="none"/>
  </g>

  <g id="bay"><use xlink:href="#archR" transform="translate(0,6) scale(14,24)"/></g>

  <g id="cbA">
    <ellipse cx="14" cy="2" rx="10" ry="2.6" fill="#8a7078" opacity="0.28"/>
    <path d="M10.8,-3.57L15.84,-8.97L15.84,-2.88L10.8,2.52Z" fill="#c4a39a"/>
    <path d="M0,-6.09L10.8,-3.57L10.8,2.52L0,0Z" fill="#dcbba5"/>
    <path d="M0,-6.09L10.8,-3.57L15.84,-8.97L5.04,-11.49Z" fill="#efdcc8"/>
  </g>
  <g id="cbB">
    <ellipse cx="11" cy="1.5" rx="8" ry="2.2" fill="#8a7078" opacity="0.28"/>
    <path d="M8.1,-2.46L11.88,-6.51L11.88,-2.16L8.1,1.89Z" fill="#c4a39a"/>
    <path d="M0,-4.35L8.1,-2.46L8.1,1.89L0,0Z" fill="#dcbba5"/>
    <path d="M0,-4.35L8.1,-2.46L11.88,-6.51L3.78,-8.4Z" fill="#efdcc8"/>
  </g>

  <g id="bed">
    <rect x="0" y="2.5" width="100" height="60" rx="12" fill="#1d402d"/>
    <rect width="100" height="60" rx="12" fill="#2d5f3f"/>
    <rect x="4" y="4" width="92" height="52" rx="9" fill="#3a7449"/>
    <ellipse cx="25" cy="28" rx="10" ry="6" fill="#29563a" opacity="0.6"/>
    <ellipse cx="55" cy="40" rx="12" ry="6" fill="#29563a" opacity="0.6"/>
    <ellipse cx="78" cy="18" rx="9" ry="5" fill="#29563a" opacity="0.6"/>
    <g fill="#14301f" opacity="0.45">
      <circle cx="12.3" cy="15.3" r="2.4"/><circle cx="24.3" cy="42.3" r="3.4"/><circle cx="32.3" cy="20.3" r="3.4"/><circle cx="44.3" cy="11.3" r="2.4"/><circle cx="50.3" cy="37.3" r="2.4"/><circle cx="59.3" cy="23.3" r="3.4"/><circle cx="68.3" cy="13.3" r="2.4"/><circle cx="72.3" cy="42.3" r="3.4"/><circle cx="82.3" cy="30.3" r="2.4"/><circle cx="91.3" cy="15.3" r="3.4"/><circle cx="90.3" cy="46.3" r="2.4"/><circle cx="39.3" cy="50.3" r="3.4"/><circle cx="16.3" cy="31.3" r="2.4"/><circle cx="64.3" cy="49.3" r="2.4"/>
    </g>
    <circle cx="11" cy="14" r="2.4" fill="#d63a68"/><circle cx="23" cy="41" r="3.4" fill="#e8668a"/><circle cx="31" cy="19" r="3.4" fill="#c22c58"/><circle cx="43" cy="10" r="2.4" fill="#e8668a"/><circle cx="49" cy="36" r="2.4" fill="#d63a68"/><circle cx="58" cy="22" r="3.4" fill="#d63a68"/><circle cx="67" cy="12" r="2.4" fill="#c22c58"/><circle cx="71" cy="41" r="3.4" fill="#e8668a"/><circle cx="81" cy="29" r="2.4" fill="#c22c58"/><circle cx="90" cy="14" r="3.4" fill="#e8668a"/><circle cx="89" cy="45" r="2.4" fill="#d63a68"/><circle cx="38" cy="49" r="3.4" fill="#c22c58"/><circle cx="15" cy="30" r="2.4" fill="#e8668a"/><circle cx="63" cy="48" r="2.4" fill="#d63a68"/>
  </g>

  <g id="treeL">
    <ellipse cx="8" cy="2" rx="11" ry="4" fill="#5a4050" opacity="0.25" filter="url(#f1)"/>
    <rect x="-1.4" y="-8" width="2.8" height="8" fill="#6a4535"/>
    <circle cx="0" cy="-17" r="11.5" fill="url(#leaf)"/>
    <circle cx="-3.5" cy="-21" r="4" fill="#8cc870" opacity="0.5"/>
    <circle cx="4" cy="-15" r="1.4" fill="#e99a3c"/><circle cx="-4" cy="-13" r="1.2" fill="#e99a3c"/><circle cx="1" cy="-22" r="1.2" fill="#e99a3c"/>
  </g>
  <g id="treeS">
    <ellipse cx="6" cy="1.5" rx="8.5" ry="3.2" fill="#5a4050" opacity="0.25" filter="url(#f1)"/>
    <rect x="-1.2" y="-6" width="2.4" height="6" fill="#6a4535"/>
    <circle cx="0" cy="-13.5" r="8.8" fill="url(#leaf)"/>
    <circle cx="-2.8" cy="-16.8" r="3" fill="#8cc870" opacity="0.5"/>
    <circle cx="3.2" cy="-11.5" r="1.2" fill="#e99a3c"/><circle cx="-3" cy="-10" r="1" fill="#e99a3c"/>
  </g>

  <path id="fr" d="M0,0C8,-12 21,-12 30,3C21,-4 8,-4 0,0Z"/>
  <path id="rib" d="M0,0C8,-8 20,-8 30,3" fill="none" stroke="#bfe3a0" stroke-width="0.6" opacity="0.8"/>
  <g id="crown">
    <g opacity="0.24" fill="#4a9a58">
      <use xlink:href="#fr" transform="rotate(-80)"/><use xlink:href="#fr" transform="rotate(-20)"/><use xlink:href="#fr" transform="rotate(20)"/>
      <use xlink:href="#fr" transform="scale(-1,1) rotate(-70)"/><use xlink:href="#fr" transform="scale(-1,1) rotate(-10)"/><use xlink:href="#fr" transform="scale(-1,1) rotate(42)"/>
    </g>
    <g fill="#2e7544">
      <use xlink:href="#fr" transform="rotate(-88)"/><use xlink:href="#fr" transform="rotate(-58)"/><use xlink:href="#fr" transform="rotate(-28)"/><use xlink:href="#fr" transform="rotate(2)"/><use xlink:href="#fr" transform="rotate(26)"/>
    </g>
    <g fill="#5fa95a">
      <use xlink:href="#fr" transform="scale(-1,1) rotate(-78)"/><use xlink:href="#fr" transform="scale(-1,1) rotate(-48)"/><use xlink:href="#fr" transform="scale(-1,1) rotate(-18)"/><use xlink:href="#fr" transform="scale(-1,1) rotate(12)"/><use xlink:href="#fr" transform="scale(-1,1) rotate(34)"/>
    </g>
    <use xlink:href="#rib" transform="scale(-1,1) rotate(-78)"/><use xlink:href="#rib" transform="scale(-1,1) rotate(-48)"/><use xlink:href="#rib" transform="scale(-1,1) rotate(-18)"/><use xlink:href="#rib" transform="scale(-1,1) rotate(12)"/>
    <circle cx="-2" cy="3" r="1.7" fill="#8a5a2a"/><circle cx="2" cy="4" r="1.6" fill="#7a4e26"/><circle cx="0" cy="5" r="1.5" fill="#8a5a2a"/>
  </g>
  <g id="palm">
    <path d="M-3.4,0C-3,-26 -1,-52 -1.4,-74L1.4,-74C1.8,-52 3.6,-26 3.4,0Z" fill="url(#trunkG)"/>
    <path d="M-3.3,-9Q-1.3,-8 0.3,-9M-3.1,-18Q-1.1,-17 0.3,-18M-2.9,-27Q-0.9,-26 0.3,-27M-2.6,-36Q-0.6,-35 0.3,-36M-2.3,-45Q-0.3,-44 0.3,-45M-2,-54Q0,-53 0.3,-54M-1.8,-63Q0.2,-62 0.3,-63" stroke="#7a5238" stroke-width="0.6" fill="none" opacity="0.7"/>
    <g transform="translate(0,-74)"><use xlink:href="#crown"/></g>
  </g>
</defs>

<rect width="1200" height="1000" fill="url(#bg)"/>

<ellipse cx="610" cy="945" rx="500" ry="52" fill="#6b5a5e" opacity="0.28" filter="url(#f8)"/>
<path d="M120,650A480,240 0 0 0 1080,650V690A480,240 0 0 1 120,690Z" fill="url(#sideG)"/>
<path d="M120,690A480,240 0 0 0 1080,690" fill="none" stroke="#8a6f52" stroke-width="1.4" opacity="0.7"/>
<ellipse cx="600" cy="650" rx="480" ry="240" fill="url(#topG)"/>
<ellipse cx="600" cy="650" rx="477.5" ry="238.5" fill="none" stroke="#fff6de" stroke-width="2.4"/>

<g clip-path="url(#topclip)">
  <g transform="translate(-70,0)">
    <g transform="matrix(0.9,0.21,-0.42,0.45,600,650)">
      <rect x="-700" y="-700" width="1400" height="1400" fill="url(#grid)"/>
      <rect x="-300" y="62" width="535" height="30" fill="#f8efd8" opacity="0.75" stroke="#dcc79e" stroke-width="0.8"/>
      <rect x="-345" y="166" width="680" height="34" fill="#f8efd8" opacity="0.75" stroke="#dcc79e" stroke-width="0.8"/>
      <rect x="-31" y="92" width="33" height="240" fill="#f8efd8" opacity="0.75" stroke="#dcc79e" stroke-width="0.8"/>

      <rect x="238" y="-118" width="174" height="172" fill="#a98f66" opacity="0.55"/>
      <rect x="240" y="-120" width="170" height="170" fill="#e1cba3"/>
      <rect x="240" y="-120" width="170" height="170" fill="none" stroke="#f7ecd3" stroke-width="2.4"/>
      <rect x="248" y="-112" width="154" height="154" fill="url(#ctile)" stroke="#c7ad7e" stroke-width="1"/>

      <polygon points="-255,-140 -100,-213 -10,-213 -10,-123 -165,-50 -255,-50" fill="url(#shT)" filter="url(#fs)"/>
      <polygon points="-255,-50 -215,-69 265,-69 265,41 225,60 -255,60" fill="#5a3550" opacity="0.2" filter="url(#fs)"/>
      <rect x="-255" y="60" width="480" height="9" fill="#3a2030" opacity="0.22" filter="url(#fb)"/>
      <rect x="225" y="-50" width="9" height="110" fill="#3a2030" opacity="0.22" filter="url(#fb)"/>
      <rect x="-165" y="-140" width="7" height="90" fill="#3a2030" opacity="0.22" filter="url(#fb)"/>

      <use xlink:href="#bed" transform="translate(-310,95) scale(1.1,1.15)"/>
      <use xlink:href="#bed" transform="translate(-165,95) scale(1.35,1.1)"/>
      <use xlink:href="#bed" transform="translate(2,98) scale(1.2,1)"/>
      <use xlink:href="#bed" transform="translate(155,95) scale(1.3,1.15)"/>
      <use xlink:href="#bed" transform="translate(-260,205) scale(1,0.85)"/>
      <use xlink:href="#bed" transform="translate(-125,200) scale(1.45,0.95)"/>
      <use xlink:href="#bed" transform="translate(55,205) scale(1.2,0.9)"/>
      <use xlink:href="#bed" transform="translate(205,200) scale(0.9,0.9)"/>
    </g>
  </g>
  <rect x="0" y="410" width="1200" height="150" fill="url(#hazeG)"/>
  <rect x="0" y="770" width="1200" height="130" fill="url(#nearG)"/>
</g>

<g transform="translate(-70,0)">

<g filter="url(#ff)" opacity="0.92">
  <use xlink:href="#cbA" x="517.6" y="456.5"/><use xlink:href="#cbB" x="544.6" y="462.8"/><use xlink:href="#cbA" x="571.6" y="469.1"/><use xlink:href="#cbA" x="598.6" y="475.4"/><use xlink:href="#cbB" x="625.6" y="481.7"/>
  <use xlink:href="#cbA" x="652.6" y="488"/><use xlink:href="#cbB" x="679.6" y="494.3"/><use xlink:href="#cbA" x="706.6" y="500.6"/><use xlink:href="#cbA" x="733.6" y="506.9"/><use xlink:href="#cbB" x="760.6" y="513.2"/>
  <use xlink:href="#cbA" x="787.6" y="519.5"/><use xlink:href="#cbB" x="814.6" y="525.8"/><use xlink:href="#cbA" x="841.6" y="532.1"/><use xlink:href="#cbA" x="868.6" y="538.4"/><use xlink:href="#cbB" x="895.6" y="544.7"/>
  <use xlink:href="#cbA" x="922.6" y="551"/><use xlink:href="#cbB" x="949.6" y="557.3"/><use xlink:href="#cbA" x="976.6" y="563.6"/><use xlink:href="#cbA" x="1003.6" y="569.9"/>
</g>

<g id="tower">
  <g transform="matrix(0.9,0.21,0,-0.87,391.5,573.95)">
    <rect width="90" height="330" fill="url(#fFront)"/>
    <rect width="90" height="330" fill="url(#joints)"/>
    <rect width="90" height="330" fill="url(#roughHL)"/>
    <rect width="90" height="9" fill="url(#aoBottom)"/>
    <rect x="4" y="16" width="82" height="306" fill="none" stroke="#7a3a2a" stroke-width="0.8" stroke-opacity="0.5" vector-effect="non-scaling-stroke"/>
    <g transform="translate(10,22) scale(28,88)"><use xlink:href="#archR"/></g>
    <g transform="translate(52,22) scale(28,88)"><use xlink:href="#archR"/></g>
    <g transform="translate(16,28) scale(16,56)"><use xlink:href="#archR"/></g>
    <g transform="translate(58,28) scale(16,56)"><use xlink:href="#archR"/></g>
    <g transform="translate(42,48) scale(6,30)"><use xlink:href="#archR"/></g>
    <path d="M4,114H86M4,196H86" stroke="#7a3a2a" stroke-width="1" opacity="0.55" fill="none" vector-effect="non-scaling-stroke"/>
    <path d="M4,112.6H86M4,194.6H86" stroke="#f4c49c" stroke-width="0.7" opacity="0.6" fill="none" vector-effect="non-scaling-stroke"/>
    <g transform="translate(6,126) scale(22,58)"><use xlink:href="#archR"/></g>
    <g transform="translate(34,126) scale(22,58)"><use xlink:href="#archR"/></g>
    <g transform="translate(62,126) scale(22,58)"><use xlink:href="#archR"/></g>
    <g transform="translate(12,134) scale(10,28)"><use xlink:href="#archR"/></g>
    <g transform="translate(40,134) scale(10,28)"><use xlink:href="#archR"/></g>
    <g transform="translate(68,134) scale(10,28)"><use xlink:href="#archR"/></g>
    <rect x="9" y="203" width="72" height="112" fill="#8a4630" fill-opacity="0.18"/>
    <rect x="9" y="203" width="72" height="112" fill="url(#interl)" transform="translate(0,0)"/>
    <rect x="9" y="203" width="72" height="112" fill="none" stroke="#7a3a2a" stroke-width="0.9" stroke-opacity="0.7" vector-effect="non-scaling-stroke"/>
    <rect x="88.6" width="1.4" height="330" fill="#f6c79d" opacity="0.35"/>
    <rect y="330" width="90" height="25" fill="url(#tileBand)"/>
    <rect y="330" width="90" height="2.2" fill="#5a2a2a" opacity="0.22"/>
    <rect y="353.6" width="90" height="1.4" fill="#fffdf2" opacity="0.85"/>
  </g>

  <g transform="matrix(-0.42,0.45,0,-0.87,510.3,552.35)">
    <rect width="90" height="330" fill="url(#fRight)"/>
    <use xlink:href="#archD" transform="translate(12,22) scale(66,88)"/>
    <use xlink:href="#archD" transform="translate(22,30) scale(46,60)"/>
    <use xlink:href="#archD" transform="translate(10,126) scale(32,58)"/>
    <use xlink:href="#archD" transform="translate(48,126) scale(32,58)"/>
    <use xlink:href="#archD" transform="translate(8,206) scale(22,32)"/><use xlink:href="#archD" transform="translate(34,206) scale(22,32)"/><use xlink:href="#archD" transform="translate(60,206) scale(22,32)"/>
    <use xlink:href="#archD" transform="translate(8,244) scale(22,32)"/><use xlink:href="#archD" transform="translate(34,244) scale(22,32)"/><use xlink:href="#archD" transform="translate(60,244) scale(22,32)"/>
    <use xlink:href="#archD" transform="translate(8,282) scale(22,32)"/><use xlink:href="#archD" transform="translate(34,282) scale(22,32)"/><use xlink:href="#archD" transform="translate(60,282) scale(22,32)"/>
    <rect width="90" height="6" fill="#3e2040" fill-opacity="0.4"/>
    <rect y="330" width="90" height="25" fill="url(#tileBand)"/>
    <rect y="330" width="90" height="25" fill="#3f2750" fill-opacity="0.42"/>
    <rect y="330" width="90" height="2.2" fill="#2a1630" fill-opacity="0.3"/>
  </g>

  <polygon points="429.3,224.6 510.3,243.5 472.5,284 391.5,265.1" fill="#e5a470"/>
  <g transform="matrix(0.9,0.21,-0.42,0.45,600,341.15)">
    <polygon points="-232.5,-117.5 -212.5,-126.5 -167.5,-126.5 -167.5,-81.5 -187.5,-72.5 -232.5,-72.5" fill="#7a4048" opacity="0.32" filter="url(#f1)"/>
  </g>

  <g transform="matrix(0.9,0.21,0,-0.87,429.3,224.6)">
    <use xlink:href="#mer" fill="url(#mGL)" x="0.5"/><use xlink:href="#mer" fill="url(#mGL)" x="15.5"/><use xlink:href="#mer" fill="url(#mGL)" x="30.5"/><use xlink:href="#mer" fill="url(#mGL)" x="45.5"/><use xlink:href="#mer" fill="url(#mGL)" x="60.5"/><use xlink:href="#mer" fill="url(#mGL)" x="75.5"/>
  </g>
  <g transform="matrix(-0.42,0.45,0,-0.87,429.3,224.6)">
    <use xlink:href="#mer" fill="url(#mGS)" x="0.5"/><use xlink:href="#mer" fill="url(#mGS)" x="15.5"/><use xlink:href="#mer" fill="url(#mGS)" x="30.5"/><use xlink:href="#mer" fill="url(#mGS)" x="45.5"/><use xlink:href="#mer" fill="url(#mGS)" x="60.5"/><use xlink:href="#mer" fill="url(#mGS)" x="75.5"/>
  </g>

  <g transform="matrix(-0.42,0.45,0,-0.87,480.6,248.9)">
    <rect width="45" height="54" fill="url(#fRight)"/>
    <rect x="6" y="9" width="33" height="36" fill="#4a2540" fill-opacity="0.3"/>
    <rect y="47" width="45" height="7" fill="#a86660"/>
    <rect width="45" height="4" fill="#4b2540" fill-opacity="0.35"/>
  </g>
  <g transform="matrix(0.9,0.21,0,-0.87,421.2,259.7)">
    <rect width="45" height="54" fill="url(#fFront)"/>
    <rect width="45" height="54" fill="url(#joints)"/>
    <rect x="6" y="9" width="33" height="36" fill="#8a4630" fill-opacity="0.28"/>
    <rect x="6" y="9" width="33" height="36" fill="url(#lozenge)"/>
    <rect x="6" y="9" width="33" height="36" fill="none" stroke="#7a3a2a" stroke-width="0.9" stroke-opacity="0.75" vector-effect="non-scaling-stroke"/>
    <rect y="45" width="45" height="2" fill="#5a2a2a" opacity="0.25"/>
    <rect y="47" width="45" height="7" fill="#e8a874"/>
    <rect y="52.6" width="45" height="1.4" fill="#fff0d6" opacity="0.8"/>
    <rect width="45" height="5" fill="url(#aoBottom)"/>
  </g>
  <polygon points="421.2,212.7 461.7,222.2 480.6,201.9 439.95,192.5" fill="#e8a672"/>

  <ellipse cx="453" cy="208.8" rx="24" ry="12" fill="#5a2a36" opacity="0.28" filter="url(#f1)"/>
  <g transform="translate(450.9,207.3)">
    <path d="M-22,0C-22,-18 -10,-23 0,-23C10,-23 22,-18 22,0A22,11 0 0 1 -22,0Z" fill="url(#domeG)"/>
    <g fill="none" stroke="#7a3a3f" stroke-width="0.9" opacity="0.6">
      <path d="M0,-23Q-15,-9 -17,7"/><path d="M0,-23Q-8,-9 -9,10"/><path d="M0,-23Q0,-9 0,11"/><path d="M0,-23Q8,-9 9,10"/><path d="M0,-23Q15,-9 17,7"/>
    </g>
    <g fill="none" stroke="#f6c9a0" stroke-width="0.7" opacity="0.55" transform="translate(1.3,0)">
      <path d="M0,-23Q-15,-9 -17,7"/><path d="M0,-23Q-8,-9 -9,10"/><path d="M0,-23Q0,-9 0,11"/>
    </g>
    <path d="M-22,0A22,11 0 0 0 22,0" fill="none" stroke="#6a3140" stroke-width="0.8" opacity="0.5"/>
  </g>
  <path d="M450.9,187V149" stroke="#a8761f" stroke-width="1.6" stroke-linecap="round"/>
  <path d="M450.3,187V150" stroke="#f0d080" stroke-width="0.5" opacity="0.6"/>
  <polygon points="450.9,145 449.9,150 451.9,150" fill="#c9962e"/>
  <circle cx="450.9" cy="180" r="6.5" fill="url(#gold)"/>
  <circle cx="450.9" cy="167.5" r="5" fill="url(#gold)"/>
  <circle cx="450.9" cy="158.5" r="3.5" fill="url(#gold)"/>
  <circle cx="448.9" cy="177.8" r="1.4" fill="#fff6d0" opacity="0.8"/>

  <g transform="matrix(0.9,0.21,0,-0.87,391.5,265.1)">
    <use xlink:href="#mer" fill="url(#mGL)" x="0.5"/><use xlink:href="#mer" fill="url(#mGL)" x="15.5"/><use xlink:href="#mer" fill="url(#mGL)" x="30.5"/><use xlink:href="#mer" fill="url(#mGL)" x="45.5"/><use xlink:href="#mer" fill="url(#mGL)" x="60.5"/><use xlink:href="#mer" fill="url(#mGL)" x="75.5"/>
  </g>
  <g transform="matrix(-0.42,0.45,0,-0.87,510.3,243.5)">
    <use xlink:href="#mer" fill="url(#mGS)" x="0.5"/><use xlink:href="#mer" fill="url(#mGS)" x="15.5"/><use xlink:href="#mer" fill="url(#mGS)" x="30.5"/><use xlink:href="#mer" fill="url(#mGS)" x="45.5"/><use xlink:href="#mer" fill="url(#mGS)" x="60.5"/><use xlink:href="#mer" fill="url(#mGS)" x="75.5"/>
  </g>
</g>

<g id="hall">
  <g transform="matrix(0.9,0.21,0,-0.87,345.3,623.45)">
    <rect width="480" height="40" fill="url(#fFront)"/>
    <rect width="480" height="40" fill="url(#joints)"/>
    <use xlink:href="#bay" x="9"/><use xlink:href="#bay" x="41"/><use xlink:href="#bay" x="73"/><use xlink:href="#bay" x="105"/><use xlink:href="#bay" x="137"/>
    <use xlink:href="#bay" x="169"/><use xlink:href="#bay" x="201"/><use xlink:href="#bay" x="233"/><use xlink:href="#bay" x="265"/><use xlink:href="#bay" x="297"/>
    <use xlink:href="#bay" x="329"/><use xlink:href="#bay" x="361"/><use xlink:href="#bay" x="393"/><use xlink:href="#bay" x="425"/><use xlink:href="#bay" x="457"/>
    <rect width="480" height="5" fill="url(#aoBottom)"/>
    <rect y="33" width="480" height="7" fill="url(#aoTop)"/>
    <rect y="38.6" width="480" height="1.4" fill="#f6c79d" opacity="0.6"/>
  </g>
  <g transform="matrix(-0.42,0.45,0,-0.87,823.5,674.75)">
    <rect width="110" height="40" fill="url(#fRight)"/>
    <use xlink:href="#archD" transform="translate(9,6) scale(24,26)"/><use xlink:href="#archD" transform="translate(43,6) scale(24,26)"/><use xlink:href="#archD" transform="translate(77,6) scale(24,26)"/>
    <rect width="110" height="5" fill="#3a1f3a" fill-opacity="0.34"/>
    <rect y="33" width="110" height="7" fill="url(#aoTop)"/>
  </g>
  <use xlink:href="#roofU" x="345.3" y="588.65"/><use xlink:href="#roofU" x="374.1" y="595.37"/><use xlink:href="#roofU" x="402.9" y="602.09"/><use xlink:href="#roofU" x="431.7" y="608.81"/><use xlink:href="#roofU" x="460.5" y="615.53"/>
  <use xlink:href="#roofU" x="489.3" y="622.25"/><use xlink:href="#roofU" x="518.1" y="628.97"/><use xlink:href="#roofU" x="546.9" y="635.69"/><use xlink:href="#roofU" x="575.7" y="642.41"/><use xlink:href="#roofU" x="604.5" y="649.13"/>
  <use xlink:href="#roofU" x="633.3" y="655.85"/><use xlink:href="#roofU" x="662.1" y="662.57"/><use xlink:href="#roofU" x="690.9" y="669.29"/><use xlink:href="#roofU" x="719.7" y="676.01"/><use xlink:href="#roofU" x="748.5" y="682.73"/>
</g>

<use xlink:href="#treeL" x="877.8" y="660"/><use xlink:href="#treeS" x="908.6" y="666.7"/><use xlink:href="#treeL" x="935.4" y="672.5"/><use xlink:href="#treeL" x="963" y="680.8"/><use xlink:href="#treeS" x="993.5" y="686.9"/>

<g>
  <ellipse cx="915" cy="705" rx="27" ry="10" fill="#5a4352" opacity="0.25" filter="url(#f1)"/>
  <path d="M884.2,696V702.5A23,11.5 0 0 0 930.2,702.5V696Z" fill="url(#basinG)"/>
  <ellipse cx="907.2" cy="696" rx="23" ry="11.5" fill="#f2e4c9" stroke="#c9b08a" stroke-width="0.6"/>
  <ellipse cx="907.2" cy="696.4" rx="19" ry="9.2" fill="#7a5a5c"/>
  <ellipse cx="907.2" cy="698" rx="18" ry="8.4" fill="url(#waterG)"/>
  <ellipse cx="900" cy="695.5" rx="7" ry="2.6" fill="#2d5a4a" opacity="0.4"/>
  <ellipse cx="915" cy="699" rx="5" ry="2" fill="#7a4550" opacity="0.3"/>
  <path d="M893,701Q899,706.5 909,706.5" fill="none" stroke="#e4f6f0" stroke-width="0.9" opacity="0.7"/>
  <g transform="translate(907.2,698)">
    <ellipse rx="16" ry="7.4" fill="none" stroke="#eaf8f4" stroke-width="0.8" opacity="0">
      <animateTransform attributeName="transform" type="scale" values="0.2;1" keyTimes="0;1" dur="6s" calcMode="spline" keySplines="0.3 0 0.5 1" repeatCount="indefinite"/>
      <animate attributeName="opacity" values="0;0.8;0" keyTimes="0;0.3;1" dur="6s" calcMode="spline" keySplines="0.4 0 0.6 1;0.4 0 0.6 1" repeatCount="indefinite"/>
    </ellipse>
    <ellipse rx="16" ry="7.4" fill="none" stroke="#eaf8f4" stroke-width="0.8" opacity="0">
      <animateTransform attributeName="transform" type="scale" values="0.2;1" keyTimes="0;1" dur="6s" begin="-3s" calcMode="spline" keySplines="0.3 0 0.5 1" repeatCount="indefinite"/>
      <animate attributeName="opacity" values="0;0.8;0" keyTimes="0;0.3;1" dur="6s" begin="-3s" calcMode="spline" keySplines="0.4 0 0.6 1;0.4 0 0.6 1" repeatCount="indefinite"/>
    </ellipse>
  </g>
  <path d="M905.2,697V690H909.2V697Z" fill="#e7d6bb"/>
  <path d="M907.2,689Q903,683 899.5,694M907.2,689Q911.4,683 915,694" fill="none" stroke="#eaf8f4" stroke-width="1" opacity="0.85"/>
</g>

<use xlink:href="#treeS" x="823.2" y="718.5"/><use xlink:href="#treeL" x="853" y="725.2"/><use xlink:href="#treeS" x="880.8" y="731"/><use xlink:href="#treeL" x="909.6" y="739.2"/><use xlink:href="#treeL" x="938.4" y="745.4"/>

<g transform="translate(788,826)">
  <ellipse cx="26" cy="2" rx="26" ry="6" fill="#5a4352" opacity="0.28" filter="url(#f1)"/>
  <polygon points="0,0 21.6,5.04 21.6,-7.14 0,-12.18" fill="#f6efe0"/>
  <polygon points="21.6,5.04 31.68,-5.76 31.68,-17.94 21.6,-7.14" fill="#cbbdc0"/>
  <polygon points="0,-12.18 21.6,-7.14 31.68,-17.94 10.08,-22.98" fill="#fffaf0"/>
  <g transform="matrix(0.9,0.21,0,-0.87,0,0)">
    <path d="M7,0V6Q7,10 11,10Q15,10 15,6V0Z" fill="#6b4a50"/>
    <path d="M8.5,0V5.5Q8.5,8.5 11,8.5Q13.5,8.5 13.5,5.5V0Z" fill="#4a3039"/>
  </g>
  <rect x="0" y="-12.18" width="21.6" height="1" fill="#fff" opacity="0.7" transform="skewY(13.2)"/>
  <g transform="translate(15.84,-15.06)">
    <path d="M-11,0C-11,-9 -5,-12 0,-12C5,-12 11,-9 11,0A11,5.5 0 0 1 -11,0Z" fill="url(#hutDome)"/>
    <circle cx="0" cy="-12.6" r="1" fill="#ffffff"/>
  </g>
</g>

<ellipse cx="265" cy="653" rx="22" ry="4.5" fill="#5a4352" opacity="0.22" filter="url(#f1)"/>
<ellipse cx="335" cy="752" rx="22" ry="4.5" fill="#5a4352" opacity="0.22" filter="url(#f1)"/>
<ellipse cx="520" cy="816" rx="24" ry="5" fill="#5a4352" opacity="0.22" filter="url(#f1)"/>
<ellipse cx="706" cy="838" rx="22" ry="4.5" fill="#5a4352" opacity="0.22" filter="url(#f1)"/>
<ellipse cx="917" cy="789" rx="22" ry="4.5" fill="#5a4352" opacity="0.22" filter="url(#f1)"/>

<g transform="translate(249,650.3) scale(0.86)"><g>
  <animateTransform attributeName="transform" type="rotate" values="-1.6 0 0;1.6 0 0;-1.6 0 0" keyTimes="0;0.5;1" dur="6.5s" calcMode="spline" keySplines="0.45 0 0.55 1;0.45 0 0.55 1" repeatCount="indefinite"/>
  <use xlink:href="#palm"/></g></g>
<g transform="translate(321,749.3) scale(0.94)"><g>
  <animateTransform attributeName="transform" type="rotate" values="-1.6 0 0;1.6 0 0;-1.6 0 0" keyTimes="0;0.5;1" dur="7.5s" begin="-2s" calcMode="spline" keySplines="0.45 0 0.55 1;0.45 0 0.55 1" repeatCount="indefinite"/>
  <use xlink:href="#palm"/></g></g>
<g transform="translate(502.2,813.5) scale(1.04)"><g>
  <animateTransform attributeName="transform" type="rotate" values="-1.6 0 0;1.6 0 0;-1.6 0 0" keyTimes="0;0.5;1" dur="8.5s" begin="-4s" calcMode="spline" keySplines="0.45 0 0.55 1;0.45 0 0.55 1" repeatCount="indefinite"/>
  <use xlink:href="#palm"/></g></g>
<g transform="translate(690,835.4) scale(0.9)"><g>
  <animateTransform attributeName="transform" type="rotate" values="-1.6 0 0;1.6 0 0;-1.6 0 0" keyTimes="0;0.5;1" dur="7s" begin="-1s" calcMode="spline" keySplines="0.45 0 0.55 1;0.45 0 0.55 1" repeatCount="indefinite"/>
  <use xlink:href="#palm"/></g></g>
<g transform="translate(900.6,785.9) scale(0.98)"><g>
  <animateTransform attributeName="transform" type="rotate" values="-1.6 0 0;1.6 0 0;-1.6 0 0" keyTimes="0;0.5;1" dur="9s" begin="-5s" calcMode="spline" keySplines="0.45 0 0.55 1;0.45 0 0.55 1" repeatCount="indefinite"/>
  <use xlink:href="#palm"/></g></g>

</g>
</svg>